<?xml version="1.0" encoding="utf-8"?>
<!DOCTYPE svg PUBLIC "-//W3C//DTD SVG 1.1//EN" "http://www.w3.org/Graphics/SVG/1.1/DTD/svg11.dtd">
<svg version="1.1" id="Calque_1" xmlns="http://www.w3.org/2000/svg" xmlns:xlink="http://www.w3.org/1999/xlink" x="0px" y="0px"
	 viewBox="0 0 566.93 566.93" enable-background="new 0 0 566.93 566.93" xml:space="preserve">
  <g class="animated rotateInDownLeft delay3s">
    <path fill="#CBE1B7" d="M121.306,385.172c2.356-1.809,4.827-2.531,7.454-2.164c2.65,0.35,4.849,1.688,6.621,3.996
      c1.406,1.832,2.124,3.854,2.136,6.037c-0.002,0.342-0.174,0.512-0.54,0.527l-3.51,0.01c-0.403-0.031-0.573-0.205-0.523-0.582
      c0.066-1.146-0.301-2.266-1.086-3.289c-1.973-2.57-4.855-2.779-7.593-0.68l-1.381,1.061c-2.689,2.062-3.234,4.902-1.262,7.473
      c0.749,0.978,1.691,1.613,2.853,1.896c0.355,0.067,0.52,0.282,0.434,0.612l-0.929,3.474c-0.039,0.295-0.384,0.483-0.649,0.388
      c-2.046-0.55-3.788-1.783-5.231-3.664c-1.808-2.357-2.531-4.826-2.211-7.416c0.343-2.609,1.681-4.81,4.038-6.615L121.306,385.172z"
      />
    <path fill="#CBE1B7" d="M146.797,401.312c0.278-0.103,0.531-0.054,0.739,0.162l0.499,0.52c0.208,0.217,0.244,0.473,0.133,0.746
      l-8.596,20.11c-0.154,0.314-0.536,0.351-0.766,0.113l-2.702-2.813c-0.229-0.238-0.266-0.494-0.153-0.767l0.755-1.684
      c0.111-0.316,0.074-0.572-0.112-0.767l-4.447-4.631c-0.187-0.193-0.44-0.242-0.761-0.143l-1.712,0.688
      c-0.278,0.101-0.531,0.053-0.759-0.186l-2.702-2.812c-0.229-0.238-0.179-0.619,0.142-0.76L146.797,401.312z M135.686,410.402
      c-0.214,0.082-0.238,0.229-0.092,0.381l2.66,2.77c0.145,0.15,0.294,0.133,0.383-0.078l2.046-4.625
      c0.088-0.211-0.078-0.385-0.291-0.305L135.686,410.402z"/>
    <path fill="#CBE1B7" d="M157.178,411.752c0.172-0.207,0.534-0.219,0.741-0.047l7.162,5.936c1.294,1.072,2.004,2.521,2.09,4.345
      c0.104,1.803-0.406,3.403-1.575,4.813l-0.133,0.162c-1.82,2.195-4.503,2.893-6.93,2.246c-0.22-0.064-0.403,0.016-0.491,0.217
      c-0.863,1.935-0.516,4.055,0.982,5.49c0.235,0.234,0.236,0.469,0.025,0.723l-2.03,2.449c-0.173,0.209-0.529,0.262-0.737,0.09
      c-1.732-1.436-2.812-3.188-3.198-5.262c-0.363-2.055,0.001-4.092,1.091-6.113c0.129-0.203,0.09-0.391-0.094-0.545l-1.317-1.092
      c-0.185-0.152-0.354-0.137-0.507,0.049l-4.251,5.127c-0.173,0.209-0.511,0.24-0.719,0.068l-2.888-2.396
      c-0.277-0.229-0.301-0.481-0.091-0.735L157.178,411.752z M155.053,421.84c-0.153,0.185-0.138,0.354,0.047,0.506l2.38,1.974
      c1.225,1.016,2.699,0.836,3.771-0.459l0.135-0.162c1.072-1.293,0.983-2.691-0.287-3.744l-2.379-1.974
      c-0.186-0.153-0.354-0.139-0.507,0.047L155.053,421.84z"/>
    <path fill="#CBE1B7" d="M174.121,425.318c0.147-0.226,0.48-0.293,0.707-0.146l11.316,7.463c0.227,0.148,0.319,0.498,0.17,0.724
      l-1.815,2.754c-0.149,0.227-0.506,0.276-0.731,0.129l-7.462-4.92c-0.175-0.115-0.341-0.082-0.457,0.094l-2.047,3.105
      c-0.116,0.174-0.082,0.34,0.093,0.456l5.409,3.564c0.275,0.184,0.336,0.475,0.154,0.748l-1.585,2.404
      c-0.149,0.225-0.506,0.276-0.731,0.129l-5.409-3.566c-0.175-0.115-0.341-0.08-0.474,0.119l-1.948,2.955
      c-0.115,0.176-0.082,0.342,0.094,0.457l7.463,4.92c0.225,0.147,0.317,0.496,0.17,0.723l-1.816,2.754
      c-0.149,0.226-0.506,0.277-0.732,0.129l-11.317-7.463c-0.226-0.147-0.293-0.479-0.146-0.705L174.121,425.318z"/>
    <path fill="#CBE1B7" d="M194.064,448.291c1.21-2.711,3.037-4.523,5.493-5.465c2.456-0.939,5.026-0.812,7.737,0.397
      c2.712,1.211,4.523,3.037,5.464,5.492c0.941,2.457,0.812,5.027-0.398,7.738l-0.709,1.59c-1.21,2.711-3.049,4.551-5.505,5.49
      c-2.443,0.914-5.014,0.785-7.725-0.426c-2.712-1.209-4.524-3.037-5.478-5.466c-0.939-2.457-0.799-5.055,0.411-7.766L194.064,448.291
      z M197.792,451.859c-1.431,3.205-0.493,5.889,2.438,7.196s5.555,0.211,6.984-2.991l0.709-1.591c1.43-3.205,0.493-5.889-2.438-7.194
      c-2.93-1.31-5.554-0.213-6.983,2.989L197.792,451.859z"/>
    <path fill="#CBE1B7" d="M221.103,449.717c0.081-0.258,0.381-0.416,0.64-0.336l12.974,4.051c0.258,0.08,0.415,0.382,0.335,0.64
      l-0.984,3.149c-0.08,0.258-0.381,0.416-0.638,0.336l-8.563-2.674c-0.2-0.062-0.352,0.017-0.413,0.217l-1.458,4.668
      c-0.072,0.23,0.007,0.38,0.208,0.443l6.186,1.93c0.258,0.08,0.444,0.392,0.364,0.648l-0.858,2.75
      c-0.081,0.258-0.361,0.453-0.677,0.354l-6.188-1.93c-0.199-0.063-0.35,0.016-0.412,0.215l-1.94,6.215
      c-0.081,0.259-0.41,0.406-0.668,0.326l-3.58-1.117c-0.258-0.079-0.415-0.381-0.335-0.639L221.103,449.717z"/>
    <path fill="#CBE1B7" d="M248.225,457.15c0.038-0.269,0.339-0.468,0.606-0.431l3.712,0.529c0.267,0.039,0.471,0.309,0.433,0.576
      l-1.106,7.778c-0.03,0.209,0.071,0.345,0.31,0.378l7.69,1.096c0.208,0.029,0.344-0.072,0.373-0.279l1.107-7.781
      c0.038-0.266,0.339-0.467,0.606-0.428l3.711,0.529c0.268,0.037,0.472,0.309,0.433,0.576l-2.84,19.952
      c-0.038,0.269-0.309,0.472-0.577,0.435l-3.711-0.529c-0.268-0.037-0.501-0.312-0.463-0.58l1.082-7.602
      c0.034-0.238-0.068-0.373-0.276-0.402l-7.689-1.096c-0.238-0.033-0.374,0.068-0.407,0.307l-1.082,7.603
      c-0.038,0.266-0.31,0.471-0.577,0.432l-3.712-0.527c-0.267-0.039-0.5-0.313-0.462-0.582L248.225,457.15z"/>
    <path fill="#CBE1B7" d="M272.305,459.971c0.013-0.271,0.265-0.498,0.535-0.485l3.776,0.186c0.269,0.014,0.496,0.264,0.483,0.535
      l-0.983,20.139c-0.015,0.271-0.266,0.498-0.535,0.484l-3.776-0.187c-0.27-0.012-0.498-0.264-0.484-0.532L272.305,459.971z"/>
    <path fill="#CBE1B7" d="M296.471,461.322c0.275,0.201,0.313,0.438,0.112,0.717l-2.128,2.979c-0.202,0.246-0.529,0.347-0.775,0.113
      c-0.925-0.75-1.927-1.108-2.977-1.076c-1.709,0.056-2.529,0.681-2.492,1.851l0.003,0.09c0.038,1.229,1.074,1.707,4.211,2.207
      c4.013,0.625,6.054,2.541,6.155,5.811l0.005,0.119c0.065,2.068-0.633,3.771-2.122,5.049s-3.449,1.939-5.938,2.019
      c-2.489,0.08-5.25-0.854-7.214-2.232c-0.245-0.143-0.317-0.528-0.112-0.746l2.153-3.039c0.202-0.276,0.44-0.284,0.718-0.084
      c1.14,0.927,2.871,1.562,4.31,1.517c2.279-0.072,3.273-0.914,3.235-2.113l-0.004-0.121c0.097-0.752-0.521-1.244-1.101-1.555
      c-0.151-0.086-0.455-0.197-0.88-0.303l-1.027-0.238l-1.328-0.258c-0.062-0.029-0.151-0.025-0.271-0.052l-1.45-0.284
      c-0.332-0.08-0.818-0.275-1.428-0.556c-0.579-0.281-1.068-0.598-1.412-0.977c-0.652-0.729-1.328-2.148-1.385-3.947l-0.005-0.121
      c-0.061-1.947,0.58-3.529,1.893-4.74c1.343-1.215,3.122-1.868,5.342-1.94C292.657,459.342,294.626,459.969,296.471,461.322"/>
    <path fill="#CBE1B7" d="M311.9,458.457c-0.051-0.266,0.142-0.545,0.406-0.596l9.263-1.729c1.682-0.313,3.219,0.07,4.676,1.172
      c1.451,1.07,2.357,2.49,2.693,4.289l0.037,0.205c0.357,1.918,0.043,3.656-0.925,5.18s-2.38,2.459-4.237,2.808l-4.425,0.826
      c-0.235,0.043-0.332,0.184-0.293,0.391l1.194,6.4c0.062,0.323-0.084,0.534-0.407,0.594l-3.687,0.688
      c-0.325,0.062-0.535-0.084-0.597-0.407L311.9,458.457z M317.643,461.262c-0.236,0.043-0.332,0.185-0.288,0.42l0.897,4.808
      c0.044,0.235,0.185,0.332,0.42,0.289l2.979-0.558c1.562-0.293,2.373-1.512,2.069-3.135l-0.038-0.207
      c-0.309-1.65-1.47-2.473-3.092-2.17L317.643,461.262z"/>
    <path fill="#CBE1B7" d="M332.488,454.285c-0.079-0.258,0.109-0.566,0.367-0.646l8.887-2.733c1.606-0.494,3.205-0.295,4.778,0.633
      c1.562,0.899,2.624,2.207,3.162,3.955l0.061,0.201c0.838,2.723-0.048,5.35-1.919,7.024c-0.174,0.146-0.207,0.347-0.088,0.527
      c1.145,1.783,3.106,2.654,5.129,2.188c0.325-0.067,0.521,0.06,0.619,0.375l0.935,3.039c0.078,0.259-0.069,0.586-0.329,0.666
      c-2.149,0.662-4.208,0.604-6.152-0.211c-1.916-0.821-3.42-2.242-4.513-4.262c-0.1-0.221-0.276-0.291-0.508-0.221l-1.635,0.504
      c-0.229,0.069-0.308,0.221-0.238,0.449l1.959,6.364c0.079,0.258-0.079,0.56-0.338,0.638l-3.584,1.104
      c-0.344,0.105-0.567-0.014-0.666-0.328L332.488,454.285z M339.756,461.59c0.069,0.229,0.222,0.31,0.449,0.238l2.953-0.908
      c1.521-0.469,2.178-1.801,1.684-3.404l-0.062-0.2c-0.494-1.605-1.711-2.3-3.288-1.814l-2.953,0.908
      c-0.229,0.072-0.309,0.221-0.237,0.451L339.756,461.59z"/>
    <path fill="#CBE1B7" d="M356.17,456.369c-1.214-2.711-1.345-5.283-0.406-7.74c0.938-2.459,2.749-4.287,5.461-5.5
      s5.282-1.344,7.74-0.406c2.458,0.938,4.288,2.75,5.5,5.461l0.711,1.591c1.213,2.711,1.356,5.309,0.418,7.768
      c-0.951,2.43-2.762,4.26-5.474,5.473s-5.282,1.345-7.729,0.435c-2.457-0.939-4.299-2.779-5.512-5.49L356.17,456.369z
       M361.317,455.973c1.436,3.205,4.062,4.3,6.99,2.986c2.932-1.311,3.865-3.998,2.433-7.201l-0.71-1.59
      c-1.435-3.203-4.061-4.297-6.99-2.986c-2.932,1.312-3.865,3.998-2.433,7.201L361.317,455.973z"/>
    <path fill="#CBE1B7" d="M377.228,435.959c-0.134-0.234-0.042-0.561,0.191-0.695l3.29-1.86c0.234-0.136,0.562-0.043,0.695,0.19
      l7.524,13.289c0.739,1.306,0.958,2.664,0.645,4.119c-0.289,1.439-1.171,2.559-2.634,3.387c-1.176,0.666-2.391,1.078-3.711,1.24
      c-0.361,0.033-0.572-0.158-0.554-0.549l0.008-2.971c-0.002-0.31,0.125-0.449,0.404-0.504c0.306-0.07,0.648-0.195,0.987-0.388
      c0.81-0.459,1.003-1.396,0.604-2.1L377.228,435.959z"/>
    <path fill="#CBE1B7" d="M386.229,430.693c-0.153-0.224-0.094-0.558,0.13-0.711l11.151-7.718c0.223-0.151,0.581-0.108,0.734,0.113
      l1.878,2.713c0.154,0.224,0.068,0.574-0.153,0.728l-7.354,5.09c-0.172,0.119-0.203,0.285-0.083,0.459l2.117,3.059
      c0.118,0.172,0.285,0.203,0.459,0.084l5.33-3.688c0.271-0.189,0.562-0.138,0.751,0.137l1.64,2.367
      c0.153,0.223,0.067,0.574-0.154,0.727l-5.329,3.689c-0.173,0.119-0.203,0.287-0.065,0.481l2.015,2.912
      c0.119,0.172,0.286,0.203,0.459,0.084l7.354-5.088c0.222-0.154,0.58-0.11,0.733,0.111l1.878,2.715
      c0.154,0.221,0.068,0.572-0.152,0.727l-11.152,7.72c-0.223,0.151-0.557,0.092-0.71-0.131L386.229,430.693z"/>
    <path fill="#CBE1B7" d="M407.194,427.166c-1.932-2.256-2.784-4.686-2.558-7.326c0.207-2.664,1.427-4.932,3.638-6.822
      c1.756-1.502,3.734-2.328,5.915-2.455c0.343-0.016,0.521,0.146,0.557,0.513l0.194,3.504c-0.011,0.403-0.174,0.582-0.554,0.553
      c-1.148-0.004-2.246,0.423-3.227,1.261c-2.462,2.104-2.518,4.996-0.274,7.616l1.132,1.322c2.203,2.576,5.067,2.969,7.529,0.863
      c0.934-0.8,1.521-1.775,1.739-2.949c0.051-0.357,0.255-0.533,0.59-0.465l3.517,0.742c0.296,0.022,0.504,0.356,0.419,0.627
      c-0.438,2.073-1.579,3.877-3.38,5.418c-2.257,1.932-4.685,2.784-7.288,2.604c-2.622-0.205-4.888-1.424-6.818-3.682L407.194,427.166z
      "/>
    <path fill="#CBE1B7" d="M416.281,406.967c-0.194-0.186-0.204-0.525-0.02-0.721l10.365-10.932c0.185-0.195,0.522-0.203,0.72-0.019
      l2.396,2.271c0.194,0.188,0.204,0.524,0.019,0.723l-3.302,3.482c-0.146,0.153-0.143,0.321,0.033,0.487l11.604,11.005
      c0.24,0.227,0.246,0.481-0.001,0.741l-2.581,2.724c-0.228,0.237-0.48,0.246-0.721,0.02l-11.606-11.004
      c-0.174-0.166-0.344-0.16-0.509,0.014l-3.282,3.461c-0.186,0.197-0.524,0.205-0.721,0.02L416.281,406.967z"/>
    <path fill="#CBE1B7" d="M439.339,382.139c0.33-0.086,0.538,0.037,0.625,0.369l0.95,3.533c0.063,0.312-0.065,0.629-0.402,0.674
      c-1.167,0.236-2.08,0.783-2.722,1.615c-1.043,1.355-1.079,2.387-0.151,3.1l0.07,0.055c0.977,0.75,2,0.254,4.381-1.854
      c3.025-2.703,5.804-3.066,8.395-1.072l0.095,0.074c1.643,1.262,2.517,2.881,2.558,4.844c0.042,1.963-0.691,3.898-2.209,5.871
      c-1.521,1.973-3.991,3.514-6.306,4.158c-0.264,0.098-0.608-0.092-0.646-0.387l-0.982-3.594c-0.086-0.332,0.062-0.521,0.393-0.607
      c1.438-0.295,3.025-1.229,3.904-2.369c1.392-1.809,1.37-3.109,0.419-3.842l-0.095-0.072c-0.521-0.553-1.291-0.389-1.898-0.139
      c-0.163,0.064-0.44,0.229-0.792,0.488l-0.837,0.645l-1.043,0.861c-0.061,0.029-0.114,0.102-0.213,0.178l-1.139,0.939
      c-0.272,0.207-0.731,0.459-1.335,0.752c-0.586,0.27-1.14,0.447-1.651,0.473c-0.978,0.041-2.504-0.338-3.93-1.436l-0.095-0.072
      c-1.545-1.189-2.361-2.688-2.465-4.471c-0.085-1.808,0.536-3.601,1.891-5.359C435.388,383.83,437.122,382.705,439.339,382.139"/>
    <path fill="#CBE1B7" d="M91.574,190.221c-0.252-0.098-0.389-0.408-0.291-0.66l3.406-8.783c0.619-1.594,1.754-2.698,3.458-3.356
      c1.675-0.669,3.357-0.693,5.064-0.031l0.196,0.076c1.817,0.705,3.128,1.889,3.913,3.514c0.786,1.624,0.838,3.316,0.154,5.079
      l-1.628,4.195c-0.087,0.224-0.018,0.379,0.177,0.455l6.07,2.354c0.307,0.12,0.41,0.353,0.291,0.66l-1.356,3.496
      c-0.118,0.308-0.352,0.41-0.659,0.291L91.574,190.221z M96.981,186.815c-0.087,0.224-0.019,0.379,0.205,0.466l4.56,1.768
      c0.224,0.087,0.379,0.018,0.466-0.205l1.096-2.825c0.575-1.483-0.035-2.813-1.574-3.41l-0.194-0.076
      c-1.567-0.608-2.876-0.053-3.474,1.485L96.981,186.815z"/>
    <path fill="#CBE1B7" d="M102.238,165.133c-0.186-0.229-0.224-0.485-0.087-0.752l0.327-0.642c0.136-0.267,0.365-0.385,0.66-0.369
      l21.816,1.538c0.348,0.043,0.507,0.393,0.356,0.687l-1.773,3.474c-0.15,0.294-0.379,0.413-0.675,0.397l-1.837-0.164
      c-0.335-0.002-0.563,0.117-0.687,0.357l-2.919,5.718c-0.123,0.24-0.085,0.495,0.114,0.765l1.209,1.392
      c0.186,0.23,0.224,0.485,0.073,0.779l-1.772,3.474c-0.15,0.294-0.527,0.371-0.767,0.114L102.238,165.133z M114.464,172.655
      c0.146,0.176,0.294,0.15,0.39-0.037l1.746-3.42c0.095-0.188,0.029-0.321-0.199-0.337l-5.041-0.418
      c-0.228-0.015-0.337,0.198-0.19,0.374L114.464,172.655z"/>
    <path fill="#CBE1B7" d="M110.693,149.831c-0.224-0.152-0.27-0.51-0.118-0.733l0.253-0.372c0.117-0.174,0.252-0.264,0.419-0.296
      l15.269-2.934c0.167-0.032,0.294-0.272,0.095-0.407l-8.684-5.902c-0.223-0.151-0.287-0.485-0.135-0.708l2.107-3.102
      c0.151-0.223,0.502-0.311,0.726-0.159l16.673,11.33c0.223,0.152,0.27,0.51,0.118,0.733l-0.286,0.422
      c-0.119,0.174-0.312,0.297-0.52,0.336l-15.117,2.82c-0.209,0.04-0.312,0.297-0.112,0.431l8.684,5.902
      c0.224,0.152,0.286,0.485,0.135,0.708l-2.107,3.102c-0.152,0.223-0.502,0.311-0.725,0.16L110.693,149.831z"/>
    <path fill="#CBE1B7" d="M130.752,122.179c1.988-2.246,4.271-3.469,6.833-3.646c2.538-0.197,4.929,0.677,7.106,2.606l1.304,1.153
      c2.426,2.147,3.564,4.798,3.438,7.25c-0.127,2.451-1.134,4.765-2.824,6.674l-4.691,5.301c-0.18,0.202-0.519,0.222-0.721,0.044
      L126.104,128.2c-0.203-0.179-0.224-0.518-0.044-0.72L130.752,122.179z M132.356,126.884c-0.139,0.157-0.129,0.327,0.028,0.466
      l8.895,7.873c0.157,0.14,0.327,0.129,0.467-0.028l1.63-1.842c2.087-2.358,1.892-5.215-0.602-7.422l-1.303-1.153
      c-2.515-2.227-5.358-2.139-7.485,0.264L132.356,126.884z"/>
    <path fill="#CBE1B7" d="M148.03,105.292c-0.091-0.281-0.033-0.533,0.19-0.732l0.537-0.479c0.224-0.2,0.48-0.228,0.75-0.106
      l19.771,9.332c0.31,0.166,0.329,0.549,0.083,0.769l-2.909,2.594c-0.246,0.22-0.503,0.248-0.772,0.126l-1.652-0.817
      c-0.312-0.124-0.567-0.096-0.77,0.084l-4.79,4.271c-0.202,0.18-0.259,0.431-0.171,0.755l0.623,1.735
      c0.09,0.281,0.033,0.533-0.213,0.752l-2.91,2.595c-0.246,0.22-0.625,0.155-0.755-0.171L148.03,105.292z M156.699,116.728
      c0.071,0.216,0.22,0.246,0.376,0.106l2.864-2.554c0.157-0.14,0.145-0.289-0.062-0.386l-4.547-2.215
      c-0.206-0.097-0.386,0.063-0.313,0.279L156.699,116.728z"/>
    <path fill="#CBE1B7" d="M175.098,84.731c-0.043-0.293,0.055-0.532,0.31-0.691l0.609-0.384c0.254-0.16,0.511-0.146,0.757,0.02
      L194.73,96.16c0.277,0.216,0.233,0.597-0.046,0.773l-3.301,2.077c-0.279,0.176-0.537,0.161-0.782-0.004l-1.494-1.08
      c-0.287-0.174-0.545-0.189-0.772-0.045L182.9,101.3c-0.229,0.143-0.325,0.382-0.293,0.716l0.326,1.814
      c0.042,0.293-0.055,0.532-0.335,0.707l-3.301,2.078c-0.279,0.175-0.643,0.049-0.716-0.294L175.098,84.731z M181.753,97.449
      c0.036,0.226,0.176,0.279,0.354,0.167l3.25-2.044c0.178-0.112,0.19-0.262,0.001-0.392l-4.116-2.938
      c-0.188-0.13-0.392-0.002-0.355,0.224L181.753,97.449z"/>
    <path fill="#CBE1B7" d="M190.078,76.08c-0.118-0.243,0.021-0.576,0.264-0.694l3.374-1.635c0.242-0.117,0.562-0.006,0.681,0.237
      l6.983,14.414c0.092,0.189,0.252,0.245,0.468,0.14l6.991-3.387c0.243-0.117,0.562-0.006,0.681,0.237l1.438,2.969
      c0.118,0.243,0.007,0.563-0.236,0.681l-11.147,5.401c-0.243,0.117-0.592,0.019-0.708-0.224L190.078,76.08z"/>
    <path fill="#CBE1B7" d="M205.661,68.391c-0.2-0.218-0.106-0.598,0.207-0.703l3.754-1.26c0.312-0.104,0.598-0.011,0.789,0.273
      l7.376,10.373c0.151,0.17,0.36,0.131,0.436-0.115l1.159-12.29c0.018-0.228,0.103-0.351,0.302-0.418l0.085-0.028
      c0.2-0.067,0.342-0.02,0.494,0.15l8.313,9.109c0.161,0.104,0.38,0.094,0.418-0.172l-0.381-12.722
      c-0.02-0.342,0.15-0.589,0.464-0.694l3.726-1.252c0.313-0.105,0.646,0.132,0.618,0.426l0.114,21.168
      c0.02,0.341-0.16,0.56-0.474,0.665l-1.906,0.64c-0.312,0.105-0.55,0.058-0.722-0.17l-7.456-8.066
      c-0.076-0.133-0.418-0.018-0.397,0.133l-1.076,10.933c-0.028,0.294-0.189,0.475-0.474,0.57l-1.905,0.64
      c-0.313,0.105-0.588,0.039-0.778-0.245L205.661,68.391z"/>
    <path fill="#CBE1B7" d="M245.093,56.803c0.067-0.288,0.246-0.474,0.54-0.53l0.707-0.135c0.295-0.056,0.529,0.052,0.698,0.294
      l12.165,18.171c0.179,0.301,0,0.641-0.324,0.703l-3.831,0.73c-0.324,0.061-0.558-0.047-0.728-0.289l-0.996-1.551
      c-0.204-0.266-0.438-0.374-0.703-0.324l-6.306,1.202c-0.266,0.051-0.443,0.237-0.535,0.56l-0.357,1.809
      c-0.067,0.287-0.245,0.474-0.569,0.536l-3.831,0.73c-0.323,0.061-0.615-0.188-0.559-0.535L245.093,56.803z M246.652,71.071
      c-0.049,0.223,0.062,0.324,0.269,0.285l3.771-0.719c0.207-0.039,0.273-0.174,0.146-0.363l-2.762-4.238
      c-0.129-0.189-0.363-0.144-0.412,0.079L246.652,71.071z"/>
    <path fill="#CBE1B7" d="M266.502,68.304c-0.018-0.209-0.094-0.414-0.198-0.586l-8.605-12.939c-0.231-0.252-0.026-0.69,0.362-0.722
      l4.188-0.339c0.269-0.022,0.458,0.083,0.627,0.31l5.355,8.506c0.067,0.085,0.13,0.11,0.22,0.103l0.03-0.002
      c0.06-0.005,0.117-0.04,0.169-0.135l3.915-9.259c0.13-0.25,0.301-0.385,0.569-0.407l4.188-0.34c0.389-0.031,0.661,0.369,0.474,0.655
      l-6.407,14.156c-0.075,0.187-0.118,0.401-0.101,0.611l0.454,5.593c0.03,0.388-0.243,0.712-0.634,0.743l-3.408,0.277
      c-0.39,0.031-0.713-0.244-0.743-0.632L266.502,68.304z"/>
    <path fill="#CBE1B7" d="M297.071,54.714c0.265,0.218,0.285,0.459,0.066,0.723l-2.311,2.837c-0.22,0.233-0.553,0.312-0.782,0.065
      c-0.875-0.809-1.854-1.23-2.902-1.264c-1.709-0.055-2.565,0.518-2.604,1.687l-0.003,0.09c-0.039,1.23,0.964,1.772,4.062,2.472
      c3.963,0.877,5.879,2.919,5.774,6.188l-0.004,0.119c-0.066,2.069-0.869,3.725-2.438,4.905c-1.568,1.18-3.565,1.717-6.055,1.636
      c-2.489-0.079-5.187-1.186-7.058-2.687c-0.234-0.157-0.282-0.549-0.065-0.752l2.343-2.896c0.219-0.264,0.459-0.256,0.722-0.038
      c1.079,0.996,2.768,1.74,4.205,1.786c2.279,0.073,3.324-0.704,3.362-1.903l0.004-0.12c0.145-0.745-0.438-1.275-0.998-1.623
      c-0.146-0.095-0.443-0.224-0.859-0.357l-1.011-0.303l-1.309-0.342c-0.062-0.032-0.15-0.035-0.271-0.069l-1.428-0.376
      c-0.327-0.1-0.8-0.325-1.39-0.645c-0.562-0.318-1.03-0.663-1.349-1.063c-0.604-0.77-1.188-2.229-1.131-4.028l0.004-0.12
      c0.063-1.949,0.802-3.486,2.189-4.612c1.417-1.125,3.234-1.667,5.454-1.596C293.39,52.495,295.317,53.247,297.071,54.714"/>
    <path fill="#CBE1B7" d="M314.631,55.198c0.05-0.266,0.33-0.457,0.596-0.406l14.8,2.811c0.265,0.051,0.456,0.331,0.405,0.596
      l-0.615,3.243c-0.051,0.266-0.332,0.457-0.597,0.406l-4.718-0.896c-0.205-0.039-0.348,0.057-0.393,0.292l-2.983,15.713
      c-0.062,0.324-0.271,0.468-0.626,0.401l-3.686-0.701c-0.325-0.061-0.468-0.272-0.406-0.596l2.985-15.713
      c0.045-0.235-0.051-0.376-0.286-0.421l-4.688-0.89c-0.267-0.05-0.457-0.331-0.405-0.596L314.631,55.198z"/>
    <path fill="#CBE1B7" d="M341.406,61.14c0.192-0.225,0.438-0.309,0.724-0.224l0.689,0.204c0.288,0.085,0.447,0.289,0.485,0.582
      l2.482,21.726c0.022,0.351-0.294,0.57-0.608,0.478l-3.739-1.107c-0.316-0.094-0.475-0.298-0.513-0.591l-0.179-1.835
      c-0.059-0.33-0.217-0.533-0.476-0.61l-6.155-1.822c-0.26-0.077-0.503,0.008-0.73,0.253l-1.147,1.443
      c-0.189,0.225-0.435,0.309-0.752,0.215l-3.739-1.107c-0.314-0.093-0.462-0.449-0.253-0.731L341.406,61.14z M336.252,74.536
      c-0.146,0.176-0.095,0.316,0.106,0.376l3.683,1.09c0.2,0.059,0.32-0.03,0.295-0.257l-0.514-5.032
      c-0.024-0.227-0.257-0.295-0.4-0.119L336.252,74.536z"/>
    <path fill="#CBE1B7" d="M357.963,66.675c0.105-0.248,0.423-0.373,0.671-0.265l3.438,1.492c0.248,0.107,0.373,0.422,0.268,0.67
      l-3.188,7.35c-0.083,0.192-0.02,0.351,0.172,0.434l0.111,0.048c1.678,0.728,3.338,0.597,5.016-0.409
      c1.679-1.006,2.985-2.434,3.946-4.274l0.217-0.428c0.132-0.303,0.369-0.396,0.7-0.253l3.578,1.551
      c0.302,0.131,0.387,0.462,0.253,0.698l-0.279,0.566c-1.81,3.499-4.771,5.878-8.127,6.679c-0.224,0.067-0.324,0.22-0.312,0.421
      l1.479,10.844c0.062,0.386-0.364,0.691-0.723,0.536l-3.992-1.73c-0.192-0.084-0.293-0.226-0.305-0.427l-0.979-9.285
      c-0.024-0.24-0.168-0.367-0.398-0.435c-0.478-0.109-1.013-0.308-1.59-0.558l-0.109-0.048c-0.193-0.084-0.352-0.021-0.447,0.199
      l-3.042,7.02c-0.106,0.247-0.422,0.372-0.67,0.265l-3.441-1.492c-0.247-0.107-0.372-0.423-0.266-0.671L357.963,66.675z"/>
    <path fill="#CBE1B7" d="M380.349,77c0.137-0.233,0.465-0.321,0.697-0.186l11.732,6.801c0.232,0.135,0.347,0.478,0.211,0.712
      l-1.655,2.855c-0.135,0.234-0.489,0.306-0.723,0.171l-7.734-4.484c-0.182-0.105-0.346-0.061-0.451,0.12l-1.864,3.219
      c-0.106,0.181-0.063,0.345,0.118,0.451l5.605,3.249c0.287,0.166,0.363,0.453,0.197,0.738l-1.445,2.492
      c-0.134,0.234-0.488,0.306-0.722,0.171l-5.606-3.25c-0.182-0.105-0.346-0.062-0.466,0.146l-1.775,3.063
      c-0.104,0.181-0.062,0.345,0.12,0.45l7.734,4.484c0.232,0.135,0.347,0.478,0.212,0.712l-1.655,2.855
      c-0.136,0.233-0.489,0.306-0.723,0.17l-11.732-6.8c-0.232-0.136-0.319-0.463-0.186-0.697L380.349,77z"/>
    <path fill="#CBE1B7" d="M409.319,97.49c0.094,0.329-0.023,0.54-0.354,0.633l-3.515,1.023c-0.312,0.069-0.632-0.054-0.683-0.39
      c-0.261-1.162-0.826-2.063-1.671-2.687c-1.376-1.015-2.408-1.031-3.103-0.089l-0.054,0.073c-0.729,0.989-0.213,2.005,1.941,4.34
      c2.766,2.972,3.184,5.74,1.244,8.371l-0.072,0.097c-1.229,1.665-2.83,2.572-4.791,2.653c-1.961,0.082-3.91-0.61-5.914-2.088
      c-2.004-1.478-3.594-3.919-4.285-6.218c-0.103-0.263,0.079-0.613,0.373-0.657l3.573-1.054c0.329-0.093,0.522,0.05,0.616,0.379
      c0.322,1.431,1.288,3.002,2.447,3.856c1.835,1.354,3.137,1.307,3.849,0.341l0.071-0.096c0.541-0.532,0.36-1.299,0.099-1.903
      c-0.067-0.161-0.237-0.436-0.504-0.781l-0.661-0.823l-0.883-1.025c-0.031-0.06-0.104-0.113-0.184-0.208l-0.963-1.121
      c-0.212-0.268-0.474-0.722-0.777-1.319c-0.28-0.58-0.472-1.131-0.505-1.64c-0.062-0.978,0.285-2.511,1.354-3.959l0.071-0.097
      c1.157-1.569,2.639-2.414,4.42-2.554c1.804-0.122,3.608,0.463,5.395,1.781C407.548,93.574,408.707,95.287,409.319,97.49"/>
    <path fill="#CBE1B7" d="M417.573,114.872c2.136-2.065,4.506-3.065,7.156-3c2.672,0.044,5.031,1.144,7.055,3.235
      c1.627,1.682,2.551,3.585,2.79,5.732c0.078,0.384-0.072,0.572-0.435,0.587l-3.529,0.408c-0.34,0.038-0.526-0.114-0.562-0.497
      c-0.108-1.19-0.6-2.258-1.454-3.143c-2.169-2.242-5.227-2.165-7.642,0.171l-1.25,1.21c-2.438,2.357-2.634,5.26-0.464,7.503
      c0.793,0.819,1.737,1.365,2.838,1.595c0.273,0.068,0.51,0.009,0.746-0.221l1.034-1.001c0.151-0.146,0.153-0.316,0.009-0.467
      l-1.879-1.94c-0.187-0.194-0.202-0.555-0.009-0.743l1.812-1.752c0.235-0.229,0.49-0.225,0.741,0.033l5.089,5.261
      c0.229,0.237,0.226,0.492-0.013,0.721l-7.223,6.988c-0.194,0.188-0.533,0.182-0.721-0.012l-0.355-0.366
      c-0.167-0.173-0.248-0.386-0.244-0.641l0.054-1.887c0.005-0.212-0.12-0.341-0.354-0.367c-1.949-0.159-3.673-1.036-5.217-2.632
      c-1.877-1.941-2.753-4.182-2.626-6.684c0.146-2.522,1.267-4.816,3.401-6.881L417.573,114.872z"/>
    <path fill="#CBE1B7" d="M434.737,133.09c2.387-1.769,4.868-2.451,7.473-2.064c2.602,0.387,4.778,1.762,6.547,4.149
      c1.771,2.386,2.451,4.869,2.064,7.472c-0.388,2.602-1.763,4.779-4.148,6.548l-1.398,1.036c-2.387,1.769-4.894,2.469-7.495,2.082
      c-2.578-0.405-4.756-1.78-6.523-4.166c-1.77-2.387-2.452-4.869-2.089-7.454c0.387-2.603,1.786-4.798,4.173-6.566L434.737,133.09z
       M436.232,138.032c-2.82,2.091-3.322,4.891-1.41,7.47c1.911,2.58,4.735,2.914,7.558,0.823l1.398-1.036
      c2.819-2.09,3.321-4.89,1.41-7.47c-1.912-2.579-4.736-2.914-7.558-0.823L436.232,138.032z"/>
    <path fill="#CBE1B7" d="M450.063,154.485c2.602-1.431,5.154-1.772,7.679-1.038c2.527,0.735,4.497,2.39,5.929,4.992
      c1.432,2.603,1.771,5.155,1.036,7.681c-0.731,2.525-2.389,4.497-4.99,5.927l-1.524,0.838c-2.604,1.431-5.181,1.786-7.707,1.052
      c-2.5-0.749-4.47-2.404-5.9-5.006c-1.432-2.603-1.771-5.155-1.062-7.666c0.732-2.526,2.415-4.512,5.018-5.942L450.063,154.485z
       M450.878,159.582c-3.075,1.691-3.95,4.396-2.404,7.21c1.547,2.813,4.3,3.525,7.376,1.834l1.522-0.838
      c3.076-1.691,3.951-4.396,2.405-7.21c-1.546-2.813-4.299-3.525-7.376-1.834L450.878,159.582z"/>
    <path fill="#CBE1B7" d="M474.4,181.966c1.09,2.795,1.133,5.386,0.119,7.745c-0.983,2.348-2.854,4.075-5.565,5.132l-1.621,0.632
      c-3.021,1.177-5.898,0.978-8.021-0.255c-2.123-1.233-3.722-3.186-4.646-5.562l-2.571-6.598c-0.099-0.252,0.038-0.562,0.29-0.66
      l18.785-7.322c0.251-0.098,0.562,0.039,0.66,0.29L474.4,181.966z M469.481,181.242c-0.076-0.195-0.23-0.264-0.428-0.187
      l-11.069,4.314c-0.195,0.076-0.265,0.231-0.188,0.427l0.895,2.292c1.145,2.936,3.773,4.068,6.877,2.859l1.621-0.633
      c3.132-1.22,4.353-3.788,3.188-6.78L469.481,181.242z"/>
  </g>
<path class="animated bounceInLeft" fill="#D4EBF5" d="M452.74,268.001c0,93.616-75.894,169.507-169.51,169.507c-93.615,0-169.506-75.891-169.506-169.507
	c0-93.618,75.891-169.509,169.506-169.509C376.846,98.492,452.74,174.383,452.74,268.001"/>
<g class="animated lightSpeedIn delay1s">
  <path fill="#F7DCB8" d="M125.847,371.197c0,31.062,70.464,56.244,157.382,56.244c86.922,0,157.385-25.183,157.385-56.244v-8.66
    H125.847V371.197z"/>
  <path fill="#FEF2D3" d="M440.615,362.537c0,31.062-70.464,56.242-157.385,56.242c-86.918,0-157.382-25.18-157.382-56.242
  	s70.464-56.246,157.382-56.246C370.151,306.291,440.615,331.475,440.615,362.537"/>
</g>
  <!--water-->
<g class="animated fadeIn delay3200ms">
  <path fill="#B5DDE9" d="M330.556,378.133c0.354-2.396,2.551,0.494,4.553-0.562c2.002-1.059-1.592-1.928,1.015-2.655
    c2.61-0.729,17.257-0.375,21.276,0.187c5.588,0.776,12.772,3.526,20.809,3.526s11.738,3.324,1.693,2.826
    c-10.045-0.5-14.951,1.963-9.362,2.739c5.591,0.779,3.188,2.609-8.401,2.576c-4.084-0.014-8.247,2.433-18.717,2.433
    s-12.05-4.453-6.903-5.375c4.334-0.775,2-2.914-1.408-4.142C332.275,378.664,330.295,379.889,330.556,378.133"/>
  <path fill="#B5DDE9" d="M333.798,380.85c-1.76-0.488-6.051-0.406-5.779,1.269C328.511,385.184,340.989,382.838,333.798,380.85"/>
  <path fill="#B5DDE9" d="M376.835,374.504c6.979,0,10.891,2.326,1.057,2.326S363.935,374.504,376.835,374.504"/>
  <path fill="#B5DDE9" d="M360.656,389.283c-5.221,0.316-10.527,4.783-2.463,4.783c8.067,0,19.627-5.336,12.475-4.736
    C363.466,389.934,365.878,388.965,360.656,389.283"/>
</g>
  <!--Panda-->
<g class="animated rollIn delay1600ms">
  <path fill="#444346" d="M340.041,289.299c15.311,46.344-1.82,81.379-34.855,69.104c-21.164-7.862-7.497-41.661-27.917-52.846
    C256.848,294.369,340.041,289.299,340.041,289.299"/>
  <path fill="#444346" d="M317.125,185.177c3.87,2.099,8.985,0.705,16.993,14.315c8.012,13.608,25.389,36.605,31.32,42.94
    c5.932,6.336-0.847,31.443-21.188,21.822c-20.345-9.621-24.796-53.969-24.796-53.969L317.125,185.177z"/>
  <path fill="#FBFBFC" d="M325.243,193.204c3.002,6.276,17.769,48.503,21.181,62.571c3.41,14.071,0,79.202-71.214,75.019
    c-57.269-3.364-85.337-25.808-79.812-61.249c5.64-36.181,23.847-25.869,27.865-57.516c4.022-31.65,46.316-33.013,46.316-33.013
    L325.243,193.204z"/>
  <path fill="#F4F3F4" d="M239.153,255.882c3.41,14.07-0.613,70.185-13.339,64.548c-23.461-10.394-33.997-27.908-30.417-50.886
    c5.64-36.181,23.846-25.869,27.864-57.516C227.283,180.379,235.742,241.812,239.153,255.882"/>
  <path fill="#F4F3F4" d="M325.243,193.204c4.979,13.353,22.581,52.024,22.581,69.837c0,17.812-1.4,71.936-72.615,67.752
    c-57.269-3.365-75.755-30.902-47.722-54.211c16.16-13.438,26.263,31.338,64.124,31.342c37.863,0.004,48.35-32.925,49.117-47.304
    C341.614,244.116,324.405,200.725,325.243,193.204"/>
  <path fill="#F4F3F4" d="M220.734,223.76c1.065-3.293,1.943-7.125,2.528-11.731c1.256-9.892,6.251-16.825,12.525-21.682
    c6.548-5.07,37.009-8.39,31.938,2.857c-5.373,11.916-5.875,28.28-18.787,39.215C244.668,236.035,214.48,243.11,220.734,223.76"/>
  <path fill="#4B4B4D" d="M201.727,281.43c-4.562,7.957-6.693,22.975-6.277,33.931c0.85,22.408,7.419,47.175,32.913,50.343
    c22.782,2.83,28.851-13.356,31.94-30.41c2.228-12.297,1.229-7.354-6.993-14.933C233.926,302.496,215.082,258.143,201.727,281.43"/>
  <path fill="#4B4B4D" d="M282.253,187.743c2.17,9.414,9.126,29.061,22.838,29.471c13.713,0.408,15.049-11.662,13.152-18.826
    C316.347,191.222,282.253,187.743,282.253,187.743"/>
	<path fill="#F4F3F4" d="M273.926,187.285c22.333,29.177,52.716,16.715,59.438,10.951c-1.597-2.053-2.294-3.619-3.919-5.499
		C321.508,199.634,285.375,187.893,273.926,187.285"/>
  <path fill="#4B4B4D" d="M276.094,239.812c1.841,0.717,5.552,4.399,6.159,6.856c0.605,2.457-10.048-3.07-9.843-3.427
    C272.615,242.882,276.094,239.812,276.094,239.812"/>

  <path fill="#444346" d="M335.644,130.171c0,0,10.338-9.824,17.434,0c7.096,9.822-8.717,17.99-8.717,17.99"/>
  <path fill="#FBFBFC" d="M301.91,199.394c-24.523-4.351-57.985-26.954-38.608-60.272c20.714-35.609,57.807-22.635,69.038-14.136
    c11.23,8.497,15.316,22.652,14.734,32.745C345.436,186.108,326.434,203.743,301.91,199.394"/>
  <path fill="#4B4B4D" d="M270.124,135.914c-5.26-2.506-15.758-12.14-4.911-22.116c14.245-13.103,23.446,1.623,23.739,9.005
    c-4.638,1.092-8.422,2.263-11.173,4.367C272.853,130.938,270.124,135.914,270.124,135.914"/>
  <path fill="#4B4B4D" d="M312.145,151.727c-7.969-9.277-9.385,2.003-17.463,6.22c-5.185,2.709-22.168-4.2-15.281,10.971
    C285.873,183.167,322.157,163.381,312.145,151.727"/>
  <path fill="#FFFFFF" d="M299.324,161.711c2.996,2.699,8.757,0,8.193-2.12L299.324,161.711z"/>
  <path fill="#F4F3F4" d="M339.412,154.43c-7.742-12.1-25.891,13.032-15.814,21.22c0,3.522-2.01,6.271-2.649,8.807
    c-0.648,2.572-1.162,4.498-6.482,6.891c0.554,0.129-3.196,0.964-3.412,1.555c1.367,3.051-1.885,5.859-4.977,7.025
    c24.184,1.854,34.318-16.735,36.334-20.912C339.22,170.01,333.362,155.156,339.412,154.43"/>
  <path fill="#4B4B4D" d="M331.794,152c-2.172,1.444-4.725,4.779-3.619,8.438c1.844,6.11,7.469,17.467,14.234,18.578
    c1.379-4.171,2.865-8.285,4.014-14.217C340.064,165.549,340.519,146.192,331.794,152"/>
  <path fill="#FFFFFF" d="M338.035,163.584c-0.572,1.391-3.783,1.186-4.672-1.874L338.035,163.584z"/>
  <path fill="#4B4B4D" d="M320.535,175.058c11.871,1.637,7.369,6.959,0.412,9.399C311.531,181.606,308.666,173.421,320.535,175.058"/>
  <path fill="#E7D5E7" d="M300.59,185.177c4.58,3.95,12.612,8.81,20.918,4.476C311.052,198.388,301.433,187.933,300.59,185.177"/>

</g>
  <!--Watering can-->
<g class="animated bounceInLeft delay2200ms">
  <path fill="#AED299" d="M261.436,293.059c9.84,1.242,22.376,2.73,27.016,3.004c4.638,0.271,15.825-6.276,1.909-7.643
    c-13.917-1.365-26.915-2.182-32.015-2.727C253.25,285.145,249.001,291.492,261.436,293.059"/>
  <path fill="#96B584" d="M260.563,292.938c1.968-1.571,4.274-3.803,6.733-6.479c-2.03-0.162-3.85-0.306-5.402-0.438
    c-1.418-0.119-2.615-0.227-3.549-0.326c-4.133-0.442-7.708,3.646-2.279,6.046C257.333,292.297,258.213,292.641,260.563,292.938"/>
  <polyline fill="#AED299" points="286.25,288.033 306.783,282.359 300.323,309.875 284.015,295.684 "/>
  <path fill="#AED299" d="M322.082,301.334c2.537-8.182-1.234-16.627-8.432-18.861s-15.089,2.587-17.63,10.771
    c-2.54,8.184,1.234,16.627,8.429,18.859C311.649,314.338,319.541,309.516,322.082,301.334"/>
  <path fill="#96B584" d="M320.766,301.029c2.334-7.525-0.649-15.139-6.666-17.008c-6.021-1.868-12.79,2.717-15.127,10.242
    c-2.334,7.524,0.647,15.137,6.666,17.006C311.659,313.139,318.43,308.551,320.766,301.029"/>
  <path fill="#8EAD7F" d="M302.319,295.146c2.227-5.019,5.121-9.287,11.781-11.125c-6.02-1.868-12.791,2.717-15.127,10.242
    c-2.334,7.524,0.648,15.139,6.666,17.006C303.106,308.475,300.096,300.16,302.319,295.146"/>
  <path fill="#AED299" d="M285.311,243.669c-6.581-9.112-34.363-6.873-58.531,15.276c-17.753,16.273-19.484,21.979-9.115,36.202
    c10.369,14.219,18.01,14.729,37.347-1.068C279.321,274.221,295.955,258.405,285.311,243.669 M264.029,280.658
    c4.525-7.215-10.544-30.954-21.049-27.679c7.64-6.795,33.356-16.54,39.874-6.035C289.703,257.981,270.033,276.293,264.029,280.658"
    />
  <path fill="#96B584" d="M247.519,273.141c-5.171-6.518-8.692-14.978-4.539-17.842c4.154-2.867,8.093,2.649,13.272,9.381
    c5.646,7.341,6.764,13.953,4.639,16.242C258.906,283.059,254.102,281.438,247.519,273.141"/>

</g>
  <!--Hand Panda-->
<path class="animated rollIn delay1600ms" fill="#4B4B4D" d="M270.873,174.844c7.604,1.117-17.563-4.132-32.674,6.08c-13.765,9.3-32.609,28.941-18.692,56.227
  c6.914,13.558,38.054,34.292,52.8,23.726c7.258-5.203,12.569-10.413,9.917-15.006c-1.116-1.931-7.902-1.533-10.531-6.877
  c0.875-0.051,3.746-0.069,5.766,0.302c1.34,0.248,1.364-2.187,1.125-2.687c-3.8-7.9-32.062-4.011-32.678-16.922
  C257.913,211.503,275.209,187.743,270.873,174.844"/>
<!--water drop-->
<g class="animated fadeIn delay2600ms">
  <path fill="#B5DDE9" d="M315.821,311.35c-1.168,1.867-2.291-1.483-2.995-2.754C314.094,309.02,316.526,310.221,315.821,311.35"/>
  <path fill="#B5DDE9" d="M331.967,319.807c-1.168,1.867-2.288-1.481-2.995-2.752C330.24,317.48,332.672,318.68,331.967,319.807"/>
  <path fill="#B5DDE9" d="M324.658,304.641c-1.533,2.457-3.012-1.953-3.939-3.621C322.388,301.576,325.587,303.156,324.658,304.641"/>
  <path fill="#B5DDE9" d="M369.957,352.053c-2.188,1.9-2.311-2.748-2.709-4.615C368.681,348.457,371.278,350.906,369.957,352.053"/>
  <path fill="#B5DDE9" d="M317.196,292.283c1.854-0.814,4.923,0.795,4.117,2.102C320.509,295.691,319.807,293.252,317.196,292.283"/>
  <path fill="#B5DDE9" d="M337.048,356.979c1.814,0.892,2.562,4.277,1.047,4.504C336.578,361.71,337.99,359.604,337.048,356.979"/>
  <path fill="#B5DDE9" d="M333.916,301.91c-0.967,1.346-2.705-1.781-2.705-1.781S334.886,300.564,333.916,301.91"/>
  <path fill="#B5DDE9" d="M344.53,340.07c-2.309,1.037-2.217-4.428-2.217-4.428S346.841,339.033,344.53,340.07"/>
  <path fill="#B5DDE9" d="M327.961,336.803c-1.886,1.082-2.269-3.592-2.269-3.592S329.847,335.725,327.961,336.803"/>
</g>
<!--Bamboo-->
<g class="animated flipInY delay1200ms">
  <path fill="#96B584" d="M356.14,381.338c0.436-12.951,10.01-119.402-5.117-168.678c8.77,48.643-0.438,148.777-1.533,168.678
    c0,0,0.867,2.102,3.428,2.102C355.477,383.439,356.14,381.338,356.14,381.338"/>
  <path fill="#CBE1B7" d="M356.057,328.6c2.685-0.033,3.3-1.803,3.142,0.717c-0.146,2.341-0.334,1.023-3.303,0.972
    c-2.97-0.054-3.306,1.897-3.326-0.604C352.549,327.18,353.375,328.637,356.057,328.6"/>
  <path fill="#CBE1B7" d="M354.115,295.611c0-1.479,2.045-0.351,2.864-0.476c1.127-0.174,2.742-0.562,2.74,0.476
    c0,1.033-0.141,1.215-2.223,1.371C355.413,297.141,354.115,297.088,354.115,295.611"/>
  <path fill="#CBE1B7" d="M354.652,268.774c0-1.205,1.26-0.762,2.202-0.475c0.942,0.289,2.052-1.347,2.099-0.571
    c0.05,0.786-1.075,1.304-2.099,1.52C355.861,269.461,354.652,269.98,354.652,268.774"/>
  <path fill="#CBE1B7" d="M358.85,295.547c1.818-13.266,6.201-24.005,12.341-30.321C367.904,277.545,366.676,284.491,358.85,295.547"
    />
  <path fill="#CBE1B7" d="M353.652,329.922c-8.414-7.803-16.33-27.596-17.427-35.553C342.758,296.76,350.125,314.256,353.652,329.922"
    />
  <path fill="#CBE1B7" d="M353.604,328.713c-7.954-8.742-7.881-25.383-6.559-33.102C352.863,306.762,353.695,313.227,353.604,328.713"
    />
</g>

    <!--leaf-->
<path class="animated bounceInLeft delay3s" fill="#CBE1B7" d="M173.624,162.508c13.37,0.761,24.424,4.278,31.208,9.897C192.291,170.104,185.267,169.434,173.624,162.508"
	/>
  <!--leaf-->
<path class="animated bounceInRight delay3200ms" fill="#CBE1B7" d="M244.424,145.979c-10.698,4.151-31.958,2.606-39.593,0.107C209.841,141.26,228.796,142.295,244.424,145.979"
	/>
    <!--leaf-->
    <path class="animated bounceInLeft delay3400ms" fill="#CBE1B7" d="M406.108,203.671c7.619-15.077,29.878-23.458,40.859-25.626C435.04,191.493,426.832,195.898,406.108,203.671"/>
<!--Rock-->
<g class="animated flipInY delay1200ms">
  <path fill="#D9D9DA" d="M154.651,343.717c8.736,0.312,14.396-2.502,14.818-6.752c0.424-4.244-1.44-12.182-17.129-20.301
    c-7.05,1.508-10.715,7.121-10.715,7.121l0.21,14.84C141.835,338.625,148.858,343.51,154.651,343.717"/>
  <path fill="#CECFD1" d="M154.651,343.717c8.736,0.312,14.396-2.502,14.818-6.752c0.196-1.965-0.008-4.779-2.03-7.924
    c-2.33-3.627-1.5,2.697-3.609,7.924C162.447,340.387,159.5,342.66,154.651,343.717"/>
</g>
</svg>
