<?xml version="1.0" encoding="utf-8"?>
<!DOCTYPE svg PUBLIC "-//W3C//DTD SVG 1.1//EN" "http://www.w3.org/Graphics/SVG/1.1/DTD/svg11.dtd">
<svg version="1.1" id="Calque_1" xmlns="http://www.w3.org/2000/svg" xmlns:xlink="http://www.w3.org/1999/xlink" x="0px" y="0px"
	 viewBox="0 0 566.93 566.93" enable-background="new 0 0 566.93 566.93" xml:space="preserve">
  <!--Background-->
	<path class="animated bounceInRight" fill="#F8D6C6" d="M453.507,268.458c0,93.617-75.892,169.51-169.507,169.51c-93.616,0-169.507-75.893-169.507-169.51
		c0-93.615,75.891-169.506,169.507-169.506S453.507,174.843,453.507,268.458"/>
  <!--Blackboard-->
  <g class="animated bounceInLeft delay1400ms">
    <g>
      <defs>
        <path id="SVGID_1_" d="M114.494,268.459c0,93.618,75.89,169.509,169.506,169.509c93.617,0,169.508-75.891,169.508-169.509
          c0-93.616-75.891-169.507-169.508-169.507S114.494,174.843,114.494,268.459"/>
      </defs>
      <clipPath id="SVGID_2_"><use xlink:href="#SVGID_1_"  overflow="visible"/></clipPath>
      <rect x="77.79" y="115.001" clip-path="url(#SVGID_2_)" fill="#FEF2D3" width="204.085" height="211.226"/>
    </g>
    <g>
      <defs>
        <path id="SVGID_3_" d="M114.494,268.459c0,93.618,75.89,169.509,169.506,169.509c93.617,0,169.508-75.891,169.508-169.509
          c0-93.616-75.891-169.507-169.508-169.507S114.494,174.843,114.494,268.459"/>
      </defs>
      <clipPath id="SVGID_4_"><use xlink:href="#SVGID_3_"  overflow="visible"/></clipPath>
      <rect x="77.79" y="127.69" clip-path="url(#SVGID_4_)" fill="#BCBCBF" width="191.043" height="185.85"/>
    </g>
    <g>
      <defs>
        <path id="SVGID_5_" d="M114.494,268.459c0,93.618,75.89,169.509,169.506,169.509c93.617,0,169.508-75.891,169.508-169.509
          c0-93.616-75.891-169.507-169.508-169.507S114.494,174.843,114.494,268.459"/>
      </defs>
      <clipPath id="SVGID_6_"><use xlink:href="#SVGID_5_"  overflow="visible"/></clipPath>
      <polygon clip-path="url(#SVGID_6_)" fill="#AFAFB1" points="77.79,127.69 268.833,127.69 268.833,313.538 263.836,313.538
        263.836,132.011 77.79,132.356 		"/>
    </g>
    <polygon fill="#D1B795" points="261.607,314.605 120.839,314.605 118.395,304.739 257.519,304.739 "/>
  </g>
  <!--Letters-->
  <g class="animated fadeIn delay2800ms">
    <g>
      <defs>
        <path id="SVGID_11_" d="M114.494,268.459c0,93.618,75.89,169.509,169.506,169.509c93.617,0,169.508-75.891,169.508-169.509
          c0-93.616-75.891-169.507-169.508-169.507S114.494,174.843,114.494,268.459"/>
      </defs>
      <clipPath id="SVGID_12_">
        <use xlink:href="#SVGID_11_"  overflow="visible"/>
      </clipPath>

        <polyline clip-path="url(#SVGID_12_)" fill="none" stroke="#FFFFFF" stroke-width="3" stroke-linecap="round" stroke-linejoin="round" stroke-miterlimit="10" points="
        87,173.96 103,173.96 139,173.96 156,173.96 		"/>
    </g>
    <g>
      <defs>
        <path id="SVGID_13_" d="M114.494,268.459c0,93.618,75.89,169.509,169.506,169.509c93.617,0,169.508-75.891,169.508-169.509
          c0-93.616-75.891-169.507-169.508-169.507S114.494,174.843,114.494,268.459"/>
      </defs>
      <clipPath id="SVGID_14_">
        <use xlink:href="#SVGID_13_"  overflow="visible"/>
      </clipPath>

        <line clip-path="url(#SVGID_14_)" fill="none" stroke="#FFFFFF" stroke-width="3" stroke-linecap="round" stroke-linejoin="round" stroke-miterlimit="10" x1="134" y1="181.96" x2="151" y2="181.96"/>
    </g>
    <g>
      <defs>
        <path id="SVGID_15_" d="M114.494,268.459c0,93.618,75.89,169.509,169.506,169.509c93.617,0,169.508-75.891,169.508-169.509
          c0-93.616-75.891-169.507-169.508-169.507S114.494,174.843,114.494,268.459"/>
      </defs>
      <clipPath id="SVGID_16_">
        <use xlink:href="#SVGID_15_"  overflow="visible"/>
      </clipPath>

        <polyline clip-path="url(#SVGID_16_)" fill="none" stroke="#FFFFFF" stroke-width="3" stroke-linecap="round" stroke-linejoin="round" stroke-miterlimit="10" points="
        153.25,192.515 136,191.96 131.5,172.599 		"/>
    </g>
    <g>
      <defs>
        <path id="SVGID_17_" d="M114.494,268.459c0,93.618,75.89,169.509,169.506,169.509c93.617,0,169.508-75.891,169.508-169.509
          c0-93.616-75.891-169.507-169.508-169.507S114.494,174.843,114.494,268.459"/>
      </defs>
      <clipPath id="SVGID_18_">
        <use xlink:href="#SVGID_17_"  overflow="visible"/>
      </clipPath>

        <line clip-path="url(#SVGID_18_)" fill="none" stroke="#FFFFFF" stroke-width="3" stroke-linecap="round" stroke-linejoin="round" stroke-miterlimit="10" x1="163" y1="183.96" x2="175" y2="183.96"/>
    </g>
    <g>
      <defs>
        <path id="SVGID_19_" d="M114.494,268.459c0,93.618,75.89,169.509,169.506,169.509c93.617,0,169.508-75.891,169.508-169.509
          c0-93.616-75.891-169.507-169.508-169.507S114.494,174.843,114.494,268.459"/>
      </defs>
      <clipPath id="SVGID_20_">
        <use xlink:href="#SVGID_19_"  overflow="visible"/>
      </clipPath>

        <line clip-path="url(#SVGID_20_)" fill="none" stroke="#FFFFFF" stroke-width="3" stroke-linecap="round" stroke-linejoin="round" stroke-miterlimit="10" x1="168.834" y1="177.628" x2="168.334" y2="190.11"/>
    </g>
    <g>
      <defs>
        <path id="SVGID_21_" d="M114.494,268.459c0,93.618,75.89,169.509,169.506,169.509c93.617,0,169.508-75.891,169.508-169.509
          c0-93.616-75.891-169.507-169.508-169.507S114.494,174.843,114.494,268.459"/>
      </defs>
      <clipPath id="SVGID_22_">
        <use xlink:href="#SVGID_21_"  overflow="visible"/>
      </clipPath>

        <polyline clip-path="url(#SVGID_22_)" fill="none" stroke="#FFFFFF" stroke-width="3" stroke-linecap="round" stroke-linejoin="round" stroke-miterlimit="10" points="
        192,176.794 186.5,185.628 200.243,185.294 		"/>
    </g>
    <g>
      <defs>
        <path id="SVGID_23_" d="M114.494,268.459c0,93.618,75.89,169.509,169.506,169.509c93.617,0,169.508-75.891,169.508-169.509
          c0-93.616-75.891-169.507-169.508-169.507S114.494,174.843,114.494,268.459"/>
      </defs>
      <clipPath id="SVGID_24_">
        <use xlink:href="#SVGID_23_"  overflow="visible"/>
      </clipPath>

        <line clip-path="url(#SVGID_24_)" fill="none" stroke="#FFFFFF" stroke-width="3" stroke-linecap="round" stroke-linejoin="round" stroke-miterlimit="10" x1="195.5" y1="180.599" x2="195.167" y2="193.128"/>
    </g>
    <g>
      <defs>
        <path id="SVGID_25_" d="M114.494,268.459c0,93.618,75.89,169.509,169.506,169.509c93.617,0,169.508-75.891,169.508-169.509
          c0-93.616-75.891-169.507-169.508-169.507S114.494,174.843,114.494,268.459"/>
      </defs>
      <clipPath id="SVGID_26_">
        <use xlink:href="#SVGID_25_"  overflow="visible"/>
      </clipPath>

        <path clip-path="url(#SVGID_26_)" fill="none" stroke="#FFFFFF" stroke-width="3" stroke-linecap="round" stroke-linejoin="round" stroke-miterlimit="10" d="
        M211.749,166.181c0,0,13.311,13.422,3.03,32.352"/>
    </g>
    <g>
      <defs>
        <path id="SVGID_27_" d="M114.494,268.459c0,93.618,75.89,169.509,169.506,169.509c93.617,0,169.508-75.891,169.508-169.509
          c0-93.616-75.891-169.507-169.508-169.507S114.494,174.843,114.494,268.459"/>
      </defs>
      <clipPath id="SVGID_28_">
        <use xlink:href="#SVGID_27_"  overflow="visible"/>
      </clipPath>

        <path clip-path="url(#SVGID_28_)" fill="none" stroke="#FFFFFF" stroke-width="3" stroke-linecap="round" stroke-linejoin="round" stroke-miterlimit="10" d="
        M109,243.53c14.5-0.069,19,0,19,0"/>
    </g>
    <g>
      <defs>
        <path id="SVGID_29_" d="M114.494,268.459c0,93.618,75.89,169.509,169.506,169.509c93.617,0,169.508-75.891,169.508-169.509
          c0-93.616-75.891-169.507-169.508-169.507S114.494,174.843,114.494,268.459"/>
      </defs>
      <clipPath id="SVGID_30_">
        <use xlink:href="#SVGID_29_"  overflow="visible"/>
      </clipPath>

        <line clip-path="url(#SVGID_30_)" fill="none" stroke="#FFFFFF" stroke-width="3" stroke-linecap="round" stroke-linejoin="round" stroke-miterlimit="10" x1="111" y1="252.96" x2="125" y2="252.96"/>
    </g>
    <g>
      <defs>
        <path id="SVGID_31_" d="M114.494,268.459c0,93.618,75.89,169.509,169.506,169.509c93.617,0,169.508-75.891,169.508-169.509
          c0-93.616-75.891-169.507-169.508-169.507S114.494,174.843,114.494,268.459"/>
      </defs>
      <clipPath id="SVGID_32_">
        <use xlink:href="#SVGID_31_"  overflow="visible"/>
      </clipPath>

        <path clip-path="url(#SVGID_32_)" fill="none" stroke="#FFFFFF" stroke-width="3" stroke-linecap="round" stroke-linejoin="round" stroke-miterlimit="10" d="
        M159,227.96h-18.5v11.5c0,0,11-4.211,15.5,0.396c4.5,4.604,14,21.769-15.5,17.687"/>
    </g>
    <g>
      <defs>
        <path id="SVGID_33_" d="M114.494,268.459c0,93.618,75.89,169.509,169.506,169.509c93.617,0,169.508-75.891,169.508-169.509
          c0-93.616-75.891-169.507-169.508-169.507S114.494,174.843,114.494,268.459"/>
      </defs>
      <clipPath id="SVGID_34_">
        <use xlink:href="#SVGID_33_"  overflow="visible"/>
      </clipPath>

        <path clip-path="url(#SVGID_34_)" fill="none" stroke="#FFFFFF" stroke-width="3" stroke-linecap="round" stroke-linejoin="round" stroke-miterlimit="10" d="
        M170,241.263c-0.453,6.701,16.5,20.338,16.5,2.269C186.5,225.46,171.5,219.066,170,241.263z"/>
    </g>
    <g>
      <defs>
        <path id="SVGID_35_" d="M114.494,268.459c0,93.618,75.89,169.509,169.506,169.509c93.617,0,169.508-75.891,169.508-169.509
          c0-93.616-75.891-169.507-169.508-169.507S114.494,174.843,114.494,268.459"/>
      </defs>
      <clipPath id="SVGID_36_">
        <use xlink:href="#SVGID_35_"  overflow="visible"/>
      </clipPath>

        <path clip-path="url(#SVGID_36_)" fill="none" stroke="#FFFFFF" stroke-width="3" stroke-linecap="round" stroke-linejoin="round" stroke-miterlimit="10" d="
        M190.5,227.272c8.202-0.774,24.606-1.026,24.606-1.026l-13.475,10.088c0,0,35.152,10.274,1.757,20.726"/>
    </g>

  </g>
  <!--Ground-->
  <g class="animated lightSpeedIn delay400ms">
    <defs>
      <path id="SVGID_7_" d="M114.494,268.459c0,93.618,75.89,169.509,169.506,169.509c93.617,0,169.508-75.891,169.508-169.509
        c0-93.616-75.891-169.507-169.508-169.507S114.494,174.843,114.494,268.459"/>
    </defs>
    <clipPath id="SVGID_8_">
      <use xlink:href="#SVGID_7_"  overflow="visible"/>
    </clipPath>
    <rect x="77.79" y="408.523" clip-path="url(#SVGID_8_)" fill="#FEF2D3" width="382.087" height="72.158"/>
  </g>
  <!--Panda-->
  <g class="animated bounceInDown delay1s">
    <g>
      <defs>
        <path id="SVGID_9_" d="M114.494,268.459c0,93.618,75.89,169.509,169.506,169.509c93.617,0,169.508-75.891,169.508-169.509
          c0-93.616-75.891-169.507-169.508-169.507S114.494,174.843,114.494,268.459"/>
      </defs>
      <clipPath id="SVGID_10_">
        <use xlink:href="#SVGID_9_"  overflow="visible"/>
      </clipPath>
      <path clip-path="url(#SVGID_10_)" fill="#4B4B4D" d="M272.925,322.648c-13.276,23.06-12.6,103.179,13.952,103.179
        s7.189-43.455,48.64-43.722c41.45-0.266,30.575,51.171,57.827,51.171c27.251,0,18.635-79.185,15.142-106.437
        S272.925,322.648,272.925,322.648"/>
    </g>
    <path fill="#4B4B4D" d="M252.079,292.798c-0.83,11.438,59.844-25.666,45.17-50.658c0,0,0-15.424-29.348-23.702
      c-29.349-8.276-54.773-23.677-65.256-2.015c-10.48,21.662,33.094,29.896,44.03,45.271
      C257.613,277.066,252.877,281.782,252.079,292.798"/>
    <path fill="#FBFBFC" d="M334.321,213.651c-48.501-4.514-67.979,24.828-78.299,60.443c-12.973,44.773-3.603,100.189,70.924,102.719
      c79.451,2.695,82.421-58.084,67.78-105.164C384.707,239.438,379.353,217.845,334.321,213.651"/>
    <path fill="#4B4B4D" d="M375.16,247.194c0.699-14.674,30.314-28.301,49.961,49.961c9.582,38.172-4.971,47.129-15.021,48.352
      c-10.801,1.313-17.59-7.034-19.218-19.703C387.739,301.348,374.384,263.472,375.16,247.194"/>
    <path fill="#4B4B4D" d="M301.533,222.22c-14.859,16.898-15.068,39.854,9.577,42.525c24.647,2.676,40.127-16.395,53.411-28.854
      c13.285-12.459-12.021-11.621-12.021-11.621L301.533,222.22z"/>
    <path fill="#E7ECB5" d="M315.627,328.682c-3.281-2.979-10.101-8.479-12.312-14.074c-3.433-29.297,15.367-73.344,15.367-73.344
      l7.173,0.609c0,0,0,55.625-2.354,72.733C319.66,323.667,315.627,328.682,315.627,328.682"/>
    <path fill="#E7ECB5" d="M316.455,236.179c1.404,2.859,2.095,6.156,2.095,6.156l6.611,1.196l5.387-6.647L316.455,236.179z"/>
    <path fill="#E7ECB5" d="M316.125,237.278c-3.067-0.332-12.808-10.812-12.808-10.812l53.04,5.137
      C356.358,231.603,339.675,239.845,316.125,237.278"/>
    <path fill="#4B4B4D" d="M289.378,169.397c-3.312-12.61,10.313-21.369,16.604-9.84C295.72,163.071,292.01,179.412,289.378,169.397"/>
    <path fill="#FBFBFC" d="M314.052,235.892c9.258,1.398,18.729-2.805,27.114-2.106c0,0,33.11,10.472,43.941-20.759
      c10.832-31.23-14.063-57.495-46.633-59.807c-32.567-2.308-66.373,19.459-55.723,52.139c4.605,14.138,11.572,12.253,18.778,21.625
      C305.025,231.529,304.794,234.496,314.052,235.892"/>
    <path fill="#4B4B4D" d="M364.166,166.737c11.88-18.166,32.844-1.396,15.023,15.373C373.601,172.677,370.807,167.786,364.166,166.737
      "/>
    <path fill="#4B4B4D" d="M321.356,195.864c13.508,2.738,15.77,11.283-5.241,17.328C302.49,200.377,305.984,192.752,321.356,195.864"
      />
    <path fill="#4B4B4D" d="M312.783,168.192c8.641,1.416-2.26,26.943-15.885,30.09c-13.626,3.143-11.181-11.53-6.639-15.375
      c2.047-1.732,8.449-2.426,12.059-5.939C306.712,172.687,305.348,166.974,312.783,168.192"/>
    <path fill="#4B4B4D" d="M344.506,172.601c7.831-0.187,11.438,8.211,13.532,17.646c2.099,9.431,14.677,2.718,13.978,13.937
      c-0.7,11.217-18.867,12.443-28.999-5.463C332.886,180.812,337.372,172.772,344.506,172.601"/>
    <path fill="#FBFBFC" d="M344.765,182.11c3.843-0.6,5.938,9.029,2.096,9.281C343.017,191.642,340.92,182.711,344.765,182.11"/>
    <path fill="#FBFBFC" d="M308.965,176.151c2.956,1.414-0.493,9.459-2.675,7.578C304.112,181.849,306.01,174.737,308.965,176.151"/>
    <path fill="#E7D5E7" d="M302.319,216.423c5.412,3.17,10.409,2.871,12.157,2.172c1.396,1.05,3.932,3.625,9.868,3.625
      c5.938,0,10.637-1.577,14.132-0.881c-6.988,4.193-12.179,12.455-22.086,10.482c-9.904-1.972-8.888-3.918-8.774-7.548
      C307.73,220.64,304.241,219.893,302.319,216.423"/>
  </g>
  <!--Chalk-->
  <g class="animated bounceInDown delay2s">
    <path fill="#FFFFFF" d="M201.678,203.073c9.417,6.537,23.017,15.431,23.017,15.431l-3.401,4.519l-22.49-15.929L201.678,203.073z"/>
    <path fill="#FFFFFF" d="M201.683,203.071c0.312,0.222-0.08,1.306-0.874,2.414c-0.794,1.109-1.691,1.83-2.005,1.607
      c-0.313-0.227,0.079-1.307,0.872-2.414C200.473,203.569,201.371,202.849,201.683,203.071"/>
    <polygon fill="#F6F5F6" points="223.007,220.745 221.293,223.022 198.803,207.094 200.241,205.081 "/>
    <path fill="#F6F5F6" d="M200.809,205.485c-0.794,1.109-1.691,1.83-2.005,1.607c-0.313-0.227,0.079-1.306,0.872-2.414
      L200.809,205.485z"/>

  </g>
  <!--Part of panda in front of chalk-->
  <g class="animated bounceInDown delay1s">
    <path fill="#4B4B4D" d="M222.08,211.804c-11.181-0.848-9.521,9.814,4.992,10.385c5.878,0.232,4.367,5.766,4.367,5.766"/>
  </g>
  <!--Text-->
  <g class="animated rotateInUpLeft delay3s">
    <path fill="#F8D6C6" d="M135.745,411.979c0.149-0.146,0.259-0.336,0.324-0.527l4.488-14.873c0.048-0.338,0.517-0.459,0.788-0.18
      l2.929,3.01c0.188,0.193,0.229,0.406,0.16,0.682l-3.143,9.545c-0.022,0.105-0.002,0.17,0.061,0.234l0.021,0.021
      c0.041,0.043,0.104,0.065,0.211,0.045l9.628-2.881c0.276-0.06,0.489-0.015,0.677,0.18l2.928,3.01c0.272,0.279,0.14,0.744-0.2,0.783
      l-14.99,4.08c-0.192,0.061-0.384,0.164-0.535,0.311l-4.021,3.912c-0.279,0.271-0.703,0.266-0.976-0.014l-2.385-2.451
      c-0.272-0.279-0.267-0.703,0.013-0.977L135.745,411.979z"/>
    <path fill="#F8D6C6" d="M151.261,420.143c1.862-2.314,4.09-3.603,6.705-3.888c2.615-0.282,5.068,0.496,7.382,2.356
      c2.314,1.861,3.602,4.091,3.885,6.706c0.284,2.612-0.495,5.065-2.356,7.381l-1.089,1.354c-1.862,2.314-4.109,3.625-6.725,3.91
      c-2.596,0.26-5.049-0.52-7.362-2.381c-2.314-1.861-3.603-4.09-3.905-6.682c-0.283-2.613,0.515-5.091,2.376-7.404L151.261,420.143z
       M153.958,424.542c-2.2,2.734-1.978,5.57,0.523,7.582s5.318,1.619,7.519-1.115l1.09-1.354c2.199-2.734,1.977-5.57-0.525-7.582
      c-2.501-2.012-5.316-1.619-7.517,1.114L153.958,424.542z"/>
    <path fill="#F8D6C6" d="M176.839,428.376c0.142-0.229,0.497-0.293,0.727-0.15l3.195,1.966c0.23,0.141,0.308,0.471,0.167,0.7
      l-6.443,10.479c-1.384,2.25-0.964,4.373,1.184,5.693c2.172,1.336,4.257,0.752,5.641-1.496l6.444-10.48
      c0.141-0.229,0.471-0.309,0.701-0.166l3.22,1.98c0.229,0.141,0.309,0.471,0.168,0.7l-6.444,10.479
      c-1.351,2.197-3.142,3.562-5.381,4.053c-2.239,0.49-4.452,0.08-6.676-1.287c-2.223-1.364-3.587-3.157-4.16-5.377
      c-0.548-2.203-0.137-4.416,1.214-6.612L176.839,428.376z"/>
    <path fill="#F8D6C6" d="M196.995,440.362c0.111-0.246,0.457-0.353,0.702-0.24l0.409,0.188c0.191,0.087,0.304,0.203,0.362,0.363
      l5.467,14.555c0.06,0.158,0.318,0.242,0.417,0.025l4.354-9.555c0.111-0.246,0.43-0.365,0.675-0.254l3.412,1.555
      c0.246,0.113,0.392,0.443,0.281,0.688l-8.357,18.345c-0.113,0.246-0.457,0.352-0.703,0.239l-0.464-0.211
      c-0.191-0.088-0.345-0.258-0.419-0.454l-5.328-14.427c-0.075-0.198-0.345-0.256-0.445-0.039l-4.352,9.556
      c-0.112,0.246-0.43,0.364-0.676,0.254l-3.412-1.556c-0.246-0.112-0.393-0.442-0.28-0.688L196.995,440.362z"/>
    <path fill="#F8D6C6" d="M215.187,458.403c0.885-2.836,2.489-4.851,4.848-6.062c2.367-1.24,4.965-1.403,7.742-0.537
      c2.234,0.697,3.956,1.929,5.196,3.697c0.252,0.299,0.209,0.537-0.1,0.723l-2.903,2.05c-0.281,0.194-0.519,0.151-0.734-0.166
      c-0.664-0.994-1.607-1.697-2.781-2.064c-2.979-0.93-5.625,0.602-6.627,3.812l-0.52,1.659c-1.01,3.236,0.208,5.879,3.188,6.812
      c1.088,0.34,2.18,0.365,3.255,0.041c0.273-0.072,0.451-0.236,0.55-0.551l0.429-1.375c0.062-0.201-0.017-0.353-0.217-0.414
      l-2.577-0.806c-0.258-0.08-0.444-0.389-0.364-0.646l0.751-2.406c0.099-0.315,0.324-0.434,0.669-0.326l6.987,2.183
      c0.315,0.098,0.434,0.323,0.335,0.639l-2.996,9.596c-0.08,0.256-0.381,0.416-0.639,0.334l-0.487-0.151
      c-0.229-0.07-0.401-0.222-0.521-0.445l-0.857-1.682c-0.099-0.189-0.271-0.242-0.486-0.152c-1.788,0.793-3.724,0.85-5.843,0.188
      c-2.577-0.805-4.42-2.354-5.507-4.61c-1.079-2.285-1.193-4.836-0.309-7.672L215.187,458.403z"/>
    <path fill="#F8D6C6" d="M249.535,458.101c0.036-0.268,0.308-0.471,0.574-0.434l9.329,1.307c1.693,0.238,3.028,1.093,4.06,2.601
      c1.033,1.479,1.441,3.108,1.188,4.922l-0.03,0.209c-0.271,1.93-1.122,3.477-2.524,4.613c-1.401,1.137-3.038,1.573-4.909,1.311
      l-4.457-0.625c-0.237-0.033-0.373,0.07-0.402,0.277l-0.903,6.447c-0.046,0.325-0.249,0.479-0.576,0.434l-3.714-0.521
      c-0.326-0.047-0.479-0.25-0.435-0.575L249.535,458.101z M254.086,462.587c-0.238-0.035-0.374,0.068-0.407,0.305l-0.678,4.845
      c-0.034,0.237,0.067,0.371,0.306,0.405l3.001,0.421c1.574,0.221,2.73-0.677,2.959-2.312l0.029-0.209
      c0.232-1.662-0.606-2.811-2.239-3.039L254.086,462.587z"/>
    <path fill="#F8D6C6" d="M274.346,460.688c0.132-0.266,0.348-0.405,0.648-0.393l0.719,0.031c0.3,0.012,0.503,0.172,0.611,0.445
      l7.671,20.479c0.105,0.336-0.147,0.625-0.478,0.611l-3.896-0.17c-0.329-0.015-0.533-0.173-0.642-0.447l-0.614-1.738
      c-0.138-0.307-0.341-0.465-0.61-0.477l-6.413-0.277c-0.27-0.012-0.486,0.129-0.649,0.422l-0.763,1.678
      c-0.132,0.267-0.348,0.406-0.677,0.394l-3.896-0.17c-0.33-0.015-0.557-0.324-0.423-0.648L274.346,460.688z M272.589,474.933
      c-0.1,0.207-0.014,0.33,0.195,0.341l3.836,0.166c0.21,0.008,0.305-0.107,0.224-0.32l-1.715-4.758
      c-0.081-0.215-0.321-0.226-0.42-0.021L272.589,474.933z"/>
    <path fill="#F8D6C6" d="M288.965,461.116c-0.021-0.269,0.23-0.527,0.501-0.547l0.448-0.033c0.209-0.017,0.362,0.033,0.491,0.143
      l11.791,10.142c0.129,0.108,0.396,0.061,0.378-0.179l-0.772-10.475c-0.021-0.268,0.201-0.525,0.471-0.545l3.74-0.277
      c0.269-0.02,0.556,0.199,0.577,0.47l1.484,20.106c0.021,0.271-0.23,0.529-0.501,0.549l-0.508,0.039
      c-0.21,0.015-0.426-0.061-0.586-0.199l-11.607-10.092c-0.16-0.139-0.427-0.059-0.407,0.181l0.772,10.473
      c0.021,0.27-0.2,0.527-0.47,0.547l-3.741,0.277c-0.269,0.02-0.556-0.199-0.575-0.47L288.965,461.116z"/>
    <path fill="#F8D6C6" d="M319.851,457.019c2.942-0.586,5.5-0.176,7.646,1.232c2.14,1.379,3.514,3.521,4.08,6.377l0.339,1.705
      c0.632,3.178-0.066,5.977-1.651,7.852c-1.584,1.873-3.786,3.105-6.287,3.604l-6.941,1.379c-0.266,0.053-0.548-0.137-0.601-0.4
      l-3.927-19.77c-0.054-0.266,0.136-0.547,0.4-0.6L319.851,457.019z M318.28,461.733c-0.205,0.041-0.3,0.182-0.26,0.389l2.315,11.647
      c0.04,0.207,0.182,0.302,0.387,0.261l2.413-0.479c3.089-0.612,4.663-3.006,4.014-6.271l-0.339-1.707
      c-0.655-3.295-2.97-4.945-6.118-4.32L318.28,461.733z"/>
    <path fill="#F8D6C6" d="M340.733,452.14c0.031-0.293,0.187-0.5,0.472-0.592l0.686-0.221c0.286-0.092,0.531-0.012,0.729,0.207
      l14.295,16.555c0.216,0.277,0.078,0.637-0.235,0.736l-3.714,1.192c-0.313,0.101-0.561,0.021-0.757-0.198l-1.18-1.416
      c-0.233-0.24-0.48-0.32-0.736-0.236l-6.113,1.963c-0.258,0.082-0.411,0.289-0.463,0.621l-0.135,1.838
      c-0.031,0.295-0.187,0.502-0.5,0.603l-3.713,1.192c-0.314,0.101-0.635-0.11-0.621-0.463L340.733,452.14z M344.022,466.114
      c-0.021,0.227,0.101,0.313,0.301,0.25l3.655-1.174c0.2-0.064,0.249-0.207,0.1-0.38l-3.259-3.868
      c-0.149-0.173-0.378-0.101-0.399,0.129L344.022,466.114z"/>
    <path fill="#F8D6C6" d="M351.191,449.28c-0.224-0.191-0.174-0.58,0.125-0.722l3.583-1.688c0.298-0.141,0.592-0.08,0.813,0.18
      l8.53,9.447c0.171,0.152,0.373,0.09,0.42-0.164l-0.273-12.342c-0.008-0.229,0.062-0.361,0.252-0.451l0.082-0.037
      c0.188-0.09,0.337-0.061,0.508,0.092l9.313,8.084c0.173,0.084,0.389,0.049,0.395-0.219l-1.854-12.594
      c-0.06-0.338,0.082-0.603,0.381-0.742l3.556-1.676c0.299-0.142,0.657,0.055,0.663,0.352l2.567,21.015
      c0.061,0.336-0.095,0.573-0.394,0.715l-1.817,0.856c-0.3,0.142-0.54,0.121-0.736-0.086l-8.343-7.147
      c-0.092-0.123-0.417,0.03-0.38,0.18l0.198,10.984c0.006,0.295-0.133,0.493-0.403,0.62l-1.818,0.857
      c-0.298,0.141-0.579,0.107-0.802-0.152L351.191,449.28z"/>
    <path fill="#F8D6C6" d="M384.864,431.608c-0.044-0.293,0.054-0.531,0.306-0.693l0.605-0.389c0.252-0.162,0.511-0.148,0.757,0.014
      l18.056,12.346c0.277,0.213,0.237,0.597-0.039,0.773l-3.285,2.104c-0.278,0.179-0.536,0.164-0.782,0.002l-1.504-1.067
      c-0.288-0.172-0.545-0.187-0.772-0.039l-5.406,3.461c-0.229,0.145-0.323,0.385-0.288,0.719l0.34,1.812
      c0.045,0.291-0.051,0.53-0.329,0.709l-3.285,2.102c-0.277,0.18-0.641,0.055-0.719-0.287L384.864,431.608z M391.619,444.276
      c0.037,0.225,0.179,0.276,0.354,0.164l3.233-2.07c0.178-0.113,0.188-0.264-0.001-0.392l-4.141-2.907
      c-0.188-0.127-0.391,0.002-0.354,0.227L391.619,444.276z"/>
    <path fill="#F8D6C6" d="M397.113,423.521c-0.171-0.207-0.115-0.564,0.093-0.736l0.35-0.285c0.161-0.135,0.314-0.184,0.483-0.166
      l15.482,1.488c0.169,0.018,0.357-0.179,0.206-0.363l-6.671-8.113c-0.171-0.207-0.14-0.545,0.069-0.717l2.897-2.383
      c0.208-0.172,0.568-0.158,0.741,0.051l12.807,15.576c0.171,0.209,0.115,0.563-0.093,0.736l-0.395,0.323
      c-0.162,0.134-0.383,0.197-0.594,0.179l-15.305-1.558c-0.211-0.021-0.381,0.195-0.229,0.381l6.672,8.113
      c0.171,0.209,0.139,0.547-0.069,0.719l-2.898,2.382c-0.208,0.172-0.568,0.157-0.74-0.052L397.113,423.521z"/>
    <path fill="#F8D6C6" d="M425.184,399.581c0.339-0.049,0.531,0.099,0.58,0.438l0.551,3.616c0.026,0.318-0.139,0.617-0.478,0.623
      c-1.188,0.104-2.155,0.548-2.885,1.304c-1.188,1.229-1.341,2.25-0.499,3.062l0.064,0.062c0.885,0.855,1.96,0.476,4.56-1.352
      c3.312-2.348,6.111-2.396,8.463-0.125l0.087,0.084c1.488,1.438,2.176,3.145,1.996,5.1c-0.178,1.955-1.121,3.795-2.852,5.586
      s-4.36,3.047-6.73,3.427c-0.273,0.067-0.597-0.158-0.602-0.455l-0.572-3.683c-0.049-0.34,0.118-0.512,0.457-0.561
      c1.461-0.131,3.146-0.881,4.146-1.918c1.584-1.639,1.71-2.936,0.848-3.77l-0.086-0.082c-0.456-0.607-1.24-0.531-1.873-0.351
      c-0.169,0.045-0.464,0.179-0.842,0.396l-0.903,0.545l-1.133,0.74c-0.062,0.023-0.126,0.088-0.23,0.154l-1.237,0.805
      c-0.294,0.176-0.778,0.375-1.411,0.599c-0.611,0.2-1.183,0.317-1.692,0.282c-0.978-0.065-2.449-0.614-3.744-1.864l-0.087-0.084
      c-1.402-1.354-2.045-2.935-1.948-4.72c0.116-1.805,0.938-3.516,2.479-5.112C421.068,400.818,422.918,399.896,425.184,399.581"/>
    <path fill="#F8D6C6" d="M161.806,94.112c-0.154-0.222-0.093-0.556,0.13-0.709l7.747-5.357c1.406-0.973,2.966-1.248,4.745-0.838
      c1.763,0.388,3.168,1.312,4.208,2.816l0.12,0.174c1.108,1.604,1.529,3.318,1.268,5.104c-0.261,1.785-1.169,3.214-2.724,4.29
      l-3.7,2.558c-0.198,0.137-0.228,0.305-0.108,0.477l3.701,5.354c0.188,0.271,0.143,0.523-0.129,0.71l-3.084,2.134
      c-0.271,0.188-0.521,0.141-0.71-0.131L161.806,94.112z M168.192,94.329c-0.197,0.137-0.228,0.304-0.092,0.5l2.781,4.021
      c0.137,0.197,0.304,0.229,0.501,0.092l2.492-1.723c1.308-0.904,1.549-2.348,0.61-3.704l-0.118-0.173
      c-0.956-1.383-2.351-1.659-3.707-0.721L168.192,94.329z"/>
    <path fill="#F8D6C6" d="M184.681,79.341c-0.025-0.295,0.087-0.526,0.349-0.672l0.632-0.349c0.262-0.144,0.519-0.114,0.754,0.065
      L203.62,91.89c0.265,0.229,0.198,0.609-0.091,0.768l-3.416,1.883c-0.288,0.159-0.545,0.129-0.779-0.05l-1.431-1.164
      c-0.275-0.19-0.532-0.22-0.769-0.09l-5.623,3.099c-0.236,0.131-0.348,0.363-0.335,0.698l0.222,1.831
      c0.024,0.294-0.087,0.527-0.376,0.686l-3.415,1.883c-0.289,0.16-0.645,0.013-0.698-0.334L184.681,79.341z M190.59,92.425
      c0.021,0.228,0.159,0.289,0.343,0.187l3.364-1.853c0.184-0.102,0.204-0.25,0.023-0.391l-3.939-3.173
      c-0.181-0.14-0.392-0.024-0.368,0.204L190.59,92.425z"/>
    <path fill="#F8D6C6" d="M200.299,71.396c-0.1-0.252,0.062-0.574,0.312-0.674l0.419-0.166c0.195-0.078,0.356-0.078,0.513-0.011
      l14.286,6.138c0.155,0.067,0.396-0.06,0.307-0.283l-3.877-9.758c-0.1-0.25,0.035-0.562,0.286-0.662l3.483-1.385
      c0.251-0.099,0.591,0.024,0.69,0.275l7.445,18.734c0.099,0.25-0.063,0.572-0.314,0.672l-0.474,0.188
      c-0.195,0.078-0.423,0.072-0.618-0.012l-14.096-6.149c-0.195-0.084-0.425,0.072-0.335,0.295l3.877,9.758
      c0.1,0.25-0.035,0.562-0.286,0.662l-3.484,1.385c-0.251,0.1-0.591-0.024-0.69-0.275L200.299,71.396z"/>
    <path fill="#F8D6C6" d="M232.412,59.786c2.906-0.74,5.482-0.469,7.699,0.824c2.21,1.264,3.696,3.33,4.414,6.15l0.43,1.686
      c0.799,3.139,0.251,5.973-1.232,7.928c-1.482,1.957-3.616,3.305-6.087,3.933l-6.859,1.748c-0.262,0.065-0.554-0.108-0.619-0.37
      l-4.975-19.533c-0.066-0.262,0.107-0.553,0.369-0.619L232.412,59.786z M231.094,64.577c-0.204,0.053-0.291,0.199-0.239,0.401
      l2.932,11.511c0.052,0.205,0.197,0.291,0.4,0.238l2.384-0.605c3.053-0.777,4.496-3.25,3.676-6.478l-0.43-1.685
      c-0.829-3.256-3.229-4.78-6.34-3.988L231.094,64.577z"/>
    <path fill="#F8D6C6" d="M256.264,55.53c0.084-0.283,0.273-0.459,0.571-0.498l0.714-0.093c0.297-0.038,0.525,0.083,0.679,0.335
      l11.081,18.861c0.161,0.312-0.038,0.64-0.365,0.684l-3.867,0.504c-0.328,0.041-0.556-0.08-0.709-0.332l-0.906-1.606
      c-0.188-0.279-0.415-0.4-0.684-0.366l-6.366,0.831c-0.269,0.034-0.457,0.209-0.567,0.526l-0.463,1.785
      c-0.084,0.283-0.273,0.459-0.602,0.502l-3.867,0.504c-0.327,0.043-0.604-0.225-0.527-0.567L256.264,55.53z M256.982,69.87
      c-0.062,0.221,0.043,0.328,0.251,0.301l3.81-0.495c0.208-0.028,0.282-0.159,0.166-0.354l-2.511-4.395
      c-0.115-0.198-0.354-0.166-0.416,0.053L256.982,69.87z"/>
    <path fill="#F8D6C6" d="M286.621,55.005c0.271,0.205,0.307,0.443,0.102,0.717l-2.173,2.947c-0.206,0.242-0.534,0.338-0.779,0.103
      c-0.912-0.765-1.908-1.14-2.959-1.122c-1.71,0.027-2.54,0.641-2.521,1.811l0.002,0.09c0.02,1.23,1.048,1.725,4.178,2.272
      c4.001,0.687,6.014,2.634,6.067,5.904l0.002,0.12c0.034,2.068-0.689,3.762-2.199,5.016c-1.51,1.255-3.48,1.887-5.97,1.928
      c-2.49,0.041-5.236-0.935-7.18-2.344c-0.242-0.146-0.309-0.535-0.103-0.749l2.202-3.005c0.205-0.273,0.445-0.277,0.719-0.072
      c1.126,0.942,2.847,1.604,4.287,1.58c2.28-0.037,3.286-0.863,3.267-2.062l-0.002-0.12c0.108-0.753-0.501-1.253-1.076-1.574
      c-0.151-0.087-0.452-0.202-0.875-0.315l-1.024-0.254l-1.324-0.277c-0.061-0.029-0.151-0.028-0.271-0.057l-1.446-0.307
      c-0.331-0.083-0.815-0.287-1.42-0.577c-0.574-0.29-1.061-0.612-1.396-0.997c-0.642-0.74-1.296-2.17-1.325-3.969l-0.002-0.121
      c-0.03-1.949,0.634-3.52,1.964-4.712c1.361-1.192,3.151-1.821,5.371-1.858C282.836,52.966,284.797,53.624,286.621,55.005"/>
    <path fill="#F8D6C6" d="M304.174,54.647c0.038-0.269,0.308-0.473,0.576-0.436l14.913,2.084c0.268,0.038,0.472,0.309,0.435,0.576
      l-0.457,3.268c-0.037,0.268-0.309,0.473-0.575,0.434l-4.753-0.663c-0.208-0.029-0.344,0.073-0.377,0.312l-2.212,15.834
      c-0.046,0.326-0.249,0.48-0.605,0.43l-3.714-0.519c-0.326-0.046-0.479-0.249-0.435-0.575l2.212-15.834
      c0.034-0.238-0.068-0.373-0.307-0.406l-4.725-0.66c-0.268-0.037-0.472-0.309-0.435-0.576L304.174,54.647z"/>
    <path fill="#F8D6C6" d="M327.03,58.288c0.066-0.263,0.357-0.437,0.619-0.369l13.146,3.316c0.263,0.066,0.464,0.365,0.398,0.627
      l-0.808,3.198c-0.066,0.263-0.388,0.429-0.648,0.362l-8.667-2.186c-0.204-0.053-0.349,0.034-0.399,0.238l-0.91,3.605
      c-0.053,0.205,0.035,0.351,0.238,0.401l6.281,1.585c0.32,0.081,0.474,0.336,0.393,0.656l-0.705,2.792
      c-0.064,0.261-0.387,0.428-0.647,0.362l-6.282-1.586c-0.202-0.051-0.349,0.035-0.407,0.269l-0.865,3.433
      c-0.052,0.203,0.035,0.35,0.238,0.399l8.667,2.188c0.263,0.064,0.466,0.363,0.398,0.625l-0.808,3.199
      c-0.065,0.262-0.388,0.43-0.648,0.362l-13.146-3.317c-0.263-0.064-0.437-0.356-0.369-0.619L327.03,58.288z"/>
    <path fill="#F8D6C6" d="M355.253,66.604c0.208-0.21,0.458-0.275,0.737-0.169l0.673,0.257c0.28,0.106,0.424,0.321,0.439,0.615
      l0.847,21.854c-0.005,0.353-0.336,0.547-0.645,0.431l-3.646-1.386c-0.309-0.116-0.451-0.332-0.469-0.627l-0.037-1.844
      c-0.033-0.332-0.177-0.548-0.43-0.644l-6.002-2.279c-0.252-0.096-0.502-0.03-0.748,0.197l-1.253,1.353
      c-0.208,0.211-0.457,0.277-0.767,0.159l-3.646-1.384c-0.308-0.118-0.426-0.484-0.196-0.749L355.253,66.604z M349.107,79.577
      c-0.158,0.166-0.116,0.31,0.079,0.385l3.59,1.363c0.196,0.074,0.323-0.006,0.313-0.234l-0.134-5.057
      c-0.01-0.229-0.233-0.313-0.394-0.149L349.107,79.577z"/>
    <path fill="#F8D6C6" d="M365.657,80.894c1.363-2.64,3.29-4.346,5.823-5.131c2.546-0.812,5.105-0.537,7.69,0.797
      c2.054,1.062,3.562,2.584,4.503,4.555c0.145,0.311,0.062,0.537-0.265,0.708l-3.172,1.502c-0.378,0.142-0.604,0.058-0.721-0.306
      c-0.43-1.064-1.236-1.922-2.383-2.514c-2.88-1.486-5.576-0.447-7.159,2.618l-0.799,1.546c-1.556,3.014-0.84,5.812,2.039,7.299
      c1.094,0.565,2.219,0.74,3.389,0.5c0.35-0.089,0.59,0.035,0.652,0.371l0.639,3.537c0.091,0.284-0.143,0.602-0.425,0.625
      c-2.085,0.376-4.187-0.001-6.292-1.087c-2.64-1.362-4.346-3.291-5.157-5.771c-0.801-2.506-0.525-5.064,0.838-7.703L365.657,80.894z"
      />
    <path fill="#F8D6C6" d="M391.256,84.214c0.151-0.225,0.512-0.27,0.732-0.117l3.094,2.119c0.225,0.152,0.285,0.486,0.134,0.709
      l-4.44,6.484c-0.119,0.174-0.088,0.34,0.11,0.477l6.409,4.391c0.174,0.119,0.341,0.087,0.459-0.086l4.44-6.484
      c0.153-0.223,0.511-0.268,0.734-0.115l3.094,2.119c0.222,0.151,0.285,0.485,0.132,0.709l-11.392,16.631
      c-0.153,0.224-0.486,0.285-0.709,0.134l-3.094-2.119c-0.224-0.153-0.311-0.504-0.157-0.728l4.34-6.336
      c0.136-0.197,0.104-0.363-0.069-0.482l-6.41-4.391c-0.197-0.137-0.364-0.104-0.5,0.094l-4.34,6.336
      c-0.152,0.222-0.485,0.285-0.709,0.133l-3.094-2.12c-0.224-0.151-0.312-0.503-0.157-0.726L391.256,84.214z"/>
  </g>
</svg>
