<?xml version="1.0" encoding="utf-8"?>
<!DOCTYPE svg PUBLIC "-//W3C//DTD SVG 1.1//EN" "http://www.w3.org/Graphics/SVG/1.1/DTD/svg11.dtd">
<svg version="1.1" id="Calque_1" xmlns="http://www.w3.org/2000/svg" xmlns:xlink="http://www.w3.org/1999/xlink" x="0px" y="0px"
	 viewBox="0 0 566.93 566.93" enable-background="new 0 0 566.93 566.93" xml:space="preserve">
  <!--Background-->
	<path class="animated bounceInRight" fill="#F8F5F9" d="M452.968,268.463c0,93.615-75.892,169.506-169.508,169.506c-93.617,0-169.508-75.891-169.508-169.506
		c0-93.62,75.891-169.511,169.508-169.511C377.076,98.952,452.968,174.843,452.968,268.463"/>
  <!--Wall-->
  <path class="animated bounceInLeft delay400ms" fill="#CFE8E9" d="M451.541,290.496c0.938-7.213,1.427-14.566,1.427-22.033c0-93.619-75.892-169.511-169.508-169.511
    c-93.617,0-169.508,75.892-169.508,169.511c0,7.467,0.485,14.82,1.424,22.033H451.541z"/>
  <!--Treadmills-->
  <g class="animated bounceInLeft delay1600ms">
    <path fill="#CECFD1" d="M430.589,218.757v108.019c0,10.804-24.746,12.966-24.746,0V218.757
      C405.843,204.064,430.589,203.603,430.589,218.757"/>
    <polygon fill="#C4C4C5" points="359.317,408.387 87.224,392.234 70.931,391.494 139.698,318.104 427.899,333.902 "/>
    <path fill="#C4C4C5" d="M158.712,312.107h254.02c21.603,0,25.919,27.27,0,27.27h-254.02
      C129.335,339.377,128.411,312.107,158.712,312.107"/>
    <path fill="none" stroke="#C4C4C5" stroke-miterlimit="10" d="M90.706,385.316h254.018c21.602,0,25.922,27.268,0,27.268H90.706
      C61.327,412.584,60.405,385.316,90.706,385.316z"/>
    <path fill="#D5D5D7" d="M90.706,387.449h254.018c15.19,0,21.074,11.867,14.664,19.242c-2.705,3.113-6.972,5.893-14.664,5.893H90.706
      C61.327,412.584,60.405,387.449,90.706,387.449"/>
    <path fill="#CDCECE" d="M90.706,385.316h254.018c10.801,0,14.998,6.817,15.539,13.635c0.094,1.191-5.73-6.355-20.26-6.355H90.593
      c-10.572,0-17.76-0.15-19.662,6.979c-1.697-0.054-2.6-0.246-2.604-0.623C68.21,392.135,75.554,385.316,90.706,385.316"/>
    <path fill="#C4C4C5" d="M344.724,388.15c5.747,0,9.298,2.11,11.266,3.885c2.389,2.15,3.757,5.008,3.757,7.838
      c0,1.809-0.562,4.418-3.237,6.588c-2.651,2.152-6.728,3.287-11.784,3.287H90.706c-12.832,0-19.547-5.512-19.547-10.957
      c0-5.125,6.116-10.641,19.547-10.641H344.724 M344.724,385.316H90.706c-30.302,0-29.379,27.268,0,27.268h254.018
      C370.646,412.584,366.324,385.316,344.724,385.316"/>

  </g>
  <!--Panda-->
  <g class="animated rollIn delay1600ms">
    <path fill="#4B4B4D" d="M297.448,280.26c8.287,4.024,23.963,15.09,26.332,33.137c2.367,18.047,19.938,30.685,9.525,45.504
      c-13.753,19.568-37.051,0.65-41.49-20.061c-4.438-20.711-24.791-13.764-31.594-15.959
      C253.417,320.682,287.091,275.229,297.448,280.26"/>
    <path fill="#4B4B4D" d="M231.175,289.727c-4.24-7.46-40.535-19.231-37.576,15.978c2.957,35.209,1.627,22.785-14.203,30.18
      c-15.828,7.396-4.731,38.759,30.478,24.558C245.079,346.238,252.181,326.711,231.175,289.727"/>
    <path fill="#4B4B4D" d="M271.411,177.888c43.196,5.621,28.401,51.48,55.03,63.611c26.629,12.132,27.812,43.532-2.365,34.933
      C293.897,267.833,267.269,201.558,271.411,177.888"/>
    <path fill="#FBFBFC" d="M266.171,177.888c6.695,0.174,23.123,2.054,33.536,41.646c1.418,5.393,1.462,6.111,0,10.645
      c36.869,44.835,15.197,87.187-31.848,92.598c-47.043,5.412-105.032-27.725-74.262-76.542
      C224.368,197.415,231.935,177.001,266.171,177.888"/>
    <path fill="#F6F5F6" d="M266.171,177.888c2.291,0.06,20.822,7.316,27.731,24.345c-0.85,2.413-25.664,0.806-30.161-0.673
      c-7.533,8.662-30.857,18.222-39.273,29.209c-9.242,12.07-22.969,25.536-24.746,36.771c-5.922,37.433,63.232,54.034,68.139,55.237
      c-47.043,5.412-105.032-27.726-74.262-76.543C224.368,197.415,231.935,177.001,266.171,177.888"/>
    <path fill="#4B4B4D" d="M242.948,177.888c10.271-1.59,15.447,12.426,12.189,17.455c-3.254,5.031-31.658,27.813-33.137,35.506
      c0,0,38.326-2.448,41.58,18.558c3.256,21.005-44.588,16.268-61.996,6.295C177.831,242.091,208.567,183.214,242.948,177.888"/>
    <path fill="#4B4B4D" d="M307.628,123.743c6.979-6.803,19.405,2.072,10.233,12.724C309.578,138.833,307.628,123.743,307.628,123.743"
      />
    <path fill="#FBFBFC" d="M237.683,154.218c-2.547,24.484,6.801,38.935,34.91,43.138c28.108,4.204,46.152-1.418,48.521-10.888
      c2.369-9.467-4.436-8.58-1.772-23.373c2.664-14.793,3.254-35.209-15.683-43.196C284.726,111.909,241.528,117.236,237.683,154.218"/>
    <path fill="#F6F5F6" d="M316.08,168.089c-0.477,4.566-3.852,7.67-3.545,13.056c-1.049,1.909,1.384,4.552,1.836,5.47
      c-16.312-0.918-17.852,3.073-20.876,5.168c0.264,2.164,0.023,5.877-7.39,6.898c20.311,0.843,33.045-4.364,35.008-12.213
      c2.369-9.467-4.436-8.58-1.772-23.373c2.664-14.793,3.254-35.209-15.683-43.196c7.029,5,17.98,18.427,12.957,24.72
      C311.595,150.909,314.61,163.855,316.08,168.089"/>
    <path fill="#4B4B4D" d="M275.229,119.669c-7.673-14.16-29.216-8.828-21.229,10.394C260.4,124.657,267.792,120.296,275.229,119.669"
      />
    <path fill="#4B4B4D" d="M307.628,167.235c7.243-1.108,19.645,2.566,4.907,13.908C301.294,174.929,297.985,168.716,307.628,167.235"
      />
    <path fill="#4B4B4D" d="M319.117,164.437c-3.561-4.494-6.061-19.416,1.55-17.346C320.437,155.108,319.714,160.886,319.117,164.437"
      />
    <path fill="#E7D5E7" d="M314.371,186.614c-8.485-1.59-18.571-10.649-22.557-2.662c-3.983,7.988,6.125,10.65,11.277,9.32
      C302.033,188.39,306.028,186.614,314.371,186.614"/>
    <path fill="#F1BBBD" d="M319.772,136.718c-0.827-0.81-13.444-10.888-37.812-8.4c-24.369,2.486-33.646,6.512-37.5,8.4
      c-6.242,3.06-5.018,8.07-5.018,8.854c-0.207,0.71,17.393-5.972,39.268-8.854c21.876-2.883,39.958,2.896,41.958,7.463
      C322.836,143.773,322.397,139.288,319.772,136.718"/>
    <path fill="#4B4B4D" d="M303.364,143.271c-9.538-3.615-10.651,2.959-17.454,6.806c-6.806,3.847-22.763,0-22.328,16.864
      c0.434,16.865,32.979,13.02,39.782-2.664C310.171,148.597,307.385,144.794,303.364,143.271"/>
    <path fill="#FBFBFC" d="M299.224,149.188c2.07,0.888-2.959,15.683-6.51,13.314C289.162,160.136,297.151,148.302,299.224,149.188"/>
  </g>
  <!--Treadmills foreground-->
  <g class="animated bounceInLeft delay1600ms">
    <path fill="#D9D9DA" d="M403.321,210.763c-13.338,6.228-58.146,36.722-70.016,48.991c-4.839,5-31.339,26.82-36.992,32.74
      c-5.655,5.922-2.416,20.193,6.326,19.613c8.742-0.578,59.94-32.237,59.94-32.237s55.455-38.494,61.73-44.656
      C430.589,229.05,426.926,199.74,403.321,210.763"/>
    <path fill="#C4C4C5" d="M297.948,294.82c4.479-4.516,35.992-33.867,40.929-35.793c5.286-2.062,11.883-0.668,17.34,3.09
      c6.13,4.221,8.123,12.291,7.823,13.037c-0.562,1.412-38.848,23.686-45.856,27.069c-7.012,3.385-18.019,11.209-20.234,3.807
      C295.733,298.629,295.997,296.789,297.948,294.82"/>
    <path fill="#CECFD1" d="M358.353,273.242v126.289c0,10.738-27.271,12.887-27.271,0V273.242
      C331.081,258.638,358.353,258.179,358.353,273.242"/>
  </g>
  <!--Sweat-->
  <path class="animated fadeIn delay3400ms" fill="#BAE0F1" d="M258.823,147.685c-5.342-0.707-11.969,1.689-12.393,7.33c-0.193,2.574,2.904,3.683,3.896,1.695
    C251.317,154.726,252.019,149.675,258.823,147.685"/>
  <!--Mouvment-->
  <g class="animated fadeIn delay2800ms" >
    <path fill="#FBFBFC" d="M252.665,334.602c-4.4,9.799-14.666,27.91-30.767,27.654C234.229,367.525,252.417,352.869,252.665,334.602"
      />
    <path fill="#FBFBFC" d="M184.983,306.877c0.384,7.611-3.334,23.473-18.252,25.588C172.345,328.447,181.534,320.834,184.983,306.877"
      />
    <path fill="#FBFBFC" d="M287.132,351.688c9.928,14.957,24.319,21.367,37.934,19.765
      C296.747,374.121,290.339,361.838,287.132,351.688"/>
    <path fill="#FBFBFC" d="M257.372,348.973c-2.947,8.658-26.353,29.242-50.884,20.783
      C228.315,385.369,262.558,358.566,257.372,348.973"/>
  </g>
  <!--Mask-->
  <path class="animated fadeIn delay800ms" fill="#FFFFFF" d="M283.46,4.208c-145.941,0-264.252,118.311-264.252,264.255c0,145.939,118.311,264.25,264.252,264.25
    c145.94,0,264.249-118.311,264.249-264.25C547.71,122.519,429.401,4.208,283.46,4.208 M283.46,437.969
    c-93.617,0-169.508-75.891-169.508-169.506c0-93.62,75.891-169.511,169.508-169.511c93.616,0,169.508,75.891,169.508,169.511
    C452.968,362.078,377.076,437.969,283.46,437.969"/>
  <!--Text-->
  <g class="animated rotateInDownLeft delay3s">
    <path fill="#CFE8E9" d="M113.85,354.742c0.235-0.129,0.562-0.035,0.692,0.201l7.246,13.207c0.129,0.235,0.035,0.562-0.203,0.69
      l-2.894,1.591c-0.235,0.129-0.562,0.032-0.692-0.203l-2.31-4.209c-0.101-0.185-0.264-0.232-0.475-0.115l-14.021,7.691
      c-0.291,0.159-0.534,0.09-0.707-0.228l-1.806-3.289c-0.159-0.289-0.088-0.533,0.202-0.69l14.021-7.693
      c0.212-0.117,0.257-0.279,0.143-0.49l-2.296-4.182c-0.129-0.236-0.034-0.562,0.203-0.693L113.85,354.742z"/>
    <path fill="#CFE8E9" d="M123.953,372.75c0.22-0.156,0.57-0.074,0.728,0.145l2.166,3.062c0.155,0.221,0.098,0.555-0.123,0.711
      l-6.416,4.537c-0.172,0.121-0.201,0.289-0.062,0.484l4.484,6.344c0.121,0.172,0.287,0.199,0.459,0.078l6.416-4.537
      c0.223-0.156,0.574-0.074,0.729,0.146l2.164,3.061c0.155,0.221,0.099,0.557-0.121,0.711l-16.458,11.639
      c-0.221,0.156-0.555,0.098-0.711-0.121l-2.164-3.062c-0.156-0.222-0.115-0.578,0.104-0.734l6.271-4.435
      c0.195-0.139,0.224-0.307,0.103-0.479l-4.484-6.342c-0.141-0.195-0.307-0.225-0.501-0.086l-6.271,4.434
      c-0.221,0.156-0.556,0.098-0.711-0.123l-2.164-3.061c-0.158-0.221-0.117-0.58,0.104-0.734L123.953,372.75z"/>
    <path fill="#CFE8E9" d="M138.251,392.139c0.201-0.182,0.54-0.162,0.721,0.039l9.055,10.096c0.183,0.201,0.184,0.562-0.019,0.744
      l-2.457,2.203c-0.2,0.18-0.56,0.139-0.739-0.062l-5.972-6.656c-0.14-0.155-0.311-0.166-0.466-0.024l-2.771,2.483
      c-0.156,0.142-0.166,0.312-0.024,0.468l4.326,4.823c0.222,0.246,0.204,0.543-0.04,0.765l-2.145,1.924
      c-0.201,0.18-0.562,0.139-0.742-0.062l-4.328-4.824c-0.139-0.158-0.309-0.166-0.486-0.006l-2.637,2.363
      c-0.155,0.141-0.166,0.311-0.024,0.467l5.971,6.656c0.18,0.201,0.182,0.562-0.02,0.744l-2.458,2.203
      c-0.2,0.18-0.561,0.139-0.74-0.062l-9.056-10.096c-0.181-0.201-0.161-0.541,0.038-0.721L138.251,392.139z"/>
    <path fill="#CFE8E9" d="M152.987,407.914c0.222-0.205,0.455-0.199,0.683-0.002l0.248,0.219c0.156,0.139,0.211,0.305,0.201,0.496
      l-1.333,11.756c-0.058,0.111,0.169,0.309,0.271,0.238l11.481-2.857c0.188-0.035,0.36-0.004,0.519,0.135l0.248,0.22
      c0.228,0.196,0.263,0.428,0.088,0.674l-11.35,16.855c-0.156,0.223-0.533,0.291-0.783,0.071l-2.75-2.412
      c-0.226-0.196-0.262-0.43-0.086-0.674l5.594-8.02c0.137-0.199,0.017-0.426-0.234-0.367l-6.955,1.562
      c-0.397,0.091-0.668-0.147-0.632-0.555l0.641-7.098c0.024-0.259-0.215-0.349-0.396-0.188l-7.22,6.597
      c-0.219,0.204-0.453,0.198-0.678,0.002l-2.753-2.412c-0.247-0.22-0.231-0.603-0.03-0.785L152.987,407.914z"/>
    <path fill="#CFE8E9" d="M181.581,431.959c0.104,0.326-0.006,0.541-0.332,0.646l-3.478,1.147c-0.308,0.08-0.631-0.033-0.692-0.365
      c-0.304-1.151-0.898-2.032-1.769-2.627c-1.41-0.965-2.441-0.942-3.104,0.021l-0.052,0.074c-0.693,1.016-0.139,2.014,2.098,4.27
      c2.87,2.871,3.388,5.625,1.541,8.324l-0.067,0.098c-1.168,1.709-2.735,2.674-4.693,2.824c-1.957,0.152-3.932-0.471-5.986-1.877
      s-3.733-3.789-4.505-6.062c-0.113-0.26,0.059-0.614,0.35-0.67l3.533-1.182c0.326-0.105,0.524,0.031,0.629,0.354
      c0.375,1.421,1.396,2.955,2.586,3.769c1.881,1.287,3.181,1.195,3.857,0.205l0.067-0.101c0.522-0.551,0.314-1.311,0.031-1.905
      c-0.074-0.158-0.254-0.429-0.533-0.765l-0.688-0.799l-0.921-0.992c-0.032-0.059-0.105-0.108-0.188-0.2l-1.004-1.089
      c-0.222-0.26-0.498-0.702-0.826-1.289c-0.299-0.569-0.51-1.112-0.562-1.62c-0.098-0.976,0.195-2.521,1.213-4.007l0.066-0.1
      c1.103-1.609,2.553-2.508,4.325-2.711c1.801-0.188,3.625,0.334,5.457,1.588C179.672,428.109,180.892,429.779,181.581,431.959"/>
    <path fill="#CFE8E9" d="M188.18,434.514c0.129-0.235,0.454-0.334,0.69-0.207l11.938,6.438c0.238,0.127,0.361,0.465,0.232,0.703
      l-1.564,2.905c-0.129,0.236-0.479,0.32-0.718,0.191l-7.871-4.242c-0.185-0.1-0.349-0.051-0.446,0.136l-1.767,3.274
      c-0.101,0.185-0.052,0.348,0.135,0.447l5.705,3.074c0.29,0.155,0.375,0.44,0.22,0.731l-1.366,2.535
      c-0.13,0.238-0.48,0.32-0.718,0.193l-5.705-3.076c-0.187-0.101-0.349-0.051-0.463,0.16l-1.68,3.116
      c-0.1,0.187-0.051,0.349,0.134,0.447l7.871,4.242c0.238,0.129,0.361,0.469,0.233,0.705l-1.565,2.906
      c-0.129,0.237-0.48,0.319-0.718,0.192l-11.938-6.436c-0.239-0.129-0.336-0.453-0.207-0.691L188.18,434.514z"/>
    <path fill="#CFE8E9" d="M205.946,443.699c0.104-0.25,0.443-0.367,0.693-0.265l3.465,1.437c0.249,0.104,0.379,0.418,0.275,0.666
      l-6.136,14.797c-0.08,0.195-0.017,0.352,0.205,0.443l7.179,2.977c0.25,0.104,0.379,0.416,0.274,0.666l-1.266,3.049
      c-0.104,0.25-0.416,0.379-0.666,0.275l-11.443-4.746c-0.249-0.104-0.406-0.428-0.305-0.678L205.946,443.699z"/>
    <path fill="#CFE8E9" d="M219.181,449.373c-0.035-0.293,0.271-0.576,0.587-0.479l3.784,1.164c0.287,0.089,0.443,0.293,0.499,0.623
      l0.468,13.17c0.023,0.228,0.254,0.298,0.401,0.123l7.788-10.629c0.175-0.26,0.42-0.342,0.735-0.244l3.784,1.164
      c0.313,0.097,0.41,0.504,0.216,0.726l-13.314,16.963c-0.165,0.231-0.41,0.313-0.727,0.217l-2.265-0.697
      c-0.315-0.096-0.472-0.301-0.479-0.586L219.181,449.373z"/>
    <path fill="#CFE8E9" d="M241.65,455.762c0.052-0.266,0.331-0.457,0.598-0.405l13.316,2.53c0.268,0.051,0.485,0.336,0.438,0.604
      l-0.617,3.24c-0.051,0.264-0.36,0.448-0.627,0.399l-8.779-1.67c-0.206-0.039-0.348,0.057-0.387,0.264l-0.693,3.652
      c-0.039,0.207,0.058,0.348,0.264,0.387l6.363,1.209c0.324,0.062,0.491,0.31,0.431,0.631l-0.537,2.828
      c-0.051,0.269-0.36,0.451-0.625,0.4l-6.365-1.209c-0.207-0.039-0.346,0.057-0.392,0.291l-0.659,3.479
      c-0.041,0.205,0.055,0.347,0.26,0.386l8.783,1.668c0.264,0.051,0.483,0.338,0.434,0.604l-0.616,3.24
      c-0.05,0.266-0.359,0.451-0.625,0.4l-13.316-2.531c-0.267-0.051-0.457-0.332-0.406-0.597L241.65,455.762z"/>
    <path fill="#CFE8E9" d="M274.272,461.539c0.252,0.229,0.263,0.473,0.03,0.725l-2.451,2.718c-0.229,0.221-0.564,0.282-0.785,0.024
      c-0.832-0.852-1.787-1.32-2.833-1.408c-1.704-0.141-2.59,0.388-2.688,1.554l-0.006,0.09c-0.103,1.227,0.873,1.817,3.932,2.674
      c3.914,1.076,5.724,3.211,5.453,6.469l-0.008,0.121c-0.172,2.062-1.059,3.674-2.685,4.773c-1.625,1.1-3.647,1.535-6.129,1.328
      c-2.479-0.205-5.117-1.445-6.911-3.039c-0.228-0.168-0.255-0.562-0.027-0.754l2.485-2.773c0.23-0.252,0.472-0.232,0.724-0.002
      c1.026,1.049,2.674,1.877,4.107,1.996c2.272,0.188,3.354-0.535,3.454-1.73l0.01-0.121c0.183-0.735-0.374-1.295-0.915-1.67
      c-0.142-0.102-0.431-0.246-0.84-0.399l-0.994-0.354l-1.29-0.408c-0.058-0.032-0.147-0.041-0.265-0.082l-1.407-0.446
      c-0.319-0.117-0.78-0.365-1.354-0.713c-0.543-0.347-0.994-0.716-1.291-1.132c-0.566-0.799-1.075-2.284-0.926-4.079l0.008-0.119
      c0.162-1.943,0.978-3.439,2.418-4.494c1.473-1.053,3.314-1.502,5.526-1.318C270.71,459.137,272.596,459.986,274.272,461.539"/>
    <path fill="#CFE8E9" d="M288.411,460.521c-0.018-0.271,0.207-0.525,0.477-0.544l15.028-0.956c0.27-0.019,0.523,0.206,0.541,0.477
      l0.211,3.293c0.016,0.27-0.207,0.525-0.478,0.541l-4.79,0.307c-0.21,0.013-0.322,0.142-0.307,0.379l1.017,15.957
      c0.021,0.33-0.146,0.521-0.507,0.543l-3.742,0.238c-0.329,0.021-0.521-0.146-0.541-0.477l-1.017-15.955
      c-0.016-0.24-0.143-0.353-0.382-0.338l-4.761,0.305c-0.271,0.016-0.523-0.207-0.541-0.477L288.411,460.521z"/>
    <path fill="#CFE8E9" d="M308.911,468.338c-0.514-2.924-0.014-5.447,1.497-7.602c1.511-2.152,3.712-3.484,6.638-3.998
      c2.925-0.515,5.447-0.013,7.601,1.498c2.154,1.51,3.485,3.713,3.998,6.637l0.302,1.713c0.515,2.926,0.019,5.479-1.492,7.631
      c-1.515,2.125-3.718,3.455-6.643,3.969c-2.924,0.515-5.448,0.015-7.596-1.467c-2.154-1.51-3.489-3.742-4.003-6.666L308.911,468.338z
       M313.997,469.211c0.607,3.457,2.887,5.158,6.047,4.604c3.16-0.558,4.724-2.933,4.115-6.39l-0.301-1.713
      c-0.605-3.455-2.885-5.156-6.047-4.602c-3.16,0.555-4.722,2.93-4.115,6.387L313.997,469.211z"/>
    <path fill="#CFE8E9" d="M339.081,452.504c-0.089-0.254,0.06-0.561,0.312-0.647l14.218-4.966c0.255-0.088,0.562,0.06,0.649,0.314
      l1.088,3.115c0.088,0.254-0.06,0.561-0.313,0.647l-4.53,1.582c-0.198,0.07-0.272,0.224-0.194,0.449l5.271,15.096
      c0.108,0.312-0.002,0.539-0.342,0.658l-3.54,1.236c-0.312,0.108-0.541-0.002-0.648-0.312l-5.271-15.096
      c-0.079-0.228-0.23-0.301-0.458-0.221l-4.503,1.571c-0.255,0.088-0.561-0.059-0.648-0.313L339.081,452.504z"/>
    <path fill="#CFE8E9" d="M358.486,445.51c-0.117-0.242,0.021-0.576,0.266-0.692l3.376-1.634c0.242-0.116,0.562-0.006,0.681,0.236
      l3.423,7.076c0.091,0.188,0.251,0.246,0.468,0.141l6.995-3.383c0.188-0.092,0.244-0.252,0.153-0.438l-3.423-7.076
      c-0.117-0.244,0.021-0.578,0.265-0.695l3.376-1.633c0.243-0.117,0.563-0.004,0.681,0.238l8.777,18.147
      c0.118,0.244,0.006,0.564-0.236,0.683l-3.376,1.633c-0.242,0.117-0.591,0.02-0.709-0.226l-3.344-6.914
      c-0.104-0.217-0.266-0.271-0.453-0.18l-6.995,3.383c-0.217,0.105-0.271,0.265-0.168,0.48l3.345,6.914
      c0.117,0.242,0.005,0.563-0.237,0.682l-3.376,1.633c-0.242,0.117-0.59,0.019-0.708-0.225L358.486,445.51z"/>
    <path fill="#CFE8E9" d="M379.96,434.592c-0.146-0.227-0.071-0.559,0.156-0.703l11.441-7.282c0.229-0.146,0.585-0.089,0.729,0.141
      l1.772,2.783c0.146,0.229,0.047,0.576-0.182,0.721l-7.543,4.803c-0.179,0.111-0.216,0.277-0.103,0.455l1.998,3.14
      c0.112,0.178,0.278,0.215,0.457,0.102l5.467-3.48c0.278-0.178,0.568-0.112,0.745,0.166l1.547,2.431
      c0.146,0.229,0.046,0.576-0.182,0.721l-5.468,3.48c-0.178,0.112-0.214,0.276-0.085,0.479l1.9,2.988
      c0.112,0.176,0.278,0.213,0.456,0.1l7.543-4.801c0.229-0.145,0.585-0.088,0.729,0.141l1.771,2.783
      c0.146,0.229,0.047,0.576-0.182,0.721l-11.441,7.283c-0.229,0.146-0.56,0.072-0.705-0.155L379.96,434.592z"/>
    <path fill="#CFE8E9" d="M403.49,418.273c-0.177-0.205-0.13-0.562,0.074-0.738l2.837-2.453c0.204-0.178,0.542-0.152,0.719,0.051
      l10.479,12.119c0.138,0.156,0.307,0.17,0.488,0.012l5.877-5.082c0.204-0.176,0.542-0.151,0.719,0.054l2.159,2.496
      c0.176,0.202,0.15,0.543-0.054,0.719l-9.37,8.104c-0.204,0.179-0.565,0.172-0.741-0.03L403.49,418.273z"/>
    <path fill="#CFE8E9" d="M417.274,405.844c-0.191-0.189-0.193-0.529-0.004-0.721l2.659-2.686c0.189-0.193,0.528-0.195,0.722-0.004
      l14.324,14.182c0.19,0.189,0.193,0.527,0.004,0.721l-2.659,2.686c-0.19,0.191-0.529,0.193-0.721,0.004L417.274,405.844z"/>
    <path fill="#CFE8E9" d="M426.105,396.684c-0.214-0.213-0.217-0.447-0.027-0.68l0.208-0.256c0.134-0.164,0.299-0.223,0.489-0.221
      l11.8,0.897c0.112,0.054,0.303-0.18,0.229-0.278l-3.278-11.371c-0.041-0.188-0.016-0.359,0.116-0.523l0.209-0.256
      c0.188-0.232,0.419-0.277,0.671-0.111l17.266,10.725c0.229,0.146,0.311,0.521,0.102,0.777l-2.311,2.84
      c-0.188,0.232-0.42,0.277-0.671,0.111l-8.222-5.297c-0.205-0.129-0.426,0-0.357,0.25l1.816,6.893
      c0.104,0.396-0.123,0.674-0.53,0.652l-7.119-0.379c-0.257-0.016-0.339,0.227-0.172,0.402l6.857,6.973
      c0.214,0.213,0.217,0.447,0.027,0.68l-2.312,2.838c-0.208,0.258-0.592,0.254-0.782,0.062L426.105,396.684z"/>
    <path fill="#CFE8E9" d="M441,377.42c-0.226-0.148-0.293-0.48-0.144-0.707l2.09-3.148c0.148-0.225,0.481-0.293,0.706-0.143
      l16.796,11.145c0.227,0.15,0.293,0.482,0.145,0.707l-2.09,3.15c-0.149,0.225-0.481,0.293-0.707,0.143L441,377.42z"/>
    <path fill="#CFE8E9" d="M446.334,369.441c-0.236-0.131-0.33-0.457-0.199-0.693l7.293-13.176c0.13-0.236,0.456-0.33,0.691-0.199
      l2.889,1.598c0.234,0.131,0.329,0.457,0.198,0.693l-2.323,4.199c-0.104,0.184-0.057,0.348,0.153,0.463l13.989,7.744
      c0.288,0.158,0.358,0.404,0.186,0.719l-1.816,3.281c-0.159,0.287-0.404,0.356-0.692,0.199l-13.988-7.744
      c-0.21-0.115-0.373-0.068-0.489,0.141l-2.311,4.174c-0.131,0.236-0.457,0.33-0.692,0.199L446.334,369.441z"/>
    <path fill="#CFE8E9" d="M115.7,142.253c-0.219-0.16-0.27-0.496-0.109-0.714l5.587-7.584c1.015-1.377,2.399-2.146,4.216-2.335
      c1.793-0.207,3.422,0.211,4.896,1.297l0.17,0.125c1.569,1.155,2.524,2.641,2.857,4.414c0.334,1.774-0.062,3.422-1.181,4.943
      l-2.669,3.623c-0.142,0.193-0.117,0.361,0.052,0.484l5.242,3.861c0.266,0.196,0.304,0.448,0.107,0.713l-2.225,3.02
      c-0.193,0.266-0.446,0.304-0.713,0.109L115.7,142.253z M121.81,140.382c-0.143,0.193-0.117,0.36,0.076,0.504l3.938,2.899
      c0.192,0.144,0.359,0.118,0.504-0.075l1.795-2.441c0.943-1.279,0.705-2.723-0.625-3.701l-0.168-0.125
      c-1.354-0.997-2.763-0.805-3.74,0.523L121.81,140.382z"/>
    <path fill="#CFE8E9" d="M132.524,120.843c-0.119-0.271-0.09-0.527,0.111-0.75l0.483-0.533c0.2-0.223,0.452-0.278,0.732-0.186
      l20.666,7.174c0.324,0.133,0.386,0.513,0.164,0.758l-2.617,2.891c-0.221,0.245-0.473,0.301-0.754,0.208l-1.729-0.636
      c-0.322-0.09-0.575-0.035-0.758,0.165l-4.306,4.76c-0.183,0.201-0.211,0.457-0.09,0.771l0.805,1.66
      c0.119,0.271,0.091,0.525-0.131,0.771l-2.616,2.891c-0.222,0.245-0.604,0.223-0.769-0.089L132.524,120.843z M142.372,131.296
      c0.096,0.207,0.245,0.222,0.387,0.064l2.575-2.848c0.142-0.155,0.111-0.303-0.104-0.377l-4.758-1.719
      c-0.217-0.074-0.377,0.104-0.283,0.312L142.372,131.296z"/>
    <path fill="#CFE8E9" d="M144.695,108.265c-0.176-0.205-0.128-0.562,0.076-0.738l0.341-0.294c0.159-0.138,0.312-0.19,0.48-0.177
      l15.511,1.137c0.169,0.011,0.354-0.188,0.196-0.368l-6.851-7.958c-0.178-0.205-0.151-0.543,0.054-0.721l2.842-2.445
      c0.205-0.178,0.565-0.171,0.742,0.034l13.155,15.278c0.177,0.203,0.128,0.562-0.075,0.737l-0.389,0.333
      c-0.158,0.137-0.377,0.206-0.589,0.191l-15.333-1.209c-0.212-0.016-0.377,0.205-0.222,0.387l6.853,7.958
      c0.178,0.205,0.151,0.543-0.054,0.72l-2.842,2.447c-0.205,0.176-0.565,0.17-0.742-0.035L144.695,108.265z"/>
    <path fill="#CFE8E9" d="M171.247,86.788c2.504-1.653,5.026-2.24,7.547-1.746c2.502,0.47,4.584,1.935,6.186,4.363l0.959,1.452
      c1.785,2.704,2.197,5.562,1.438,7.896s-2.333,4.308-4.461,5.713l-5.909,3.898c-0.227,0.15-0.56,0.082-0.707-0.144l-11.105-16.827
      c-0.147-0.225-0.08-0.559,0.146-0.707L171.247,86.788z M171.573,91.747c-0.175,0.117-0.209,0.283-0.094,0.459l6.544,9.914
      c0.116,0.176,0.282,0.211,0.456,0.094l2.056-1.354c2.629-1.736,3.184-4.547,1.35-7.326l-0.959-1.451
      c-1.853-2.805-4.619-3.459-7.298-1.689L171.573,91.747z"/>
    <path fill="#CFE8E9" d="M192.357,74.968c-0.013-0.295,0.106-0.523,0.375-0.656l0.645-0.322c0.268-0.135,0.522-0.096,0.752,0.094
      l16.655,14.171c0.255,0.243,0.174,0.618-0.121,0.765l-3.487,1.746c-0.295,0.148-0.55,0.108-0.777-0.08l-1.383-1.221
      c-0.269-0.199-0.522-0.24-0.765-0.119l-5.739,2.873c-0.244,0.12-0.363,0.35-0.363,0.684l0.148,1.838
      c0.014,0.297-0.107,0.523-0.402,0.673l-3.486,1.745c-0.296,0.146-0.645-0.014-0.686-0.362L192.357,74.968z M197.743,88.274
      c0.014,0.229,0.146,0.295,0.335,0.201l3.435-1.72c0.188-0.093,0.213-0.241,0.039-0.388l-3.812-3.325
      c-0.175-0.147-0.391-0.04-0.375,0.187L197.743,88.274z"/>
    <path fill="#CFE8E9" d="M220.904,64.509c0.326,0.104,0.438,0.319,0.331,0.646l-1.092,3.494c-0.116,0.297-0.396,0.495-0.703,0.351
      c-1.111-0.426-2.176-0.453-3.163-0.095c-1.605,0.584-2.189,1.437-1.792,2.536l0.031,0.084c0.42,1.156,1.554,1.287,4.691,0.785
      c4.006-0.659,6.545,0.525,7.662,3.598l0.041,0.114c0.707,1.944,0.575,3.78-0.441,5.46c-1.018,1.678-2.674,2.92-5.014,3.77
      c-2.342,0.852-5.256,0.826-7.554,0.129c-0.274-0.06-0.466-0.404-0.341-0.675l1.101-3.56c0.104-0.325,0.331-0.408,0.655-0.303
      c1.372,0.522,3.216,0.586,4.567,0.095c2.145-0.78,2.826-1.89,2.416-3.017l-0.041-0.113c-0.144-0.746-0.881-1.021-1.53-1.137
      c-0.173-0.033-0.495-0.043-0.931-0.013l-1.051,0.095l-1.345,0.17c-0.065-0.008-0.149,0.023-0.272,0.035l-1.467,0.184
      c-0.341,0.027-0.865-0.006-1.531-0.082c-0.638-0.088-1.203-0.234-1.646-0.488c-0.849-0.488-1.933-1.627-2.548-3.318l-0.041-0.113
      c-0.666-1.834-0.551-3.535,0.318-5.096c0.896-1.572,2.383-2.752,4.471-3.511C216.662,63.816,218.73,63.798,220.904,64.509"/>
    <path fill="#CFE8E9" d="M245.727,56.75c0.069-0.287,0.248-0.474,0.543-0.529l0.708-0.132c0.295-0.055,0.527,0.055,0.695,0.297
      l12.104,18.223c0.179,0.301-0.003,0.641-0.326,0.701l-3.834,0.717c-0.325,0.061-0.56-0.049-0.729-0.293l-0.991-1.555
      c-0.202-0.268-0.437-0.376-0.702-0.326l-6.312,1.18c-0.265,0.049-0.443,0.234-0.537,0.558l-0.363,1.808
      c-0.067,0.287-0.247,0.474-0.571,0.533l-3.834,0.717c-0.324,0.062-0.615-0.189-0.56-0.537L245.727,56.75z M247.233,71.028
      c-0.05,0.224,0.062,0.324,0.269,0.285l3.774-0.705c0.206-0.037,0.271-0.172,0.146-0.362l-2.746-4.248
      c-0.127-0.19-0.363-0.147-0.414,0.077L247.233,71.028z"/>
    <path fill="#CFE8E9" d="M262.818,54.22c-0.021-0.269,0.231-0.527,0.501-0.549l3.74-0.277c0.27-0.021,0.527,0.201,0.546,0.471
      l1.19,15.979c0.016,0.209,0.144,0.319,0.383,0.303l7.75-0.577c0.27-0.021,0.527,0.202,0.547,0.47l0.244,3.292
      c0.021,0.271-0.2,0.526-0.469,0.546L264.891,74.8c-0.27,0.02-0.557-0.199-0.576-0.47L262.818,54.22z"/>
    <path fill="#CFE8E9" d="M280.108,52.813c-0.104-0.275,0.12-0.594,0.45-0.578l3.955,0.197c0.33,0.016,0.562,0.209,0.634,0.543
      l3.079,12.351c0.08,0.215,0.288,0.255,0.448,0.052l5.567-11.018c0.1-0.205,0.225-0.289,0.435-0.278l0.09,0.003
      c0.209,0.012,0.325,0.107,0.405,0.322l4.41,11.515c0.112,0.157,0.319,0.228,0.451-0.006l4.293-11.983
      c0.106-0.326,0.355-0.494,0.687-0.477l3.926,0.195c0.329,0.017,0.553,0.357,0.419,0.621l-7.625,19.748
      c-0.104,0.326-0.354,0.465-0.683,0.447l-2.009-0.1c-0.329-0.018-0.533-0.146-0.609-0.422l-3.995-10.233
      c-0.021-0.151-0.383-0.17-0.42-0.021l-4.995,9.785c-0.133,0.264-0.349,0.373-0.647,0.357l-2.009-0.1
      c-0.329-0.016-0.562-0.178-0.636-0.512L280.108,52.813z"/>
    <path fill="#CFE8E9" d="M321.031,56.408c0.168-0.244,0.401-0.353,0.696-0.298l0.708,0.133c0.295,0.055,0.474,0.24,0.542,0.527
      l4.71,21.361c0.058,0.348-0.233,0.598-0.558,0.537l-3.834-0.716c-0.326-0.062-0.505-0.247-0.572-0.535l-0.364-1.807
      c-0.093-0.323-0.271-0.509-0.537-0.558l-6.312-1.181c-0.267-0.048-0.5,0.06-0.702,0.328l-0.992,1.554
      c-0.168,0.243-0.401,0.354-0.727,0.293l-3.834-0.718c-0.324-0.06-0.507-0.399-0.326-0.702L321.031,56.408z M317.282,70.267
      c-0.127,0.19-0.061,0.326,0.146,0.363l3.773,0.705c0.207,0.039,0.317-0.062,0.268-0.285l-1.027-4.953
      c-0.051-0.225-0.286-0.268-0.413-0.078L317.282,70.267z"/>
    <path fill="#CFE8E9" d="M336.784,74.925c0.062-0.201,0.063-0.42,0.029-0.619l-3.293-15.188c-0.123-0.318,0.228-0.652,0.602-0.539
      l4.022,1.211c0.259,0.078,0.396,0.244,0.471,0.518l1.885,9.875c0.03,0.104,0.079,0.15,0.166,0.176l0.028,0.008
      c0.059,0.018,0.124,0.006,0.207-0.062l7.023-7.192c0.213-0.188,0.42-0.25,0.678-0.171l4.022,1.211
      c0.373,0.111,0.481,0.584,0.203,0.781l-11.132,10.845c-0.138,0.146-0.256,0.33-0.315,0.53l-1.618,5.373
      c-0.112,0.375-0.486,0.574-0.859,0.463l-3.274-0.987c-0.374-0.112-0.574-0.485-0.462-0.858L336.784,74.925z"/>
    <path fill="#CFE8E9" d="M370.213,73.47c0.165,0.299,0.097,0.531-0.203,0.695l-3.193,1.791c-0.287,0.137-0.626,0.09-0.751-0.226
      c-0.517-1.074-1.271-1.824-2.234-2.24c-1.569-0.679-2.578-0.461-3.044,0.612l-0.034,0.082c-0.488,1.131,0.245,2.003,2.872,3.791
      c3.364,2.271,4.396,4.875,3.101,7.877l-0.048,0.111c-0.821,1.9-2.176,3.145-4.067,3.666c-1.894,0.523-3.95,0.289-6.234-0.699
      c-2.286-0.987-4.389-3.008-5.579-5.092c-0.161-0.232-0.062-0.615,0.215-0.724l3.244-1.834c0.3-0.165,0.52-0.069,0.685,0.229
      c0.638,1.322,1.936,2.635,3.256,3.205c2.095,0.904,3.353,0.566,3.827-0.535l0.048-0.11c0.407-0.642,0.061-1.347-0.333-1.876
      c-0.103-0.143-0.33-0.371-0.668-0.648l-0.829-0.652l-1.093-0.799c-0.044-0.053-0.126-0.088-0.225-0.162l-1.19-0.875
      c-0.268-0.213-0.625-0.598-1.057-1.109c-0.404-0.502-0.714-0.996-0.862-1.484c-0.281-0.938-0.288-2.512,0.426-4.164l0.048-0.109
      c0.773-1.79,2.026-2.949,3.729-3.488c1.73-0.525,3.622-0.363,5.66,0.518C367.604,70.054,369.119,71.46,370.213,73.47"/>
    <path fill="#CFE8E9" d="M387.72,81.207c0.146-0.228,0.478-0.3,0.706-0.155l7.934,5.08c1.439,0.922,2.297,2.254,2.605,4.055
      c0.323,1.773,0.014,3.429-0.974,4.97l-0.112,0.176c-1.053,1.644-2.473,2.693-4.221,3.142c-1.747,0.449-3.417,0.164-5.009-0.854
      l-3.791-2.427c-0.202-0.129-0.367-0.094-0.479,0.084l-3.511,5.482c-0.179,0.278-0.427,0.334-0.705,0.154l-3.157-2.021
      c-0.278-0.178-0.333-0.426-0.155-0.703L387.72,81.207z M389.987,87.183c-0.202-0.131-0.368-0.094-0.498,0.108l-2.636,4.119
      c-0.13,0.202-0.094,0.368,0.108,0.498l2.553,1.632c1.339,0.857,2.765,0.523,3.654-0.865l0.111-0.178
      c0.906-1.416,0.622-2.809-0.768-3.697L389.987,87.183z"/>
    <path fill="#CFE8E9" d="M407.355,94.308c0.173-0.207,0.533-0.221,0.741-0.049l2.888,2.393c0.208,0.173,0.24,0.511,0.067,0.719
      l-7.846,9.477c-1.684,2.035-1.565,4.197,0.375,5.805c1.964,1.627,4.109,1.34,5.793-0.695l7.847-9.479
      c0.172-0.207,0.51-0.238,0.718-0.066l2.911,2.411c0.208,0.172,0.239,0.509,0.067,0.717l-7.847,9.479
      c-1.646,1.986-3.607,3.088-5.894,3.262c-2.284,0.173-4.418-0.542-6.429-2.207c-2.01-1.664-3.109-3.628-3.366-5.906
      c-0.233-2.258,0.481-4.393,2.128-6.381L407.355,94.308z"/>
    <path fill="#CFE8E9" d="M435.251,121.888c0.033,0.34-0.119,0.527-0.46,0.562l-3.64,0.397c-0.319,0.014-0.61-0.164-0.604-0.502
      c-0.056-1.188-0.454-2.177-1.179-2.937c-1.179-1.239-2.191-1.433-3.041-0.627l-0.063,0.062c-0.893,0.849-0.56,1.938,1.157,4.611
      c2.206,3.407,2.136,6.205-0.235,8.459l-0.086,0.082c-1.501,1.428-3.235,2.042-5.181,1.782c-1.946-0.261-3.746-1.282-5.462-3.085
      c-1.717-1.803-2.858-4.484-3.139-6.867c-0.057-0.277,0.186-0.589,0.481-0.582l3.703-0.417c0.341-0.034,0.506,0.14,0.54,0.479
      c0.068,1.467,0.747,3.181,1.739,4.224c1.571,1.651,2.861,1.832,3.73,1.004l0.087-0.083c0.627-0.43,0.583-1.215,0.429-1.855
      c-0.038-0.17-0.157-0.471-0.359-0.857l-0.508-0.926l-0.691-1.161c-0.021-0.065-0.082-0.13-0.144-0.238l-0.753-1.271
      c-0.162-0.301-0.341-0.793-0.537-1.435c-0.176-0.618-0.268-1.194-0.212-1.702c0.109-0.973,0.72-2.422,2.023-3.662l0.086-0.082
      c1.414-1.346,3.021-1.92,4.799-1.748c1.8,0.192,3.476,1.082,5.005,2.69C434.189,117.724,435.031,119.612,435.251,121.888"/>
    <path fill="#CFE8E9" d="M442.452,128.179c0.218-0.16,0.57-0.088,0.73,0.129l2.24,3.009c0.161,0.216,0.11,0.551-0.104,0.713
      l-6.305,4.692c-0.169,0.127-0.193,0.295-0.05,0.486l4.64,6.233c0.125,0.168,0.293,0.192,0.462,0.067l6.305-4.693
      c0.217-0.161,0.57-0.088,0.731,0.129l2.239,3.007c0.161,0.216,0.11,0.552-0.104,0.713l-16.171,12.038
      c-0.218,0.163-0.552,0.113-0.714-0.104l-2.239-3.008c-0.161-0.217-0.13-0.576,0.087-0.738l6.16-4.586
      c0.192-0.144,0.217-0.312,0.092-0.479l-4.64-6.231c-0.144-0.192-0.312-0.217-0.505-0.074l-6.159,4.586
      c-0.217,0.16-0.552,0.111-0.713-0.105l-2.239-3.008c-0.162-0.216-0.131-0.576,0.086-0.736L442.452,128.179z"/>
  </g>
</svg>
