<?xml version="1.0" encoding="utf-8"?>
<!DOCTYPE svg PUBLIC "-//W3C//DTD SVG 1.1//EN" "http://www.w3.org/Graphics/SVG/1.1/DTD/svg11.dtd">
<svg version="1.1" id="Calque_1" xmlns="http://www.w3.org/2000/svg" xmlns:xlink="http://www.w3.org/1999/xlink" x="0px" y="0px"
	 viewBox="0 0 566.93 566.93" enable-background="new 0 0 566.93 566.93" xml:space="preserve">
  <!--Background-->
  <path class="animated bounceInLeft" fill="#D4EBF5" d="M453.308,267.999c0,93.616-75.891,169.509-169.508,169.509c-93.616,0-169.508-75.893-169.508-169.509
    S190.184,98.492,283.8,98.492S453.308,174.383,453.308,267.999"/>
  <!--Panda-->
  <g class="animated bounceInDown delay600ms">
    <path fill="#FBFBFC" d="M387.439,341.471l40.251,71.437c0.883,5.725,1.346,11.58,1.346,17.531c0,9.04-1.058,17.858-3.069,26.354
      c-45.856,0-244.647,0-268.724,0c-2.012-8.496-3.07-17.312-3.07-26.354c0-11.443,1.692-22.525,4.871-33.052l23.037-55.916
      l35.813-67.211l21.902-9.644l66.551,15.225l37.387-9.785l15.016,10.31L387.439,341.471z"/>
    <path fill="#4B4B4D" d="M338.148,275.889c-10.303,34.455-29.944,45.941-49.1,45.941c-19.335,0-38.788-10.158-49.063-45.165"/>
    <path fill="#4B4B4D" d="M452.344,371.461c-18.429-40.545-25.229-55.377-36.375-72.125c-5.706-8.576-36.456-32.48-64.285-29.373
      c2.804,42.553,29.89,59.014,52.029,102.958c22.576,44.812,25.797,41.562,25.214,62.572
      C468.944,425.49,470.775,412.006,452.344,371.461"/>
    <path fill="#4B4B4D" d="M267.491,334.578c-0.625-4.488,2.25-9.34-9.531-15.074c-11.695-5.689-35.911,2.641-40.77,34.391
      c-25.783,1.974-35.794,15.804-44.979,19.293c13.601-49.041,56.509-60.672,59.311-103.223c-27.828-3.109-59.8,17.178-65.506,25.758
      c-11.146,16.746-16.725,35.193-35.154,75.738c-7.232,15.914-23.788,57.934,38.22,58.371c31.844,0.225,56.828-16.611,63.855-23.412
      c7.024-6.799,15.351-15.578,33.994-14.674c18.076,0.875,20.11-31.555,17.044-43.338
      C281.685,339.594,272.988,333.453,267.491,334.578"/>
    <path fill="#444346" d="M267.491,334.578c-2.833,8.895-18.284,12.113-25.546,4.359c-11.427,23.418-2.413,55.188,11.768,54.02
      c2.025-0.166,10.889-1.324,13.219-1.211c18.076,0.875,20.11-31.555,17.044-43.338C281.685,339.594,272.988,333.453,267.491,334.578"
      />
    <path fill="#FBFBFC" d="M382.706,188.173c-8.951-48.984-48.992-77.345-103.022-72.075c-54.269-1.383-92.175,29.773-97.594,79.273
      c-1.218,11.128-19.079,46.224,4.536,79.236c23.616,33.012,76.138,22.32,99.565,22.918c23.326-2.273,76.479,4.623,97.668-29.997
      C405.049,232.913,384.72,199.186,382.706,188.173"/>
    <path fill="#4B4B4D" d="M283.028,237.979c-62.992,6.144,3.43,35.156,3.43,35.156S346.021,231.835,283.028,237.979"/>
    <path fill="#4B4B4D" d="M243.954,183.594c30.868-3.766,17.812,58.169-18.858,61.187c-24.936,2.051-23.573-25.9-6.524-28.467
      C235.622,213.75,226.021,185.782,243.954,183.594"/>
    <path fill="#4B4B4D" d="M319.614,181.499c-31.09-0.711-12.002,59.64,24.785,59.033c25.02-0.411,20.911-28.094,3.693-28.97
      C330.873,210.688,337.675,181.911,319.614,181.499"/>
    <path fill="#FBFBFC" d="M319.134,190.474c5.521-0.538,5.054,13.7,1.37,14.057C316.824,204.891,313.608,191.013,319.134,190.474"/>
    <path fill="#FBFBFC" d="M244.996,192.638c5.674-0.554,5.187,14.071,1.408,14.44C242.619,207.447,239.322,193.191,244.996,192.638"/>
    <path fill="#E7D5E7" d="M256.058,285.174c16.619-1.433,65.467-5.791,82.091-19.628C338.149,284.609,291.054,289.686,256.058,285.174
      "/>

  </g>
  <!--Mask-->
  <path class="animated fadeIn delay800ms" fill="#FFFFFF" d="M283.801,3.748C137.859,3.748,19.55,122.057,19.55,268.001c0,145.938,118.309,264.247,264.251,264.247
    c145.94,0,264.25-118.309,264.25-264.247C548.051,122.057,429.741,3.748,283.801,3.748 M283.801,437.506
    c-93.617,0-169.509-75.893-169.509-169.507c0-93.618,75.892-169.509,169.509-169.509c93.615,0,169.508,75.891,169.508,169.509
    C453.309,361.613,377.416,437.506,283.801,437.506"/>
  <!--Hat-->
  <g class="animated bounceInDown delay1400ms">
    <path fill="#F6F4DD" d="M273.152,173.725c73.87-9.757,101.61-35.559,107.834-42.885c6.226-7.327-12.249-31.035-68.625-26.685
      c-13.903,1.072-31.472,7.342-50.162,7.878C125.704,115.949,147.402,190.335,273.152,173.725"/>
    <path fill="#F6F4DD" d="M182.327,60.372c0.591,3.863,54.896,37.204,91.766,33.35c33.271-3.477,68.823-45.809,68.834-52.502
      C342.951,27.113,178.983,38.5,182.327,60.372"/>
    <path fill="#FEFCE6" d="M199.625,150.079c48.505,14.754,129.262-10.354,150.881-20.806c-3.707-18.92-6.694-61.422-7.578-88.054
      c-23.178,28.502-117.154,38.871-160.6,19.152C190.007,101.59,199.625,150.079,199.625,150.079"/>
    <path fill="#F1BBBD" d="M199.625,150.079c48.505,14.754,127.698-5.224,150.881-20.806c-1.727-8.812-3.296-22.738-4.571-37.795
      c-21.812,20.686-119.625,31.76-153.949,19.579C196.292,133.282,199.625,150.079,199.625,150.079"/>
    <polygon fill="#FBFBFC" points="272.48,117.401 268.954,129.667 257.397,130.051 266.417,137.42 263.568,150.393 274.105,139.884
      286.513,144.471 281.437,136.574 288.062,128.006 277.771,129.245 "/>
    <polygon fill="#FBFBFC" points="233.259,119.682 228.792,131.637 217.241,131.125 225.663,139.171 222.27,150.392 233.136,142.223
      245.05,151.875 240.702,139.492 248.8,131 237.616,131.899 "/>
    <polygon fill="#FBFBFC" points="197.925,117.401 194.671,124.854 197.853,141.106 204.739,148.938 201.974,137.5 209.718,130.643
      201.425,129.125 "/>
    <polygon fill="#FBFBFC" points="309.277,110.056 308.425,123.362 298.467,125.875 306.215,130.748 305.3,143.997 314.181,132.057
      327.128,134.775 320.948,127.708 326.245,118.262 316.246,120.995 "/>
    <polygon fill="#FBFBFC" points="343.861,97.915 342.928,112.25 333.052,115.473 342.049,118.875 340.907,131 348.766,119.916
      346.975,102.801 "/>
  </g>
  <!--Text-->

  <!--So hire a panda.-->
  <g class="animated rotateInDownRight delay2s">
    <path fill="#F1BBBD" d="M152.509,102.394c0.341-0.025,0.524,0.133,0.549,0.474l0.301,3.649c0.004,0.318-0.18,0.606-0.519,0.588
      c-1.191,0.024-2.188,0.398-2.967,1.101c-1.271,1.146-1.492,2.154-0.708,3.023l0.06,0.066c0.824,0.914,1.923,0.609,4.643-1.035
      c3.465-2.116,6.262-1.972,8.452,0.457l0.08,0.089c1.387,1.537,1.955,3.287,1.644,5.225c-0.313,1.938-1.381,3.71-3.23,5.378
      c-1.849,1.668-4.56,2.739-6.95,2.956c-0.278,0.05-0.584-0.2-0.568-0.496l-0.319-3.713c-0.024-0.341,0.153-0.502,0.494-0.527
      c1.468-0.031,3.2-0.664,4.269-1.629c1.693-1.526,1.908-2.812,1.104-3.703l-0.08-0.089c-0.413-0.637-1.2-0.614-1.845-0.477
      c-0.172,0.034-0.475,0.145-0.867,0.338l-0.938,0.483l-1.182,0.661c-0.063,0.018-0.131,0.078-0.24,0.136l-1.29,0.72
      c-0.306,0.154-0.803,0.32-1.449,0.499c-0.624,0.159-1.201,0.235-1.708,0.167c-0.971-0.135-2.402-0.782-3.608-2.119l-0.08-0.089
      c-1.307-1.448-1.839-3.069-1.62-4.842c0.241-1.793,1.176-3.445,2.824-4.932C148.318,103.347,150.228,102.553,152.509,102.394"/>
    <path fill="#F1BBBD" d="M163.715,103.27c-1.705-2.431-2.322-4.929-1.868-7.519s1.884-4.73,4.315-6.435
      c2.43-1.705,4.928-2.323,7.519-1.869c2.59,0.455,4.729,1.885,6.436,4.315l0.998,1.424c1.705,2.431,2.341,4.953,1.887,7.544
      c-0.473,2.566-1.902,4.705-4.332,6.41c-2.432,1.705-4.93,2.323-7.502,1.893c-2.591-0.454-4.747-1.909-6.453-4.339L163.715,103.27z
       M168.692,101.902c2.017,2.873,4.801,3.447,7.428,1.604c2.627-1.844,3.033-4.658,1.018-7.53l-0.999-1.424
      c-2.015-2.873-4.8-3.447-7.427-1.604c-2.627,1.844-3.034,4.658-1.02,7.53L168.692,101.902z"/>
    <path fill="#F1BBBD" d="M190.467,75.343c-0.112-0.246,0.033-0.576,0.278-0.689l3.408-1.564c0.245-0.112,0.563,0.005,0.677,0.251
      l3.277,7.144c0.088,0.191,0.247,0.25,0.465,0.15l7.062-3.241c0.191-0.087,0.25-0.246,0.163-0.438l-3.279-7.144
      c-0.112-0.246,0.033-0.576,0.279-0.689l3.408-1.564c0.245-0.113,0.563,0.005,0.676,0.251l8.408,18.324
      c0.112,0.245-0.005,0.563-0.251,0.676l-3.408,1.564c-0.246,0.113-0.591,0.007-0.704-0.239l-3.203-6.98
      c-0.1-0.218-0.259-0.277-0.45-0.189l-7.062,3.24c-0.218,0.1-0.277,0.259-0.177,0.477l3.202,6.981
      c0.113,0.245-0.005,0.563-0.25,0.676l-3.408,1.564c-0.246,0.113-0.592,0.007-0.704-0.238L190.467,75.343z"/>
    <path fill="#F1BBBD" d="M214.805,64.987c-0.088-0.255,0.062-0.56,0.316-0.648l3.573-1.233c0.256-0.088,0.561,0.061,0.649,0.316
      l6.572,19.062c0.088,0.255-0.062,0.561-0.316,0.649l-3.574,1.232c-0.255,0.088-0.56-0.061-0.647-0.316L214.805,64.987z"/>
    <path fill="#F1BBBD" d="M227.253,60.845c-0.064-0.262,0.141-0.559,0.402-0.623l9.031-2.214c1.63-0.4,3.215-0.109,4.731,0.909
      c1.508,0.989,2.491,2.353,2.927,4.13l0.05,0.204c0.679,2.767-0.358,5.338-2.323,6.9c-0.182,0.137-0.227,0.334-0.118,0.523
      c1.039,1.845,2.947,2.829,4.992,2.482c0.328-0.05,0.517,0.089,0.596,0.41l0.757,3.087c0.063,0.262-0.105,0.582-0.367,0.646
      c-2.184,0.536-4.235,0.359-6.129-0.566c-1.865-0.932-3.284-2.437-4.257-4.515c-0.086-0.226-0.26-0.306-0.493-0.249l-1.66,0.406
      c-0.233,0.058-0.322,0.203-0.265,0.436l1.586,6.466c0.063,0.262-0.112,0.552-0.374,0.617l-3.641,0.893
      c-0.35,0.085-0.567-0.047-0.646-0.367L227.253,60.845z M234.085,68.558c0.057,0.233,0.202,0.321,0.435,0.264l3.001-0.736
      c1.543-0.378,2.277-1.67,1.877-3.301l-0.05-0.204c-0.399-1.631-1.575-2.393-3.177-2l-3.001,0.735
      c-0.232,0.057-0.32,0.202-0.263,0.435L234.085,68.558z"/>
    <path fill="#F1BBBD" d="M251.008,55.583c-0.034-0.268,0.174-0.536,0.442-0.57l13.455-1.689c0.27-0.034,0.566,0.171,0.601,0.438
      l0.411,3.275c0.034,0.268-0.204,0.54-0.473,0.573l-8.871,1.115c-0.208,0.025-0.312,0.16-0.286,0.368l0.464,3.692
      c0.025,0.208,0.16,0.312,0.368,0.286l6.431-0.808c0.327-0.041,0.562,0.141,0.603,0.469l0.358,2.858
      c0.034,0.268-0.204,0.539-0.472,0.573l-6.431,0.808c-0.208,0.026-0.312,0.16-0.282,0.398l0.44,3.513
      c0.027,0.208,0.16,0.312,0.369,0.286l8.872-1.114c0.268-0.033,0.565,0.171,0.599,0.439l0.411,3.275
      c0.034,0.268-0.204,0.54-0.472,0.573l-13.456,1.69c-0.268,0.033-0.536-0.175-0.57-0.443L251.008,55.583z"/>
    <path fill="#F1BBBD" d="M290.004,53.127c0.129-0.265,0.345-0.408,0.645-0.397l0.721,0.026c0.3,0.01,0.505,0.168,0.614,0.442
      l7.828,20.423c0.108,0.334-0.143,0.625-0.473,0.614l-3.897-0.139c-0.329-0.012-0.533-0.169-0.645-0.443l-0.629-1.734
      c-0.14-0.305-0.344-0.463-0.614-0.472l-6.416-0.229c-0.27-0.009-0.484,0.133-0.646,0.427l-0.75,1.685
      c-0.131,0.266-0.346,0.408-0.676,0.396l-3.897-0.138c-0.33-0.012-0.56-0.321-0.427-0.646L290.004,53.127z M288.355,67.389
      c-0.098,0.207-0.013,0.33,0.197,0.337l3.838,0.137c0.21,0.007,0.305-0.109,0.223-0.323l-1.753-4.745
      c-0.082-0.213-0.321-0.222-0.419-0.015L288.355,67.389z"/>
    <path fill="#F1BBBD" d="M317,55.716c0.055-0.264,0.337-0.452,0.602-0.398l9.233,1.878c1.676,0.341,2.955,1.275,3.892,2.843
      c0.942,1.539,1.249,3.194,0.885,4.988l-0.042,0.205c-0.389,1.911-1.335,3.403-2.805,4.451c-1.469,1.049-3.129,1.385-4.98,1.008
      l-4.411-0.897c-0.234-0.048-0.377,0.046-0.418,0.252l-1.299,6.38c-0.065,0.324-0.277,0.464-0.602,0.399l-3.676-0.748
      c-0.323-0.066-0.465-0.278-0.397-0.602L317,55.716z M321.269,60.473c-0.234-0.048-0.377,0.046-0.425,0.281l-0.975,4.793
      c-0.048,0.235,0.045,0.377,0.28,0.425l2.97,0.604c1.56,0.316,2.769-0.509,3.098-2.126l0.042-0.206
      c0.335-1.647-0.433-2.844-2.05-3.173L321.269,60.473z"/>
    <path fill="#F1BBBD" d="M343.518,62c0.195-0.222,0.439-0.303,0.726-0.213l0.688,0.215c0.286,0.089,0.441,0.295,0.476,0.588
      l2.163,21.767c0.018,0.35-0.303,0.565-0.618,0.467l-3.723-1.163c-0.313-0.098-0.471-0.304-0.505-0.597l-0.149-1.838
      c-0.054-0.332-0.209-0.537-0.467-0.618l-6.13-1.913c-0.257-0.081-0.503,0-0.735,0.242l-1.168,1.427
      c-0.194,0.221-0.439,0.302-0.756,0.204l-3.723-1.163c-0.315-0.098-0.455-0.456-0.242-0.735L343.518,62z M338.163,75.322
      c-0.147,0.174-0.099,0.315,0.103,0.377l3.666,1.145c0.201,0.063,0.322-0.025,0.299-0.252l-0.438-5.041
      c-0.024-0.227-0.254-0.298-0.401-0.125L338.163,75.322z"/>
    <path fill="#F1BBBD" d="M360.056,67.783c0.112-0.246,0.458-0.352,0.703-0.24l0.409,0.187c0.19,0.088,0.303,0.204,0.361,0.364
      l5.45,14.56c0.059,0.159,0.316,0.244,0.417,0.026l4.362-9.549c0.111-0.245,0.431-0.364,0.677-0.252l3.41,1.558
      c0.245,0.113,0.392,0.443,0.277,0.689l-8.377,18.334c-0.111,0.245-0.458,0.351-0.702,0.239l-0.465-0.212
      c-0.19-0.087-0.344-0.256-0.419-0.455l-5.31-14.432c-0.073-0.198-0.344-0.256-0.443-0.038l-4.362,9.55
      c-0.113,0.245-0.431,0.363-0.677,0.252l-3.409-1.559c-0.246-0.112-0.393-0.442-0.279-0.688L360.056,67.783z"/>
    <path fill="#F1BBBD" d="M390.686,82.94c2.547,1.587,4.134,3.637,4.734,6.133c0.617,2.47,0.152,4.974-1.387,7.444l-0.921,1.477
      c-1.714,2.75-4.139,4.315-6.577,4.599c-2.439,0.283-4.891-0.325-7.054-1.673l-6.011-3.745c-0.229-0.143-0.306-0.474-0.163-0.703
      l10.664-17.114c0.143-0.229,0.474-0.306,0.702-0.163L390.686,82.94z M386.312,85.306c-0.178-0.111-0.344-0.073-0.454,0.105
      l-6.284,10.085c-0.11,0.179-0.072,0.344,0.105,0.455l2.088,1.302c2.675,1.666,5.46,0.997,7.222-1.829l0.92-1.478
      c1.777-2.852,1.218-5.64-1.508-7.339L386.312,85.306z"/>
    <path fill="#F1BBBD" d="M410.242,97.189c0.263-0.135,0.521-0.121,0.754,0.067l0.562,0.45c0.234,0.188,0.305,0.436,0.229,0.722
      l-5.923,21.055c-0.111,0.333-0.486,0.416-0.745,0.21l-3.043-2.44c-0.258-0.206-0.326-0.455-0.252-0.74l0.531-1.767
      c0.07-0.327,0-0.576-0.211-0.745l-5.009-4.016c-0.211-0.169-0.468-0.183-0.772-0.043l-1.607,0.903
      c-0.264,0.135-0.521,0.121-0.778-0.086l-3.043-2.439c-0.257-0.207-0.257-0.591,0.044-0.774L410.242,97.189z M400.401,107.642
      c-0.202,0.108-0.207,0.258-0.043,0.389l2.996,2.403c0.163,0.131,0.31,0.093,0.37-0.126l1.43-4.854
      c0.062-0.22-0.126-0.37-0.327-0.262L400.401,107.642z"/>
    <path fill="#F1BBBD" d="M411.696,120.307c1.4-0.03,2.613,1.132,2.645,2.531c0.051,1.379-1.111,2.592-2.513,2.622
      c-1.379,0.009-2.592-1.153-2.643-2.531C409.155,121.529,410.317,120.315,411.696,120.307"/>
  </g>
  <!--By the way,-->
  <g class="animated rotateInDownLeft delay2600ms">
    <path fill="#F1BBBD" d="M189.371,435.602c0.151-0.293,0.395-0.368,0.688-0.217l6.759,3.517c1.544,0.803,2.532,1.959,3.004,3.454
      c0.473,1.496,0.356,2.892-0.349,4.248l-0.111,0.214c-0.471,0.903-1.232,1.59-2.272,2.028c-0.352,0.156-0.436,0.381-0.227,0.693
      c1.113,1.695,1.28,3.912,0.325,5.748l-0.097,0.186c-0.844,1.623-2.082,2.705-3.729,3.269c-1.618,0.578-3.228,0.485-4.824-0.277
      l-8.25-4.291c-0.24-0.123-0.343-0.447-0.218-0.688L189.371,435.602z M188.51,448.373c-0.186-0.096-0.347-0.045-0.458,0.168
      l-1.813,3.486c-0.097,0.186-0.046,0.348,0.141,0.444l2.874,1.494c1.411,0.732,2.608,0.445,3.26-0.807l0.11-0.213
      c0.665-1.277,0.277-2.291-1.132-3.023L188.51,448.373z M192.164,441.348c-0.16-0.082-0.309-0.059-0.432,0.115l-1.716,3.299
      c-0.111,0.213-0.06,0.375,0.126,0.472l1.917,0.998c0.998,0.483,2.132,0.061,2.686-1.005l0.097-0.186
      c0.568-1.092,0.223-2.184-0.922-2.779L192.164,441.348z"/>
    <path fill="#F1BBBD" d="M207.846,460.273c0.076-0.195,0.095-0.412,0.076-0.613l-2.13-15.389c-0.1-0.326,0.275-0.634,0.64-0.492
      l3.918,1.514c0.252,0.096,0.376,0.273,0.43,0.551l1.13,9.986c0.022,0.104,0.068,0.154,0.152,0.188l0.028,0.013
      c0.056,0.02,0.123,0.014,0.211-0.05l7.546-6.637c0.228-0.17,0.438-0.217,0.689-0.119l3.918,1.513
      c0.363,0.141,0.436,0.618,0.143,0.795l-11.918,9.967c-0.148,0.135-0.28,0.309-0.354,0.506l-2.021,5.232
      c-0.141,0.362-0.529,0.535-0.893,0.395l-3.19-1.231c-0.364-0.14-0.536-0.527-0.395-0.892L207.846,460.273z"/>
    <path fill="#F1BBBD" d="M235.661,454.449c0.056-0.267,0.341-0.449,0.604-0.394l14.73,3.148c0.265,0.057,0.448,0.34,0.393,0.604
      l-0.689,3.229c-0.058,0.264-0.343,0.449-0.606,0.393l-4.695-1.004c-0.205-0.043-0.347,0.049-0.397,0.283l-3.342,15.641
      c-0.069,0.322-0.283,0.461-0.636,0.386l-3.668-0.783c-0.321-0.068-0.461-0.283-0.392-0.605l3.343-15.639
      c0.05-0.236-0.042-0.379-0.277-0.43l-4.666-0.996c-0.264-0.058-0.448-0.342-0.392-0.605L235.661,454.449z"/>
    <path fill="#F1BBBD" d="M255.863,458.561c0.026-0.27,0.317-0.481,0.587-0.457l3.732,0.361c0.27,0.025,0.485,0.287,0.459,0.558
      l-0.756,7.821c-0.02,0.209,0.088,0.342,0.327,0.363l7.733,0.748c0.209,0.02,0.341-0.088,0.36-0.297l0.756-7.824
      c0.026-0.268,0.317-0.48,0.586-0.455l3.733,0.361c0.269,0.024,0.484,0.287,0.459,0.555l-1.938,20.068
      c-0.026,0.268-0.289,0.483-0.557,0.459l-3.733-0.361c-0.269-0.025-0.515-0.291-0.487-0.559l0.737-7.646
      c0.023-0.238-0.085-0.369-0.294-0.389l-7.733-0.748c-0.239-0.023-0.37,0.086-0.394,0.324l-0.737,7.645
      c-0.027,0.271-0.288,0.484-0.558,0.459l-3.732-0.361c-0.269-0.024-0.515-0.288-0.488-0.559L255.863,458.561z"/>
    <path fill="#F1BBBD" d="M279.846,460.412c-0.004-0.271,0.231-0.516,0.501-0.521l13.561-0.233c0.271-0.006,0.544,0.229,0.549,0.5
      l0.058,3.301c0.004,0.27-0.262,0.514-0.532,0.518l-8.938,0.156c-0.21,0.004-0.328,0.125-0.324,0.336l0.063,3.719
      c0.004,0.21,0.126,0.328,0.335,0.324l6.479-0.11c0.331-0.007,0.544,0.198,0.55,0.53l0.05,2.879c0.005,0.271-0.262,0.515-0.53,0.521
      l-6.48,0.111c-0.21,0.004-0.327,0.125-0.323,0.364l0.062,3.541c0.004,0.209,0.126,0.328,0.336,0.324l8.939-0.154
      c0.271-0.006,0.543,0.23,0.549,0.5l0.057,3.3c0.005,0.271-0.261,0.516-0.531,0.521l-13.559,0.232c-0.271,0.006-0.514-0.23-0.52-0.5
      L279.846,460.412z"/>
    <path fill="#F1BBBD" d="M306.651,459.561c-0.171-0.241-0.03-0.606,0.294-0.672l3.883-0.776c0.324-0.064,0.596,0.063,0.747,0.371
      l6.012,11.219c0.13,0.188,0.342,0.178,0.445-0.06l2.699-12.045c0.047-0.223,0.146-0.336,0.354-0.377l0.089-0.018
      c0.205-0.041,0.341,0.022,0.471,0.213l7.098,10.084c0.147,0.123,0.365,0.141,0.437-0.119l1.227-12.668
      c0.024-0.34,0.225-0.563,0.548-0.629l3.854-0.773c0.322-0.062,0.623,0.214,0.559,0.5l-2.556,21.015
      c-0.023,0.342-0.229,0.535-0.554,0.6l-1.972,0.396c-0.322,0.063-0.553-0.013-0.692-0.258l-6.381-8.943
      c-0.06-0.141-0.411-0.07-0.411,0.082l-2.446,10.709c-0.064,0.289-0.246,0.447-0.541,0.508l-1.971,0.396
      c-0.323,0.063-0.589-0.035-0.741-0.343L306.651,459.561z"/>
    <path fill="#F1BBBD" d="M343.567,450.488c0.027-0.295,0.178-0.506,0.461-0.603l0.683-0.229c0.283-0.099,0.53-0.023,0.73,0.192
      l14.574,16.304c0.22,0.271,0.089,0.635-0.224,0.739l-3.691,1.257c-0.312,0.104-0.559,0.03-0.759-0.187l-1.204-1.396
      c-0.239-0.234-0.486-0.312-0.741-0.224l-6.077,2.066c-0.256,0.088-0.405,0.297-0.451,0.629l-0.103,1.84
      c-0.027,0.295-0.177,0.504-0.49,0.611l-3.689,1.256c-0.313,0.104-0.638-0.103-0.63-0.451L343.567,450.488z M347.096,464.398
      c-0.019,0.229,0.105,0.312,0.305,0.245l3.636-1.235c0.198-0.068,0.244-0.211,0.093-0.381l-3.324-3.812
      c-0.153-0.17-0.38-0.092-0.397,0.135L347.096,464.398z"/>
    <path fill="#F1BBBD" d="M366.382,457.113c-0.087-0.191-0.229-0.357-0.388-0.482l-12.519-9.207c-0.304-0.158-0.262-0.641,0.094-0.803
      l3.817-1.754c0.244-0.113,0.459-0.08,0.694,0.076l7.947,6.155c0.092,0.058,0.159,0.06,0.241,0.021l0.027-0.014
      c0.055-0.023,0.097-0.076,0.112-0.185l0.506-10.039c0.036-0.281,0.149-0.465,0.396-0.578l3.816-1.754
      c0.354-0.164,0.747,0.119,0.67,0.451l-1.169,15.498c-0.008,0.201,0.025,0.416,0.113,0.607l2.344,5.1
      c0.162,0.354,0.016,0.752-0.34,0.914l-3.107,1.428c-0.354,0.164-0.752,0.017-0.915-0.338L366.382,457.113z"/>
    <path fill="#F1BBBD" d="M382.328,450.471c1.288-0.709,2.811-0.246,3.491,0.988c0.521,0.947,0.741,2.092,0.673,3.398
      c-0.068,1.305-0.341,2.551-0.832,3.713c-0.158,0.395-0.403,0.633-0.766,0.66l-0.414,0.057c-0.279,0.053-0.573-0.23-0.521-0.637
      c0.155-1.146,0.122-1.951-0.152-2.451c-0.29-0.525-0.692-0.885-1.227-1.105c-0.587-0.258-1.006-0.645-1.28-1.143
      C380.619,452.715,381.04,451.182,382.328,450.471"/>
  </g>
  <!--I'm a panda-->
  <g class="animated zoomIn delay3s">
    <path fill="#F1BBBD" d="M97.833,366.891c-0.032-0.539,0.419-1.049,0.958-1.078l7.546-0.446c0.539-0.031,1.047,0.42,1.079,0.959
      l2.375,40.248c0.031,0.538-0.419,1.047-0.957,1.077l-7.547,0.445c-0.539,0.031-1.046-0.42-1.079-0.959L97.833,366.891z"/>
    <path fill="#F1BBBD" d="M121.17,364.129c2.455-0.145,4.484,1.66,4.626,4.055c0.216,3.654-2.236,7.945-5.435,10.779
      c-0.507,0.57-1.099,0.725-1.655,0.459l-0.673-0.201c-0.489-0.152-0.712-0.859-0.321-1.363c1.05-1.563,1.575-2.856,1.515-3.877
      c-0.06-1.018-0.412-1.897-1.054-2.582c-0.705-0.739-1.062-1.68-1.121-2.698C116.912,366.305,118.594,364.281,121.17,364.129"/>
    <path fill="#F1BBBD" d="M135.679,364.535c0.024-0.602,0.366-0.924,0.965-0.957l0.659-0.039c0.419-0.025,0.73,0.137,0.987,0.422
      l14.621,18.609c0.073,0.236,0.673,0.201,0.719-0.043l12.33-20.199c0.222-0.314,0.511-0.512,0.93-0.537l0.659-0.037
      c0.599-0.035,0.977,0.242,1.072,0.838l7.524,39.943c0.093,0.535-0.351,1.162-1.01,1.201l-7.307,0.432
      c-0.6,0.037-0.976-0.242-1.071-0.838l-3.302-19.277c-0.089-0.477-0.578-0.627-0.854-0.191l-7.706,11.994
      c-0.439,0.688-1.159,0.73-1.677,0.101l-9.063-11.004c-0.324-0.402-0.793-0.193-0.824,0.289l-1.012,19.53
      c-0.023,0.604-0.365,0.924-0.965,0.959l-7.307,0.433c-0.66,0.039-1.173-0.531-1.146-1.074L135.679,364.535z"/>
    <path fill="#F1BBBD" d="M211.442,360.002c0.209-0.551,0.61-0.877,1.209-0.912l1.438-0.084c0.599-0.035,1.036,0.24,1.307,0.764
      l19.442,39.183c0.278,0.646-0.165,1.271-0.824,1.312l-7.786,0.459c-0.659,0.039-1.096-0.234-1.368-0.761l-1.578-3.334
      c-0.335-0.58-0.771-0.854-1.311-0.821l-12.818,0.756c-0.538,0.031-0.939,0.354-1.203,0.973l-1.177,3.496
      c-0.208,0.553-0.609,0.877-1.268,0.916l-7.786,0.459c-0.659,0.039-1.174-0.531-0.973-1.205L211.442,360.002z M210.854,388.707
      c-0.154,0.43,0.039,0.66,0.458,0.635l7.666-0.453c0.419-0.022,0.585-0.274,0.381-0.684l-4.385-9.117
      c-0.204-0.408-0.683-0.381-0.839,0.049L210.854,388.707z"/>
    <path fill="#F1BBBD" d="M254.52,357.641c-0.032-0.539,0.419-1.045,0.958-1.076l18.807-1.11c3.413-0.201,6.365,0.946,8.981,3.496
      c2.611,2.489,4.052,5.53,4.269,9.184l0.023,0.421c0.23,3.895-0.833,7.262-3.133,10.043c-2.3,2.778-5.337,4.28-9.11,4.504
      l-8.983,0.528c-0.479,0.029-0.704,0.283-0.681,0.701l0.768,12.998c0.039,0.657-0.299,1.039-0.958,1.078l-7.487,0.44
      c-0.659,0.039-1.039-0.299-1.078-0.959L254.52,357.641z M265.209,364.645c-0.479,0.027-0.704,0.281-0.676,0.763l0.575,9.762
      c0.029,0.479,0.283,0.703,0.762,0.676l6.049-0.356c3.175-0.188,5.087-2.404,4.894-5.697l-0.024-0.42
      c-0.199-3.354-2.295-5.273-5.589-5.08L265.209,364.645z"/>
    <path fill="#F1BBBD" d="M302.783,354.613c0.209-0.555,0.609-0.879,1.209-0.914l1.438-0.084c0.598-0.035,1.035,0.238,1.306,0.764
      l19.442,39.182c0.277,0.646-0.165,1.271-0.824,1.312l-7.786,0.459c-0.658,0.039-1.096-0.233-1.366-0.761l-1.579-3.331
      c-0.334-0.582-0.771-0.857-1.312-0.824l-12.816,0.756c-0.539,0.031-0.939,0.354-1.205,0.974l-1.176,3.494
      c-0.208,0.555-0.608,0.879-1.269,0.916l-7.786,0.461c-0.659,0.039-1.174-0.533-0.972-1.205L302.783,354.613z M302.194,383.316
      c-0.154,0.43,0.04,0.658,0.458,0.635l7.666-0.453c0.419-0.025,0.585-0.275,0.382-0.684l-4.386-9.117
      c-0.204-0.408-0.683-0.381-0.839,0.049L302.194,383.316z"/>
    <path fill="#F1BBBD" d="M330.887,353.135c-0.032-0.539,0.479-1.051,1.019-1.082l0.898-0.053c0.418-0.025,0.725,0.076,0.979,0.303
      l23.274,20.623c0.255,0.225,0.789,0.133,0.762-0.346l-1.237-20.963c-0.03-0.539,0.421-1.047,0.958-1.078l7.486-0.441
      c0.539-0.033,1.106,0.414,1.138,0.955l2.378,40.248c0.03,0.539-0.479,1.049-1.02,1.082l-1.018,0.059
      c-0.42,0.025-0.852-0.129-1.166-0.41l-22.909-20.524c-0.317-0.282-0.85-0.131-0.821,0.349l1.237,20.963
      c0.033,0.539-0.418,1.047-0.958,1.078l-7.486,0.442c-0.539,0.031-1.104-0.416-1.139-0.955L330.887,353.135z"/>
    <path fill="#F1BBBD" d="M392.038,348.504c5.989-0.354,10.947,1.156,14.812,4.535c3.862,3.318,5.998,7.939,6.341,13.75l0.205,3.473
      c0.382,6.467-1.766,11.824-5.419,15.105s-8.353,5.121-13.444,5.422l-14.135,0.834c-0.539,0.031-1.046-0.42-1.077-0.959
      l-2.376-40.248c-0.032-0.539,0.419-1.047,0.958-1.08L392.038,348.504z M387.638,357.418c-0.42,0.025-0.646,0.279-0.621,0.697
      l1.399,23.719c0.024,0.418,0.278,0.645,0.697,0.619l4.911-0.289c6.289-0.371,10.062-4.682,9.67-11.33l-0.206-3.473
      c-0.395-6.709-4.532-10.611-10.939-10.234L387.638,357.418z"/>
    <path fill="#F1BBBD" d="M433.656,346.889c0.208-0.553,0.609-0.877,1.208-0.914l1.438-0.084c0.598-0.035,1.036,0.238,1.307,0.764
      l19.441,39.183c0.278,0.646-0.165,1.271-0.823,1.312l-7.786,0.459c-0.659,0.039-1.097-0.234-1.367-0.76l-1.579-3.332
      c-0.335-0.582-0.771-0.857-1.311-0.824l-12.817,0.756c-0.538,0.033-0.94,0.355-1.204,0.973l-1.177,3.496
      c-0.208,0.553-0.608,0.877-1.269,0.914l-7.786,0.461c-0.659,0.039-1.174-0.533-0.972-1.205L433.656,346.889z M433.067,375.592
      c-0.156,0.43,0.037,0.66,0.456,0.635l7.667-0.453c0.42-0.024,0.586-0.274,0.381-0.684l-4.385-9.117
      c-0.205-0.408-0.683-0.381-0.839,0.049L433.067,375.592z"/>
    <path fill="#F1BBBD" d="M480.288,377.312c1.86-2.092,5.215-2.291,7.309-0.433c2.09,1.802,2.288,5.154,0.428,7.248
      c-1.863,2.031-5.218,2.229-7.307,0.431C478.623,382.699,478.427,379.346,480.288,377.312 M477.211,344.498
      c-0.031-0.539,0.419-1.047,0.958-1.078l7.485-0.441c0.539-0.033,1.047,0.418,1.078,0.957l1.514,26.656
      c0.031,0.539-0.479,1.051-1.018,1.082l-7.247,0.428c-0.539,0.031-1.105-0.416-1.138-0.955L477.211,344.498z"/>
  </g>
</svg>
