<?xml version="1.0" encoding="utf-8"?>
<!DOCTYPE svg PUBLIC "-//W3C//DTD SVG 1.1//EN" "http://www.w3.org/Graphics/SVG/1.1/DTD/svg11.dtd">
<svg version="1.1" id="Calque_1" xmlns="http://www.w3.org/2000/svg" xmlns:xlink="http://www.w3.org/1999/xlink" x="0px" y="0px"
	 viewBox="0 0 566.93 566.93" enable-background="new 0 0 566.93 566.93" xml:space="preserve">
<circle class="animated bounceInLeft" fill="#F1BBBD" cx="283.229" cy="268.229" r="169.508"/>

  <!--Panda-->
<g class="animated bounceInDown delay600ms">
  <path fill="#FBFBFC" d="M386.869,341.7l40.251,71.437c0.884,5.727,1.347,11.579,1.347,17.53c0,9.042-1.06,17.859-3.071,26.354
    c-45.855,0-244.646,0-268.723,0c-2.011-8.495-3.07-17.312-3.07-26.354c0-11.442,1.693-22.524,4.871-33.051l23.037-55.916
    l35.813-67.211l21.901-9.645l66.552,15.227l37.387-9.785l15.017,10.311L386.869,341.7z"/>
  <path fill="#4B4B4D" d="M337.578,276.118c-10.303,34.455-29.944,45.942-49.1,45.942c-19.335,0-38.789-10.16-49.062-45.166"/>
	<path fill="#4B4B4D" d="M451.774,371.691c-18.428-40.547-25.228-55.379-36.375-72.125c-5.706-8.577-36.457-32.481-64.286-29.373
		c2.804,42.552,29.892,59.014,52.03,102.957c22.576,44.812,25.797,41.561,25.213,62.572
		C468.373,425.72,470.204,412.236,451.774,371.691z"/>
	<path fill="#4B4B4D" d="M266.921,334.809c-0.625-4.488,2.25-9.341-9.531-15.074c-11.693-5.688-35.91,2.641-40.769,34.392
		c-25.784,1.972-35.794,15.804-44.979,19.294c13.602-49.041,56.509-60.673,59.312-103.225c-27.828-3.109-59.802,17.18-65.507,25.758
		c-11.146,16.746-16.726,35.193-35.154,75.738c-7.233,15.914-23.788,57.934,38.22,58.371c31.844,0.225,56.828-16.611,63.855-23.412
		c7.023-6.799,15.351-15.578,33.993-14.674c18.076,0.875,20.109-31.554,17.045-43.338
		C281.116,339.823,272.418,333.684,266.921,334.809z"/>
	<path fill="#444346" d="M266.921,334.809c-2.832,8.895-18.283,12.114-25.545,4.358c-11.427,23.418-2.414,55.188,11.768,54.021
		c2.025-0.166,10.89-1.324,13.219-1.211c18.076,0.875,20.109-31.554,17.046-43.338C281.116,339.823,272.418,333.684,266.921,334.809
		z"/>
  <path fill="#FBFBFC" d="M382.138,188.403c-8.953-48.984-48.994-77.346-103.023-72.074c-54.27-1.385-92.175,29.772-97.594,79.271
    c-1.219,11.129-19.079,46.225,4.535,79.236c23.616,33.012,76.139,22.321,99.566,22.918c23.327-2.273,76.479,4.625,97.667-29.995
    C404.479,233.142,384.15,199.415,382.138,188.403z"/>
	<path fill="#4B4B4D" d="M282.458,238.209c-62.992,6.144,3.43,35.155,3.43,35.155S345.451,232.065,282.458,238.209z"/>
	<path fill="#E7D5E7" d="M255.488,285.404c16.618-1.434,65.467-5.792,82.091-19.629C337.578,284.84,290.484,289.917,255.488,285.404z
      "/>
  <path fill="#4B4B4D" d="M243.384,183.824c30.869-3.766,17.812,58.169-18.858,61.187c-24.936,2.051-23.571-25.9-6.522-28.467
    C235.052,213.979,225.452,186.012,243.384,183.824z"/>
  <path fill="#4B4B4D" d="M319.044,181.729c-31.09-0.711-12.003,59.64,24.784,59.033c25.021-0.411,20.912-28.095,3.693-28.97
    C330.304,210.918,337.104,182.141,319.044,181.729z"/>
  <path fill="#FBFBFC" d="M318.563,190.704c5.523-0.538,5.055,13.699,1.371,14.057C316.256,205.121,313.037,191.243,318.563,190.704
    z"/>
  <path fill="#FBFBFC" d="M244.426,192.868c5.675-0.555,5.187,14.071,1.409,14.439C242.049,207.677,238.751,193.421,244.426,192.868
    z"/>
</g>
  <!--white path to delimiter Panda-->
  <path class="animated fadeIn delay800ms" fill="#FFFFFF" d="M283.231,3.978c-145.941,0-264.252,118.309-264.252,264.253c0,145.938,118.311,264.25,264.252,264.25
    c145.94,0,264.25-118.312,264.25-264.25C547.481,122.286,429.172,3.978,283.231,3.978z M283.231,437.735
    c-93.617,0-169.51-75.892-169.51-169.506c0-93.619,75.893-169.51,169.51-169.51c93.615,0,169.508,75.891,169.508,169.51
    C452.739,361.846,376.847,437.735,283.231,437.735z"/>
<g class="animated bounceInDown delay1600ms">
  <path fill="#F6F4DD" d="M272.582,173.955c73.869-9.757,101.609-35.56,107.834-42.886c6.226-7.326-12.249-31.034-68.625-26.684
    c-13.903,1.072-31.473,7.342-50.162,7.877C125.134,116.179,146.832,190.565,272.582,173.955z"/>
  <path fill="#F6F4DD" d="M181.757,60.602c0.592,3.862,54.897,37.204,91.766,33.35c33.273-3.478,68.825-45.81,68.836-52.502
    C342.382,27.343,178.413,38.731,181.757,60.602z"/>
  <path fill="#FEFCE6" d="M199.055,150.31c48.505,14.754,129.263-10.354,150.882-20.807c-3.707-18.92-6.694-61.422-7.578-88.054
    c-23.178,28.501-117.153,38.87-160.602,19.152C189.438,101.819,199.055,150.31,199.055,150.31z"/>
  <path fill="#D4EBF5" d="M199.055,150.31c48.505,14.754,127.698-5.225,150.882-20.807c-1.727-8.812-3.297-22.738-4.572-37.795
    c-21.812,20.686-119.624,31.76-153.948,19.578C195.724,133.512,199.055,150.31,199.055,150.31z"/>
    <polygon class="animated bounceInDown" fill="#FBFBFC" points="271.911,117.632 268.384,129.896 256.827,130.281 265.847,137.65 262.999,150.622 273.535,140.114
    	285.942,144.701 280.866,136.805 287.493,128.237 277.201,129.474 "/>
    <polygon fill="#FBFBFC" points="232.689,119.911 228.223,131.866 216.671,131.354 225.093,139.4 221.699,150.622 232.567,142.452
    	244.479,152.104 240.133,139.722 248.229,131.229 237.046,132.129 "/>
    <polygon fill="#FBFBFC" points="197.354,117.632 194.101,125.085 197.282,141.337 204.169,149.168 201.404,137.729 209.147,130.872
    	200.854,129.354 "/>
    <polygon fill="#FBFBFC" points="308.706,110.286 307.854,123.591 297.897,126.104 305.646,130.978 304.73,144.227 313.611,132.287
    	326.558,135.005 320.378,127.938 325.676,118.491 315.677,121.225 "/>
    <polygon fill="#FBFBFC" points="343.291,98.145 342.358,112.479 332.481,115.702 341.479,119.104 340.339,131.229 348.196,120.146
    	346.404,103.03 "/>
</g>

<g>
	<g class="animated rotateInDownRight delay2s">
		<path fill="#C4DAE4" d="M143.677,420.146c0.142-0.153,0.238-0.351,0.293-0.545l3.594-15.117c0.027-0.342,0.488-0.489,0.775-0.227
			l3.104,2.83c0.2,0.182,0.252,0.393,0.201,0.67l-2.567,9.719c-0.018,0.107,0.008,0.17,0.073,0.23l0.022,0.02
			c0.044,0.041,0.107,0.06,0.214,0.033l9.44-3.451c0.272-0.076,0.485-0.043,0.687,0.14l3.104,2.829
			c0.286,0.265,0.182,0.736-0.155,0.793l-14.725,4.97c-0.188,0.072-0.372,0.188-0.516,0.343l-3.78,4.146
			c-0.263,0.289-0.687,0.309-0.975,0.045l-2.528-2.306c-0.287-0.263-0.307-0.687-0.045-0.975L143.677,420.146z"/>
		<path fill="#C4DAE4" d="M159.634,427.361c1.719-2.422,3.866-3.842,6.459-4.28c2.594-0.439,5.089,0.191,7.51,1.91
			c2.422,1.719,3.84,3.867,4.28,6.46c0.439,2.593-0.19,5.088-1.91,7.509l-1.007,1.42c-1.719,2.421-3.885,3.863-6.478,4.304
			c-2.575,0.415-5.07-0.216-7.492-1.935c-2.421-1.719-3.841-3.866-4.297-6.437c-0.44-2.593,0.207-5.111,1.927-7.532L159.634,427.361
			z M162.589,431.593c-2.031,2.861-1.64,5.679,0.978,7.536c2.618,1.858,5.405,1.3,7.438-1.562l1.008-1.419
			c2.031-2.861,1.64-5.679-0.978-7.536c-2.618-1.858-5.405-1.3-7.438,1.562L162.589,431.593z"/>
		<path fill="#C4DAE4" d="M185.657,434.062c0.128-0.237,0.479-0.321,0.717-0.194l3.307,1.77c0.237,0.128,0.336,0.453,0.208,0.69
			l-5.806,10.842c-1.246,2.327-0.701,4.423,1.521,5.612c2.247,1.203,4.294,0.496,5.54-1.832l5.807-10.842
			c0.128-0.237,0.451-0.336,0.689-0.208l3.332,1.783c0.238,0.127,0.336,0.452,0.209,0.689l-5.807,10.842
			c-1.218,2.275-2.922,3.744-5.127,4.366s-4.438,0.346-6.739-0.886c-2.3-1.232-3.77-2.938-4.474-5.118
			c-0.678-2.166-0.4-4.399,0.817-6.674L185.657,434.062z"/>
		<path fill="#C4DAE4" d="M214.501,448.103c0.086-0.256,0.418-0.397,0.674-0.312l0.428,0.142c0.199,0.066,0.322,0.171,0.398,0.323
			l6.98,13.898c0.076,0.15,0.343,0.208,0.417-0.021l3.316-9.966c0.086-0.256,0.39-0.408,0.646-0.323l3.561,1.187
			c0.256,0.084,0.437,0.397,0.352,0.653l-6.368,19.134c-0.085,0.257-0.417,0.398-0.673,0.313l-0.483-0.162
			c-0.199-0.064-0.371-0.217-0.465-0.407l-6.83-13.783c-0.097-0.19-0.37-0.22-0.446,0.01l-3.316,9.965
			c-0.085,0.256-0.389,0.408-0.646,0.322l-3.56-1.185c-0.256-0.086-0.437-0.397-0.352-0.653L214.501,448.103z"/>
		<path fill="#C4DAE4" d="M237.124,455.147c0.055-0.266,0.338-0.451,0.604-0.396l13.276,2.766c0.265,0.057,0.479,0.346,0.425,0.61
			l-0.674,3.23c-0.055,0.264-0.368,0.443-0.633,0.389l-8.753-1.822c-0.206-0.043-0.348,0.049-0.391,0.255l-0.76,3.644
			c-0.043,0.206,0.051,0.348,0.256,0.39l6.346,1.322c0.322,0.066,0.485,0.315,0.418,0.639l-0.588,2.82
			c-0.055,0.264-0.367,0.442-0.633,0.389l-6.344-1.321c-0.206-0.043-0.348,0.051-0.396,0.285l-0.723,3.467
			c-0.043,0.204,0.051,0.348,0.256,0.391l8.754,1.823c0.265,0.056,0.479,0.345,0.424,0.608l-0.673,3.231
			c-0.055,0.264-0.368,0.442-0.633,0.389l-13.275-2.766c-0.266-0.056-0.451-0.339-0.396-0.604L237.124,455.147z"/>
		<path fill="#C4DAE4" d="M256.753,458.911c0.026-0.271,0.29-0.484,0.559-0.457l13.49,1.352c0.27,0.027,0.514,0.293,0.486,0.562
			l-0.328,3.283c-0.027,0.269-0.32,0.479-0.588,0.454l-8.896-0.894c-0.209-0.021-0.34,0.087-0.361,0.296l-0.37,3.701
			c-0.021,0.209,0.087,0.341,0.296,0.36l6.445,0.646c0.328,0.033,0.518,0.264,0.483,0.592l-0.287,2.865
			c-0.026,0.269-0.319,0.48-0.588,0.453l-6.446-0.646c-0.209-0.021-0.341,0.088-0.364,0.326l-0.354,3.521
			c-0.021,0.209,0.087,0.34,0.296,0.36l8.896,0.892c0.268,0.026,0.513,0.293,0.485,0.562l-0.33,3.283
			c-0.025,0.27-0.317,0.48-0.588,0.454l-13.49-1.353c-0.269-0.026-0.482-0.29-0.456-0.559L256.753,458.911z"/>
		<path fill="#C4DAE4" d="M284.085,460.042c3-0.049,5.443,0.811,7.304,2.582c1.858,1.739,2.827,4.094,2.874,7.004l0.029,1.74
			c0.053,3.24-1.136,5.869-3.03,7.431c-1.895,1.562-4.282,2.38-6.832,2.422l-7.079,0.115c-0.271,0.005-0.515-0.23-0.52-0.501
			l-0.328-20.16c-0.004-0.27,0.231-0.514,0.502-0.518L284.085,460.042z M281.695,464.401c-0.21,0.004-0.327,0.125-0.324,0.336
			l0.192,11.879c0.004,0.21,0.126,0.328,0.336,0.324l2.46-0.039c3.149-0.053,5.126-2.125,5.072-5.454l-0.028-1.74
			c-0.055-3.36-2.038-5.397-5.248-5.346L281.695,464.401z"/>
		<path fill="#C4DAE4" d="M314.774,457.782c0.072-0.287,0.253-0.472,0.549-0.522l0.709-0.124c0.295-0.051,0.528,0.062,0.693,0.307
			l11.884,18.361c0.175,0.306-0.01,0.642-0.335,0.698l-3.842,0.671c-0.326,0.058-0.56-0.056-0.723-0.301l-0.976-1.566
			c-0.199-0.27-0.432-0.381-0.697-0.335l-6.324,1.104c-0.268,0.046-0.447,0.229-0.544,0.551l-0.386,1.804
			c-0.071,0.286-0.254,0.471-0.578,0.526l-3.843,0.672c-0.325,0.057-0.613-0.198-0.552-0.544L314.774,457.782z M316.111,472.076
			c-0.053,0.222,0.058,0.325,0.265,0.289l3.782-0.66c0.207-0.036,0.274-0.17,0.15-0.361l-2.696-4.279
			c-0.125-0.191-0.361-0.15-0.414,0.071L316.111,472.076z"/>
		<path fill="#C4DAE4" d="M337.598,452.675c-0.089-0.254,0.061-0.56,0.314-0.647l8.907-3.07c1.616-0.558,3.194-0.403,4.797,0.473
			c1.594,0.848,2.698,2.116,3.294,3.848l0.068,0.197c0.637,1.845,0.578,3.609-0.154,5.26c-0.731,1.649-1.992,2.781-3.778,3.396
			l-4.257,1.468c-0.227,0.078-0.301,0.23-0.231,0.43l2.123,6.155c0.106,0.312-0.004,0.541-0.316,0.648l-3.545,1.223
			c-0.312,0.107-0.541-0.004-0.647-0.315L337.598,452.675z M343.69,454.605c-0.227,0.077-0.301,0.23-0.223,0.458l1.594,4.622
			c0.078,0.228,0.23,0.303,0.457,0.224l2.865-0.987c1.504-0.519,2.126-1.844,1.588-3.403l-0.068-0.198
			c-0.548-1.588-1.815-2.23-3.377-1.691L343.69,454.605z"/>
		<path fill="#C4DAE4" d="M360.847,443.716c-0.004-0.295,0.125-0.52,0.396-0.645l0.654-0.3c0.272-0.125,0.526-0.076,0.747,0.118
			l16.157,14.735c0.247,0.25,0.152,0.622-0.146,0.76l-3.545,1.625c-0.3,0.138-0.554,0.088-0.773-0.106l-1.341-1.268
			c-0.262-0.21-0.515-0.259-0.76-0.146l-5.836,2.675c-0.245,0.111-0.373,0.336-0.385,0.671l0.085,1.842
			c0.003,0.296-0.125,0.52-0.425,0.657l-3.545,1.624c-0.301,0.138-0.644-0.035-0.672-0.386L360.847,443.716z M365.771,457.197
			c0.006,0.228,0.139,0.3,0.329,0.212l3.49-1.601c0.189-0.087,0.223-0.233,0.054-0.387l-3.695-3.454
			c-0.169-0.152-0.387-0.054-0.381,0.175L365.771,457.197z"/>
		<path fill="#C4DAE4" d="M374.094,437.419c-0.142-0.229-0.036-0.576,0.193-0.717l0.386-0.234c0.179-0.108,0.338-0.137,0.503-0.098
			l15.121,3.62c0.165,0.04,0.38-0.126,0.254-0.331l-5.479-8.957c-0.141-0.229-0.061-0.561,0.169-0.701l3.198-1.957
			c0.23-0.141,0.586-0.076,0.728,0.154l10.521,17.194c0.141,0.23,0.035,0.576-0.195,0.718l-0.435,0.266
			c-0.179,0.11-0.405,0.143-0.611,0.094l-14.937-3.663c-0.206-0.05-0.404,0.144-0.279,0.348l5.479,8.957
			c0.142,0.229,0.062,0.56-0.169,0.7l-3.198,1.957c-0.23,0.142-0.586,0.076-0.728-0.153L374.094,437.419z"/>
		<path fill="#C4DAE4" d="M399.699,419.615c2.35-1.866,4.812-2.674,7.363-2.402c2.533,0.247,4.735,1.523,6.545,3.803l1.082,1.36
			c2.016,2.537,2.677,5.345,2.125,7.736c-0.551,2.393-1.943,4.496-3.938,6.082l-5.543,4.403c-0.212,0.168-0.55,0.129-0.718-0.082
			l-12.54-15.78c-0.168-0.211-0.13-0.549,0.082-0.717L399.699,419.615z M400.462,424.527c-0.164,0.13-0.185,0.299-0.054,0.464
			l7.391,9.299c0.131,0.164,0.3,0.184,0.464,0.053l1.926-1.528c2.465-1.96,2.771-4.808,0.698-7.414l-1.082-1.361
			c-2.091-2.631-4.904-3.038-7.417-1.041L400.462,424.527z"/>
		<path fill="#C4DAE4" d="M416.051,405.747c-0.105-0.274-0.062-0.529,0.148-0.742l0.511-0.508c0.213-0.212,0.467-0.254,0.742-0.147
			l20.266,8.217c0.317,0.148,0.358,0.531,0.126,0.764l-2.761,2.754c-0.234,0.232-0.488,0.275-0.765,0.168l-1.696-0.723
			c-0.316-0.107-0.572-0.064-0.764,0.125l-4.546,4.533c-0.191,0.189-0.233,0.444-0.128,0.764l0.719,1.697
			c0.105,0.274,0.062,0.529-0.171,0.764l-2.762,2.753c-0.233,0.233-0.615,0.19-0.763-0.128L416.051,405.747z M425.347,416.686
			c0.084,0.211,0.231,0.231,0.381,0.084l2.719-2.711c0.149-0.147,0.128-0.297-0.084-0.382l-4.663-1.959
			c-0.212-0.084-0.382,0.085-0.298,0.298L425.347,416.686z"/>
	</g>
	<g class="animated rotateInDownLeft delay1s">
		<path fill="#C4DAE4" d="M113.92,143.138c-0.22-0.158-0.257-0.518-0.1-0.736l2.191-3.045c0.158-0.219,0.493-0.273,0.713-0.115
			l13.004,9.362c0.17,0.122,0.338,0.095,0.479-0.1l4.541-6.308c0.158-0.219,0.492-0.273,0.712-0.115l2.679,1.928
			c0.219,0.158,0.273,0.493,0.116,0.713l-7.241,10.057c-0.158,0.22-0.51,0.299-0.729,0.141L113.92,143.138z"/>
		<path fill="#C4DAE4" d="M126.384,126.53c-0.201-0.18-0.22-0.518-0.04-0.719l9.035-10.111c0.18-0.201,0.538-0.243,0.74-0.062
			l2.46,2.198c0.2,0.18,0.2,0.541,0.021,0.742l-5.957,6.666c-0.141,0.157-0.131,0.326,0.025,0.466l2.773,2.479
			c0.157,0.141,0.326,0.131,0.467-0.025l4.317-4.832c0.219-0.246,0.517-0.263,0.762-0.043l2.147,1.919
			c0.202,0.18,0.2,0.541,0.021,0.743l-4.316,4.831c-0.14,0.157-0.13,0.326,0.048,0.485l2.641,2.359
			c0.156,0.14,0.326,0.131,0.466-0.026l5.957-6.666c0.18-0.201,0.538-0.243,0.739-0.063l2.461,2.199
			c0.201,0.18,0.2,0.541,0.021,0.742l-9.035,10.111c-0.181,0.201-0.519,0.221-0.72,0.041L126.384,126.53z"/>
		<path fill="#C4DAE4" d="M140.575,111.133c-0.183-0.2-0.164-0.54,0.036-0.72l11.185-10.089c0.2-0.181,0.539-0.163,0.721,0.037
			l2.21,2.45c0.182,0.201,0.163,0.54-0.037,0.721l-3.563,3.215c-0.155,0.141-0.165,0.311-0.004,0.489l10.711,11.874
			c0.222,0.245,0.208,0.499-0.061,0.74l-2.784,2.512c-0.244,0.221-0.498,0.209-0.721-0.037l-10.711-11.873
			c-0.161-0.179-0.33-0.188-0.509-0.027l-3.542,3.195c-0.2,0.182-0.54,0.164-0.72-0.037L140.575,111.133z"/>
		<path fill="#C4DAE4" d="M167.467,88.954c-0.135-0.27-0.062-0.492,0.191-0.652l0.278-0.176c0.178-0.112,0.354-0.116,0.534-0.053
			l10.891,4.623c0.09,0.086,0.344-0.074,0.306-0.191l0.526-11.82c0.021-0.191,0.103-0.347,0.278-0.459l0.279-0.176
			c0.254-0.16,0.484-0.129,0.671,0.109l12.929,15.676c0.169,0.213,0.126,0.595-0.153,0.771l-3.096,1.951
			c-0.254,0.159-0.485,0.129-0.671-0.108l-6.095-7.646c-0.153-0.188-0.404-0.135-0.419,0.123l-0.482,7.11
			c-0.026,0.407-0.331,0.599-0.71,0.448l-6.623-2.634c-0.239-0.098-0.395,0.106-0.291,0.325l4.269,8.797
			c0.134,0.27,0.062,0.493-0.192,0.652l-3.096,1.951c-0.278,0.176-0.643,0.051-0.762-0.193L167.467,88.954z"/>
		<path fill="#C4DAE4" d="M190.757,75.231c-0.115-0.244,0.002-0.563,0.246-0.678l12.291-5.725c0.244-0.113,0.59-0.01,0.705,0.234
			l1.393,2.991c0.113,0.245-0.029,0.577-0.273,0.69l-8.104,3.773c-0.189,0.09-0.248,0.248-0.16,0.439l1.57,3.371
			c0.089,0.19,0.248,0.248,0.438,0.16l5.874-2.736c0.3-0.139,0.578-0.037,0.718,0.262l1.216,2.611
			c0.114,0.244-0.029,0.576-0.274,0.689l-5.873,2.736c-0.189,0.088-0.248,0.248-0.146,0.465l1.494,3.209
			c0.088,0.189,0.248,0.248,0.438,0.16l8.104-3.775c0.244-0.113,0.591-0.01,0.705,0.234l1.393,2.992
			c0.114,0.244-0.029,0.576-0.273,0.689l-12.29,5.725c-0.244,0.114-0.563-0.002-0.679-0.247L190.757,75.231z"/>
		<path fill="#C4DAE4" d="M219.079,63.403c-0.074-0.26,0.091-0.557,0.35-0.631l14.479-4.144c0.259-0.074,0.556,0.091,0.63,0.351
			l0.907,3.172c0.074,0.26-0.091,0.557-0.351,0.631l-4.613,1.32c-0.202,0.058-0.285,0.206-0.219,0.438l4.4,15.371
			c0.09,0.316-0.033,0.539-0.379,0.639l-3.605,1.031c-0.316,0.092-0.539-0.032-0.631-0.35l-4.399-15.371
			c-0.064-0.23-0.214-0.312-0.443-0.247l-4.586,1.312c-0.261,0.074-0.558-0.091-0.632-0.351L219.079,63.403z"/>
		<path fill="#C4DAE4" d="M241.462,57.461c-0.045-0.267,0.149-0.544,0.417-0.589l13.366-2.289c0.267-0.047,0.572,0.145,0.618,0.41
			l0.558,3.254c0.046,0.266-0.18,0.548-0.445,0.594l-8.812,1.51c-0.207,0.035-0.307,0.174-0.271,0.381l0.627,3.666
			c0.036,0.207,0.175,0.306,0.382,0.27l6.389-1.094c0.324-0.056,0.566,0.116,0.623,0.441l0.485,2.839
			c0.046,0.267-0.18,0.548-0.445,0.594l-6.389,1.095c-0.207,0.035-0.305,0.174-0.264,0.41l0.598,3.489
			c0.035,0.207,0.175,0.306,0.381,0.271l8.812-1.51c0.266-0.047,0.572,0.145,0.618,0.411l0.558,3.253
			c0.045,0.266-0.181,0.548-0.446,0.594l-13.365,2.289c-0.268,0.047-0.543-0.15-0.59-0.416L241.462,57.461z"/>
		<path fill="#C4DAE4" d="M263.621,54.166c-0.018-0.27,0.236-0.526,0.507-0.544l3.742-0.24c0.27-0.018,0.522,0.207,0.541,0.477
			l1.026,15.986c0.015,0.21,0.142,0.322,0.38,0.307l7.754-0.498c0.271-0.018,0.524,0.207,0.542,0.477l0.212,3.293
			c0.018,0.27-0.207,0.524-0.478,0.541l-12.363,0.795c-0.27,0.018-0.555-0.205-0.571-0.475L263.621,54.166z"/>
		<path fill="#C4DAE4" d="M284.298,53.262c0.01-0.27,0.288-0.5,0.559-0.49l3.748,0.136c0.271,0.01,0.5,0.258,0.49,0.527
			l-0.578,16.012c-0.008,0.21,0.108,0.334,0.348,0.343l7.767,0.28c0.271,0.01,0.502,0.259,0.492,0.529l-0.119,3.297
			c-0.01,0.271-0.259,0.502-0.528,0.492l-12.384-0.447c-0.271-0.01-0.531-0.26-0.521-0.529L284.298,53.262z"/>
		<path fill="#C4DAE4" d="M317.978,70.94c0.041-0.205,0.023-0.424-0.029-0.617l-4.724-14.801c-0.153-0.307,0.165-0.672,0.548-0.596
			l4.118,0.823c0.265,0.053,0.417,0.206,0.518,0.47l2.815,9.648c0.041,0.1,0.094,0.142,0.182,0.159l0.03,0.006
			c0.059,0.012,0.124-0.006,0.2-0.083l6.305-7.826c0.193-0.206,0.395-0.289,0.658-0.236l4.119,0.822
			c0.383,0.077,0.535,0.536,0.275,0.76l-10.046,11.852c-0.123,0.159-0.223,0.354-0.264,0.56l-1.099,5.501
			c-0.077,0.383-0.431,0.618-0.812,0.542l-3.354-0.67c-0.384-0.076-0.619-0.429-0.542-0.812L317.978,70.94z"/>
		<path fill="#C4DAE4" d="M335.856,69.575c0.952-2.813,2.602-4.788,4.959-5.953c2.358-1.166,4.93-1.277,7.742-0.326
			c2.812,0.951,4.787,2.602,5.953,4.959s1.276,4.929,0.325,7.741l-0.559,1.647c-0.951,2.813-2.61,4.816-4.969,5.982
			c-2.348,1.137-4.918,1.248-7.731,0.297c-2.812-0.951-4.788-2.602-5.963-4.931c-1.165-2.357-1.268-4.957-0.314-7.77L335.856,69.575
			z M339.902,72.78c-1.125,3.324,0.06,5.909,3.1,6.938c3.04,1.029,5.551-0.307,6.675-3.631l0.558-1.648
			c1.125-3.324-0.059-5.909-3.099-6.938c-3.04-1.029-5.55,0.307-6.675,3.631L339.902,72.78z"/>
		<path fill="#C4DAE4" d="M365.214,70.431c0.12-0.242,0.469-0.338,0.711-0.219l3.361,1.661c0.242,0.12,0.352,0.441,0.231,0.684
			l-5.449,11.029c-1.17,2.367-0.556,4.444,1.704,5.561c2.286,1.13,4.31,0.355,5.479-2.013l5.447-11.029
			c0.12-0.242,0.441-0.351,0.685-0.23l3.39,1.674c0.242,0.12,0.352,0.441,0.23,0.684l-5.448,11.029
			c-1.145,2.313-2.8,3.838-4.983,4.533c-2.184,0.694-4.426,0.49-6.767-0.666c-2.341-1.156-3.864-2.812-4.641-4.97
			c-0.747-2.144-0.545-4.386,0.6-6.698L365.214,70.431z"/>
		<path fill="#C4DAE4" d="M395.847,86.946c0.069-0.287,0.438-0.42,0.699-0.218l3.134,2.421c0.261,0.202,0.341,0.491,0.21,0.807
			l-4.525,11.896c-0.058,0.221,0.09,0.373,0.338,0.299l10.861-5.865c0.199-0.11,0.35-0.108,0.516,0.02l0.07,0.056
			c0.167,0.128,0.207,0.272,0.149,0.494l-2.954,11.972c0.002,0.192,0.133,0.368,0.374,0.252l10.365-7.385
			c0.273-0.205,0.573-0.201,0.835,0l3.11,2.403c0.261,0.202,0.249,0.61-0.012,0.75l-17.535,11.854
			c-0.273,0.205-0.555,0.178-0.816-0.023l-1.59-1.229c-0.262-0.202-0.354-0.425-0.26-0.694l2.564-10.681
			c0.066-0.138-0.219-0.356-0.333-0.257l-9.688,5.18c-0.26,0.14-0.499,0.106-0.737-0.077l-1.59-1.229
			c-0.262-0.201-0.358-0.467-0.229-0.783L395.847,86.946z"/>
		<path fill="#C4DAE4" d="M424.298,110.065c0.194-0.186,0.555-0.156,0.74,0.04l2.588,2.716c0.186,0.195,0.178,0.535-0.019,0.721
			l-5.693,5.422c-0.151,0.145-0.155,0.314,0.011,0.488l5.357,5.627c0.146,0.152,0.314,0.156,0.468,0.012l5.691-5.421
			c0.195-0.187,0.556-0.156,0.742,0.04l2.586,2.715c0.188,0.196,0.178,0.535-0.018,0.722l-14.603,13.904
			c-0.195,0.188-0.535,0.179-0.721-0.018l-2.586-2.716c-0.188-0.195-0.199-0.557-0.004-0.743l5.562-5.297
			c0.174-0.165,0.178-0.335,0.033-0.487l-5.359-5.627c-0.165-0.174-0.334-0.179-0.508-0.014l-5.562,5.297
			c-0.196,0.188-0.535,0.178-0.723-0.018l-2.587-2.715c-0.186-0.196-0.198-0.557-0.002-0.744L424.298,110.065z"/>
		<path fill="#C4DAE4" d="M434.451,143.423c0.169-0.123,0.304-0.296,0.396-0.475l6.513-14.107c0.094-0.328,0.574-0.383,0.805-0.068
			l2.482,3.389c0.159,0.217,0.169,0.434,0.064,0.696l-4.439,9.017c-0.037,0.102-0.026,0.168,0.027,0.24l0.018,0.025
			c0.036,0.048,0.095,0.078,0.203,0.074l9.937-1.516c0.281-0.021,0.484,0.053,0.646,0.271l2.482,3.388
			c0.229,0.315,0.032,0.757-0.31,0.747l-15.413,1.957c-0.198,0.034-0.402,0.109-0.573,0.234l-4.524,3.315
			c-0.314,0.23-0.733,0.165-0.964-0.149l-2.021-2.758c-0.229-0.315-0.166-0.734,0.149-0.965L434.451,143.423z"/>
	</g>
</g>
</svg>
