<?xml version="1.0" encoding="utf-8"?>
<!DOCTYPE svg PUBLIC "-//W3C//DTD SVG 1.1//EN" "http://www.w3.org/Graphics/SVG/1.1/DTD/svg11.dtd">
<svg version="1.1" id="Calque_1" xmlns="http://www.w3.org/2000/svg" xmlns:xlink="http://www.w3.org/1999/xlink" x="0px" y="0px"
	 viewBox="0 0 566.93 566.93" enable-background="new 0 0 566.93 566.93" xml:space="preserve">
  <!--Background-->
  <path class="animated bounceInRight" fill="#FDF7F9" d="M452.969,268.232c0,93.616-75.892,169.506-169.508,169.506c-93.615,0-169.508-75.891-169.508-169.506
	c0-93.618,75.893-169.509,169.508-169.509C377.077,98.724,452.969,174.614,452.969,268.232"/>
  <!--Panda-->
  <g class="animated bounceInDown delay1400ms">
    <path fill="#4B4B4D" d="M309.05,161.784c5.168-0.623,26.305,15.033,28.879,20.609c2.576,5.577,1.33,17.577-0.705,21.629
      c-2.031,4.053-17.489-0.568-17.489-0.568L309.05,161.784z"/>
    <path fill="#FBFBFC" d="M248.455,261.809c-4.037-5.94-13.984-23.03-3.48-46.452c3.785-8.439-5.081-16.362-7.084-24.07
      c-3.561-13.682-0.545-25.57,25.947-30.521c20.707-3.873,43.592-3.791,51.84,5.594c8.248,9.386,14.125,38.216,17.273,47.348
      c6.297,18.264-4.861,25.268-12.568,35.71c-7.707,10.443-7.521,26.607-18.593,23.633C290.72,270.074,248.455,261.809,248.455,261.809
      "/>
    <path fill="#F6F5F6" d="M248.455,261.809c-4.037-5.94-13.984-23.03-3.48-46.452c3.785-8.439-5.081-16.362-7.084-24.07
      c-2.172-8.344-1.896-16.02,4.652-21.861c3.392-3.025-0.065,8.432,6.369,29.289c1.512,4.9,5.563,13.819,4.289,19.775
      c-3.541,16.533,6.941,45.634,2.575,44.766C251.33,262.37,248.455,261.809,248.455,261.809"/>
    <path fill="#4B4B4D" d="M305.712,164.409c11.317,13.75,10.893,31.908-8.67,33.389c-19.562,1.48-31.316-13.998-41.502-24.196
      c-10.188-10.196,9.809-8.881,9.809-8.881L305.712,164.409z"/>
    <path fill="#4B4B4D" d="M316.685,122.944c2.943-9.889-7.607-17.168-12.879-8.211C311.832,117.776,314.347,130.797,316.685,122.944"
      />
    <path fill="#FBFBFC" d="M295.458,174.901c-7.357,0.867-14.742-2.701-21.392-2.365c0,0-26.459,7.429-34.22-17.549
      c-7.764-24.98,12.605-45.113,38.422-46.103c25.818-0.987,51.996,17.099,42.729,42.673c-4.008,11.062-9.469,9.393-15.407,16.62
      C302.71,171.683,302.818,174.034,295.458,174.901"/>
    <path fill="#4B4B4D" d="M253.806,121.428c-8.926-14.675-25.937-1.951-12.277,11.772
      C246.193,125.882,248.529,122.086,253.806,121.428"/>
    <path fill="#4B4B4D" d="M290.712,143.055c-10.754,1.817-12.765,8.517,3.699,13.84C305.517,147.11,302.95,140.987,290.712,143.055"/>
    <path fill="#4B4B4D" d="M298.204,121.388c-6.87,0.898,1.095,21.369,11.789,24.207c10.695,2.838,9.14-8.832,5.646-11.99
      c-1.574-1.422-6.621-2.133-9.383-5.008C302.891,125.101,304.116,120.617,298.204,121.388"/>
    <path fill="#4B4B4D" d="M273.001,124.06c-6.189-0.352-9.258,6.199-11.16,13.605c-1.901,7.406-11.676,1.772-11.412,10.664
      c0.265,8.892,14.601,10.328,23.078-3.574C281.981,130.851,278.641,124.378,273.001,124.06"/>
    <path fill="#FBFBFC" d="M272.552,131.573c-3.025-0.572-4.93,6.989-1.896,7.286C273.689,139.157,275.575,132.146,272.552,131.573"/>
    <path fill="#FBFBFC" d="M301.019,127.78c-2.373,1.043,0.148,7.494,1.92,6.062C304.712,132.411,303.394,126.739,301.019,127.78"/>
    <path fill="#E7D5E7" d="M305.241,159.806c-4.362,2.367-8.309,2.001-9.674,1.404c-1.131,0.791-3.2,2.764-7.897,2.611
      c-4.696-0.154-8.371-1.521-11.155-1.059c5.422,3.496,9.313,10.163,17.2,8.857c7.885-1.303,7.131-2.869,7.135-5.744
      C300.851,163.001,303.628,162.499,305.241,159.806"/>
    <path fill="#4B4B4D" d="M245.294,168.794c-8.666-8.181-49.367-19.908-57.732-15.98c-8.366,3.93-6.734,18.402,7.768,20.564
      c14.504,2.164,39.748,24.869,51.348,25.562C258.274,199.636,252.23,175.339,245.294,168.794"/>
    <path fill="#4B4B4D" d="M193.886,154.526c3.676-0.989,4.639-1.433,5.561-5.364c0.92-3.931,3.426-5.274,4.277-1.128
      c0.851,4.146,1.767,5.285,3.453,6.924"/>
  </g>
  <!--Unicorn-->
  <g class="animated bounceInLeft delay1s">
    <path fill="#F7DCB8" d="M352.863,191.521c-0.869-3.179-1.428-5.422-1.856-11.769c-0.429-6.344,3.223-10.478,6.887-12.021
      c2.119,2.671,1.777,23.238,1.777,23.238L352.863,191.521z"/>
    <path fill="#E7CEAD" d="M265.939,384.414c0.584,6.143-4.244,28.434-1.389,42.648c2.858,14.215,0.637,31.252-2.453,34.952
      c-3.09,3.703,22.562,0.736,22.562,0.736s10.754-15.49,11.946-37.631C297.8,402.98,265.939,384.414,265.939,384.414"/>
    <path fill="#FEF2D3" d="M206.041,321.418c-4.681,7.453-11.154,11.676-22.754,17.635c-11.601,5.961-43.357,27.738-24.75,79.039
      c18.607,51.299,57.116,36.271,57.116,36.271s8.487,11.832,1.242-18.675C209.649,405.182,206.041,321.418,206.041,321.418"/>
    <path fill="#E7CEAD" d="M325.007,398.691c9.17,0.615,11.92-10.279,15.859-4.767c3.94,5.513,29.154,19.326,35.379,32.519
      c6.224,13.192,13.232-7.49,13.232-7.49s-9.016-34.51-17.855-35.432c1.619-20.541,4.439-68.293-9.28-75.074
      c-13.722-6.785-23.152-8.992-23.152-8.992L325.007,398.691z"/>
    <path fill="#F7DCB8" d="M249.75,273.1c-11.263,2.008-49.635,16.126-51.563,46.162c-1.927,30.037,14.731,82.855,15.258,95.865
      c0.528,13.006-2.881,2.283,1.414,14.936c4.297,12.652,8.254,18.964,8.254,18.964s17.53,6.59,17.56,5.641
      c0.031-0.949-4.233-19.465-6.598-27.779c-2.365-8.315,1.219-11.368,2.62-15.44c1.397-4.072,2.839-38.562,2.839-38.562
      c6.795,15.113,21.725,23.521,38.061,27.854s22.511,48.256,23.897,54.321c1.388,6.064,19.715-2.209,19.715-2.209
      s2.169-47.139,1.681-51.589c-0.234-2.134,6.979-0.505,11.051-8.121c4.422-8.271,5.832-26.259,8.27-40.361
      c4.687-27.094,15.552-39.73,15.748-45.744c0.191-6.014-8.416-33.541-8.416-33.541l-16.271-74.353c0,0-14.899,0.149-19.131,23.142
      c-4.234,22.99-14.664,51.482-21.385,53.482C286.035,277.764,270.783,269.348,249.75,273.1"/>
    <path fill="#F7DCB8" d="M322.666,208.935c0.806,5.014-1.821,11.754-0.508,20.05c1.314,8.296,2.91,11.079,3.156,16.473
      c0.246,5.395,0.346,10.815,6.196,16.513c5.848,5.696,10.615,15.401,12.664,20.538c2.051,5.138,1.694,6.392,2.448,12.437
      c0.755,6.045,2.277,12.813,15.097,13.197c12.817,0.385,9.832-5.259,9.832-5.259s11.039-3.278,9.127-12.688
      c-1.912-9.41-5.482-35.986-3.529-42.416c1.949-6.433,5.412-25.172,1.515-31.952c-3.898-6.781-4.369-21.529-14.205-25.967
      c-9.834-4.439-5.688,2.19-10.15,1.729C349.844,191.126,320.032,192.532,322.666,208.935"/>
    <path fill="#E7CEAD" d="M322.159,228.984c1.314,8.295,2.91,11.079,3.156,16.473c0.246,5.395,0.346,10.816,6.196,16.512
      c5.848,5.699,10.615,15.402,12.664,20.539c2.051,5.137,1.694,6.391,2.449,12.434c0.754,6.048,2.276,12.816,15.096,13.199
      c13.512,22.902-15.494,43.111-14.953,26.463c0.238-7.385-1.949-26.592-9.732-40.094c-4.418-7.658-15.189-8.07-17.012-16.908
      C314.841,252.498,321.493,224.778,322.159,228.984"/>
    <path fill="#4B4B4D" d="M337.034,234.276c0,0,3.931-3.943,6.953-1.928c3.023,2.013,3.668,5.297,3.842,6.08
      C340.105,238.933,337.034,234.276,337.034,234.276"/>
    <path fill="#FEF2D3" d="M287.839,280.674c2.094-4.496,5.84-21.195,7.211-26.854c1.373-5.658,9.662-19.41,15.575-33.237
      c5.919-13.826,13.104-30.227,21.696-31.373s17.765-3.138,24.972-3.064c7.204,0.072,12.649,0.725,16.229,7.494
      c3.582,6.771-1.426,7.32,6.162,15.171c7.586,7.851,12.318,8.481,13.984,15.663c1.668,7.182-3.619,16.279,1.571,17.398
      c-14.436,0.639-18.479-8.971-18.479-8.971s0.606,7.046,3.356,8.795c3.416,2.171,9.824,2.378,9.824,2.378s-7.543,5.459-15.438-0.263
      c-7.894-5.723-0.925-8.11-8.701-17.393c-7.777-9.283-13.021-13.867-11.017-25.311c2.004-11.441-24.153-7.914-28.186,4.787
      c-4.029,12.701-4.699,25.986-5.461,34.754c-0.76,8.767-9.549,18.373-6.146,23.323c3.402,4.951-0.537,16.459-0.537,16.459
      s-4.661-7.598-6.146-17.951c-1.094,2.029-6.576,9.773-4.324,28.225c-3.271-3.388-5.955-6.848-5.465-13.781
      c-3.364,2.722-4.092,10.461-4.092,10.461l-3.568-10.537L287.839,280.674z"/>
    <path fill="#4B4B4D" d="M354.713,289.82c0.907-2.385,4.895,5.229,7.959,8.498C365.732,301.586,351.247,298.896,354.713,289.82"/>
    <path fill="#F7DCB8" d="M333.844,201.781c-2.453-6.455-1.984-27.558,9.535-33.438c3.393,10.09-1.464,27.91-4.681,29.391"/>
    <path fill="#FEF2D3" d="M344.807,192.06c1.924,2.129,6.979,3.526,7.811,7c0.834,3.472-1.377,7.621,1.322,12.24
      c0.912,1.561,0.553,6.768,0.996,8.35c0.867,3.099,8.543,7.644,9.428,14.563c-1.356-2.306-8.733-5.848-12.319-9.985
      c-3.947-4.557-4.158-9.707-6.457-11.774c-4.388-3.944-3.38-9.377-2.83-11.616c0.549-2.24-2.213-5.855-2.408-5.279
      c-0.197,0.576,1.627-3.59,1.627-3.59L344.807,192.06z"/>
    <path fill="#FEFCE6" d="M359.691,204.101c25.012-13.375,82.854-43.888,85.252-39.691c2.398,4.195-72.029,49.738-77.147,52.922
      C361.586,215.399,357.766,211.405,359.691,204.101"/>
  </g>
  <!--Panda part in front of unicorn-->
  <g class="animated bounceInDown delay1400ms">
    <path fill="#4B4B4D" d="M245.38,254.02c-6.822,12.457-11.269,32.271-6.812,60.854c0.266,1.694,0.6,3.281,0.994,4.765
      c1.098,4.127-4.625,14.924-2.786,17.516c8.679,12.221,30.685,0.75,30.56-10.57c-0.158-14.58,6.707-30.834,17.188-45.7
      c0,0,8.941-7.629,12.498-14.642C300.577,259.227,252.2,241.563,245.38,254.02"/>
  </g>

  <!--Mask-->
  <path class="animated fadeIn delay800ms" fill="#FFFFFF" d="M283.462,3.981C137.52,3.981,19.21,122.288,19.21,268.232c0,145.941,118.309,264.25,264.252,264.25
    c145.939,0,264.249-118.31,264.249-264.25C547.711,122.288,429.402,3.981,283.462,3.981 M283.462,437.738
    c-93.617,0-169.51-75.891-169.51-169.506c0-93.618,75.893-169.51,169.51-169.51c93.615,0,169.506,75.892,169.506,169.51
	C452.969,361.848,377.077,437.738,283.462,437.738"/>
  <!--Text-->
  <g class="animated rotateInUpLeft delay2s">
    <path fill="#F5D5E4" d="M169.111,421.752c0.155-0.221,0.515-0.264,0.734-0.109l7.621,5.332c1.376,0.964,2.203,2.347,2.437,4.158
      c0.251,1.785-0.127,3.426-1.176,4.924l-0.12,0.175c-1.634,2.334-4.251,3.25-6.722,2.803c-0.223-0.047-0.4,0.049-0.471,0.254
      c-0.702,2-0.184,4.086,1.427,5.395c0.253,0.214,0.272,0.447,0.083,0.718l-1.822,2.604c-0.155,0.221-0.507,0.305-0.727,0.15
      c-1.845-1.289-3.064-2.949-3.618-4.982c-0.528-2.018-0.333-4.078,0.589-6.18c0.113-0.213,0.059-0.398-0.138-0.535l-1.401-0.979
      c-0.197-0.14-0.364-0.107-0.502,0.088l-3.817,5.457c-0.153,0.223-0.488,0.28-0.71,0.127l-3.072-2.15
      c-0.295-0.207-0.339-0.457-0.15-0.727L169.111,421.752z M167.816,431.977c-0.138,0.195-0.106,0.363,0.089,0.5l2.532,1.771
      c1.303,0.912,2.758,0.611,3.722-0.766l0.119-0.173c0.964-1.377,0.762-2.762-0.591-3.707l-2.532-1.771
      c-0.195-0.139-0.362-0.109-0.501,0.088L167.816,431.977z"/>
    <path fill="#F5D5E4" d="M187.31,433.875c0.135-0.234,0.463-0.322,0.696-0.186l3.272,1.891c0.234,0.135,0.321,0.463,0.187,0.697
      l-10.09,17.45c-0.134,0.234-0.462,0.322-0.697,0.188l-3.271-1.893c-0.235-0.136-0.322-0.464-0.188-0.697L187.31,433.875z"/>
    <path fill="#F5D5E4" d="M203.966,442.113c2.723,1.26,4.549,3.098,5.453,5.5c0.917,2.375,0.766,4.916-0.457,7.557l-0.731,1.578
      c-1.361,2.939-3.573,4.793-5.959,5.373c-2.385,0.582-4.89,0.281-7.205-0.789l-6.423-2.975c-0.246-0.113-0.363-0.433-0.249-0.679
      l8.469-18.293c0.114-0.244,0.434-0.36,0.679-0.248L203.966,442.113z M199.919,445c-0.19-0.088-0.351-0.029-0.438,0.16l-4.992,10.779
      c-0.088,0.19-0.028,0.352,0.161,0.438l2.233,1.033c2.858,1.322,5.539,0.315,6.937-2.705l0.732-1.578
      c1.412-3.049,0.512-5.748-2.401-7.096L199.919,445z"/>
    <path fill="#F5D5E4" d="M217.828,448.627c0.085-0.256,0.389-0.408,0.645-0.324l12.87,4.271c0.256,0.086,0.436,0.397,0.351,0.653
      l-1.039,3.132c-0.085,0.258-0.417,0.399-0.673,0.313l-8.484-2.813c-0.199-0.066-0.352,0.01-0.417,0.209l-1.171,3.53
      c-0.066,0.199,0.01,0.353,0.209,0.418l6.149,2.039c0.314,0.104,0.447,0.369,0.343,0.685l-0.906,2.731
      c-0.085,0.256-0.416,0.398-0.674,0.314l-6.149-2.041c-0.199-0.066-0.352,0.01-0.426,0.238l-1.115,3.358
      c-0.066,0.199,0.01,0.353,0.21,0.418l8.484,2.814c0.257,0.084,0.438,0.397,0.353,0.653l-1.039,3.132
      c-0.085,0.258-0.417,0.399-0.674,0.313l-12.869-4.27c-0.257-0.084-0.409-0.39-0.324-0.646L217.828,448.627z"/>
    <path fill="#F5D5E4" d="M245.102,456.59c0.042-0.268,0.348-0.461,0.613-0.418l3.702,0.596c0.267,0.043,0.466,0.316,0.423,0.584
      l-1.952,12.144c-0.419,2.606,0.78,4.41,3.27,4.811c2.516,0.404,4.22-0.934,4.639-3.539l1.952-12.143
      c0.043-0.268,0.317-0.467,0.584-0.424l3.731,0.602c0.268,0.041,0.466,0.316,0.423,0.584l-1.951,12.144
      c-0.41,2.547-1.542,4.492-3.424,5.799c-1.882,1.309-4.083,1.775-6.659,1.361c-2.577-0.414-4.522-1.548-5.898-3.38
      c-1.348-1.825-1.812-4.028-1.404-6.575L245.102,456.59z"/>
    <path fill="#F5D5E4" d="M268.303,459.949c0.01-0.271,0.288-0.5,0.559-0.49l0.449,0.016c0.21,0.009,0.357,0.072,0.474,0.197
      l10.607,11.371c0.115,0.125,0.387,0.104,0.395-0.135l0.38-10.494c0.01-0.271,0.258-0.502,0.528-0.492l3.747,0.135
      c0.271,0.011,0.531,0.261,0.521,0.529l-0.729,20.15c-0.01,0.27-0.288,0.5-0.559,0.489l-0.51-0.02
      c-0.21-0.008-0.417-0.105-0.562-0.26l-10.43-11.306c-0.146-0.155-0.417-0.104-0.426,0.136l-0.379,10.493
      c-0.01,0.271-0.258,0.5-0.528,0.49l-3.748-0.135c-0.27-0.01-0.53-0.26-0.521-0.529L268.303,459.949z"/>
    <path fill="#F5D5E4" d="M292.1,460.25c-0.015-0.271,0.212-0.521,0.481-0.537l3.772-0.203c0.271-0.016,0.522,0.211,0.537,0.48
      l1.087,20.129c0.015,0.27-0.212,0.522-0.481,0.537l-3.773,0.203c-0.27,0.016-0.521-0.211-0.536-0.48L292.1,460.25z"/>
    <path fill="#F5D5E4" d="M303.688,468.855c-0.408-2.941,0.183-5.447,1.799-7.55c1.612-2.131,3.861-3.381,6.743-3.78
      c2.288-0.316,4.398,0.057,6.303,1.125c0.297,0.172,0.359,0.403,0.192,0.729l-1.728,3.055c-0.226,0.334-0.459,0.398-0.764,0.168
      c-0.965-0.622-2.117-0.856-3.395-0.68c-3.209,0.443-4.813,2.849-4.342,6.265l0.24,1.723c0.465,3.356,2.663,5.231,5.872,4.787
      c1.218-0.168,2.237-0.674,3.055-1.543c0.235-0.275,0.504-0.312,0.748-0.074l2.561,2.521c0.237,0.181,0.23,0.574,0.015,0.757
      c-1.487,1.508-3.421,2.411-5.768,2.735c-2.941,0.408-5.445-0.184-7.539-1.74c-2.099-1.586-3.349-3.834-3.756-6.774L303.688,468.855z
      "/>
    <path fill="#F5D5E4" d="M324.521,465.766c-0.746-2.875-0.449-5.432,0.884-7.698c1.333-2.268,3.422-3.771,6.296-4.519
      c2.875-0.746,5.433-0.449,7.699,0.883c2.269,1.334,3.771,3.425,4.519,6.3l0.438,1.684c0.744,2.875,0.457,5.461-0.877,7.729
      c-1.34,2.238-3.43,3.74-6.305,4.488c-2.875,0.746-5.433,0.447-7.691-0.854c-2.268-1.334-3.778-3.451-4.525-6.326L324.521,465.766z
       M329.661,466.229c0.884,3.396,3.29,4.91,6.396,4.104c3.108-0.807,4.477-3.299,3.594-6.697l-0.438-1.684
      c-0.882-3.398-3.289-4.91-6.396-4.105c-3.105,0.808-4.473,3.302-3.592,6.697L329.661,466.229z"/>
    <path fill="#F5D5E4" d="M346.543,450.07c-0.101-0.25,0.063-0.572,0.313-0.672l8.646-3.421c1.562-0.616,3.172-0.545,4.812,0.259
      c1.629,0.774,2.789,1.994,3.461,3.694l0.078,0.195c1.047,2.65,0.369,5.338-1.365,7.152c-0.162,0.16-0.18,0.36-0.047,0.535
      c1.281,1.686,3.305,2.401,5.285,1.778c0.318-0.094,0.523,0.021,0.645,0.326l1.171,2.957c0.1,0.25-0.025,0.59-0.275,0.689
      c-2.092,0.825-4.148,0.93-6.15,0.271c-1.975-0.67-3.586-1.969-4.832-3.896c-0.114-0.212-0.299-0.269-0.521-0.181l-1.59,0.629
      c-0.226,0.088-0.291,0.244-0.203,0.468l2.449,6.192c0.1,0.25-0.035,0.562-0.287,0.66l-3.486,1.379
      c-0.334,0.135-0.568,0.031-0.688-0.274L346.543,450.07z M354.359,456.785c0.09,0.223,0.244,0.291,0.469,0.203l2.873-1.138
      c1.478-0.584,2.029-1.965,1.41-3.524l-0.076-0.195c-0.618-1.562-1.887-2.156-3.42-1.551l-2.873,1.137
      c-0.223,0.088-0.291,0.242-0.203,0.467L354.359,456.785z"/>
    <path fill="#F5D5E4" d="M366.562,441.832c-0.127-0.238-0.004-0.576,0.232-0.705l0.396-0.215c0.184-0.103,0.346-0.119,0.508-0.07
      l14.91,4.414c0.162,0.049,0.385-0.104,0.271-0.317l-5-9.232c-0.129-0.238-0.031-0.562,0.207-0.691l3.297-1.784
      c0.237-0.13,0.59-0.048,0.719,0.19l9.598,17.729c0.127,0.237,0.004,0.578-0.231,0.705l-0.449,0.243
      c-0.187,0.101-0.412,0.121-0.615,0.062l-14.723-4.447c-0.203-0.061-0.412,0.121-0.299,0.332l5,9.232
      c0.129,0.237,0.03,0.562-0.207,0.69l-3.297,1.785c-0.238,0.129-0.591,0.047-0.72-0.19L366.562,441.832z"/>
    <path fill="#F5D5E4" d="M398.659,423.666c0.341,0.018,0.504,0.195,0.486,0.537L399,427.861c-0.035,0.317-0.255,0.58-0.589,0.521
      c-1.184-0.121-2.219,0.127-3.077,0.73c-1.4,0.981-1.744,1.955-1.072,2.914l0.051,0.073c0.707,1.007,1.834,0.839,4.734-0.461
      c3.696-1.678,6.457-1.192,8.334,1.484l0.067,0.098c1.189,1.695,1.539,3.502,0.994,5.39c-0.547,1.885-1.824,3.514-3.863,4.942
      c-2.039,1.43-4.858,2.162-7.26,2.086c-0.283,0.015-0.555-0.27-0.504-0.562l0.137-3.726c0.019-0.342,0.213-0.479,0.556-0.463
      c1.461,0.148,3.258-0.268,4.438-1.096c1.865-1.309,2.236-2.557,1.547-3.541l-0.067-0.098c-0.332-0.685-1.117-0.756-1.773-0.699
      c-0.174,0.014-0.488,0.086-0.902,0.229l-0.989,0.363l-1.252,0.515c-0.066,0.01-0.142,0.061-0.257,0.104l-1.368,0.557
      c-0.322,0.115-0.836,0.22-1.498,0.318c-0.642,0.082-1.224,0.086-1.718-0.043c-0.946-0.252-2.288-1.07-3.321-2.543l-0.07-0.1
      c-1.119-1.597-1.449-3.271-1.016-5.005c0.457-1.75,1.588-3.274,3.403-4.551C394.383,424.1,396.375,423.545,398.659,423.666"/>
    <path fill="#F5D5E4" d="M154.301,99.859c-0.164-0.213-0.12-0.55,0.094-0.714l7.47-5.741c1.355-1.042,2.899-1.396,4.698-1.073
      c1.779,0.297,3.23,1.149,4.346,2.6l0.128,0.166c1.187,1.548,1.692,3.24,1.521,5.035c-0.171,1.797-1.006,3.271-2.504,4.422
      l-3.568,2.742c-0.19,0.146-0.213,0.314-0.085,0.481l3.968,5.162c0.2,0.262,0.168,0.515-0.095,0.715l-2.974,2.285
      c-0.26,0.2-0.513,0.168-0.714-0.095L154.301,99.859z M160.691,99.755c-0.189,0.146-0.213,0.314-0.065,0.506l2.979,3.877
      c0.147,0.191,0.315,0.213,0.505,0.066l2.403-1.847c1.261-0.97,1.43-2.423,0.424-3.731l-0.128-0.166
      c-1.022-1.332-2.429-1.537-3.738-0.533L160.691,99.755z"/>
    <path fill="#F5D5E4" d="M176.396,83.96c-0.041-0.293,0.06-0.529,0.314-0.688l0.611-0.379c0.256-0.158,0.514-0.143,0.758,0.025
      l17.867,12.617c0.276,0.217,0.23,0.6-0.05,0.773l-3.316,2.053c-0.281,0.174-0.539,0.157-0.783-0.01l-1.486-1.092
      c-0.287-0.176-0.543-0.192-0.773-0.051l-5.459,3.381c-0.229,0.142-0.329,0.38-0.3,0.714l0.314,1.817
      c0.04,0.293-0.06,0.53-0.341,0.705l-3.316,2.053c-0.281,0.174-0.643,0.045-0.714-0.299L176.396,83.96z M182.959,96.73
      c0.034,0.226,0.174,0.28,0.353,0.17l3.266-2.021c0.179-0.111,0.191-0.26,0.005-0.393l-4.098-2.969
      c-0.187-0.131-0.391-0.005-0.356,0.221L182.959,96.73z"/>
    <path fill="#F5D5E4" d="M191.623,75.229c-0.111-0.246,0.034-0.576,0.278-0.688l0.409-0.188c0.192-0.088,0.354-0.096,0.512-0.036
      l14.575,5.41c0.16,0.06,0.394-0.08,0.293-0.298l-4.362-9.549c-0.112-0.246,0.006-0.564,0.252-0.676l3.409-1.56
      c0.245-0.11,0.592-0.005,0.703,0.239l8.377,18.335c0.113,0.245-0.032,0.575-0.278,0.688l-0.464,0.211
      c-0.19,0.088-0.419,0.094-0.618,0.02l-14.388-5.432c-0.197-0.074-0.419,0.094-0.318,0.312l4.363,9.549
      c0.111,0.245-0.008,0.563-0.253,0.677l-3.409,1.557c-0.246,0.113-0.592,0.007-0.703-0.238L191.623,75.229z"/>
    <path fill="#F5D5E4" d="M223.128,62.009c2.866-0.885,5.452-0.741,7.731,0.438c2.271,1.15,3.857,3.141,4.716,5.92l0.514,1.662
      c0.956,3.096,0.551,5.951-0.832,7.979c-1.383,2.029-3.444,3.481-5.881,4.233l-6.763,2.089c-0.258,0.079-0.558-0.078-0.638-0.337
      l-5.947-19.257c-0.079-0.258,0.079-0.559,0.338-0.639L223.128,62.009z M222.053,66.861c-0.2,0.062-0.28,0.212-0.218,0.413
      l3.505,11.348c0.062,0.2,0.212,0.279,0.412,0.217l2.35-0.726c3.009-0.929,4.327-3.47,3.345-6.651l-0.513-1.662
      c-0.991-3.209-3.465-4.61-6.531-3.664L222.053,66.861z"/>
    <path fill="#F5D5E4" d="M246.679,56.571c0.07-0.287,0.25-0.473,0.545-0.526l0.708-0.129c0.294-0.053,0.528,0.058,0.695,0.302
      l12.014,18.271c0.177,0.303-0.005,0.641-0.33,0.7l-3.837,0.697c-0.324,0.06-0.557-0.051-0.723-0.295l-0.985-1.558
      c-0.202-0.269-0.435-0.379-0.701-0.33l-6.314,1.149c-0.267,0.047-0.445,0.233-0.539,0.556l-0.372,1.805
      c-0.071,0.287-0.25,0.472-0.574,0.532l-3.837,0.697c-0.325,0.06-0.615-0.192-0.556-0.538L246.679,56.571z M248.12,70.853
      c-0.053,0.223,0.059,0.324,0.266,0.287l3.777-0.688c0.206-0.038,0.272-0.172,0.146-0.363l-2.726-4.259
      c-0.127-0.19-0.362-0.147-0.413,0.075L248.12,70.853z"/>
    <path fill="#F5D5E4" d="M277.011,54.515c0.283,0.192,0.329,0.431,0.138,0.713l-2.024,3.05c-0.194,0.254-0.518,0.364-0.772,0.142
      c-0.949-0.72-1.963-1.044-3.011-0.975c-1.707,0.111-2.506,0.766-2.429,1.934l0.006,0.09c0.081,1.229,1.132,1.67,4.285,2.063
      c4.03,0.485,6.137,2.332,6.351,5.595l0.008,0.12c0.138,2.065-0.502,3.792-1.947,5.12c-1.447,1.327-3.384,2.057-5.868,2.219
      c-2.485,0.164-5.276-0.675-7.287-1.986c-0.249-0.133-0.334-0.519-0.139-0.742l2.051-3.111c0.191-0.283,0.431-0.299,0.714-0.107
      c1.171,0.886,2.923,1.461,4.359,1.367c2.275-0.15,3.24-1.025,3.162-2.222l-0.008-0.12c0.07-0.756-0.562-1.227-1.152-1.518
      c-0.156-0.08-0.463-0.18-0.89-0.272l-1.036-0.202l-1.337-0.214c-0.062-0.024-0.152-0.021-0.273-0.042l-1.459-0.234
      c-0.336-0.068-0.827-0.246-1.446-0.506c-0.588-0.263-1.089-0.56-1.443-0.928c-0.679-0.707-1.401-2.104-1.52-3.898l-0.008-0.121
      c-0.128-1.945,0.458-3.547,1.729-4.803c1.301-1.259,3.058-1.976,5.272-2.121C273.131,52.665,275.122,53.226,277.011,54.515"/>
    <path fill="#F5D5E4" d="M295.988,53.431c0.023-0.27,0.312-0.484,0.582-0.461l3.736,0.324c0.27,0.023,0.487,0.283,0.464,0.552
      l-1.385,15.962c-0.02,0.209,0.091,0.339,0.33,0.359l7.741,0.673c0.27,0.022,0.487,0.282,0.465,0.552l-0.285,3.289
      c-0.023,0.27-0.283,0.486-0.554,0.463l-12.345-1.07c-0.27-0.023-0.518-0.287-0.493-0.556L295.988,53.431z"/>
    <path fill="#F5D5E4" d="M316.236,55.677c0.045-0.266,0.322-0.463,0.588-0.416l3.728,0.631c0.266,0.046,0.462,0.322,0.417,0.589
      l-3.373,19.872c-0.046,0.266-0.322,0.463-0.587,0.418l-3.729-0.633c-0.266-0.045-0.463-0.322-0.417-0.588L316.236,55.677z"/>
    <path fill="#F5D5E4" d="M329.202,58c0.069-0.261,0.363-0.431,0.624-0.36l3.625,0.967c0.261,0.068,0.431,0.363,0.361,0.623
      l-2.066,7.742c-0.053,0.202,0.031,0.35,0.234,0.403l0.115,0.03c1.77,0.473,3.391,0.098,4.901-1.146
      c1.512-1.243,2.593-2.849,3.271-4.811l0.154-0.456c0.086-0.319,0.307-0.446,0.653-0.353l3.769,1.004
      c0.319,0.086,0.453,0.4,0.354,0.654l-0.19,0.602c-1.273,3.728-3.851,6.518-7.052,7.807c-0.213,0.1-0.289,0.266-0.248,0.462
      l3.066,10.509c0.117,0.372-0.26,0.737-0.637,0.637l-4.205-1.121c-0.201-0.055-0.324-0.18-0.363-0.377l-2.34-9.041
      c-0.062-0.234-0.221-0.338-0.461-0.371c-0.486-0.036-1.045-0.155-1.654-0.317l-0.115-0.03c-0.202-0.055-0.35,0.03-0.411,0.262
      l-1.973,7.394c-0.069,0.261-0.362,0.431-0.625,0.36l-3.624-0.967c-0.261-0.068-0.432-0.362-0.36-0.625L329.202,58z"/>
    <path fill="#F5D5E4" d="M352.848,64.896c0.1-0.25,0.41-0.386,0.662-0.287l12.606,4.994c0.252,0.1,0.414,0.422,0.314,0.674
      l-1.217,3.068c-0.099,0.25-0.438,0.375-0.689,0.275l-8.312-3.293c-0.195-0.077-0.351-0.01-0.429,0.186l-1.369,3.459
      c-0.077,0.195-0.01,0.35,0.187,0.428l6.022,2.387c0.308,0.121,0.427,0.395,0.306,0.701l-1.062,2.678
      c-0.1,0.251-0.438,0.375-0.69,0.275l-6.023-2.387c-0.195-0.078-0.352-0.011-0.438,0.213l-1.306,3.291
      c-0.076,0.195-0.01,0.352,0.187,0.43l8.312,3.291c0.25,0.1,0.414,0.423,0.314,0.674l-1.215,3.068
      c-0.101,0.25-0.439,0.375-0.691,0.274l-12.607-4.993c-0.25-0.099-0.385-0.41-0.284-0.662L352.848,64.896z"/>
    <path fill="#F5D5E4" d="M380.887,77.326c0.139-0.231,0.467-0.317,0.699-0.181l12.969,7.66c0.231,0.139,0.315,0.467,0.18,0.699
      l-1.678,2.842c-0.139,0.232-0.467,0.316-0.699,0.18l-4.133-2.441c-0.182-0.107-0.346-0.064-0.469,0.143l-8.134,13.769
      c-0.168,0.284-0.413,0.349-0.725,0.164l-3.229-1.907c-0.283-0.168-0.349-0.414-0.181-0.697l8.133-13.771
      c0.123-0.206,0.078-0.371-0.127-0.493l-4.106-2.425c-0.232-0.138-0.316-0.467-0.181-0.699L380.887,77.326z"/>
    <path fill="#F5D5E4" d="M393.784,95.816c1.795-2.365,3.986-3.716,6.591-4.073c2.606-0.357,5.079,0.352,7.444,2.146
      c2.365,1.794,3.717,3.985,4.074,6.592c0.354,2.605-0.354,5.078-2.146,7.443l-1.053,1.387c-1.795,2.365-4.004,3.74-6.608,4.097
      c-2.586,0.334-5.062-0.375-7.427-2.17c-2.364-1.795-3.715-3.985-4.092-6.567c-0.356-2.605,0.371-5.103,2.166-7.469L393.784,95.816z
       M396.605,100.14c-2.121,2.795-1.818,5.623,0.738,7.562c2.557,1.94,5.358,1.47,7.479-1.327l1.051-1.385
      c2.123-2.796,1.82-5.623-0.735-7.562c-2.556-1.938-5.361-1.47-7.482,1.326L396.605,100.14z"/>
  </g>
</svg>
