<?xml version="1.0" encoding="utf-8"?>
<!DOCTYPE svg PUBLIC "-//W3C//DTD SVG 1.1//EN" "http://www.w3.org/Graphics/SVG/1.1/DTD/svg11.dtd">
<svg version="1.1" id="Calque_1" xmlns="http://www.w3.org/2000/svg" xmlns:xlink="http://www.w3.org/1999/xlink" x="0px" y="0px"
	 viewBox="0 0 566.93 566.93" enable-background="new 0 0 566.93 566.93" xml:space="preserve">
  <path class="animated bounceInLeft" fill="#F5D5E4" d="M452.971,268c0,93.616-75.894,169.506-169.511,169.506c-93.615,0-169.508-75.891-169.508-169.506
    c0-93.618,75.893-169.509,169.508-169.509C377.077,98.492,452.971,174.382,452.971,268"/>
    <!--text-->
  <g class="animated rotateInUpLeft delay3s">
    <path fill="#F5D5E4" d="M104.701,334.261c0.197-0.219,0.585-0.161,0.719,0.142l1.606,3.619c0.135,0.303,0.068,0.594-0.197,0.811
      l-9.636,8.316c-0.154,0.166-0.097,0.371,0.155,0.422l12.344,0.002c0.229-0.004,0.36,0.07,0.445,0.262l0.037,0.082
      c0.085,0.191,0.05,0.338-0.105,0.506l-8.287,9.131c-0.09,0.17-0.06,0.387,0.21,0.398l12.63-1.57c0.339-0.053,0.6,0.094,0.733,0.395
      l1.596,3.595c0.134,0.301-0.07,0.653-0.365,0.653l-21.063,2.101c-0.338,0.051-0.572-0.106-0.707-0.41L94,360.876
      c-0.134-0.303-0.11-0.543,0.1-0.733l7.332-8.181c0.125-0.088-0.021-0.418-0.17-0.385l-10.985-0.045
      c-0.296,0-0.489-0.146-0.611-0.419l-0.816-1.838c-0.134-0.301-0.094-0.582,0.171-0.799L104.701,334.261z"/>
    <path fill="#F5D5E4" d="M119.196,364.395c0.233-0.136,0.562-0.052,0.698,0.182l1.913,3.262c0.137,0.232,0.051,0.561-0.181,0.697
      l-17.392,10.203c-0.232,0.137-0.561,0.053-0.697-0.182l-1.913-3.261c-0.138-0.233-0.052-0.562,0.181-0.698L119.196,364.395z"/>
    <path fill="#F5D5E4" d="M124.039,372.708c0.221-0.156,0.556-0.097,0.71,0.125l8.641,12.34c0.155,0.222,0.095,0.556-0.125,0.711
      l-2.705,1.894c-0.221,0.154-0.555,0.096-0.71-0.125l-2.754-3.935c-0.12-0.172-0.287-0.2-0.485-0.062l-13.101,9.174
      c-0.271,0.188-0.522,0.145-0.728-0.15l-2.152-3.072c-0.189-0.271-0.146-0.521,0.126-0.711l13.101-9.174
      c0.198-0.139,0.228-0.305,0.089-0.502l-2.735-3.908c-0.155-0.223-0.098-0.557,0.125-0.711L124.039,372.708z"/>
    <path fill="#F5D5E4" d="M136.045,389.501c0.202-0.178,0.562-0.135,0.74,0.065l2.485,2.812c0.179,0.201,0.158,0.541-0.044,0.72
      l-5.889,5.209c-0.158,0.141-0.168,0.311-0.009,0.487l5.149,5.822c0.139,0.157,0.309,0.168,0.465,0.028l5.89-5.209
      c0.202-0.18,0.561-0.137,0.739,0.066l2.486,2.809c0.178,0.203,0.158,0.541-0.045,0.722l-15.104,13.36
      c-0.202,0.178-0.541,0.158-0.72-0.045l-2.485-2.809c-0.181-0.203-0.18-0.564,0.023-0.744l5.754-5.088
      c0.181-0.16,0.19-0.33,0.052-0.486l-5.149-5.822c-0.159-0.18-0.329-0.188-0.509-0.03l-5.754,5.09
      c-0.202,0.181-0.541,0.158-0.721-0.043l-2.484-2.81c-0.18-0.203-0.18-0.563,0.023-0.744L136.045,389.501z"/>
    <path fill="#F5D5E4" d="M158.707,413.104c0.171-0.209,0.509-0.242,0.718-0.072l10.49,8.588c0.209,0.172,0.266,0.527,0.095,0.736
      l-2.09,2.553c-0.171,0.209-0.532,0.225-0.741,0.053l-6.916-5.66c-0.162-0.133-0.331-0.117-0.464,0.045l-2.356,2.879
      c-0.132,0.162-0.115,0.332,0.046,0.464l5.015,4.104c0.255,0.209,0.284,0.504,0.075,0.76l-1.823,2.228
      c-0.171,0.209-0.532,0.225-0.741,0.053L155,425.728c-0.163-0.133-0.331-0.114-0.483,0.07l-2.242,2.738
      c-0.133,0.162-0.115,0.33,0.046,0.465l6.916,5.66c0.209,0.172,0.267,0.527,0.096,0.736l-2.09,2.553
      c-0.172,0.209-0.531,0.225-0.74,0.053l-10.49-8.586c-0.209-0.172-0.244-0.51-0.073-0.719L158.707,413.104z"/>
    <path fill="#F5D5E4" d="M173.943,425.573c0.001-0.392,0.39-0.607,0.718-0.396l3.837,2.465c0.2,0.13,0.304,0.304,0.315,0.562
      l0.129,6.182c-0.003,0.281,0.249,0.443,0.505,0.322l5.677-2.449c0.239-0.096,0.439-0.074,0.642,0.058l3.836,2.465
      c0.328,0.211,0.294,0.651-0.061,0.815l-9.937,4.027c-0.38,0.148-0.558,0.426-0.535,0.834l0.53,12.215
      c-0.002,0.394-0.389,0.607-0.692,0.412l-3.911-2.514c-0.202-0.131-0.306-0.304-0.318-0.562l-0.154-7.694
      c0.014-0.242-0.238-0.404-0.454-0.293l-7.062,3.057c-0.241,0.096-0.441,0.074-0.643-0.055l-3.911-2.515
      c-0.304-0.194-0.295-0.653,0.086-0.803l11.332-4.592c0.381-0.146,0.559-0.426,0.535-0.834L173.943,425.573z"/>
    <path fill="#F5D5E4" d="M194.521,438.028c0.118-0.242,0.439-0.354,0.682-0.236l8.471,4.121c1.538,0.748,2.544,1.973,3.06,3.725
      c0.529,1.726,0.413,3.402-0.388,5.05l-0.092,0.188c-0.853,1.754-2.141,2.963-3.824,3.611c-1.684,0.649-3.375,0.561-5.075-0.267
      l-4.046-1.969c-0.216-0.104-0.377-0.051-0.469,0.139l-2.848,5.854c-0.144,0.297-0.385,0.381-0.682,0.236l-3.372-1.642
      c-0.297-0.145-0.38-0.385-0.235-0.682L194.521,438.028z M197.466,443.698c-0.216-0.104-0.376-0.049-0.48,0.168l-2.14,4.396
      c-0.104,0.215-0.049,0.377,0.167,0.48l2.724,1.326c1.431,0.694,2.807,0.196,3.528-1.287l0.093-0.188
      c0.734-1.512,0.29-2.86-1.193-3.584L197.466,443.698z"/>
    <path fill="#F5D5E4" d="M213.623,446.923c0.091-0.254,0.396-0.399,0.65-0.309l12.768,4.571c0.254,0.093,0.428,0.408,0.336,0.662
      l-1.112,3.107c-0.091,0.254-0.426,0.389-0.681,0.299l-8.416-3.016c-0.198-0.07-0.353,0.002-0.423,0.199l-1.254,3.502
      c-0.071,0.196,0.002,0.352,0.198,0.424l6.102,2.184c0.311,0.111,0.437,0.381,0.326,0.691l-0.972,2.711
      c-0.09,0.254-0.426,0.389-0.68,0.299l-6.101-2.186c-0.197-0.07-0.352,0.002-0.432,0.227l-1.195,3.334
      c-0.069,0.197,0.003,0.35,0.199,0.422l8.417,3.014c0.254,0.093,0.429,0.408,0.337,0.662l-1.112,3.107
      c-0.092,0.254-0.427,0.389-0.682,0.299l-12.765-4.574c-0.255-0.09-0.4-0.396-0.309-0.649L213.623,446.923z"/>
    <path fill="#F5D5E4" d="M232.464,453.368c0.062-0.265,0.381-0.435,0.644-0.371l9.05,2.15c1.635,0.391,2.911,1.372,3.797,2.971
      c0.891,1.567,1.143,3.231,0.719,5.014l-0.048,0.203c-0.66,2.773-2.756,4.588-5.219,5.082c-0.226,0.039-0.354,0.193-0.345,0.412
      c0.083,2.115,1.333,3.863,3.312,4.488c0.313,0.104,0.419,0.315,0.342,0.637l-0.736,3.094c-0.062,0.262-0.357,0.471-0.621,0.408
      c-2.188-0.521-3.934-1.615-5.196-3.303c-1.236-1.683-1.812-3.67-1.729-5.963c0.027-0.24-0.092-0.394-0.325-0.447l-1.663-0.396
      c-0.233-0.055-0.379,0.033-0.434,0.269l-1.542,6.479c-0.062,0.263-0.351,0.439-0.614,0.379l-3.647-0.868
      c-0.352-0.084-0.484-0.3-0.408-0.621L232.464,453.368z M235.024,463.353c-0.055,0.234,0.034,0.378,0.269,0.435l3.006,0.715
      c1.547,0.367,2.789-0.447,3.178-2.082l0.049-0.203c0.39-1.635-0.31-2.85-1.915-3.231l-3.006-0.716
      c-0.233-0.055-0.379,0.033-0.434,0.269L235.024,463.353z"/>
    <path fill="#F5D5E4" d="M253.849,457.935c0.039-0.268,0.312-0.471,0.579-0.43l3.739,0.551c0.268,0.039,0.47,0.312,0.431,0.58
      l-2.943,19.943c-0.038,0.268-0.312,0.469-0.578,0.43l-3.74-0.553c-0.267-0.039-0.469-0.312-0.429-0.578L253.849,457.935z"/>
    <path fill="#F5D5E4" d="M266.451,459.622c0.045-0.299,0.23-0.439,0.53-0.426l0.33,0.018c0.21,0.01,0.356,0.107,0.468,0.262
      l6.269,10.041c0.023,0.121,0.324,0.136,0.359,0.019l7.218-9.381c0.128-0.146,0.281-0.228,0.49-0.217l0.33,0.016
      c0.301,0.016,0.474,0.174,0.487,0.477l1.593,20.265c0.019,0.271-0.236,0.559-0.566,0.543l-3.655-0.179
      c-0.3-0.016-0.473-0.174-0.489-0.475l-0.603-9.764c-0.02-0.24-0.254-0.343-0.414-0.142l-4.478,5.549
      c-0.256,0.318-0.614,0.302-0.84-0.04l-3.914-5.96c-0.139-0.217-0.384-0.139-0.425,0.101l-1.553,9.656
      c-0.045,0.299-0.232,0.44-0.532,0.426l-3.656-0.18c-0.33-0.017-0.554-0.326-0.512-0.595L266.451,459.622z"/>
    <path fill="#F5D5E4" d="M290.556,460.343c-0.02-0.27,0.204-0.524,0.473-0.543l13.525-0.938c0.27-0.019,0.555,0.203,0.573,0.473
      l0.229,3.291c0.02,0.27-0.233,0.527-0.503,0.547l-8.917,0.617c-0.21,0.016-0.321,0.143-0.307,0.352l0.258,3.711
      c0.015,0.209,0.143,0.322,0.352,0.308l6.464-0.447c0.329-0.022,0.554,0.172,0.575,0.5l0.199,2.873
      c0.019,0.27-0.232,0.527-0.503,0.547l-6.463,0.447c-0.21,0.016-0.321,0.143-0.305,0.383l0.246,3.529
      c0.014,0.211,0.142,0.319,0.351,0.307l8.917-0.619c0.27-0.018,0.556,0.203,0.574,0.474l0.228,3.291
      c0.02,0.27-0.233,0.526-0.503,0.545l-13.523,0.938c-0.271,0.019-0.525-0.205-0.543-0.473L290.556,460.343z"/>
    <path fill="#F5D5E4" d="M310.396,458.728c-0.05-0.268,0.172-0.553,0.437-0.602l0.443-0.082c0.206-0.039,0.364-0.006,0.505,0.088
      l12.835,8.781c0.141,0.096,0.399,0.016,0.355-0.219l-1.922-10.324c-0.051-0.266,0.143-0.545,0.407-0.596l3.688-0.687
      c0.266-0.051,0.575,0.137,0.624,0.402l3.691,19.819c0.05,0.267-0.173,0.552-0.438,0.603l-0.501,0.092
      c-0.207,0.039-0.43-0.01-0.604-0.131l-12.647-8.754c-0.175-0.119-0.43-0.012-0.386,0.225l1.923,10.324
      c0.05,0.264-0.144,0.545-0.408,0.594l-3.687,0.688c-0.267,0.049-0.575-0.137-0.624-0.402L310.396,458.728z"/>
    <path fill="#F5D5E4" d="M332.2,454.356c-0.08-0.261,0.079-0.56,0.337-0.64l14.394-4.42c0.259-0.078,0.559,0.08,0.638,0.338
      l0.969,3.156c0.079,0.258-0.08,0.559-0.338,0.637l-4.587,1.408c-0.201,0.062-0.28,0.213-0.21,0.441l4.692,15.291
      c0.097,0.313-0.022,0.541-0.366,0.645l-3.584,1.103c-0.315,0.098-0.54-0.023-0.637-0.339l-4.693-15.291
      c-0.07-0.229-0.22-0.309-0.449-0.235l-4.56,1.397c-0.258,0.08-0.559-0.08-0.637-0.338L332.2,454.356z"/>
    <path fill="#F5D5E4" d="M355.985,446.151c0.007-0.295,0.145-0.517,0.421-0.632l0.665-0.274c0.276-0.115,0.528-0.058,0.742,0.146
      l15.617,15.314c0.238,0.258,0.131,0.627-0.174,0.754l-3.603,1.496c-0.306,0.127-0.557,0.068-0.771-0.135l-1.293-1.314
      c-0.254-0.221-0.505-0.277-0.754-0.176l-5.932,2.463c-0.249,0.104-0.386,0.324-0.409,0.658l0.02,1.844
      c-0.007,0.295-0.145,0.514-0.449,0.641l-3.602,1.496c-0.306,0.127-0.643-0.059-0.657-0.41L355.985,446.151z M360.419,459.806
      c-0.003,0.229,0.127,0.306,0.319,0.226l3.547-1.474c0.194-0.079,0.231-0.227,0.067-0.387l-3.568-3.586
      c-0.163-0.16-0.385-0.066-0.388,0.162L360.419,459.806z"/>
    <path fill="#F5D5E4" d="M369.49,440.19c-0.13-0.238-0.008-0.578,0.229-0.707l3.292-1.798c0.238-0.129,0.562-0.032,0.692,0.203
      l7.677,14.064c0.101,0.184,0.263,0.231,0.474,0.117l6.821-3.724c0.236-0.129,0.562-0.032,0.691,0.203l1.581,2.896
      c0.129,0.237,0.033,0.562-0.204,0.692l-10.877,5.937c-0.235,0.129-0.589,0.047-0.718-0.189L369.49,440.19z"/>
    <path fill="#F5D5E4" d="M391.506,427.231c-0.162-0.216-0.114-0.552,0.102-0.714l12.041-9.047c0.217-0.162,0.553-0.115,0.715,0.102
      l1.982,2.64c0.162,0.215,0.114,0.554-0.103,0.715l-3.838,2.883c-0.168,0.125-0.191,0.293-0.047,0.486l9.604,12.783
      c0.197,0.266,0.162,0.518-0.125,0.731l-2.998,2.254c-0.265,0.197-0.518,0.162-0.715-0.102l-9.604-12.785
      c-0.145-0.192-0.312-0.217-0.504-0.072l-3.814,2.865c-0.216,0.162-0.552,0.115-0.714-0.102L391.506,427.231z"/>
    <path fill="#F5D5E4" d="M407.896,414.671c-0.186-0.196-0.154-0.558,0.042-0.741l2.724-2.576c0.196-0.187,0.535-0.177,0.722,0.02
      l5.4,5.709c0.145,0.152,0.313,0.158,0.488-0.008l5.643-5.338c0.153-0.146,0.158-0.314,0.015-0.469l-5.401-5.709
      c-0.186-0.195-0.154-0.556,0.042-0.74l2.724-2.576c0.196-0.186,0.535-0.178,0.722,0.02l13.854,14.643
      c0.187,0.195,0.175,0.535-0.021,0.722l-2.723,2.576c-0.197,0.187-0.558,0.196-0.743,0.002l-5.277-5.578
      c-0.165-0.176-0.335-0.181-0.487-0.035l-5.644,5.339c-0.175,0.166-0.179,0.336-0.016,0.51l5.277,5.577
      c0.187,0.197,0.177,0.535-0.02,0.722l-2.725,2.576c-0.195,0.188-0.558,0.196-0.743,0.002L407.896,414.671z"/>
    <path fill="#F5D5E4" d="M425.101,397.57c-0.202-0.178-0.225-0.516-0.046-0.719l2.495-2.84c0.179-0.203,0.518-0.225,0.72-0.047
      l15.146,13.311c0.202,0.179,0.225,0.517,0.045,0.72l-2.494,2.84c-0.179,0.203-0.519,0.226-0.722,0.047L425.101,397.57z"/>
    <path fill="#F5D5E4" d="M432.379,389.314c-0.218-0.16-0.252-0.52-0.095-0.737l0.267-0.363c0.123-0.168,0.26-0.254,0.428-0.28
      l15.354-2.438c0.169-0.024,0.302-0.263,0.107-0.402l-8.486-6.18c-0.217-0.158-0.27-0.494-0.11-0.713l2.207-3.029
      c0.157-0.219,0.512-0.297,0.729-0.137l16.293,11.862c0.217,0.16,0.252,0.519,0.095,0.736l-0.302,0.412
      c-0.123,0.17-0.317,0.287-0.528,0.32l-15.197,2.326c-0.211,0.033-0.322,0.287-0.127,0.428l8.485,6.18
      c0.22,0.158,0.271,0.494,0.111,0.713l-2.207,3.031c-0.158,0.217-0.512,0.293-0.729,0.135L432.379,389.314z"/>
    <path fill="#F5D5E4" d="M453.715,375.093c-2.599-1.438-4.248-3.416-4.959-5.971c-0.736-2.57-0.373-5.146,1.037-7.692
      c1.135-2.046,2.688-3.484,4.67-4.341c0.344-0.188,0.567-0.098,0.688,0.244l1.422,3.256c0.133,0.313,0.043,0.539-0.312,0.687
      c-1.105,0.449-1.986,1.231-2.582,2.309c-1.513,2.729-0.547,5.631,2.393,7.26l1.521,0.842c2.967,1.646,5.801,0.984,7.313-1.744
      c0.553-0.998,0.799-2.062,0.697-3.18c-0.014-0.283-0.141-0.49-0.428-0.65l-1.261-0.696c-0.184-0.104-0.348-0.058-0.448,0.129
      l-1.31,2.361c-0.131,0.235-0.473,0.354-0.709,0.225l-2.203-1.221c-0.289-0.16-0.358-0.404-0.186-0.722l3.549-6.401
      c0.16-0.289,0.404-0.359,0.693-0.199l8.791,4.871c0.235,0.131,0.33,0.457,0.198,0.692l-0.246,0.445
      c-0.116,0.211-0.297,0.35-0.543,0.42l-1.819,0.502c-0.203,0.06-0.291,0.215-0.246,0.445c0.416,1.912,0.08,3.818-0.996,5.76
      c-1.309,2.363-3.199,3.854-5.629,4.463c-2.457,0.595-4.978,0.191-7.576-1.248L453.715,375.093z"/>
    <path fill="#F5D5E4" d="M463.107,337.689c0.299-0.17,0.531-0.104,0.701,0.191l1.844,3.162c0.144,0.285,0.101,0.625-0.215,0.756
      c-1.064,0.535-1.803,1.301-2.203,2.271c-0.652,1.582-0.418,2.588,0.664,3.035l0.084,0.033c1.137,0.469,1.998-0.279,3.742-2.937
      c2.215-3.404,4.803-4.479,7.826-3.231l0.11,0.047c1.914,0.789,3.181,2.123,3.734,4.008c0.553,1.885,0.354,3.942-0.598,6.246
      c-0.949,2.303-2.935,4.438-4.998,5.664c-0.23,0.164-0.613,0.069-0.728-0.203l-1.889-3.215c-0.17-0.297-0.078-0.519,0.219-0.688
      c1.312-0.66,2.603-1.979,3.15-3.312c0.871-2.106,0.51-3.358-0.601-3.815l-0.108-0.048c-0.648-0.396-1.351-0.036-1.871,0.363
      c-0.142,0.105-0.367,0.338-0.64,0.681l-0.639,0.84l-0.779,1.104c-0.051,0.045-0.086,0.129-0.159,0.229l-0.854,1.205
      c-0.209,0.271-0.586,0.635-1.092,1.073c-0.496,0.414-0.984,0.73-1.471,0.89c-0.935,0.295-2.507,0.328-4.171-0.356l-0.11-0.047
      c-1.803-0.744-2.982-1.978-3.549-3.673c-0.556-1.721-0.425-3.614,0.424-5.668C459.736,340.355,461.116,338.816,463.107,337.689"/>
    <path fill="#F5D5E4" d="M119.783,136.396c-0.212-0.167-0.251-0.505-0.083-0.717l5.846-7.387c1.06-1.342,2.472-2.061,4.294-2.189
      c1.799-0.145,3.413,0.329,4.848,1.464l0.164,0.13c1.53,1.211,2.434,2.728,2.706,4.513c0.271,1.783-0.179,3.416-1.352,4.899
      l-2.792,3.529c-0.149,0.188-0.13,0.357,0.035,0.487l5.105,4.04c0.258,0.204,0.289,0.457,0.084,0.716l-2.328,2.941
      c-0.205,0.259-0.457,0.289-0.716,0.084L119.783,136.396z M125.955,134.737c-0.148,0.188-0.129,0.356,0.059,0.505l3.836,3.035
      c0.188,0.149,0.356,0.129,0.505-0.059l1.88-2.377c0.987-1.247,0.797-2.698-0.498-3.722l-0.165-0.13
      c-1.316-1.043-2.73-0.899-3.756,0.395L125.955,134.737z"/>
    <path fill="#F5D5E4" d="M137.354,115.584c-0.108-0.275-0.07-0.53,0.139-0.745l0.501-0.516c0.209-0.216,0.463-0.262,0.739-0.16
      l20.401,7.88c0.32,0.144,0.368,0.525,0.138,0.762l-2.715,2.799c-0.229,0.237-0.483,0.283-0.761,0.181l-1.708-0.695
      c-0.32-0.101-0.573-0.056-0.761,0.138l-4.472,4.608c-0.188,0.194-0.226,0.449-0.115,0.765l0.746,1.686
      c0.111,0.274,0.072,0.53-0.157,0.766l-2.717,2.799c-0.229,0.237-0.611,0.201-0.764-0.115L137.354,115.584z M146.831,126.366
      c0.088,0.211,0.235,0.23,0.383,0.079l2.674-2.756c0.146-0.151,0.123-0.299-0.091-0.38l-4.695-1.881
      c-0.213-0.082-0.381,0.09-0.292,0.301L146.831,126.366z"/>
    <path fill="#F5D5E4" d="M149.945,103.426c-0.169-0.21-0.107-0.566,0.104-0.736l0.35-0.282c0.164-0.131,0.318-0.178,0.487-0.16
      l15.459,1.668c0.169,0.019,0.361-0.174,0.21-0.361l-6.574-8.187c-0.169-0.211-0.132-0.548,0.079-0.717l2.924-2.348
      c0.21-0.169,0.571-0.151,0.74,0.06l12.622,15.719c0.169,0.21,0.11,0.567-0.101,0.736l-0.398,0.319
      c-0.164,0.131-0.383,0.193-0.594,0.17l-15.282-1.734c-0.211-0.023-0.383,0.193-0.234,0.38l6.574,8.187
      c0.17,0.21,0.133,0.548-0.078,0.717l-2.924,2.348c-0.21,0.169-0.571,0.151-0.74-0.06L149.945,103.426z"/>
    <path fill="#F5D5E4" d="M177.215,82.889c2.559-1.564,5.103-2.062,7.603-1.48c2.485,0.556,4.515,2.094,6.031,4.578l0.908,1.485
      c1.688,2.765,2,5.634,1.158,7.941c-0.841,2.307-2.483,4.223-4.658,5.553l-6.043,3.691c-0.231,0.141-0.562,0.061-0.701-0.169
      l-10.511-17.206c-0.142-0.231-0.062-0.561,0.17-0.701L177.215,82.889z M177.367,87.859c-0.181,0.109-0.221,0.274-0.109,0.454
      l6.193,10.139c0.108,0.179,0.273,0.219,0.452,0.11l2.101-1.283c2.688-1.642,3.341-4.431,1.604-7.274l-0.906-1.484
      c-1.752-2.868-4.495-3.618-7.234-1.945L177.367,87.859z"/>
    <path fill="#F5D5E4" d="M198.731,71.803c-0.003-0.296,0.125-0.519,0.398-0.644l0.655-0.3c0.272-0.125,0.525-0.076,0.748,0.12
      l16.149,14.749c0.247,0.25,0.154,0.623-0.146,0.761l-3.548,1.622c-0.301,0.138-0.554,0.088-0.775-0.107l-1.338-1.268
      c-0.262-0.211-0.516-0.259-0.76-0.147l-5.84,2.671c-0.245,0.112-0.374,0.336-0.386,0.671l0.084,1.842
      c0.003,0.296-0.125,0.519-0.426,0.657l-3.546,1.623c-0.3,0.137-0.644-0.036-0.671-0.386L198.731,71.803z M203.648,85.291
      c0.006,0.229,0.139,0.3,0.328,0.213l3.492-1.598c0.192-0.087,0.223-0.234,0.054-0.387l-3.692-3.457
      c-0.169-0.154-0.388-0.054-0.383,0.174L203.648,85.291z"/>
    <path fill="#F5D5E4" d="M223.949,62.11c-0.071-0.26,0.125-0.563,0.385-0.636l3.613-0.999c0.262-0.072,0.557,0.095,0.629,0.356
      l4.269,15.441c0.056,0.202,0.205,0.286,0.435,0.222l7.489-2.071c0.261-0.072,0.557,0.095,0.628,0.355l0.879,3.181
      c0.072,0.26-0.095,0.556-0.354,0.628l-11.942,3.302c-0.26,0.072-0.585-0.088-0.657-0.348L223.949,62.11z"/>
    <path fill="#F5D5E4" d="M243.73,57.14c-0.05-0.265,0.142-0.546,0.406-0.596l3.715-0.706c0.266-0.05,0.546,0.141,0.596,0.406
      l3.764,19.811c0.05,0.265-0.141,0.545-0.406,0.596l-3.715,0.706c-0.264,0.05-0.546-0.141-0.595-0.406L243.73,57.14z"/>
    <path fill="#F5D5E4" d="M256.662,54.822c-0.026-0.27,0.188-0.53,0.459-0.556l3.731-0.359c0.27-0.025,0.531,0.19,0.558,0.459
      l0.766,7.973c0.019,0.209,0.151,0.317,0.36,0.297l0.118-0.011c1.821-0.176,3.21-1.093,4.193-2.784
      c0.983-1.692,1.435-3.574,1.386-5.648l-0.016-0.481c-0.032-0.328,0.131-0.525,0.489-0.559l3.882-0.373
      c0.328-0.032,0.562,0.217,0.559,0.489l0.031,0.63c0.106,3.937-1.334,7.451-3.883,9.776c-0.165,0.166-0.178,0.348-0.071,0.519
      l6.539,8.774c0.241,0.309,0.014,0.782-0.373,0.819l-4.331,0.416c-0.209,0.02-0.367-0.055-0.473-0.225l-5.348-7.654
      c-0.139-0.197-0.323-0.24-0.559-0.187c-0.47,0.135-1.035,0.22-1.662,0.28l-0.119,0.011c-0.209,0.021-0.316,0.151-0.294,0.391
      l0.732,7.614c0.024,0.269-0.191,0.531-0.459,0.556l-3.734,0.359c-0.268,0.026-0.53-0.19-0.555-0.459L256.662,54.822z"/>
    <path fill="#F5D5E4" d="M281.221,53.024c0.005-0.27,0.25-0.505,0.521-0.5l13.559,0.255c0.27,0.005,0.535,0.25,0.53,0.52l-0.062,3.3
      c-0.005,0.27-0.279,0.505-0.549,0.5l-8.939-0.169c-0.211-0.004-0.333,0.114-0.337,0.324l-0.068,3.72
      c-0.004,0.21,0.112,0.332,0.322,0.336l6.479,0.122c0.33,0.006,0.536,0.22,0.53,0.55l-0.056,2.88c-0.005,0.27-0.278,0.505-0.549,0.5
      l-6.479-0.122c-0.21-0.004-0.332,0.114-0.336,0.354l-0.067,3.539c-0.004,0.21,0.114,0.333,0.324,0.337l8.938,0.168
      c0.271,0.005,0.535,0.25,0.53,0.52l-0.062,3.3c-0.006,0.27-0.279,0.505-0.55,0.5l-13.56-0.255c-0.271-0.006-0.506-0.25-0.5-0.52
      L281.221,53.024z"/>
    <path fill="#F5D5E4" d="M316.519,56.865c0.241,0.243,0.24,0.484-0.003,0.726l-2.573,2.602c-0.239,0.212-0.578,0.259-0.785-0.01
      c-0.793-0.888-1.726-1.401-2.767-1.536c-1.696-0.218-2.605,0.27-2.755,1.43l-0.013,0.09c-0.156,1.219,0.791,1.856,3.809,2.849
      c3.861,1.253,5.572,3.47,5.155,6.713l-0.017,0.119c-0.265,2.053-1.223,3.623-2.896,4.648s-3.715,1.367-6.186,1.049
      c-2.469-0.318-5.047-1.678-6.768-3.351c-0.219-0.18-0.229-0.574,0.007-0.756l2.611-2.658c0.241-0.241,0.479-0.21,0.722,0.032
      c0.979,1.095,2.586,1.997,4.014,2.181c2.263,0.291,3.377-0.382,3.53-1.572l0.016-0.119c0.215-0.729-0.314-1.312-0.839-1.711
      c-0.138-0.109-0.42-0.266-0.82-0.439l-0.978-0.398l-1.271-0.466c-0.057-0.037-0.146-0.049-0.261-0.094l-1.386-0.511
      c-0.315-0.131-0.766-0.401-1.322-0.775c-0.526-0.371-0.961-0.759-1.237-1.188c-0.529-0.824-0.971-2.333-0.74-4.118l0.016-0.119
      c0.248-1.934,1.134-3.393,2.62-4.382c1.52-0.984,3.38-1.349,5.582-1.066C313.068,54.303,314.914,55.237,316.519,56.865"/>
    <path fill="#F5D5E4" d="M333.947,59.051c0.075-0.259,0.373-0.422,0.633-0.346l14.454,4.236c0.26,0.076,0.422,0.374,0.347,0.632
      l-0.929,3.168c-0.075,0.259-0.374,0.422-0.633,0.346l-4.606-1.35c-0.201-0.059-0.352,0.022-0.418,0.252l-4.497,15.348
      c-0.094,0.316-0.316,0.438-0.661,0.337l-3.601-1.055c-0.317-0.092-0.438-0.316-0.347-0.632l4.498-15.348
      c0.067-0.23-0.015-0.379-0.244-0.446l-4.578-1.342c-0.26-0.076-0.423-0.374-0.347-0.633L333.947,59.051z"/>
    <path fill="#F5D5E4" d="M350.995,73.795c1.16-2.735,2.954-4.581,5.394-5.566c2.438-0.986,5.012-0.905,7.746,0.255
      c2.733,1.16,4.581,2.954,5.565,5.393c0.985,2.439,0.903,5.011-0.256,7.746l-0.68,1.602c-1.161,2.734-2.966,4.608-5.404,5.593
      c-2.427,0.958-5,0.877-7.733-0.283c-2.734-1.16-4.58-2.954-5.578-5.365c-0.986-2.439-0.894-5.04,0.268-7.773L350.995,73.795z
       M354.79,77.295c-1.37,3.231-0.385,5.898,2.57,7.152c2.955,1.254,5.561,0.111,6.931-3.121l0.681-1.602
      c1.371-3.231,0.383-5.899-2.571-7.153c-2.955-1.254-5.559-0.109-6.93,3.122L354.79,77.295z"/>
    <path fill="#F5D5E4" d="M388.716,81.718c0.146-0.227,0.479-0.298,0.706-0.151l7.904,5.127c1.436,0.93,2.284,2.268,2.582,4.071
      c0.313,1.776-0.007,3.429-1.003,4.964l-0.114,0.177c-1.061,1.636-2.486,2.678-4.237,3.116c-1.751,0.439-3.419,0.144-5.005-0.885
      l-3.777-2.449c-0.201-0.13-0.367-0.095-0.481,0.081l-3.543,5.463c-0.18,0.278-0.429,0.33-0.704,0.151l-3.147-2.041
      c-0.277-0.179-0.33-0.428-0.15-0.705L388.716,81.718z M390.948,87.708c-0.201-0.13-0.367-0.095-0.498,0.106l-2.661,4.104
      c-0.131,0.202-0.095,0.368,0.106,0.498l2.543,1.649c1.334,0.866,2.762,0.539,3.659-0.845l0.114-0.177
      c0.915-1.41,0.639-2.804-0.746-3.702L390.948,87.708z"/>
    <path fill="#F5D5E4" d="M408.18,94.989c0.17-0.209,0.531-0.225,0.74-0.054l2.905,2.369c0.21,0.17,0.244,0.508,0.074,0.717
      l-10.12,12.418c-0.133,0.163-0.115,0.332,0.07,0.484l6.021,4.908c0.21,0.17,0.244,0.508,0.073,0.717l-2.084,2.558
      c-0.171,0.21-0.509,0.244-0.718,0.073l-9.604-7.827c-0.209-0.17-0.267-0.527-0.096-0.736L408.18,94.989z"/>
    <path fill="#F5D5E4" d="M428.981,113.284c0.276-0.104,0.531-0.059,0.741,0.155l0.505,0.513c0.211,0.214,0.251,0.469,0.143,0.744
      l-8.356,20.216c-0.151,0.317-0.533,0.356-0.765,0.121l-2.736-2.781c-0.231-0.236-0.271-0.491-0.163-0.765l0.735-1.692
      c0.107-0.317,0.067-0.572-0.121-0.765l-4.503-4.578c-0.189-0.193-0.443-0.237-0.764-0.133l-1.703,0.707
      c-0.275,0.104-0.53,0.059-0.763-0.176l-2.735-2.781c-0.23-0.235-0.186-0.617,0.135-0.763L428.981,113.284z M417.977,122.508
      c-0.213,0.083-0.235,0.231-0.088,0.381l2.692,2.739c0.147,0.149,0.297,0.129,0.384-0.082l1.989-4.652
      c0.087-0.212-0.082-0.383-0.295-0.3L417.977,122.508z"/>
    <path fill="#F5D5E4" d="M431.304,137.462c0.165-0.13,0.292-0.308,0.377-0.49l5.965-14.345c0.08-0.332,0.559-0.406,0.801-0.1
      l2.611,3.289c0.168,0.212,0.186,0.428,0.09,0.694l-4.088,9.181c-0.033,0.103-0.021,0.168,0.035,0.239l0.02,0.023
      c0.037,0.047,0.099,0.075,0.205,0.067l9.869-1.896c0.281-0.032,0.488,0.035,0.656,0.246l2.608,3.29
      c0.242,0.305,0.062,0.755-0.278,0.758l-15.324,2.548c-0.197,0.042-0.398,0.125-0.564,0.256l-4.393,3.487
      c-0.306,0.242-0.729,0.193-0.97-0.112l-2.126-2.679c-0.242-0.305-0.193-0.727,0.111-0.969L431.304,137.462z"/>
  </g>
  <!--Smoke-->
  <g opacity="0.15">
    <path class="animated bounceInLeft delay3s" fill="#9268A5" d="M96.269,248.307c-10.996-7.402-0.213-20.09,10.963-15.544c-1.186-11.263,14.627-18.66,26.963-6.45
      c6.061-19.457,44.763-13.746,43.494,3.384c7.824-9.306,16.072-2.961,13.322,0.422c8.672-5.075,21.783,4.441,14.805,12.549
      c7.33-3.383,11.843,6.21,4.018,8.599c16.072,8.459-8.248,27.281-16.988,12.829c-4.021,18.739-33.556,14.664-36.16,5.767
      c-0.779,1.707-5.322,3.401-7.758-0.619c-0.845,11.314-27.703,14.378-31.721,3.806c-8.855,2.435-23.053-7.825-17.979-15.721
      C90.771,259.584,85.906,250.421,96.269,248.307"/>
    <path class="animated bounceInRight delay3s" fill="#9268A5" d="M469.954,227.4c6.49,5.06,0.345,14.003-6.221,10.937c0.816,7.839-8.32,13.14-15.643,4.742
      c-3.32,13.616-25.94,9.99-25.39-1.961c-4.461,6.557-9.336,2.21-7.77-0.174c-5,3.618-12.746-2.898-8.769-8.612
      c-4.233,2.426-6.969-4.222-2.434-5.959c-9.461-5.748,4.508-19.092,9.76-9.097c2.142-13.1,19.399-10.528,21.013-4.349
      c0.438-1.199,3.065-2.42,4.528,0.359c0.369-7.894,15.992-10.277,18.449-2.942c5.135-1.777,13.521,5.244,10.648,10.793
      C473.038,219.489,475.973,225.832,469.954,227.4"/>
  </g>

  <!--Panda-->
  <g class="animated rollIn delay1400ms">
    <path fill="#4B4B4D" d="M192.214,411.202c23.842,15.137,51.717,24.483,81.656,26.062c2.803-1.896,6.154-3.051,10.194-3.051
      c3.951,0,7.246,1.101,10.013,2.92c30.159-1.957,58.163-11.799,81.981-27.488c1.994-10.688,4.006-24.506,4.869-43.451H186.907
      C187.816,386.075,190.054,400.305,192.214,411.202"/>
    <path fill="#FBFBFC" d="M371.056,385.382c6.399-10.702,9.934-22.791,9.934-35.586c0-20.414-32.92-59.377-32.92-59.377
      l-14.993-36.064l-11.15-6.555l-27.771,6.221l-49.432-9.683l-16.268,6.132l-10.217,39.5c0,0-31.391,34.102-31.391,59.825
      c0,12.795,3.414,24.884,9.641,35.586c0,0,19.689,43.943,87.432,43.943C351.661,429.325,371.056,385.382,371.056,385.382"/>
    <path fill="#4B4B4D" d="M221.166,258.392c-9.951,11.979-36.287,19.987-47.207-0.886c-0.674-1.896-0.287-3.855,1.1-7.885
      c2.044-5.946-1.633-7.352-5.6-7.178c-0.004,0-0.006,0-0.006,0c-3.775-23.06-15.436-10.249-22.349-4.39
      c-7.037,5.966-5.796,19.893-4.313,27.291c12.729,63.542,95.471,51,95.471-18.646C229.205,245.37,225.352,253.351,221.166,258.392"/>
    <path fill="#4B4B4D" d="M321.441,238.244c-8.522,19.136-10.022,46.742-38.385,46.742c-28.359,0-30.125-27.843-38.625-47.287"/>
    <path fill="#4B4B4D" d="M388.984,285.829c2.957,1.114,8.168-9.855,14.512-5.672c6.344,4.184-0.815,9.368,2.115,13.981
      s10.15,1.67,19.031,7.592c8.883,5.92-6.76,28.205-11.277,31.248c-8.996,6.064-28.043-11.848-40.041-15.508
      c-18.021-5.498-49.248-42.669-51.03-69.731C339.99,245.763,370.251,278.759,388.984,285.829"/>
    <path fill="#FBFBFC" d="M293.498,138.75c-65.679-6.697-65.027,33.52-77.445,52.445c-12.416,18.926-11.434,30.027-9.485,38.148
      c1.968,8.123,15.617,21.835,28.942,27.281c13.336,5.459,22.273,3.427,28.25,5.386c5.986,1.961,9.777,7.422,20.131,7.347
      c10.361-0.094,12.826-6.018,19.994-6.821c7.164-0.805,19.384,2.09,27.094,0.165c7.709-1.926,25.734-13.442,27.668-25.395
      c1.932-11.955,4.594-17.664-10.668-44.923C332.716,165.129,346.534,144.169,293.498,138.75"/>
    <path fill="#4B4B4D" d="M255.652,160.685c-0.34-6.544-1.346-18.935-10.387-20.274s-18.92,8.205-16.41,17.246
      c2.515,9.041,9.787,11.84,13.808,13.303c0,0-1.074-5.055,3.498-9.549C250.73,156.917,255.652,160.685,255.652,160.685"/>
    <path fill="#4B4B4D" d="M326.427,170.768c4.018-1.463,10.371-3.878,12.883-12.918c2.513-9.042-7.367-18.586-16.41-17.247
      c-9.041,1.339-9.838,12.679-10.178,19.223c0,0,7.037-3.532,12.346,0.96C330.378,165.278,326.427,170.768,326.427,170.768"/>
    <path fill="#E7D5E7" d="M253.232,245.172c-4.649,1.797-0.571,5.22,0.781,6.323c1.733,1.415,7.485-1.64,10.963-0.61
      c3.289,0.975,4.231,6.059,8.619,6.547c3.494,0.388,7.655-3.121,11.588-3.121c3.176,0,5.861,3.584,8.769,3.325
      c4.106-0.364,3.636-5.046,6.909-5.837c3.061-0.737,9.926,2.44,11.969,1.417c3.07-1.533,4.354-2.694,1.658-5.562
      c-2.694-2.866-7.285-0.367-11.656-0.837c-4.37-0.472-3.276-4.843-7.807-4.562c-4.528,0.284-1.687,5.121-9.842,5.399
      c-8.158,0.279-4.84-6.032-11.748-5.609c-6.908,0.422-4.44,3.783-7.399,4.772C263.074,247.803,257.884,243.375,253.232,245.172"/>
    <path fill="#4B4B4D" d="M283.919,214.273c-34.605,0,0,22.374,0,22.374S318.524,214.273,283.919,214.273"/>
    <path fill="#4B4B4D" d="M310.916,175.855c-23.3,4.208-1.573,50.936,19.302,49.325c20.821-1.609,17.485-23.431,3.11-24.181
      C318.96,200.25,325.759,173.175,310.916,175.855"/>
    <path fill="#4B4B4D" d="M256.917,174.248c23.303,4.206,1.58,50.937-19.299,49.324c-20.822-1.607-17.484-23.431-3.113-24.179
      C248.876,198.643,242.08,171.567,256.917,174.248"/>
    <path fill="#FBFBFC" d="M259.158,183.007c1.096,0.138,2.25,2.333,1.694,6.697c-0.675,5.299-6.603,9.141-1.726-2.362
      c-1.328-0.105-5.908,8.321-1.356,8.929c4.551,0.61,7.522-15.274,1.392-15.52c-6.136-0.246-6.056,13.314-5.41,12.916
      C253.08,190.166,256.138,182.624,259.158,183.007"/>
    <path fill="#FBFBFC" d="M313.081,190.592c0,3.136-1.163,5.679-2.598,5.679c-1.438,0-2.6-2.543-2.6-5.679
    c0-3.136,1.162-5.678,2.6-5.678C311.916,184.915,313.081,187.457,313.081,190.592"/>
  </g>
  <!--strainer-->
  <g class="animated bounceInDown delay2s">
    <path fill="#9B9C9E" d="M309.657,175.227c18.455-3.239,70.818,15.672,66.084-2.276c-3.123-11.836-43.967,1.093-52.815-1.761
      c-4.83-1.558-12.763,0.319-21.658,1.88C292.375,174.631,291.201,178.464,309.657,175.227"/>
    <path fill="#B2B3B4" d="M215.642,199.99c-4.145-1.523-6.449-3.212-6.449-4.987c0-2.138,3.341-4.149,9.211-5.899"/>
    <path fill="#B2B3B4" d="M343.859,187.342c5.869,1.75,14.787,5.522,14.787,7.66c0,1.776-2.305,3.464-6.451,4.987"/>
    <path fill="#E2E3E4" d="M209.193,195.002c0-41.271,33.457-74.727,74.726-74.727c41.272,0,74.728,33.456,74.728,74.727
    c-7.098-6-33.455-12.253-74.728-12.253C242.65,182.75,215.535,189.232,209.193,195.002"/>
    <path fill="#B2B3B4" d="M253.646,134.825c1.181-1.692,3.89-2.115,2.006,0C253.767,136.94,252.466,136.517,253.646,134.825"/>
    <path fill="#B2B3B4" d="M244.431,144.129c2.127-2.21,3.475-1.903,1.965,0C244.886,146.033,243.085,145.531,244.431,144.129"/>
    <path fill="#B2B3B4" d="M249.962,152.384c0.756-1.607,2.328-1.23,1.711,0.547C251.056,154.709,248.868,154.709,249.962,152.384"/>
    <path fill="#B2B3B4" d="M262.861,137.786c1.693-2.961,2.539-1.481,1.904,0C264.131,139.266,261.218,140.658,262.861,137.786"/>
    <path fill="#B2B3B4" d="M305.157,134.825c-1.271-1.692,1.183-1.692,2.39,0C308.754,136.517,306.427,136.517,305.157,134.825"/>
    <path fill="#B2B3B4" d="M315.943,140.476c-1.059-1.422-0.127-2.891,1.904-0.193C319.122,141.98,317,141.899,315.943,140.476"/>
    <path fill="#B2B3B4" d="M311.501,159.356c-0.478-2.063,1.44-2.557,2.098,0C314.197,161.684,311.97,161.384,311.501,159.356"/>
    <path fill="#B2B3B4" d="M230.083,161.873c-0.744,1.671,0.494,3.27,1.69,0.789C232.975,160.181,230.93,159.97,230.083,161.873"/>
    <path fill="#B2B3B4" d="M253.769,142.585c1.48-1.98,3.342-1.487,1.883,0.347C254.191,144.764,252.289,144.564,253.769,142.585"/>
    <path fill="#B2B3B4" d="M238.126,153.887c0.889-1.903,3.256-2.105,2.203,0.479C239.274,156.95,236.787,156.759,238.126,153.887"/>
    <path fill="#B2B3B4" d="M243.88,164.813c0.889-1.903,3.256-2.107,2.201,0.479C245.03,167.877,242.541,167.686,243.88,164.813"/>
    <path fill="#B2B3B4" d="M322.916,153.294c1.382,1.779-0.559,1.621-1.264,0.563C320.947,152.8,321.714,151.744,322.916,153.294"/>
    <path fill="#B2B3B4" d="M332.298,164.854c-1.191-1.815-3.172-1.409-1.763,0.987C331.945,168.239,333.779,167.11,332.298,164.854"/>
    <path fill="#B2B3B4" d="M303.183,146.104c-1.166-1.472,0.277-2.584,1.621-0.729C306.144,147.231,304.804,148.148,303.183,146.104"/>
    <path fill="#B2B3B4" d="M281.789,162.273c-0.269-2.489,2.039-2.266,2.129,0C284.009,164.538,282.001,164.235,281.789,162.273"/>
    <path fill="#B2B3B4" d="M276.82,154.645c0.273-2.521,2.009-1.75,1.691,0C278.193,156.395,276.609,156.596,276.82,154.645"/>
    <path fill="#B2B3B4" d="M288.24,154.645c-0.424-1.316-1.903-1.962-1.588,0C286.97,156.607,288.662,155.961,288.24,154.645"/>
    <path fill="#B2B3B4" d="M281.767,145.375c0.234-1.774,1.176-1.395,1.17,0C282.931,146.673,281.535,147.15,281.767,145.375"/>
    <path fill="#B2B3B4" d="M286.609,135.565c-0.694-1.586-1.754-1.057-1.33,0C285.701,136.622,287.304,137.151,286.609,135.565"/>
    <path fill="#B2B3B4" d="M276.185,133.557c0.746-1.462,1.816-1.481,1.49,0C277.349,135.036,275.749,134.409,276.185,133.557"/>
    <path fill="#B2B3B4" d="M270.105,126.471c1.64-0.634,2.168,1.057,0.476,1.375C268.888,128.163,268.464,127.106,270.105,126.471"/>
    <path fill="#B2B3B4" d="M291.304,125.202c1.377,0,1.059,1.304,0,1.128C290.248,126.155,289.825,125.202,291.304,125.202"/>
  </g>
  <!--test tube-->
  <g opacity="0.5" class="animated bounceInLeft delay2200ms">
    <path fill="#B4DCE3" d="M169.572,226.045l-23.125,42.122c-1.438,2.622-0.743,5.772,1.558,7.034
      c2.298,1.263,5.328,0.159,6.767-2.463l23.127-42.124L169.572,226.045z"/>
  </g>
  <!--Table-->
  <g class="animated lightSpeedIn delay1s">
    <rect x="142.938" y="398.562" fill="#F7DCB8" width="281.441" height="12.672"/>
    <polygon fill="#FEF2D3" points="166.755,361.456 142.938,398.562 424.378,398.562 399.712,361.456 "/>
  </g>

  <!--Big Smoke-->
  <g opacity="0.07" class="animated bounceInUp delay3200ms">
    <path fill="#9268A5" d="M246.921,306.646c-4.342-8.631-1.08-20.129,1.031-22.416c-15.091,13.222-35.24-0.393-34.664-14.36
      c-28.078,2.407-34.867-22.217-16.802-33.958c-9.054,2.401-11.56-4.723-3.382-9.046c-23.967-4.7-45.135-41.948-4.512-71.244
      c-13.817-1.828-16.072-9.931-16.805-15.146c24.135-24.05,91.83-56.119,159.999-34.993c22.994,7.127,45.892,18.801,65.894,37.27
      c20.619,19.04,38.127,45.197,47.413,74.032c7.776,24.155,10.604,53.436,4.901,82.988c-3.491,18.097-10.37,34.984-20.715,54.697
      c-22.975,43.457-94.907,8.062-70.108-34.111c-16.347,10.66-36.355,5.205-44.455-20.231c-16.457,20.697-44.086,14.808-47.215-7.188
      c-4.969,5.642-10.767,2.166-11.326-1.858C248.371,294.323,246.921,306.646,246.921,306.646"/>
  </g>
  <!--Dig-->
  <g opacity="0.8" class="animated flipInY delay1200ms">
    <path fill="#B4DCE3" d="M257.816,335.419v-24.308h-22.84v24.308c0,0-22.281,36.916-22.281,45.623
      c0,3.563,15.091,8.705,33.699,8.705c18.611,0,33.703-5.142,33.703-8.705C280.097,372.335,257.816,335.419,257.816,335.419"/>
    <path fill="#A4C9D0" d="M280.097,381.042c0,3.565-15.092,8.705-33.703,8.705c-18.609,0-33.699-5.14-33.699-8.705
      c0-3.567,15.09-8.707,33.699-8.707C265.005,372.335,280.097,377.475,280.097,381.042"/>
    <path fill="#A4C9D0" d="M234.976,311.111c0-1.157,8.279-2.098,11.385-2.098c3.102,0,11.455,0.939,11.455,2.098
      c0,1.16-8.354,2.101-11.455,2.101C243.255,313.212,234.976,312.271,234.976,311.111"/>
    <g opacity="0.2">
      <path fill="#B591A4" d="M234.976,342.175c-2.529,3.806-14.582,27.261-16.783,31.453c-2.198,4.19,3.477,12.356,28.201,12.356
        c24.728,0,32.601-2.246,28.107-12.075c-4.492-9.83-15.68-30.05-16.686-31.595C253.58,340.208,240.31,339.646,234.976,342.175"/>
      <path fill="#B591A4" d="M218.193,373.628c-2.184,4.201,3.478,12.356,28.201,12.356c24.728,0,32.601-2.246,28.108-12.075
        C270.009,364.079,223,364.378,218.193,373.628"/>
      <path fill="#B591A4" d="M234.976,342.175c1.226,1.019,9.853,1.404,11.418,1.404c1.568,0,10.275,0.455,11.422-1.265
        c-1.59-0.967-6.953-1.793-11.715-1.817C241.003,340.471,236.496,341.309,234.976,342.175"/>
    </g>
  </g>
</svg>
