<?xml version="1.0" encoding="utf-8"?>
<!DOCTYPE svg PUBLIC "-//W3C//DTD SVG 1.1//EN" "http://www.w3.org/Graphics/SVG/1.1/DTD/svg11.dtd">
<svg version="1.1" id="Calque_1" xmlns="http://www.w3.org/2000/svg" xmlns:xlink="http://www.w3.org/1999/xlink" x="0px" y="0px"
	 viewBox="0 0 566.93 566.93" enable-background="new 0 0 566.93 566.93" xml:space="preserve">
  <!--text-->
  <g class="animated rotateInUpLeft delay3s">
    <path fill="#E0D0E5" d="M93.654,342.83l5.569,1.303c0.174,0.025,0.314,0.129,0.382,0.295l0.7,1.691
      c0.092,0.223-0.096,0.396-0.281,0.344l-5.261-0.715c-0.146-0.037-0.312,0.031-0.388,0.16l-3.225,4.221
      c-0.092,0.17-0.349,0.178-0.439-0.045l-0.698-1.691c-0.069-0.166-0.043-0.338,0.062-0.479l3.024-4.854
      c0.062-0.09,0.131-0.152,0.242-0.199C93.425,342.828,93.548,342.811,93.654,342.83 M95.751,347.904l5.568,1.301
      c0.176,0.027,0.313,0.131,0.385,0.297l0.697,1.691c0.092,0.223-0.096,0.396-0.279,0.344l-5.264-0.715
      c-0.146-0.037-0.312,0.031-0.387,0.16l-3.222,4.221c-0.095,0.168-0.352,0.178-0.441-0.045l-0.699-1.693
      c-0.067-0.166-0.043-0.338,0.062-0.479l3.024-4.854c0.062-0.09,0.134-0.149,0.243-0.196
      C95.522,347.902,95.646,347.883,95.751,347.904"/>
    <path fill="#E0D0E5" d="M115.358,359.77c0.233-0.137,0.562-0.053,0.699,0.183l7.629,12.981c0.137,0.232,0.051,0.562-0.182,0.699
      l-2.846,1.67c-0.232,0.139-0.562,0.053-0.697-0.18l-2.433-4.139c-0.105-0.183-0.271-0.226-0.478-0.103l-13.784,8.101
      c-0.285,0.168-0.531,0.104-0.715-0.207l-1.9-3.232c-0.166-0.285-0.103-0.531,0.184-0.699l13.785-8.1
      c0.206-0.121,0.25-0.285,0.128-0.492l-2.416-4.113c-0.138-0.231-0.054-0.561,0.181-0.697L115.358,359.77z"/>
    <path fill="#E0D0E5" d="M117.629,381.59c2.379-1.779,4.857-2.471,7.462-2.094c2.604,0.377,4.785,1.742,6.563,4.121
      c1.777,2.381,2.47,4.859,2.094,7.463s-1.743,4.785-4.122,6.562l-1.396,1.043c-2.379,1.776-4.881,2.485-7.484,2.108
      c-2.579-0.394-4.762-1.76-6.539-4.139c-1.778-2.38-2.471-4.857-2.117-7.443c0.376-2.604,1.767-4.805,4.146-6.582L117.629,381.59z
       M119.146,386.525c-2.812,2.1-3.304,4.901-1.381,7.473c1.922,2.572,4.746,2.895,7.56,0.793l1.394-1.041
      c2.812-2.102,3.304-4.902,1.382-7.475c-1.923-2.57-4.748-2.896-7.56-0.793L119.146,386.525z"/>
    <path fill="#E0D0E5" d="M146.611,402.484c0.192-0.189,0.53-0.188,0.723,0.004l2.658,2.686c0.188,0.191,0.188,0.531-0.005,0.721
      l-14.323,14.183c-0.191,0.188-0.531,0.188-0.722-0.004l-2.658-2.687c-0.19-0.191-0.188-0.531,0.003-0.721L146.611,402.484z"/>
    <path fill="#E0D0E5" d="M154.383,410.342c0.174-0.207,0.535-0.217,0.742-0.043l0.344,0.289c0.161,0.135,0.237,0.277,0.251,0.445
      l1.364,15.49c0.014,0.168,0.238,0.319,0.396,0.135l6.756-8.037c0.173-0.207,0.513-0.236,0.718-0.062l2.871,2.414
      c0.206,0.174,0.26,0.531,0.086,0.736l-12.972,15.434c-0.175,0.207-0.535,0.218-0.742,0.043l-0.391-0.327
      c-0.16-0.136-0.264-0.341-0.281-0.552l-1.265-15.328c-0.019-0.211-0.265-0.338-0.418-0.153l-6.756,8.037
      c-0.175,0.207-0.514,0.235-0.72,0.062l-2.869-2.412c-0.207-0.174-0.261-0.53-0.086-0.737L154.383,410.342z"/>
    <path fill="#E0D0E5" d="M172.819,425.219c0.149-0.225,0.482-0.293,0.707-0.143l11.33,7.512c0.226,0.15,0.293,0.482,0.144,0.709
      l-1.824,2.75c-0.148,0.226-0.482,0.293-0.708,0.144l-7.479-4.959c-0.174-0.115-0.34-0.082-0.456,0.094l-2.703,4.076
      c-0.134,0.198-0.101,0.364,0.075,0.481l5.401,3.582c0.227,0.15,0.317,0.498,0.168,0.726l-1.592,2.399
      c-0.149,0.226-0.474,0.334-0.749,0.152l-5.402-3.584c-0.175-0.115-0.341-0.082-0.457,0.094l-3.6,5.426
      c-0.148,0.228-0.507,0.277-0.732,0.127l-3.125-2.071c-0.226-0.15-0.293-0.482-0.144-0.707L172.819,425.219z"/>
    <path fill="#E0D0E5" d="M189.475,435.758c0.131-0.235,0.457-0.33,0.692-0.201l3.31,1.828c0.235,0.129,0.331,0.455,0.2,0.691
      l-9.742,17.647c-0.13,0.236-0.456,0.33-0.69,0.199l-3.311-1.826c-0.234-0.131-0.331-0.457-0.2-0.692L189.475,435.758z"/>
    <path fill="#E0D0E5" d="M199.114,441.082c0.107-0.248,0.451-0.359,0.699-0.252l0.412,0.18c0.192,0.084,0.305,0.199,0.367,0.357
      l5.697,14.471c0.062,0.158,0.319,0.238,0.416,0.021l4.203-9.625c0.107-0.246,0.425-0.371,0.672-0.265l3.438,1.502
      c0.247,0.107,0.399,0.437,0.29,0.685l-8.069,18.479c-0.106,0.246-0.45,0.357-0.698,0.25l-0.467-0.203
      c-0.192-0.084-0.351-0.252-0.427-0.448l-5.556-14.345c-0.078-0.196-0.349-0.25-0.444-0.03l-4.203,9.625
      c-0.107,0.247-0.424,0.37-0.672,0.264l-3.438-1.502c-0.247-0.107-0.399-0.437-0.291-0.683L199.114,441.082z"/>
    <path fill="#E0D0E5" d="M221.212,450.1c0.084-0.256,0.388-0.409,0.645-0.323l3.589,1.186c0.257,0.086,0.409,0.389,0.324,0.646
      l-6.327,19.145c-0.084,0.256-0.387,0.408-0.645,0.324l-3.588-1.187c-0.258-0.086-0.41-0.389-0.326-0.645L221.212,450.1z"/>
    <path fill="#E0D0E5" d="M230.312,453.141c0.064-0.262,0.354-0.438,0.617-0.375l14.637,3.556c0.265,0.062,0.439,0.354,0.377,0.614
      l-0.778,3.207c-0.064,0.265-0.354,0.439-0.616,0.377l-4.666-1.133c-0.204-0.051-0.349,0.037-0.405,0.271l-3.772,15.541
      c-0.078,0.321-0.295,0.453-0.646,0.369l-3.646-0.886c-0.321-0.078-0.454-0.295-0.376-0.616l3.772-15.541
      c0.059-0.234-0.031-0.38-0.265-0.437l-4.636-1.125c-0.265-0.063-0.439-0.354-0.376-0.617L230.312,453.141z"/>
    <path fill="#E0D0E5" d="M254.651,472.814c0.026-0.207-0.006-0.425-0.073-0.613l-5.746-14.433c-0.174-0.295,0.116-0.682,0.504-0.633
      l4.166,0.533c0.268,0.033,0.432,0.176,0.549,0.432l3.484,9.429c0.048,0.098,0.103,0.133,0.192,0.145l0.028,0.004
      c0.06,0.008,0.124-0.014,0.194-0.096l5.739-8.248c0.181-0.219,0.373-0.316,0.642-0.281l4.166,0.533
      c0.387,0.047,0.569,0.494,0.327,0.736l-9.188,12.524c-0.112,0.166-0.198,0.367-0.226,0.576l-0.712,5.562
      c-0.049,0.389-0.383,0.646-0.771,0.6l-3.392-0.436c-0.388-0.05-0.646-0.386-0.599-0.771L254.651,472.814z"/>
    <path fill="#E0D0E5" d="M288.519,460.229c0.111-0.272,0.314-0.43,0.615-0.438l0.721-0.025c0.299-0.01,0.515,0.136,0.644,0.4
      L299.707,480c0.132,0.326-0.098,0.633-0.428,0.645l-3.897,0.13c-0.33,0.01-0.545-0.134-0.674-0.398l-0.746-1.686
      c-0.16-0.296-0.375-0.438-0.646-0.431l-6.416,0.213c-0.271,0.009-0.477,0.166-0.614,0.472l-0.634,1.729
      c-0.11,0.275-0.315,0.433-0.646,0.443l-3.897,0.129c-0.329,0.01-0.579-0.281-0.471-0.615L288.519,460.229z M287.853,474.568
      c-0.082,0.213,0.012,0.33,0.222,0.321l3.838-0.127c0.211-0.006,0.295-0.129,0.198-0.336l-2.073-4.612
      c-0.097-0.207-0.336-0.199-0.42,0.014L287.853,474.568z"/>
    <path fill="#E0D0E5" d="M303.205,459.543c-0.041-0.266,0.189-0.545,0.457-0.586l0.443-0.068c0.209-0.03,0.367,0.006,0.502,0.105
      l12.545,9.195c0.14,0.1,0.4,0.028,0.365-0.207l-1.586-10.384c-0.041-0.268,0.16-0.541,0.426-0.582l3.707-0.565
      c0.271-0.041,0.572,0.156,0.613,0.424l3.045,19.934c0.041,0.267-0.191,0.546-0.457,0.586l-0.504,0.076
      c-0.209,0.031-0.43-0.024-0.603-0.149l-12.356-9.162c-0.17-0.125-0.428-0.025-0.394,0.211l1.586,10.383
      c0.041,0.269-0.159,0.541-0.428,0.582l-3.707,0.566c-0.266,0.041-0.569-0.156-0.61-0.425L303.205,459.543z"/>
    <path fill="#E0D0E5" d="M333.692,453.051c2.887-0.813,5.469-0.606,7.719,0.629c2.24,1.207,3.777,3.236,4.566,6.037l0.473,1.674
      c0.877,3.117,0.402,5.963-1.03,7.955c-1.435,1.994-3.529,3.396-5.984,4.086l-6.812,1.92c-0.262,0.072-0.557-0.094-0.631-0.354
      l-5.465-19.4c-0.072-0.26,0.092-0.555,0.354-0.629L333.692,453.051z M332.496,457.873c-0.202,0.059-0.284,0.205-0.229,0.408
      l3.221,11.432c0.058,0.203,0.205,0.285,0.406,0.229l2.369-0.666c3.031-0.855,4.412-3.363,3.508-6.566l-0.471-1.676
      c-0.91-3.232-3.351-4.697-6.439-3.826L332.496,457.873z"/>
    <path fill="#E0D0E5" d="M356.509,445.824c-0.14-0.299-0.054-0.539,0.246-0.678l6.901-3.226c1.576-0.736,3.097-0.815,4.57-0.281
      c1.474,0.535,2.51,1.478,3.158,2.861l0.1,0.219c0.434,0.924,0.513,1.945,0.23,3.037c-0.093,0.375,0.037,0.578,0.413,0.603
      c2.021,0.147,3.881,1.364,4.758,3.239l0.088,0.191c0.774,1.656,0.877,3.297,0.324,4.945c-0.527,1.637-1.578,2.856-3.156,3.659
      l-8.425,3.937c-0.244,0.115-0.564-0.002-0.679-0.246L356.509,445.824z M362.767,447.105c-0.162,0.075-0.232,0.207-0.17,0.409
      l1.574,3.371c0.1,0.218,0.262,0.275,0.45,0.187l1.957-0.914c0.992-0.496,1.347-1.654,0.838-2.742l-0.09-0.189
      c-0.521-1.114-1.598-1.506-2.766-0.959L362.767,447.105z M366.119,454.279c-0.188,0.088-0.248,0.248-0.146,0.465l1.662,3.561
      c0.088,0.189,0.25,0.248,0.438,0.16l2.938-1.371c1.438-0.674,1.938-1.801,1.341-3.078l-0.1-0.217c-0.61-1.305-1.649-1.615-3.09-0.94
      L366.119,454.279z"/>
    <path fill="#E0D0E5" d="M375.355,436.617c-0.141-0.23-0.059-0.562,0.172-0.701l11.594-7.035c0.23-0.141,0.586-0.074,0.728,0.156
      l1.711,2.822c0.141,0.229,0.033,0.575-0.195,0.715l-7.645,4.639c-0.181,0.109-0.219,0.273-0.111,0.453l1.93,3.18
      c0.109,0.183,0.273,0.222,0.455,0.111l5.539-3.361c0.281-0.172,0.57-0.1,0.742,0.183l1.494,2.463
      c0.141,0.229,0.033,0.576-0.197,0.717l-5.539,3.361c-0.182,0.108-0.223,0.272-0.098,0.479l1.836,3.027
      c0.109,0.18,0.275,0.219,0.455,0.11l7.645-4.639c0.229-0.141,0.586-0.076,0.726,0.156l1.713,2.82
      c0.141,0.229,0.033,0.575-0.197,0.717l-11.594,7.035c-0.23,0.141-0.562,0.059-0.701-0.172L375.355,436.617z"/>
    <path fill="#E0D0E5" d="M405.568,433.934c-0.127-0.166-0.303-0.297-0.481-0.385l-14.257-6.178c-0.329-0.086-0.397-0.564-0.088-0.803
      l3.328-2.562c0.215-0.164,0.43-0.18,0.693-0.08l9.119,4.226c0.104,0.034,0.168,0.021,0.239-0.033l0.023-0.019
      c0.047-0.036,0.076-0.098,0.068-0.204L402.467,418c-0.027-0.283,0.043-0.486,0.256-0.652l3.328-2.561
      c0.309-0.238,0.756-0.051,0.754,0.291l2.322,15.361c0.036,0.196,0.118,0.399,0.245,0.565l3.423,4.445
      c0.237,0.309,0.182,0.729-0.127,0.969l-2.709,2.084c-0.312,0.238-0.73,0.184-0.97-0.125L405.568,433.934z"/>
    <path fill="#E0D0E5" d="M415.475,419.459c-2.084-2.115-3.105-4.479-3.086-7.109c0.019-2.629,1.078-4.979,3.192-7.062
      c2.117-2.086,4.479-3.106,7.109-3.088c2.631,0.021,4.98,1.077,7.064,3.194l1.221,1.238c2.084,2.117,3.127,4.502,3.109,7.133
      c-0.041,2.609-1.101,4.957-3.216,7.041c-2.116,2.084-4.479,3.107-7.092,3.107c-2.631-0.021-4.998-1.098-7.084-3.215L415.475,419.459
      z M420.159,417.289c2.463,2.5,5.308,2.607,7.595,0.354c2.286-2.252,2.223-5.096-0.24-7.598l-1.221-1.24
      c-2.464-2.502-5.308-2.606-7.595-0.354c-2.287,2.252-2.225,5.096,0.238,7.598L420.159,417.289z"/>
    <path fill="#E0D0E5" d="M426.719,394.896c-0.211-0.166-0.232-0.527-0.064-0.74l0.277-0.354c0.131-0.163,0.27-0.243,0.438-0.266
      l15.439-1.861c0.168-0.02,0.311-0.25,0.123-0.397l-8.252-6.494c-0.213-0.166-0.252-0.504-0.086-0.717l2.319-2.945
      c0.166-0.213,0.523-0.277,0.734-0.109l15.842,12.469c0.213,0.166,0.234,0.527,0.068,0.74l-0.316,0.4
      c-0.129,0.164-0.33,0.273-0.541,0.299l-15.278,1.756c-0.211,0.025-0.332,0.275-0.144,0.424l8.252,6.494
      c0.211,0.166,0.252,0.504,0.084,0.717l-2.317,2.945c-0.168,0.213-0.521,0.277-0.734,0.109L426.719,394.896z"/>
    <path fill="#E0D0E5" d="M444.54,369.332c1.556-2.566,3.582-4.176,6.07-4.809c2.463-0.646,4.971-0.215,7.459,1.295l1.488,0.899
      c2.77,1.681,4.363,4.085,4.676,6.521c0.314,2.434-0.262,4.891-1.586,7.07l-3.668,6.053c-0.141,0.231-0.469,0.312-0.701,0.172
      l-17.235-10.447c-0.23-0.141-0.312-0.471-0.173-0.701L444.54,369.332z M446.959,373.674c-0.107,0.18-0.068,0.344,0.11,0.453
      l10.158,6.156c0.178,0.109,0.344,0.068,0.453-0.109l1.272-2.104c1.636-2.693,0.933-5.469-1.916-7.195l-1.485-0.902
      c-2.873-1.74-5.654-1.146-7.318,1.598L446.959,373.674z"/>
    <path fill="#E0D0E5" d="M470.672,348.793l3.006,4.865c0.104,0.141,0.129,0.314,0.059,0.48l-0.705,1.688
      c-0.092,0.221-0.348,0.213-0.438,0.043l-3.205-4.232c-0.078-0.129-0.244-0.199-0.39-0.162l-5.266,0.693
      c-0.184,0.053-0.371-0.121-0.277-0.344l0.705-1.688c0.068-0.166,0.209-0.271,0.386-0.296l5.571-1.28
      c0.107-0.021,0.23-0.002,0.312,0.032C470.54,348.641,470.611,348.703,470.672,348.793 M472.786,343.727l3.009,4.865
      c0.104,0.143,0.129,0.314,0.059,0.48l-0.705,1.688c-0.092,0.222-0.348,0.212-0.438,0.044l-3.207-4.232
      c-0.076-0.131-0.242-0.199-0.39-0.162l-5.262,0.693c-0.187,0.053-0.373-0.123-0.281-0.345l0.705-1.688
      c0.072-0.166,0.211-0.271,0.385-0.295l5.574-1.279c0.107-0.021,0.229-0.002,0.312,0.033
      C472.656,343.574,472.729,343.637,472.786,343.727"/>
    <path fill="#E0D0E5" d="M153.529,99.62c-0.162-0.215-0.117-0.551,0.096-0.715l7.479-5.726c1.357-1.039,2.9-1.39,4.699-1.066
      c1.779,0.301,3.227,1.156,4.339,2.609l0.128,0.167c1.187,1.548,1.688,3.241,1.515,5.037c-0.176,1.795-1.013,3.268-2.514,4.416
      l-3.572,2.735c-0.189,0.146-0.214,0.315-0.086,0.481l3.957,5.169c0.201,0.262,0.167,0.514-0.095,0.715l-2.977,2.279
      c-0.265,0.201-0.517,0.167-0.715-0.095L153.529,99.62z M159.919,99.526c-0.19,0.146-0.213,0.314-0.067,0.504l2.973,3.883
      c0.146,0.191,0.313,0.213,0.506,0.067l2.403-1.842c1.265-0.966,1.437-2.42,0.433-3.73l-0.127-0.167
      c-1.021-1.333-2.429-1.541-3.738-0.539L159.919,99.526z"/>
    <path fill="#E0D0E5" d="M175.663,83.761c-0.038-0.293,0.062-0.531,0.317-0.688l0.612-0.378c0.255-0.157,0.513-0.139,0.756,0.028
      l17.836,12.655c0.276,0.219,0.229,0.6-0.052,0.773l-3.32,2.045c-0.281,0.173-0.539,0.156-0.783-0.011l-1.482-1.095
      c-0.286-0.176-0.543-0.194-0.772-0.052l-5.467,3.366c-0.229,0.142-0.33,0.38-0.3,0.714l0.31,1.818
      c0.039,0.293-0.062,0.53-0.343,0.703l-3.319,2.046c-0.282,0.172-0.645,0.043-0.715-0.301L175.663,83.761z M182.198,96.543
      c0.033,0.226,0.173,0.281,0.353,0.171l3.27-2.014c0.179-0.11,0.192-0.26,0.007-0.391l-4.091-2.978
      c-0.186-0.132-0.391-0.006-0.355,0.22L182.198,96.543z"/>
    <path fill="#E0D0E5" d="M190.866,75.075c-0.111-0.246,0.034-0.576,0.278-0.687l0.41-0.187c0.191-0.087,0.354-0.094,0.512-0.035
      l14.564,5.433c0.158,0.059,0.393-0.08,0.293-0.298l-4.348-9.555c-0.111-0.245,0.007-0.563,0.253-0.674l3.412-1.553
      c0.245-0.112,0.591-0.006,0.702,0.24l8.347,18.344c0.111,0.246-0.034,0.576-0.28,0.688l-0.463,0.211
      c-0.191,0.087-0.42,0.093-0.619,0.018l-14.375-5.453c-0.199-0.074-0.42,0.092-0.32,0.311l4.348,9.554
      c0.111,0.246-0.006,0.563-0.252,0.675l-3.413,1.553c-0.244,0.112-0.591,0.005-0.701-0.241L190.866,75.075z"/>
    <path fill="#E0D0E5" d="M222.396,61.891c2.867-0.88,5.454-0.733,7.731,0.451c2.269,1.156,3.853,3.149,4.707,5.932l0.511,1.663
      c0.95,3.099,0.541,5.955-0.845,7.982c-1.388,2.026-3.451,3.476-5.89,4.225l-6.766,2.078c-0.26,0.079-0.559-0.08-0.637-0.338
      l-5.918-19.278c-0.078-0.258,0.08-0.558,0.338-0.637L222.396,61.891z M221.313,66.744c-0.201,0.062-0.278,0.211-0.219,0.413
      l3.486,11.359c0.062,0.201,0.211,0.281,0.412,0.219l2.352-0.722c3.011-0.924,4.332-3.465,3.355-6.649l-0.512-1.664
      c-0.984-3.213-3.457-4.62-6.523-3.678L221.313,66.744z"/>
    <path fill="#E0D0E5" d="M246.007,56.497c0.07-0.286,0.25-0.471,0.547-0.525l0.707-0.127c0.297-0.053,0.529,0.058,0.695,0.302
      l11.979,18.299c0.176,0.303-0.008,0.641-0.332,0.699l-3.838,0.691c-0.326,0.058-0.559-0.053-0.725-0.297l-0.982-1.561
      c-0.201-0.269-0.434-0.379-0.699-0.331l-6.317,1.136c-0.267,0.048-0.446,0.233-0.54,0.555l-0.377,1.804
      c-0.069,0.287-0.25,0.473-0.575,0.531l-3.838,0.69c-0.325,0.059-0.613-0.194-0.555-0.54L246.007,56.497z M247.418,70.783
      c-0.051,0.223,0.06,0.325,0.265,0.288l3.779-0.68c0.207-0.037,0.272-0.171,0.147-0.362l-2.717-4.266
      c-0.127-0.191-0.363-0.148-0.414,0.074L247.418,70.783z"/>
    <path fill="#E0D0E5" d="M276.329,54.507c0.282,0.192,0.328,0.43,0.137,0.713l-2.031,3.045c-0.193,0.253-0.519,0.364-0.771,0.139
      c-0.948-0.721-1.961-1.047-3.009-0.98c-1.707,0.108-2.507,0.761-2.433,1.928l0.006,0.09c0.078,1.228,1.127,1.671,4.279,2.072
      c4.03,0.494,6.133,2.345,6.34,5.608l0.008,0.12c0.131,2.065-0.51,3.789-1.959,5.114c-1.448,1.325-3.387,2.049-5.871,2.208
      c-2.484,0.158-5.273-0.686-7.28-2.001c-0.249-0.135-0.334-0.52-0.14-0.743l2.059-3.106c0.191-0.283,0.431-0.299,0.714-0.106
      c1.169,0.887,2.919,1.467,4.354,1.376c2.277-0.145,3.242-1.019,3.166-2.216l-0.008-0.12c0.072-0.756-0.559-1.227-1.148-1.52
      c-0.154-0.08-0.462-0.181-0.889-0.274l-1.035-0.204l-1.338-0.216c-0.061-0.026-0.149-0.02-0.271-0.043l-1.458-0.238
      c-0.335-0.068-0.827-0.247-1.445-0.508c-0.588-0.263-1.088-0.562-1.441-0.93c-0.678-0.709-1.396-2.106-1.512-3.902l-0.008-0.12
      c-0.123-1.946,0.467-3.546,1.738-4.8c1.303-1.255,3.061-1.969,5.276-2.11C272.454,52.65,274.442,53.215,276.329,54.507"/>
    <path fill="#E0D0E5" d="M293.782,62.55c0.278-2.956,1.434-5.257,3.489-6.93c2.061-1.702,4.537-2.401,7.434-2.126
      c2.302,0.219,4.269,1.069,5.875,2.547c0.248,0.235,0.257,0.477,0.019,0.756l-2.383,2.575c-0.297,0.273-0.539,0.28-0.783-0.014
      c-0.795-0.829-1.863-1.322-3.146-1.444c-3.225-0.307-5.342,1.662-5.666,5.096l-0.166,1.732c-0.319,3.374,1.388,5.706,4.611,6.012
      c1.226,0.117,2.334-0.14,3.33-0.798c0.291-0.214,0.562-0.188,0.744,0.101l1.91,3.044c0.188,0.229,0.092,0.611-0.16,0.738
      c-1.795,1.125-3.885,1.559-6.244,1.335c-2.957-0.281-5.258-1.434-6.936-3.432c-1.674-2.027-2.373-4.504-2.092-7.46L293.782,62.55z"
      />
    <path fill="#E0D0E5" d="M325.341,57.465c0.174-0.239,0.41-0.341,0.703-0.278l0.704,0.151c0.293,0.063,0.468,0.254,0.527,0.543
      l4.131,21.475c0.047,0.348-0.25,0.59-0.574,0.521l-3.811-0.819c-0.324-0.07-0.498-0.26-0.559-0.55l-0.314-1.816
      c-0.084-0.325-0.258-0.516-0.521-0.572l-6.275-1.349c-0.266-0.056-0.502,0.046-0.711,0.308l-1.033,1.527
      c-0.174,0.238-0.412,0.341-0.733,0.272l-3.812-0.82c-0.322-0.069-0.494-0.413-0.309-0.71L325.341,57.465z M321.22,71.215
      c-0.133,0.186-0.068,0.322,0.137,0.367l3.754,0.806c0.205,0.044,0.318-0.054,0.273-0.278l-0.894-4.978
      c-0.043-0.225-0.278-0.275-0.412-0.089L321.22,71.215z"/>
    <path fill="#E0D0E5" d="M342.353,61.713c0.09-0.255,0.424-0.392,0.68-0.302l0.424,0.149c0.199,0.069,0.32,0.175,0.394,0.328
      l6.754,14.006c0.072,0.152,0.338,0.214,0.418-0.013l3.477-9.907c0.089-0.254,0.396-0.401,0.648-0.312l3.539,1.242
      c0.254,0.089,0.43,0.405,0.34,0.66l-6.676,19.021c-0.09,0.254-0.424,0.392-0.678,0.302l-0.48-0.169
      c-0.199-0.069-0.367-0.224-0.459-0.415l-6.604-13.889c-0.091-0.191-0.365-0.224-0.443,0.003l-3.479,9.906
      c-0.088,0.255-0.395,0.402-0.649,0.312l-3.537-1.242c-0.256-0.09-0.432-0.405-0.342-0.66L342.353,61.713z"/>
    <path fill="#E0D0E5" d="M370.812,82.977c1.464-2.583,3.454-4.212,6.017-4.898c2.574-0.713,5.146-0.324,7.677,1.11
      c2.034,1.153,3.459,2.718,4.295,4.709c0.186,0.345,0.092,0.569-0.25,0.685l-3.269,1.388c-0.315,0.131-0.539,0.04-0.684-0.317
      c-0.438-1.111-1.211-1.997-2.281-2.603c-2.713-1.538-5.621-0.601-7.277,2.321l-0.858,1.514c-1.67,2.948-1.039,5.788,1.676,7.325
      c0.99,0.562,2.053,0.819,3.172,0.729c0.281-0.012,0.488-0.135,0.652-0.422l0.709-1.253c0.104-0.183,0.059-0.346-0.125-0.45
      l-2.348-1.33c-0.234-0.133-0.351-0.475-0.218-0.71l1.242-2.192c0.162-0.287,0.406-0.355,0.721-0.177l6.367,3.608
      c0.287,0.162,0.354,0.407,0.191,0.694l-4.955,8.742c-0.133,0.234-0.459,0.325-0.693,0.192l-0.442-0.252
      c-0.209-0.118-0.349-0.3-0.416-0.545l-0.482-1.825c-0.057-0.204-0.213-0.293-0.442-0.251c-1.914,0.397-3.816,0.043-5.748-1.051
      c-2.348-1.33-3.821-3.234-4.405-5.668c-0.57-2.461-0.146-4.977,1.32-7.56L370.812,82.977z"/>
    <path fill="#E0D0E5" d="M392.45,95.632c1.791-2.368,3.98-3.722,6.586-4.083c2.604-0.361,5.08,0.345,7.449,2.136
      c2.367,1.792,3.721,3.982,4.082,6.587s-0.344,5.08-2.137,7.449l-1.049,1.388c-1.791,2.368-4,3.745-6.604,4.107
      c-2.588,0.338-5.063-0.368-7.432-2.16c-2.369-1.792-3.722-3.981-4.103-6.563c-0.36-2.605,0.363-5.104,2.154-7.473L392.45,95.632z
       M395.277,99.952c-2.117,2.799-1.812,5.626,0.748,7.562c2.562,1.937,5.363,1.462,7.48-1.337l1.051-1.388
      c2.117-2.799,1.811-5.626-0.75-7.563c-2.56-1.936-5.363-1.461-7.48,1.338L395.277,99.952z"/>
  </g>
  <!--Moon-->
  <path class="animated lightSpeedIn delay600ms" fill="#FEFCE6" d="M452.738,268.232c0,93.616-75.891,169.506-169.508,169.506s-169.509-75.891-169.509-169.506
    c0-93.619,75.892-169.509,169.509-169.509S452.738,174.614,452.738,268.232"/>
  <!--Background-->
  <path class="animated bounceInLeft" fill="#E0D0E5" d="M283.229,288.053c58.368,0,110.332,27.416,143.723,70.072c16.332-26.059,25.787-56.869,25.787-89.893
    c0-93.618-75.891-169.51-169.508-169.51c-93.618,0-169.508,75.892-169.508,169.51c0,33.023,9.452,63.833,25.786,89.893
    C172.897,315.469,224.86,288.053,283.229,288.053"/>
  <g class="animated lightSpeedIn delay1s">
    <path fill="#D9D9DA" d="M351.944,329.117c15.363,5.621,5.426,14.883-2.188,8.117C340.88,329.344,340.664,324.988,351.944,329.117"/>
    <path fill="#D9D9DA" d="M315.073,392.219c13.648-3.869,34.232,8.881,9.929,16.072C300.69,415.48,289.694,399.408,315.073,392.219"/>
    <path fill="#D9D9DA" d="M228.362,383.65c10.144,2.504,26.646,18.873-2.961,14.938C195.794,394.648,197.486,376.039,228.362,383.65"
      />
    <path fill="#D9D9DA" d="M189.083,329.117c18.58-9.648,21.52,3.887,3.754,13.191C175.073,351.613,166.837,340.666,189.083,329.117"/>
    <path fill="#D9D9DA" d="M412.195,378.229c-12.93-10.965-35.297-8.85-8.028,8.767C408.793,384.258,412.195,378.229,412.195,378.229"
      />
  </g>
  <!--Panda-->
  <g class="animated rollIn delay1s">
    <path fill="#CECFD1" d="M246.255,186.592c-22.842,0-51.207,0-55.025,6.936c-3.821,6.936-1.828,23.418,0.491,33.569"/>
    <path fill="#CECFD1" d="M245.474,186.592c22.843,0,51.207,0,55.027,6.936c3.821,6.936,1.286,28.621-1.033,38.771"/>
    <path fill="#444346" d="M305.656,291.312c-1.104,24.278-5.401,34.336-5.883,42.139c-0.477,7.803,1.277,26.355-16.764,26.527
      c-18.041,0.174-18.201-3.121-19.797-9.017c-1.598-5.896-4.187-19.422-14.85-19.422s-13.252,13.526-14.849,19.422
      c-1.596,5.896-1.756,9.188-19.797,9.017c-18.043-0.172-16.285-18.726-16.766-26.527c-0.478-7.803-4.947-17.859-6.054-42.139H305.656
      z"/>
    <path fill="#FBFBFC" d="M290.353,235.266l17.674,31.362c0.39,2.517,0.592,5.084,0.592,7.698c0,30.26-27.016,54.791-60.341,54.791
      c-33.322,0-60.338-24.531-60.338-54.791c0-5.023,0.745-9.891,2.139-14.511l10.114-24.549l14.873-30.957l10.468-2.786l29.219,6.685
      l16.414-4.296l6.594,4.526L290.353,235.266z"/>
    <path fill="#444346" d="M202.823,211.227c-4.895,7.351-19.045,19.406-27.135,37.207c-8.093,17.8-12.899,39.648,4.885,45.234
      c18.173,5.711,16.486-24.642,22.162-45.928c5.757-21.589,15.916-25.187,17.146-43.867
      C207.663,202.505,205.329,207.459,202.823,211.227"/>
    <path fill="#444346" d="M266.569,210.038c-4.522,10.323-11.963,17.059-20.371,17.059c-8.488,0-15.988-6.864-20.5-17.353"/>
    <path fill="#444346" d="M338.228,236.348c-2.639-3.595-11.102-1.15-17.965,3.449c-6.113,4.096-14.82-5.425-20.894-14.02
      c-15.026-21.268-16.646-20.343-28.204-21.865c0,0,20.59,44.944,25.098,52.52c4.512,7.575,17.377,18.574,29.629,15.568
      c12.256-3.004,18.789-3.223,19.022-13.625C345.11,249.453,346.694,238.66,338.228,236.348"/>
    <path fill="#FBFBFC" d="M205.74,175.612c0-22.345,18.113-40.458,40.457-40.458c22.343,0,40.455,18.113,40.455,40.458
      c0,22.342-18.112,40.455-40.454,40.455C223.854,216.067,205.74,197.954,205.74,175.612"/>
    <path fill="#F7DCB8" d="M246.198,163.821c-18.727,0-34.445,6.298-34.445,6.298s0.46,38.089,34.445,38.089
      c33.983,0,33.753-39.889,33.753-39.889S265.848,163.821,246.198,163.821"/>
    <path fill="#D9D9DA" d="M214.499,153.712c0.793,1.002,5.396-0.042,8.948-2.857c3.554-2.813,4.71-6.334,3.915-7.335
      c-0.792-1.002-4.312,0.469-7.865,3.284C215.942,149.618,213.706,152.712,214.499,153.712"/>
    <path fill="#D9D9DA" d="M277.599,153.712c-0.793,1.002-5.199,0.208-8.754-2.607c-3.552-2.813-4.904-6.584-4.113-7.585
      c0.795-1.002,4.318,0.469,7.869,3.284C276.154,149.618,278.392,152.712,277.599,153.712"/>
    <path fill="#444346" d="M226.065,145.688c-0.235-4.517-0.93-13.071-7.172-13.995c-6.242-0.925-13.06,5.663-11.326,11.905
      c1.733,6.243,7.404,8.461,9.529,9.185C219.351,152.009,224.188,148.589,226.065,145.688"/>
    <path fill="#444346" d="M275.294,153.205c2.773-1.01,7.162-2.677,8.895-8.919c1.734-6.242-5.086-12.83-11.328-11.905
      c-6.241,0.924-6.792,8.753-7.024,13.27c0,0,2.101,2.471,4.334,4.292C272.4,151.762,275.294,153.205,275.294,153.205"/>
  </g>
  <!--reflection-->
  <path class="animated fadeIn delay2400ms" fill="#FBFBFC" d="M216.46,172.144c5.231-1.156,6.852-2.312,14.018-3.237c-8.323,5.317-12.156,14.565-9.545,19.881
    C215.682,178.386,216.46,172.144,216.46,172.144"/>
  <!--Flag-->
  <g class="animated bounceInDown delay2s">
    <path fill="#D9D9DA" d="M337.397,121.052c2.082,0.347,3.471,0,4.855,0c-1.386,6.242-21.847,165.065-13.523,232.339
      c-1.732,2.082-3.469,1.387-5.201,0C322.14,326.689,320.06,190.406,337.397,121.052"/>
    <path fill="#D9D9DA" d="M329.153,249.413c-2.574,38.944-3.613,78.188-0.424,103.978c-1.732,2.082-3.469,1.387-5.201,0
      c-0.709-13.686-1.604-56.158,0.027-103.651C324.856,249.416,327.632,248.954,329.153,249.413"/>
    <path fill="#E98FAD" d="M340.856,130.656c6.945-2.553,31.104-12.958,54.106,4.499c23.002,17.453,68.432,3.12,70.163,2.427
      c5.664,52.246-1.502,62.995-7.051,76.174c-5.549,13.177-11.213,22.656-10.403,27.163c-8.205,2.082-52.132,8.671-77.792-9.595
      c-25.662-18.262-30.742-18.494-38.545-14.332C332.082,188.21,337.955,141.185,340.856,130.656"/>
    <path fill="#E98FAD" d="M335.069,131.312c1.678-0.982,4.529-1.638,6.088-0.521c-0.739,3.331-3.647,66.366-9.481,86.388
      c-1.029-1.477-5.07-0.69-6.674,1.242C326.173,188.055,328.214,158.736,335.069,131.312"/>
    <path fill="#FFFFFF" d="M409.922,152.039c-35.238-11.15-39.46,10.973-48.424,19.932c-8.963,8.957-9.688,15.159-9.538,19.831
      c0.149,4.675,6.071,13.746,12.76,18.253c6.686,4.508,11.818,4.412,14.872,6.167c3.055,1.754,4.514,5.183,10.199,6.314
      c5.688,1.131,7.715-1.834,11.733-1.461c4.021,0.375,10.392,3.354,14.834,3.176c4.443-0.177,15.062-5.384,16.939-9.504
      c1.879-4.119,5.646-10.428,0.383-27.105C428.422,170.964,438.381,161.044,409.922,152.039"/>
    <path fill="#4B4B4D" d="M423.488,167.36c0,0,4.963-14.547,14.463-6.219c9.5,8.327-8.469,13.673-8.469,13.673
      s0.262-3.229-1.387-5.051C426.445,167.94,423.488,167.36,423.488,167.36"/>
    <path fill="#4B4B4D" d="M411.254,179.661c5.383-1.132,9.487,3.202,8.307,9.304c-0.662,3.424,4.582,5.866,6.562,8.732
      c1.613,2.332-7.081,10.881-12.264,8.901c-2.043-0.779-6.225-8.168-6.981-10.691C404.197,186.981,405.331,180.906,411.254,179.661"/>
    <path fill="#4B4B4D" d="M388.062,173.729c4.57,1.511,3.467,10.139-2.84,14.29c-6.305,4.148-13.121,12.661-19.716,5.37
      c-6.593-7.29,0.873-13.385,7.105-11.962C378.846,182.849,379.547,170.91,388.062,173.729"/>
    <path fill="#4B4B4D" d="M383.223,155.429c0,0,3.301-12.28-9.197-8.923c-12.495,3.355,0.057,13.438,0.057,13.438
      s1.552-3.309,3.98-4.187C380.493,154.877,383.223,155.429,383.223,155.429"/>
    <path fill="#FFFFFF" d="M383.909,178.55c-2.211-0.432-3.934,5.496-2.147,6.056C383.545,185.166,386.12,178.985,383.909,178.55"/>
    <path fill="#FFFFFF" d="M412.234,183.965c2.119-0.216,1.004,7.334-0.834,7.118C409.562,190.868,410.113,184.185,412.234,183.965"/>
    <path fill="#4B4B4D" d="M396.247,197.455c8.267,1.561,6.185,4.606-1.827,5.452C388.551,199.348,386.479,195.614,396.247,197.455"/>
    <line fill="none" stroke="#4B4B4D" stroke-miterlimit="10" x1="394.42" y1="202.309" x2="391.152" y2="212.919"/>
    <path fill="none" stroke="#4B4B4D" stroke-miterlimit="10" d="M381.752,205.884c1.266,0.96,6.039,9.898,19.717,6.381"/>
  </g>
  <!--Panda part in front of the flag-->
  <g class="animated rollIn delay1s">
    <path fill="#4B4B4D" d="M343.978,240.417c-2.658-5.894-8.896-6.022-10.988-5.753c7.926,0,7.959,10.734,2.058,10.557
      c-7.047-0.211-12.265,1.434-13.392,1.763c-7.489,2.178-4.151,19.932,7.498,17.183c-6.854,2.646-3.391,8.539,2.181,7.015
      c5.571-1.523,12.581-3.633,13.284-8.062C345.319,258.69,346.636,246.312,343.978,240.417"/>
  </g>
  <!--Nameplates-->
  <g class="animated fadeIn delay2800ms">
    <path fill="#E98FAD" d="M202.772,210.92c0.554,5.008-3.607,11.074-8.102,10.213C198.271,216.108,201.506,212.874,202.772,210.92"/>
    <path fill="#E98FAD" d="M258.276,241.631c0,6.313,5.117,11.43,11.431,11.43c6.311,0,11.428-5.117,11.428-11.43
      c0-6.311-5.117-11.428-11.428-11.428C263.394,230.204,258.276,235.32,258.276,241.631"/>
    <path fill="#FFFFFF" d="M270.927,234.717c-6.979-0.754-6.938,3.524-8.269,5.53c-1.333,2.003-1.235,3.185-1.032,4.05
      c0.203,0.865,1.646,2.333,3.061,2.92c1.414,0.588,2.367,0.378,3,0.59c0.637,0.213,1.035,0.795,2.137,0.795
      c1.104-0.003,1.369-0.633,2.132-0.715c0.764-0.08,2.061,0.235,2.883,0.036c0.818-0.2,2.603-1.569,2.797-2.407
      c0.195-0.837,0.66-2.153-0.945-5.061C275.081,237.547,276.565,235.327,270.927,234.717"/>
    <path fill="#4B4B4D" d="M274.028,237.061c0,0,0.38-2.895,2.459-1.7c2.082,1.195-1.062,2.863-1.062,2.863s-0.072-0.611-0.447-0.887
      C274.601,237.058,274.028,237.061,274.028,237.061"/>
    <path fill="#4B4B4D" d="M272.211,239.811c0.96-0.411,1.888,0.241,1.896,1.421c0.004,0.663,1.073,0.922,1.55,1.38
      c0.387,0.375-0.91,2.293-1.949,2.119c-0.41-0.069-1.465-1.289-1.702-1.73C271.172,241.439,271.155,240.266,272.211,239.811"/>
    <path fill="#4B4B4D" d="M267.671,239.578c0.908,0.109,1.024,1.758,0.008,2.766c-1.019,1.01-1.969,2.853-3.469,1.741
      c-1.504-1.11-0.341-2.527,0.873-2.495C266.296,241.622,265.979,239.373,267.671,239.578"/>
    <path fill="#4B4B4D" d="M266.082,236.351c0,0,0.152-2.41-2.047-1.317c-2.201,1.096,0.515,2.503,0.515,2.503s0.164-0.677,0.583-0.931
      C265.554,236.351,266.082,236.351,266.082,236.351"/>
    <path fill="#FFFFFF" d="M267.079,240.632c-0.43,0-0.526,1.168-0.175,1.207C267.257,241.875,267.507,240.628,267.079,240.632"/>
    <path fill="#FFFFFF" d="M272.556,240.576c0.387-0.12,0.461,1.329,0.111,1.356C272.318,241.96,272.169,240.697,272.556,240.576"/>
    <path fill="#4B4B4D" d="M270.085,243.688c1.599-0.02,1.324,0.627-0.135,1.085C268.723,244.33,268.197,243.71,270.085,243.688"/>
    <line fill="none" stroke="#4B4B4D" stroke-miterlimit="10" x1="269.927" y1="244.66" x2="269.717" y2="246.761"/>
    <path fill="none" stroke="#4B4B4D" stroke-miterlimit="10" d="M267.701,245.801c0.271,0.131,1.496,1.618,3.911,0.45"/>

  </g>
  <!--Star-->
  <polygon class="animated bounceInRight delay3s" fill="#FEF8BE" points="398.396,279.428 393.932,284.018 388.793,281.432 391.881,286.895 387.65,291.227 394.342,289.469
    396.631,294.553 397.318,288.672 402.788,287.039 397.709,285.311 "/>
  <!--Star-->
  <polygon class="animated bounceInLeft delay3200ms" fill="#FEF8BE" points="85.653,202.307 90.382,213.434 101.192,212.384 92.035,219.897 96.527,230.41 85.945,222.75
    78.446,230.144 81.248,219.319 72.729,212.714 82.849,213.134 "/>
</svg>
