<?xml version="1.0" encoding="utf-8"?>
<!DOCTYPE svg PUBLIC "-//W3C//DTD SVG 1.1//EN" "http://www.w3.org/Graphics/SVG/1.1/DTD/svg11.dtd">
<svg version="1.1" id="Calque_1" xmlns="http://www.w3.org/2000/svg" xmlns:xlink="http://www.w3.org/1999/xlink" x="0px" y="0px"
	 viewBox="0 0 566.93 566.93" enable-background="new 0 0 566.93 566.93" xml:space="preserve">
  <!--Background-->
  <path class="animated bounceInLeft" fill="#DCEBD0" d="M453.508,268.23c0,93.618-75.891,169.508-169.507,169.508c-93.615,0-169.508-75.891-169.508-169.508
    c0-93.616,75.893-169.507,169.508-169.507C377.617,98.723,453.508,174.614,453.508,268.23"/>
  <!--text-->
  <g class="animated rotateInUpLeft delay3s">
    <path fill="#CBE1B7" d="M116.648,379.809c2.42-1.719,4.914-2.352,7.524-1.891c2.636,0.445,4.783,1.863,6.47,4.234
      c1.338,1.883,1.981,3.926,1.913,6.109c-0.014,0.342-0.192,0.504-0.559,0.508l-3.508-0.119c-0.4-0.047-0.562-0.226-0.501-0.603
      c0.107-1.143-0.218-2.272-0.965-3.323c-1.877-2.642-4.75-2.953-7.561-0.955l-1.418,1.008c-2.764,1.965-3.41,4.779-1.533,7.42
      c0.713,1.002,1.632,1.674,2.781,1.998c0.353,0.08,0.508,0.301,0.41,0.627l-1.055,3.436c-0.049,0.293-0.4,0.471-0.663,0.361
      c-2.022-0.621-3.719-1.918-5.092-3.85c-1.721-2.42-2.354-4.914-1.938-7.49c0.438-2.594,1.854-4.742,4.273-6.461L116.648,379.809z"/>
    <path fill="#CBE1B7" d="M141.521,396.836c0.28-0.09,0.532-0.033,0.732,0.191l0.479,0.535c0.201,0.225,0.229,0.479,0.107,0.75
      l-9.312,19.789c-0.166,0.309-0.551,0.33-0.77,0.084l-2.601-2.908c-0.219-0.246-0.247-0.504-0.127-0.771l0.815-1.654
      c0.124-0.312,0.097-0.567-0.084-0.77l-4.276-4.787c-0.181-0.201-0.433-0.258-0.756-0.17l-1.735,0.625
      c-0.28,0.09-0.531,0.033-0.752-0.213l-2.599-2.908c-0.221-0.246-0.156-0.625,0.17-0.756L141.521,396.836z M130.09,405.521
      c-0.217,0.071-0.246,0.219-0.106,0.377l2.56,2.863c0.141,0.153,0.29,0.143,0.386-0.064l2.211-4.549
      c0.097-0.207-0.062-0.387-0.28-0.314L130.09,405.521z"/>
    <path fill="#CBE1B7" d="M151.466,407.67c0.178-0.201,0.539-0.203,0.742-0.025l0.338,0.299c0.156,0.14,0.229,0.283,0.239,0.453
      l0.988,15.517c0.012,0.17,0.232,0.326,0.394,0.146l6.946-7.871c0.181-0.203,0.519-0.225,0.722-0.045l2.811,2.48
      c0.203,0.18,0.246,0.537,0.068,0.74l-13.342,15.112c-0.179,0.203-0.539,0.205-0.742,0.025l-0.382-0.338
      c-0.157-0.139-0.256-0.346-0.27-0.557l-0.893-15.354c-0.016-0.211-0.257-0.346-0.414-0.166l-6.949,7.873
      c-0.178,0.203-0.518,0.223-0.719,0.045l-2.812-2.481c-0.201-0.179-0.246-0.537-0.065-0.738L151.466,407.67z"/>
    <path fill="#CBE1B7" d="M176.571,428.076c0.146-0.23,0.476-0.303,0.704-0.16l11.462,7.242c0.229,0.145,0.329,0.492,0.185,0.721
      l-1.762,2.789c-0.146,0.229-0.501,0.287-0.729,0.143l-7.558-4.774c-0.179-0.111-0.345-0.074-0.454,0.102l-1.988,3.146
      c-0.111,0.178-0.074,0.344,0.104,0.455l5.478,3.461c0.279,0.176,0.346,0.467,0.168,0.744l-1.537,2.436
      c-0.145,0.229-0.5,0.287-0.729,0.144l-5.479-3.462c-0.178-0.11-0.342-0.073-0.471,0.13l-1.892,2.991
      c-0.11,0.179-0.074,0.345,0.103,0.455l7.559,4.773c0.229,0.145,0.328,0.492,0.185,0.721l-1.764,2.789
      c-0.144,0.229-0.5,0.287-0.728,0.144l-11.463-7.242c-0.229-0.144-0.304-0.476-0.16-0.703L176.571,428.076z"/>
    <path fill="#CBE1B7" d="M193.216,438.59c-0.046-0.389,0.312-0.649,0.664-0.479l4.108,1.977c0.218,0.104,0.341,0.262,0.384,0.519
      l0.887,6.116c0.032,0.281,0.302,0.412,0.541,0.263l5.333-3.129c0.226-0.125,0.427-0.13,0.644-0.023l4.109,1.975
      c0.352,0.17,0.372,0.613,0.039,0.818l-9.365,5.217c-0.358,0.193-0.503,0.492-0.429,0.894l2.023,12.059
      c0.048,0.389-0.312,0.65-0.637,0.494l-4.19-2.017c-0.216-0.104-0.341-0.264-0.384-0.518l-1.098-7.617
      c-0.018-0.242-0.288-0.371-0.486-0.233l-6.637,3.899c-0.227,0.123-0.427,0.127-0.643,0.023l-4.191-2.017
      c-0.324-0.155-0.372-0.61-0.012-0.805l10.683-5.949c0.359-0.192,0.503-0.489,0.429-0.893L193.216,438.59z"/>
    <path fill="#CBE1B7" d="M213.468,447.779c0.089-0.256,0.395-0.402,0.65-0.314l14.217,4.965c0.255,0.088,0.401,0.396,0.312,0.648
      l-1.088,3.115c-0.089,0.256-0.394,0.401-0.647,0.313l-4.531-1.584c-0.199-0.067-0.353,0.006-0.433,0.232l-5.27,15.094
      c-0.109,0.312-0.338,0.424-0.678,0.305l-3.54-1.235c-0.312-0.109-0.423-0.339-0.313-0.65l5.271-15.094
      c0.079-0.228,0.006-0.379-0.223-0.459l-4.502-1.572c-0.256-0.088-0.401-0.395-0.312-0.648L213.468,447.779z"/>
    <path fill="#CBE1B7" d="M233.116,454.312c0.062-0.265,0.352-0.441,0.613-0.382l13.2,3.109c0.264,0.063,0.471,0.359,0.409,0.621
      l-0.757,3.211c-0.062,0.266-0.381,0.438-0.644,0.375l-8.703-2.051c-0.205-0.049-0.35,0.041-0.396,0.246l-0.854,3.621
      c-0.049,0.204,0.041,0.35,0.246,0.396l6.308,1.486c0.321,0.076,0.478,0.328,0.401,0.649l-0.66,2.804
      c-0.062,0.264-0.381,0.436-0.644,0.373l-6.308-1.486c-0.205-0.049-0.351,0.041-0.404,0.274l-0.812,3.445
      c-0.047,0.205,0.043,0.351,0.246,0.398l8.703,2.051c0.265,0.061,0.472,0.356,0.408,0.619l-0.756,3.213
      c-0.062,0.264-0.381,0.434-0.644,0.373l-13.2-3.111c-0.265-0.062-0.441-0.35-0.382-0.613L233.116,454.312z"/>
    <path fill="#CBE1B7" d="M252.529,458.645c0.03-0.268,0.328-0.475,0.598-0.442l0.444,0.051c0.209,0.025,0.353,0.103,0.457,0.234
      l9.663,12.184c0.104,0.135,0.377,0.135,0.405-0.104l1.218-10.431c0.03-0.268,0.297-0.479,0.565-0.446l3.725,0.436
      c0.269,0.031,0.509,0.301,0.479,0.568l-2.339,20.024c-0.032,0.271-0.327,0.478-0.597,0.445l-0.507-0.062
      c-0.209-0.022-0.406-0.137-0.539-0.305l-9.49-12.102c-0.132-0.168-0.406-0.14-0.436,0.1l-1.217,10.43
      c-0.031,0.269-0.298,0.479-0.566,0.447l-3.725-0.434c-0.27-0.031-0.509-0.304-0.479-0.57L252.529,458.645z"/>
    <path fill="#CBE1B7" d="M283.498,460.465c2.999-0.049,5.443,0.812,7.304,2.58c1.857,1.74,2.826,4.096,2.875,7.006l0.027,1.74
      c0.053,3.238-1.136,5.869-3.029,7.43c-1.896,1.562-4.283,2.381-6.833,2.422l-7.079,0.115c-0.27,0.004-0.514-0.229-0.52-0.502
      l-0.327-20.158c-0.005-0.27,0.23-0.514,0.502-0.518L283.498,460.465z M281.108,464.824c-0.211,0.004-0.328,0.125-0.325,0.334
      l0.194,11.881c0.002,0.209,0.125,0.328,0.334,0.324l2.461-0.041c3.15-0.051,5.127-2.123,5.072-5.453l-0.029-1.74
      c-0.055-3.358-2.037-5.396-5.248-5.346L281.108,464.824z"/>
    <path fill="#CBE1B7" d="M315.921,472.797c-0.035-0.207-0.13-0.404-0.248-0.565l-9.711-12.128c-0.252-0.229-0.086-0.686,0.297-0.752
      l4.141-0.707c0.269-0.045,0.465,0.043,0.652,0.255l6.084,8c0.074,0.077,0.139,0.098,0.227,0.084l0.029-0.007
      c0.061-0.01,0.113-0.049,0.158-0.147l3.082-9.566c0.108-0.262,0.266-0.41,0.53-0.455l4.142-0.707c0.385-0.065,0.69,0.31,0.531,0.609
      l-5.136,14.664c-0.059,0.191-0.082,0.408-0.047,0.615l0.943,5.53c0.065,0.386-0.181,0.73-0.562,0.796l-3.371,0.575
      c-0.385,0.066-0.731-0.18-0.797-0.563L315.921,472.797z"/>
    <path fill="#CBE1B7" d="M331.448,464.641c-0.856-2.842-0.658-5.407,0.586-7.725s3.271-3.898,6.115-4.756
      c2.844-0.855,5.408-0.658,7.725,0.586c2.318,1.244,3.9,3.272,4.757,6.115l0.502,1.666c0.856,2.844,0.668,5.438-0.576,7.754
      c-1.254,2.289-3.281,3.871-6.125,4.729c-2.844,0.855-5.408,0.658-7.717-0.559c-2.316-1.244-3.908-3.301-4.765-6.146L331.448,464.641
      z M336.603,464.906c1.012,3.358,3.475,4.776,6.549,3.854c3.072-0.926,4.342-3.471,3.33-6.83l-0.502-1.666
      c-1.014-3.358-3.477-4.778-6.549-3.854s-4.344,3.471-3.33,6.83L336.603,464.906z"/>
    <path fill="#CBE1B7" d="M352.694,448.197c-0.111-0.246,0.037-0.576,0.285-0.687l3.426-1.526c0.246-0.109,0.562,0.012,0.674,0.258
      l5.011,11.235c1.075,2.412,3.065,3.267,5.368,2.238c2.328-1.039,3.023-3.09,1.949-5.502l-5.012-11.236
      c-0.109-0.245,0.012-0.562,0.258-0.674l3.453-1.539c0.246-0.11,0.564,0.013,0.674,0.259l5.013,11.233
      c1.051,2.357,1.165,4.607,0.307,6.73c-0.859,2.125-2.447,3.721-4.832,4.784c-2.385,1.062-4.633,1.179-6.789,0.398
      c-2.127-0.793-3.723-2.381-4.773-4.738L352.694,448.197z"/>
    <path fill="#CBE1B7" d="M373.946,438.279c-0.137-0.232-0.028-0.576,0.203-0.715l7.984-4.771c1.442-0.861,3.043-1.047,4.791-0.52
      c1.731,0.504,3.071,1.52,4.012,3.09l0.107,0.182c1.461,2.447,1.225,5.209-0.195,7.279c-0.135,0.186-0.119,0.385,0.041,0.535
      c1.535,1.459,3.647,1.84,5.502,0.905c0.299-0.143,0.52-0.063,0.688,0.22l1.632,2.729c0.139,0.232,0.069,0.588-0.162,0.728
      c-1.933,1.151-3.943,1.586-6.027,1.258c-2.057-0.344-3.855-1.367-5.395-3.068c-0.148-0.188-0.341-0.217-0.548-0.094l-1.467,0.877
      c-0.207,0.123-0.248,0.289-0.125,0.494l3.414,5.719c0.14,0.23,0.058,0.562-0.176,0.699l-3.221,1.922
      c-0.31,0.186-0.556,0.123-0.726-0.16L373.946,438.279z M382.742,443.648c0.123,0.204,0.289,0.245,0.494,0.123l2.652-1.585
      c1.365-0.813,1.688-2.266,0.826-3.706l-0.107-0.181c-0.861-1.442-2.209-1.826-3.625-0.979l-2.652,1.584
      c-0.207,0.123-0.248,0.287-0.125,0.494L382.742,443.648z"/>
    <path fill="#CBE1B7" d="M399.386,421.645c-0.17-0.209-0.115-0.565,0.094-0.737l2.893-2.384c0.209-0.172,0.548-0.139,0.72,0.068
      l10.186,12.361c0.133,0.162,0.301,0.178,0.486,0.024l5.996-4.938c0.207-0.172,0.547-0.139,0.717,0.068l2.098,2.547
      c0.172,0.209,0.142,0.547-0.067,0.717l-9.56,7.879c-0.209,0.172-0.569,0.158-0.742-0.051L399.386,421.645z"/>
    <path fill="#CBE1B7" d="M413.457,409.537c-0.188-0.195-0.182-0.533,0.015-0.721l2.723-2.623c0.193-0.188,0.533-0.183,0.722,0.014
      l13.985,14.518c0.188,0.197,0.18,0.535-0.014,0.724l-2.724,2.623c-0.192,0.188-0.532,0.182-0.721-0.015L413.457,409.537z"/>
    <path fill="#CBE1B7" d="M421.382,401.791c-0.203-0.18-0.226-0.518-0.047-0.721l8.993-10.188c0.179-0.202,0.519-0.225,0.72-0.045
      l2.476,2.185c0.201,0.178,0.223,0.518,0.045,0.719l-5.937,6.725c-0.14,0.158-0.129,0.328,0.028,0.467l3.666,3.236
      c0.181,0.158,0.351,0.146,0.488-0.01l4.288-4.859c0.178-0.201,0.537-0.244,0.74-0.066l2.157,1.906
      c0.203,0.178,0.267,0.514,0.048,0.762l-4.287,4.857c-0.14,0.158-0.129,0.328,0.028,0.467l4.882,4.307
      c0.2,0.181,0.202,0.541,0.022,0.744l-2.479,2.812c-0.181,0.203-0.519,0.224-0.722,0.045L421.382,401.791z"/>
    <path fill="#CBE1B7" d="M434.072,386.947c-0.221-0.158-0.274-0.492-0.119-0.713l7.877-11.041c0.156-0.221,0.511-0.301,0.729-0.146
      l2.688,1.918c0.222,0.156,0.259,0.517,0.103,0.734l-5.193,7.28c-0.121,0.17-0.094,0.338,0.076,0.461l3.029,2.16
      c0.172,0.121,0.34,0.094,0.461-0.078l3.764-5.274c0.191-0.271,0.484-0.317,0.756-0.127l2.345,1.674
      c0.219,0.156,0.258,0.517,0.102,0.734l-3.764,5.276c-0.121,0.172-0.095,0.338,0.102,0.479l2.881,2.058
      c0.172,0.12,0.34,0.094,0.463-0.078l5.191-7.279c0.158-0.221,0.51-0.301,0.73-0.146l2.686,1.919
      c0.221,0.155,0.258,0.516,0.102,0.735l-7.875,11.041c-0.157,0.221-0.491,0.274-0.711,0.119L434.072,386.947z"/>
    <path fill="#CBE1B7" d="M164.462,92.129c-0.15-0.225-0.084-0.557,0.14-0.707l7.835-5.233c1.422-0.949,2.985-1.2,4.758-0.761
      c1.757,0.415,3.147,1.362,4.164,2.884l0.115,0.175c1.083,1.621,1.478,3.343,1.187,5.124c-0.289,1.781-1.22,3.196-2.791,4.246
      l-3.742,2.5c-0.199,0.133-0.233,0.299-0.116,0.474l3.616,5.413c0.183,0.275,0.133,0.525-0.142,0.708l-3.118,2.083
      c-0.274,0.183-0.524,0.133-0.707-0.141L164.462,92.129z M170.844,92.448c-0.2,0.133-0.233,0.3-0.101,0.499l2.718,4.067
      c0.133,0.199,0.3,0.232,0.499,0.099l2.52-1.683c1.322-0.883,1.588-2.322,0.672-3.695l-0.116-0.174
      c-0.935-1.397-2.323-1.696-3.695-0.78L170.844,92.448z"/>
    <path fill="#CBE1B7" d="M187.587,77.722c-0.021-0.295,0.094-0.526,0.359-0.666l0.637-0.337c0.266-0.141,0.52-0.107,0.754,0.076
      l16.982,13.779c0.261,0.235,0.188,0.613-0.103,0.767l-3.445,1.827c-0.293,0.155-0.549,0.121-0.78-0.061l-1.41-1.188
      c-0.273-0.195-0.529-0.229-0.769-0.103l-5.672,3.008c-0.238,0.126-0.354,0.357-0.346,0.693l0.191,1.834
      c0.021,0.294-0.097,0.525-0.388,0.68l-3.444,1.826c-0.292,0.155-0.644,0.002-0.691-0.345L187.587,77.722z M193.283,90.899
      c0.019,0.228,0.154,0.292,0.34,0.193l3.394-1.799c0.186-0.098,0.207-0.247,0.031-0.39l-3.89-3.235
      c-0.18-0.144-0.391-0.031-0.371,0.197L193.283,90.899z"/>
    <path fill="#CBE1B7" d="M203.331,70.03c-0.097-0.252,0.071-0.572,0.323-0.668l0.422-0.159c0.195-0.075,0.357-0.071,0.513-0.002
      l14.186,6.373c0.154,0.07,0.396-0.054,0.312-0.278l-3.717-9.822c-0.098-0.253,0.044-0.562,0.296-0.657l3.508-1.328
      c0.254-0.096,0.59,0.033,0.686,0.286l7.139,18.857c0.095,0.252-0.073,0.572-0.325,0.668l-0.478,0.181
      c-0.195,0.074-0.426,0.064-0.617-0.023l-13.996-6.381c-0.192-0.087-0.425,0.065-0.34,0.289l3.717,9.822
      c0.097,0.252-0.043,0.562-0.296,0.657l-3.509,1.328c-0.252,0.095-0.59-0.034-0.686-0.286L203.331,70.03z"/>
    <path fill="#CBE1B7" d="M235.646,58.949c2.919-0.691,5.491-0.376,7.688,0.954c2.188,1.301,3.64,3.393,4.31,6.224l0.401,1.693
      c0.746,3.152,0.149,5.976-1.365,7.906c-1.516,1.931-3.672,3.243-6.152,3.831l-6.889,1.631c-0.264,0.063-0.551-0.115-0.614-0.378
      l-4.646-19.616c-0.062-0.263,0.117-0.552,0.379-0.614L235.646,58.949z M234.249,63.719c-0.205,0.048-0.293,0.193-0.246,0.397
      l2.738,11.56c0.049,0.204,0.191,0.293,0.396,0.245l2.394-0.567c3.065-0.726,4.551-3.174,3.783-6.414l-0.4-1.693
      c-0.773-3.27-3.147-4.834-6.271-4.095L234.249,63.719z"/>
    <path fill="#CBE1B7" d="M259.526,55.094c0.089-0.282,0.281-0.455,0.578-0.489l0.715-0.081c0.3-0.034,0.523,0.091,0.675,0.346
      l10.774,19.026c0.158,0.314-0.047,0.639-0.375,0.677l-3.873,0.442c-0.328,0.037-0.555-0.088-0.705-0.343l-0.879-1.62
      c-0.183-0.281-0.407-0.406-0.676-0.375l-6.377,0.729c-0.27,0.031-0.461,0.203-0.576,0.518l-0.49,1.777
      c-0.09,0.282-0.279,0.455-0.607,0.492l-3.874,0.443c-0.328,0.037-0.603-0.234-0.521-0.575L259.526,55.094z M260.017,69.438
      c-0.064,0.219,0.037,0.328,0.246,0.304l3.815-0.435c0.208-0.024,0.283-0.154,0.17-0.352l-2.438-4.431
      c-0.111-0.198-0.351-0.171-0.416,0.047L260.017,69.438z"/>
    <path fill="#CBE1B7" d="M290.284,55.152c0.268,0.214,0.293,0.455,0.077,0.722l-2.268,2.873c-0.213,0.237-0.545,0.322-0.781,0.078
      c-0.887-0.795-1.871-1.201-2.922-1.218c-1.709-0.028-2.559,0.558-2.578,1.728l-0.002,0.09c-0.02,1.23,0.992,1.757,4.104,2.408
      c3.977,0.815,5.926,2.827,5.871,6.096l-0.002,0.12c-0.033,2.07-0.812,3.738-2.361,4.943c-1.549,1.205-3.539,1.773-6.029,1.732
      c-2.489-0.04-5.203-1.104-7.1-2.576c-0.238-0.154-0.291-0.544-0.078-0.751l2.299-2.933c0.215-0.267,0.455-0.263,0.722-0.049
      c1.095,0.978,2.793,1.696,4.233,1.719c2.279,0.038,3.312-0.755,3.332-1.956l0.002-0.12c0.131-0.748-0.459-1.267-1.025-1.607
      c-0.147-0.092-0.444-0.217-0.862-0.344L283.9,65.82l-1.314-0.321c-0.061-0.031-0.149-0.032-0.27-0.064l-1.436-0.354
      c-0.328-0.095-0.805-0.313-1.4-0.622c-0.563-0.31-1.039-0.648-1.361-1.043c-0.618-0.76-1.227-2.21-1.194-4.01l0.002-0.12
      c0.03-1.95,0.746-3.499,2.115-4.646c1.397-1.147,3.208-1.718,5.428-1.682C286.567,52.991,288.507,53.713,290.284,55.152"/>
    <path fill="#CBE1B7" d="M299.791,53.697c1.228,0.093,2.109,1.123,2.021,2.319c-0.139,1.825-1.643,3.786-3.416,4.974
      c-0.289,0.249-0.594,0.287-0.852,0.116l-0.32-0.144c-0.231-0.108-0.295-0.474-0.065-0.697c0.625-0.705,0.971-1.31,1.01-1.818
      c0.038-0.509-0.076-0.969-0.349-1.351c-0.301-0.413-0.411-0.903-0.375-1.412C297.536,54.488,298.505,53.599,299.791,53.697"/>
    <path fill="#CBE1B7" d="M318.507,56.516c0.057-0.264,0.371-0.441,0.635-0.383l3.664,0.799c0.266,0.057,0.447,0.343,0.391,0.607
      l-1.676,7.68c-0.045,0.205,0.049,0.347,0.281,0.399l7.592,1.655c0.205,0.045,0.35-0.047,0.395-0.252l1.675-7.679
      c0.057-0.264,0.373-0.441,0.637-0.384l3.664,0.8c0.264,0.057,0.447,0.343,0.391,0.607l-4.299,19.697
      c-0.057,0.264-0.342,0.448-0.605,0.39l-3.663-0.799c-0.265-0.058-0.478-0.35-0.421-0.614l1.638-7.503
      c0.051-0.235-0.041-0.378-0.246-0.422l-7.592-1.657c-0.234-0.05-0.377,0.041-0.429,0.276l-1.637,7.504
      c-0.057,0.263-0.344,0.446-0.607,0.389l-3.661-0.799c-0.267-0.058-0.478-0.35-0.42-0.613L318.507,56.516z"/>
    <path fill="#CBE1B7" d="M344.582,62.813c0.093-0.254,0.429-0.388,0.683-0.296l3.527,1.272c0.252,0.091,0.397,0.399,0.305,0.652
      l-4.172,11.568c-0.896,2.483-0.054,4.477,2.317,5.332c2.396,0.865,4.318-0.132,5.215-2.614l4.173-11.568
      c0.092-0.254,0.399-0.398,0.653-0.306l3.556,1.282c0.254,0.092,0.397,0.399,0.307,0.653l-4.174,11.567
      c-0.875,2.426-2.351,4.126-4.439,5.062c-2.092,0.936-4.342,0.985-6.797,0.1c-2.453-0.886-4.154-2.36-5.166-4.415
      c-0.983-2.045-1.033-4.295-0.158-6.721L344.582,62.813z"/>
    <path fill="#CBE1B7" d="M364.3,80.173c1.358-2.641,3.285-4.349,5.815-5.137c2.547-0.815,5.133-0.53,7.722,0.802
      c2.079,1.071,3.563,2.578,4.479,4.535c0.197,0.338,0.113,0.565-0.223,0.695l-3.211,1.518c-0.312,0.144-0.539,0.061-0.695-0.29
      c-0.482-1.092-1.291-1.947-2.385-2.51c-2.775-1.428-5.646-0.376-7.183,2.612l-0.797,1.546c-1.553,3.015-0.809,5.828,1.968,7.256
      c1.014,0.522,2.084,0.736,3.198,0.601c0.281-0.023,0.484-0.155,0.638-0.448l0.657-1.281c0.097-0.187,0.045-0.348-0.143-0.444
      l-2.4-1.236c-0.239-0.124-0.369-0.461-0.246-0.7l1.152-2.241c0.152-0.294,0.396-0.371,0.715-0.206l6.508,3.35
      c0.293,0.151,0.371,0.395,0.222,0.688l-4.603,8.935c-0.123,0.241-0.446,0.344-0.688,0.221l-0.453-0.234
      c-0.213-0.11-0.357-0.286-0.437-0.529l-0.557-1.804c-0.063-0.202-0.225-0.284-0.453-0.233c-1.896,0.473-3.812,0.196-5.785-0.82
      c-2.401-1.236-3.948-3.079-4.631-5.489c-0.67-2.436-0.346-4.969,1.015-7.609L364.3,80.173z"/>
    <path fill="#CBE1B7" d="M402.198,93.201c0.107,0.325-0.004,0.541-0.328,0.647l-3.469,1.165c-0.309,0.081-0.633-0.029-0.697-0.363
      c-0.309-1.15-0.907-2.028-1.776-2.616c-1.416-0.958-2.449-0.933-3.105,0.036l-0.049,0.075c-0.688,1.018-0.131,2.012,2.115,4.258
      c2.885,2.857,3.414,5.607,1.582,8.314l-0.068,0.1c-1.16,1.714-2.723,2.684-4.68,2.845s-3.933-0.452-5.994-1.847
      c-2.062-1.396-3.75-3.771-4.533-6.039c-0.113-0.259,0.056-0.616,0.347-0.672l3.526-1.198c0.326-0.106,0.525,0.028,0.631,0.354
      c0.381,1.417,1.41,2.947,2.604,3.754c1.887,1.278,3.186,1.179,3.858,0.185l0.066-0.099c0.521-0.554,0.309-1.313,0.021-1.905
      c-0.074-0.159-0.255-0.427-0.535-0.761l-0.693-0.796l-0.926-0.988c-0.033-0.058-0.107-0.109-0.189-0.201l-1.008-1.08
      c-0.223-0.26-0.502-0.703-0.83-1.287c-0.305-0.568-0.516-1.11-0.569-1.618c-0.104-0.974,0.184-2.52,1.19-4.011l0.068-0.099
      c1.092-1.614,2.539-2.52,4.312-2.732c1.799-0.195,3.625,0.317,5.463,1.561C400.271,89.36,401.498,91.025,402.198,93.201"/>
  </g>
  <!--Ground-->
  <g class="animated lightSpeedIn delay1s">
    <path fill="#EEED94" d="M450.426,360.73c0,26.27-74.512,47.563-166.425,47.563c-91.914,0-166.426-21.294-166.426-47.563v-8.604
      h332.851V360.73L450.426,360.73z"/>
    <path fill="#FCF8CB" d="M450.426,350.807c0,26.271-74.512,47.566-166.425,47.566c-91.914,0-166.426-21.295-166.426-47.566
      c0-26.27,74.512-47.563,166.426-47.563C375.914,303.243,450.426,324.537,450.426,350.807"/>
  </g>
  <!--Panda part behind doll-->
  <g class="animated rollIn delay1400ms">
    <path fill="#444346" d="M358.739,307.539c8.42-2.178,36.998-13.275,44.086,9.35c7.088,22.623-51.342,47.992-88.153,24.619
      S348.696,310.137,358.739,307.539"/>
    <path fill="#FBFBFC" d="M244.046,146.887c-26.801,0-69.652,49.083-69.652,115.776c0,66.69,53.605,106.577,117.801,97.231
      c64.197-9.349,94.738-58.588,62.328-95.986c-27.35-31.556-31.496-57.296-34.279-76.789"/>
    <path fill="#444346" d="M296.651,156.354c34.592,0,114.527,44.876,94.428,78.533c-20.102,33.657-46.278,12.154-41.137-9.349
      c5.141-21.503-28.264-31.056-51.904-30.603C275.819,195.36,296.651,156.354,296.651,156.354"/>
    <path fill="#FBFBFC" d="M305.248,183.982c0.183,8.3,1.5,10.955,1.5,10.955l-10.493,1.488l-8.465-3.959l11.627-6.81L305.248,183.982z
      "/>
    <path fill="#4B4B4D" d="M316.813,100.298c5.691-9.661,26.867-1.559,13.279,15.894C316.503,133.644,323.397,103.799,316.813,100.298"
      />
    <path fill="#444346" d="M178.452,292.938c-4.683-3.162-23.595,8.992-2.142,28.625c21.455,19.633,20.209,3.74,20.521,0
      C197.144,317.822,178.452,292.938,178.452,292.938"/>
    <path fill="#F4F3F4" d="M244.046,146.887c-26.801,0-69.652,49.083-69.652,115.776c0,66.69,53.605,106.577,117.801,97.231
      c64.197-9.349-80.6-40.757-75.522-110.254C221.747,180.142,244.046,146.887,244.046,146.887"/>
  </g>
  <!--Doll-->
  <g class="animated bounceInRight delay2200ms">
    <path fill="#F7D09E" d="M351.562,208.125c1.814-19.058,8.23-30.818-0.061-34.821c-62.578,25.004-70.994,73.153-30.324,83.394
      c2.916,0.735,5.553,1.204,7.951,1.449c-3.123,11.327-10.902,38.265,4.67,41.132c17.764,3.272,6.809-20.435,15.09-49.717
      C354.401,238.502,350.47,219.579,351.562,208.125"/>
    <path fill="#F7D09E" d="M354.832,188.106c1.847-1.606,14.253,3.137,22.845,14.312c11.146,14.498,18.061,36.927,9.709,40.506
      c-14.789,6.338-10.316-17.036-19.799-32.462C358.106,195.036,348.287,193.798,354.832,188.106"/>
    <path fill="#F7D09E" d="M363.765,141.278c35.994,17.764,10.854,63.107-22.621,47.681
      C307.669,173.533,327.771,123.514,363.765,141.278"/>
    <path fill="#F2B972" d="M340.761,142.875c-2.722-15.005-23.117-6.521-10.998,6.6C330.962,146.042,335.024,141.7,340.761,142.875"/>
    <path fill="#F7D09E" d="M340.394,144.148c-3.246-13.099-20.658-6.947-9.271,5.063C331.978,146.318,335.291,142.807,340.394,144.148"
      />
    <path fill="#EEA6AF" d="M346.815,157.481c0,2.808-2.277,5.084-5.084,5.084c-2.809,0-5.084-2.276-5.084-5.084
      c0-2.807,2.275-5.083,5.084-5.083C344.537,152.398,346.815,154.674,346.815,157.481"/>
    <path fill="#F7D09E" d="M300.608,289.463c10.752-0.467,8.051-18.54,12.238-29.241l-19.25,2.595
      C291.728,272.167,289.856,289.932,300.608,289.463"/>
    <path fill="#F2B972" d="M348.423,169.075c5.141,1.714-1.693,4.548-1.693,4.548S342.076,166.959,348.423,169.075"/>
    <path fill="#EEA6AF" d="M367.114,165.213c0,2.807-2.274,5.084-5.084,5.084c-2.809,0-5.084-2.277-5.084-5.084
      c0-2.808,2.275-5.083,5.084-5.083C364.839,160.13,367.114,162.405,367.114,165.213"/>
    <path fill="#F3C1C9" d="M364.722,167.026c-1.224,1.812-3.416,2.47-4.902,1.467c-1.485-1.001-1.701-3.281-0.479-5.094
      c1.221-1.812,3.414-2.47,4.901-1.467C365.728,162.934,365.942,165.214,364.722,167.026"/>
    <path fill="#F3C1C9" d="M344.423,159.295c-1.222,1.812-3.416,2.468-4.902,1.467c-1.486-1.002-1.701-3.282-0.48-5.095
      c1.222-1.812,3.414-2.469,4.902-1.467C345.429,155.203,345.644,157.482,344.423,159.295"/>
    <path fill="#EEA6AF" d="M342.073,155.833c0,0.288-0.231,0.521-0.52,0.521c-0.289,0-0.521-0.233-0.521-0.521s0.232-0.52,0.521-0.52
      C341.841,155.313,342.073,155.545,342.073,155.833"/>
    <path fill="#EEA6AF" d="M343.796,157.156c0,0.287-0.232,0.52-0.521,0.52s-0.52-0.233-0.52-0.52c0-0.287,0.231-0.521,0.52-0.521
      S343.796,156.869,343.796,157.156"/>
    <path fill="#EEA6AF" d="M342.593,158.642c0,0.288-0.232,0.52-0.521,0.52s-0.52-0.232-0.52-0.52s0.231-0.52,0.52-0.52
      S342.593,158.354,342.593,158.642"/>
    <path fill="#EEA6AF" d="M340.8,157.481c0,0.289-0.232,0.521-0.521,0.521c-0.289,0-0.52-0.232-0.52-0.521
      c0-0.287,0.229-0.52,0.52-0.52C340.567,156.961,340.8,157.194,340.8,157.481"/>
    <path fill="#EEA6AF" d="M362.324,163.623c0,0.287-0.233,0.519-0.521,0.519s-0.521-0.232-0.521-0.519
      c0-0.288,0.232-0.521,0.521-0.521S362.324,163.335,362.324,163.623"/>
    <path fill="#EEA6AF" d="M364.048,164.946c0,0.287-0.232,0.521-0.521,0.521c-0.287,0-0.52-0.234-0.52-0.521
      c0-0.289,0.231-0.521,0.52-0.521S364.048,164.657,364.048,164.946"/>
    <path fill="#EEA6AF" d="M362.845,166.432c0,0.287-0.232,0.52-0.521,0.52s-0.521-0.233-0.521-0.52c0-0.288,0.233-0.521,0.521-0.521
      S362.845,166.144,362.845,166.432"/>
    <path fill="#EEA6AF" d="M361.052,165.271c0,0.287-0.232,0.521-0.521,0.521c-0.287,0-0.52-0.234-0.52-0.521s0.231-0.521,0.52-0.521
      S361.052,164.983,361.052,165.271"/>
    <path fill="#EEA6AF" d="M346.132,174.785c-0.938,1.198-1.047,4.018-1.047,4.018s-3.513,2.327-6.837-1.164
      c1.222,2.75,4.205,4.163,6.837,1.924c0.198,1.778,2.059,4.315,5.252,2.941c-2.619-0.635-4.103-1.398-4.523-3.664
      C345.39,176.575,346.132,174.785,346.132,174.785"/>
    <path fill="#F2B972" d="M373.53,152.392c11.953-9.469,21.664,10.375,3.898,12.221C378.796,161.242,378.614,155.298,373.53,152.392"
      />
    <path fill="#F7D09E" d="M372.966,153.591c11.09-7.69,20.1,8.428,3.616,9.926C377.851,160.779,377.683,155.952,372.966,153.591"/>
  </g>
  <!--Panda part in front of doll-->
  <g class="animated rollIn delay1400ms">
    <path fill="#4E4D4F" d="M199.169,173.304c10.635-7.976,40.202-17.535,28.516,11.916c-11.686,29.449,27.144,22.43,56.693,14.024
      c78.87-22.44,105.946,41.135,17.381,67.314C213.192,292.736,136.53,220.288,199.169,173.304"/>
    <path fill="#48484A" d="M199.169,173.304c-4.701,5.995-19.688,44.252-0.9,64.951c20.301,22.373,75.66,27.1,103.49,28.303
      C213.192,292.736,136.53,220.288,199.169,173.304"/>
    <path fill="#444346" d="M356.886,222.915c-1.121,15.048-17.92,32.646-55.127,43.644c-64.182,18.968-122.111-13.854-125.309-51.246
      c8.977,22.748,39.581,44.111,83.661,44.91C306.865,261.07,350.339,245.783,356.886,222.915"/>
    <path fill="#FBFBFC" d="M277.235,192.108c-78.733-9.548-61.235-110.666,9.816-105.523
      C358.894,91.784,345.72,200.412,277.235,192.108"/>
    <path fill="#F4F3F4" d="M321.985,128.047c-7.746-12.1-18.363,28.576-8.287,36.763c0,3.522,0.392,5.487,0.699,6.618
      c0.703,2.56-6.01,3.133-11.332,5.525c0.553,0.13,22.977-2.785,9.781-0.615c-1.719,10.289-27.463,15.055-30.551,16.222
      c14.045,1.028,25.584-4.15,33.772-11.199c8.451-7.273,13.357-16.526,15.221-22.163C328.097,150.193,315.933,128.773,321.985,128.047
      "/>
    <path fill="#4B4B4D" d="M312.763,152.152c12.182-1.054,14.396,3.806,0.936,12.658C301.31,158.809,300.58,153.206,312.763,152.152"/>
    <path fill="#E7D5E7" d="M277.002,167.69c4.023,9.994,28.216,15.893,35.845,8.648c3.166,3.645,7.561,0.85,7.561,0.85l3.228-3.884
      c0,0-4.326,3.501-9.236-1.875C307.619,174.001,294.532,181.48,277.002,167.69"/>
    <path fill="#4B4B4D" d="M282.144,131.929c-6.949,10.424-21.735,9.116-16.828,21.503c4.908,12.388,30.115,2.806,36.443-9.816
      c6.328-12.623,3.522-19.866-4.189-21.269C289.858,120.944,286.819,124.917,282.144,131.929"/>
    <path fill="#FBFBFC" d="M280.313,142.214c0,0,7.133,4.673,11.844,2.805c4.712-1.87,5.879-7.505,5.879-7.505L280.313,142.214z"/>
    <path fill="#4B4B4D" d="M330.992,140.632c0.646,2.733,3.779,3.711,3.779,3.711s-1.686,12.433-3.484,14.855
      c-2.721-2.044-6.838-6.052-11.278-13.738c-4.441-7.687-8.183-15.869-2.338-19.374C323.515,122.58,328.416,129.715,330.992,140.632"
      />
    <path fill="#FBFBFC" d="M320.397,139.549c1.258,3.427,4.479,9.373,8.648,4.678C326.524,143.391,321.996,140.587,320.397,139.549"/>
    <path fill="#4B4B4D" d="M250.122,110.893c-3.646-5.656-5.297-18.386,2.183-22.125c7.479-3.741,17.14-2.807,20.88,8.101
      C262.589,95.623,253.239,103.725,250.122,110.893"/>
    <path fill="#4B4B4D" d="M203.688,317.822c13.246-9.51,32.701-10.906,62.94,0c30.239,10.908,64.589,32.854,48.988,55.188
      c-15.602,22.334-23.135,1.843-44.625-0.963c-21.492-2.807-23.986,7.791-47.358,5.297
      C200.26,374.854,174.668,338.658,203.688,317.822"/>

  </g>
  <!--Heart-->
  <path class="animated bounceInLeft delay3s" fill="#F8D7C8" d="M122.694,190.323c1.416-20.012,21.648-17.656,23.106-5.581c1.459,12.076-11.657,31.182-14.89,32.845
    c-3.233,1.663-23.466-7.255-30.097-19.921C94.183,184.997,109.836,173.021,122.694,190.323"/>
  <!--Heart-->
  <path class="animated bounceInRight delay3200ms" fill="#F8D7C8" d="M431.16,271.711c0.828-12.97-12.362-13.216-14.35-5.59c-1.986,7.624,4.773,21.029,6.705,22.376
    c1.928,1.351,15.689-2.617,21.05-10.172C449.926,270.772,440.915,261.723,431.16,271.711"/>
</svg>
