<?xml version="1.0" encoding="utf-8"?>
<!DOCTYPE svg PUBLIC "-//W3C//DTD SVG 1.1//EN" "http://www.w3.org/Graphics/SVG/1.1/DTD/svg11.dtd">
<svg version="1.1" id="Calque_1" xmlns="http://www.w3.org/2000/svg" xmlns:xlink="http://www.w3.org/1999/xlink" x="0px" y="0px"
	 viewBox="0 0 566.93 566.93" enable-background="new 0 0 566.93 566.93" xml:space="preserve">
  <!--Background-->
  <circle class="animated bounceInLeft" fill="#F8D7C8" cx="283.229" cy="268.229" r="169.508"/>
  <!--Background objects-->
  <g>
    <!--Water-->
    <path class="animated bounceInDown delay800ms" fill="#D4EBF5" d="M452.739,268.462c0,93.615-75.894,169.506-169.508,169.506c-93.617,0-169.51-75.891-169.51-169.506
      c0-93.619,75.893-169.51,169.51-169.51C376.846,98.952,452.739,174.843,452.739,268.462"/>
    <!--Cloud-->
    <g class="animated bounceInRight delay1200ms">
      <path fill="#F8D0A0" d="M116.991,235.214H449.47c-15.454-77.696-84.002-136.262-166.24-136.262
        C200.995,98.952,132.444,157.518,116.991,235.214"/>
      <path fill="#F8D7C8" d="M215.137,115.567c11.238,0,11.238,6.148,11.238,10.379c14.309-0.907,28.652-18.034,39.604-7.082
        c1.584-8.684,9.037-12.84,29.499-12.84c20.463,0,33.17,20.859,57.01,20.859c23.839,0,32.264,9.23,31.421,12.131
        c1.713-0.72,4.396-1.054,7.575-0.992c-29.362-24.397-67.092-39.07-108.252-39.07c-42.768,0-81.816,15.855-111.635,41.988
        C188.5,140.442,204.011,115.567,215.137,115.567"/>
      <path fill="#F8D7C8" d="M443.897,214.38h-50.9H327.34c0,0-6.393-1.979,6.146-1.979c-0.982-2.899-0.492-7.571,7.623-7.571
        c8.114,0,16.409-12.123,26.231-7.125c2.584-7.705,13.596-8.556,18.791-3.359c0.752-4.12,4.286-6.092,13.996-6.092
        c9.709,0,15.738,9.897,27.049,9.897c11.312,0,8.424,7.813,8.023,9.188c1.047-0.44,2.846-1.426,5.315-2.16
        c-6.5-16.141-15.411-31.055-26.289-44.286c-8.146,0.159-17.144,0.198-26.5,0.198h-107.28H152.085
        c-3.315,4.045-6.45,8.24-9.383,12.582c6.194,3.349,12.926,6.172,20.851,6.172c19.455,0,26.33,7.535,25.643,9.902
        c4.705-1.979,18.347-0.416,26.382,5.205c8.035,5.619,28.716,4.121,28.716,8.254s-24.064,4.557-51.979,4.557H124.93
        c-3.384,8.82-6.058,17.992-7.938,27.451h332.478c-1.414-7.117-3.281-14.067-5.559-20.834H443.897z"/>
    </g>
    <!--Ground-->
    <path class="animated bounceInDown delay400ms" fill="#FEFCE6" d="M283.231,310.796c-65.014,0-124.289-20.573-169.078-54.365c-0.278,3.975-0.432,7.984-0.432,12.031
      c0,93.615,75.893,169.506,169.51,169.506c93.615,0,169.508-75.891,169.508-169.506c0-4.047-0.152-8.057-0.433-12.031
      C407.518,290.223,348.242,310.796,283.231,310.796"/>
    <!--Palm-->
    <g class="animated flipInY delay1800ms">
      <path fill="#F7DBB0" d="M124.334,327.624c15.062-83.848,39.028-117.375,39.028-117.375l-6.084-2.453
        c-10.543,13.975-29.476,49.797-40.825,91.14C117.388,306.038,121.828,318.833,124.334,327.624"/>
      <path fill="#D1BA98" d="M162.506,226.806c0,2.451-1.562,4.439-3.492,4.439c-1.931,0-3.494-1.988-3.494-4.439
        c0-2.453,1.563-4.44,3.494-4.44C160.944,222.365,162.506,224.353,162.506,226.806"/>
      <path fill="#D1BA98" d="M172.165,221.517c0,2.453-1.562,4.441-3.494,4.441c-1.929,0-3.493-1.988-3.493-4.441
        c0-2.451,1.564-4.438,3.493-4.438C170.603,217.078,172.165,219.065,172.165,221.517"/>
      <path fill="#D1BA98" d="M149.536,218.981c0,2.453-1.564,4.441-3.493,4.441c-1.931,0-3.495-1.988-3.495-4.441
        c0-2.451,1.564-4.438,3.495-4.438C147.972,214.543,149.536,216.53,149.536,218.981"/>
      <path fill="#96B584" d="M153.196,202.204c-21.274,4.801-30.52,28.888-34.002,37.258c14.888-11.52,33.717-28.709,41.178-28.291
        c-1.238,12.49,1.427,22.455-0.839,31.826c6.887-7.709,11.51-20.805,11.919-26.121c5.85,10.947,13.765,24.64,15.173,32.529
        c0,0,2.496-27.988-4.981-38.806c-7.474-10.817-10.375-13.334-10.375-13.334s2.629-11.084,5.464-10.726
        c-10.97,2.765-10.138,5.299-11.727,7.244c-3.854-3.445-28.882-7.082-42.067,5.815C133.268,196.442,149.608,198.794,153.196,202.204"
        />
      <path fill="#D1BA98" d="M166.657,219.194c-0.147,2.445-1.828,4.338-3.755,4.221c-1.926-0.116-3.367-2.195-3.221-4.643
        c0.149-2.449,1.83-4.338,3.756-4.223C165.364,214.668,166.805,216.743,166.657,219.194"/>
      <path fill="#D1BA98" d="M153.479,212.677c-0.512,2.398-2.456,4.019-4.344,3.613c-1.886-0.402-3.002-2.674-2.489-5.072
        c0.513-2.397,2.456-4.016,4.346-3.612C152.877,208.009,153.991,210.279,153.479,212.677"/>
      <path fill="#CBE1B7" d="M168.641,213.647c1.127,26.938,9.338,33.293,4.741,61.707c15.21-37.186,7.571-42.506,5.847-62.379
        c15.256,8.451,18.207,29.49,16.367,39.719c7.099-13.584,4.496-41.553-9.06-46.771c3.835-2.732,16.765,1.061,18.515,2.09
        c-1.75-1.029-14.551-9.279-27.033-8.188c3.318-7.091,20.607-4.524,25.887-3.851c-7.979-4.772-24.35-11.065-35.426-2.024
        c-6.895-18.585-41.33-10.539-53.728,4.606c10.529-2.595,29.632-11.429,35.275-2.101c-29.385-1.067-34.874,22.099-42.722,31.026
        c15.916-13.268,30.771-22.44,47.15-18.321c-9.167,4.543-23.428,32.829-8.413,59.301
        C144.219,244.882,159.344,217.106,168.641,213.647"/>
    </g>
  </g>
  <!--Panda-->
  <g class="animated rollIn delay2s">
    <path fill="#4B4B4D" d="M284.79,355.343c-3.945,15.228-6.77,20.304-6.77,20.304s4.888-2.187,8.834,0.635
      c2.315,1.652,6.463,7.049,4.138,16.354s6.396,10.643,6.415,14.492c0.063,12.688-65.629,11.379-81.982-1.592
      c-16.354-12.969-24.248-48.5-12.97-74.439c11.277-25.943,28.195-14.1,28.195-14.1L284.79,355.343z"/>
    <path fill="#4B4B4D" d="M289.864,356.473c2.259,10.713,12.974,60.905,38.351,60.905s60.321-25.256,34.817-99.979
      C347.128,270.806,289.864,356.473,289.864,356.473"/>
    <path fill="#4B4B4D" d="M214.928,254.538c-4.34,13.029,3.315,17.342,16.851,10.574c13.534-6.767,36.431-37.945,15.911-59.373
      c-20.52-21.431-19.295-22.397-4.068-26.91c15.227-4.514,32.693-27.596,10.988-30.151c-21.703-2.558-61.783-6.457-63.436,18.873
      C187.791,219.434,227.895,215.606,214.928,254.538"/>
    <path fill="#4B4B4D" d="M316.633,204.751c0,0,12.972,1.551,24.812,9.164c11.844,7.613,17.062,25.66,23.405,30.734
      c6.344,5.077,22.416,13.254,17.765,35.248c-4.653,21.992-14.25,17.486-19.677,31.865c-5.428,14.383-7.379,7.912-7.379,7.912
      S315.786,217.02,316.633,204.751"/>
    <path fill="#FBFBFC" d="M323.673,206.087c0.434,16.808,15.122,13.938,13.346,39.64c-0.338,5.185,53.347,68.878-4.299,102.708
      c-26.647,15.639-43.562,2.604-40.197,19.403c-1.338,3.875-10.911,3.785-12.18,2.238c0.141-3.8-6.838-7.545-12.336-8.392
      c-5.498-0.846-65.104-2.584-70.846-50.473c-3.525-29.395,12.906-42.082,17.768-56.676c-0.639,12.053,8.879,7.824,13.955,3.807
      c5.074-4.018,29.381-24.691,18.807-52.604C261.79,201.317,298.586,198.155,323.673,206.087"/>
    <path fill="#F6F5F6" d="M268.006,361.688c-5.498-0.847-65.104-2.584-70.846-50.474c-3.525-29.395,12.906-42.082,17.768-56.675
      c-0.639,12.052,8.879,7.823,13.955,3.806c5.074-4.017,29.381-24.691,18.807-52.605c22.271,32.139-18.883,56.605-30.734,80.408
      C200.043,320.107,204.668,343.273,268.006,361.688"/>
    <path fill="#4B4B4D" d="M254.189,202.888c1.692,11.47,5.634,39.103,29.887,39.103s26.45-19.22,29.892-35.528
      C317.406,190.154,254.189,202.888,254.189,202.888"/>
    <path fill="#FBFBFC" d="M285.231,221.124c13.811-0.41,14.239-6.768,21.854-8.459c7.612-1.69,27.597-14.588,27.173-26.43
      c-0.422-11.843-9.339-12.906-8.953-23.056c0.39-10.151-13.963-29.185-34.914-29.608c-20.95-0.422-47.807,8.672-47.807,24.955
      c0,12.055-11.083,11.77-10.682,24.959c0.399,13.191,8.977,25.209,25.579,27.412C265.424,211.95,270.993,221.548,285.231,221.124"/>
    <path fill="#4B4B4D" d="M247.916,156.411c0.847-6.133,7.87-13.322,13.345-13.11C254.895,118.346,224.652,142.243,247.916,156.411"/>
    <path fill="#4B4B4D" d="M307.34,143.3c5.923,2.326,12.899,8.883,12.688,13.111c4.864-1.48,11.76-11.72,6.474-18.91
      C321.215,130.312,307.978,132.726,307.34,143.3"/>
    <path fill="#4B4B4D" d="M267.653,160.782c3.927,0.385,9.306,16.072-2.819,25.377c-12.125,9.306-20.582,9.871-23.405,4.795
      c-2.82-5.075-2.254-13.254,8.743-15.793C261.169,172.624,253.272,159.372,267.653,160.782"/>
    <path fill="#FBFBFC" d="M264.268,166.985c-2.254,0-3.947,8.492-1.127,8.492S266.526,166.985,264.268,166.985"/>
    <path fill="#4B4B4D" d="M298.295,160.782c-3.928,0.385-9.308,16.072,2.819,25.377c12.123,9.306,20.582,9.871,23.403,4.795
      c2.82-5.075,2.256-13.254-8.743-15.793C304.779,172.624,312.677,159.372,298.295,160.782"/>
    <path fill="#FBFBFC" d="M301.678,166.985c2.257,0,3.949,8.492,1.13,8.492C299.987,175.478,299.422,166.985,301.678,166.985"/>
    <path fill="#4B4B4D" d="M282.881,185.878c16.481,0,10.381,8.617-0.154,13.094C273.147,193.798,266.399,185.878,282.881,185.878"/>
    <path fill="#E7D5E7" d="M263.284,203.085c11.887,4.205,14.467-0.867,15.407-0.405c0.942,0.457,2.675,2.616,3.756,2.801
      c0.97,0.166,2.229-2.685,3.226-2.59c1.351,0.127,4.123,4.438,16.989-2.198C290.341,215.737,274.281,214.081,263.284,203.085"/>
  </g>
  <!--Scarf-->
  <g class="animated fadeIn delay2800ms">
    <path fill="#FFFDFA" d="M316.633,204.751c0,0,12.244,1.74,19.479,6.146c19.388,94.589-97.936,120.167-124.815,129.734
      c-9.918-8.863-12.902-22.664-12.902-22.664S336.865,279.182,316.633,204.751"/>
    <path fill="#F8D7C8" d="M226.215,332.409l3.502-1.271c0,0-2.512-4.707-3.502-6.061c5.758-2.539,3.502-15.252-8.482-8.766
      C219.903,319.486,226.215,332.409,226.215,332.409"/>
    <polygon fill="#F8D7C8" points="234.03,310.409 237.553,308.575 254.19,321.688 250.042,323.236 236.872,312.064 238.259,327.893
      235.016,329.441 "/>
    <path fill="#F8D7C8" d="M258.76,319.714l-10.433-14.803l2.679-1.693c0,0,17.357,9.164,16.574,8.248s-8.961-12.194-8.961-12.194
      l2.256-1.832l10.292,14.381l-2.671,2.256l-14.811-6.346l7.754,10.293L258.76,319.714z"/>
    <path fill="#F8D7C8" d="M275.88,309.939l-8.688-15.024c0,0,7.331-6.687,12.407,1.772C284.675,305.146,275.88,309.939,275.88,309.939
      "/>
    <path fill="#FFFDFA" d="M277.018,305.257l-5.666-9.801c0,0,4.277-1.084,6.363,2.793
      C279.803,302.126,277.018,305.257,277.018,305.257"/>
    <path fill="#F8D7C8" d="M287.256,303.146c0-1.27-4.937-15.932-4.937-15.932l2.47-1.832l12.619,8.881l-1.889,1.789l-10.325-7.674
      l4.034,12.908L287.256,303.146z"/>
    <path fill="#F8D7C8" d="M304.846,272.438c-1.372-0.74-3.604-3.949-0.93-7.612c2.674-3.666,7.027-1.2,7.592,0.774
      c0.564,1.976,1.564,9.625,1.564,9.625l3.793-6.101l1.973,1.128l-5.356,8.743l-2.396-1.838c0,0-1.119-8.373-1.475-9.753
      c-0.357-1.381-2.471-2.122-3.39-0.993c-0.916,1.127-1.483,3.192,0.065,4.179C305.653,271.401,305.235,272.085,304.846,272.438"/>
    <path fill="#F8D7C8" d="M312.236,254.591c1.533-4.674,15.556-0.889,13.16,5.455C323.005,266.39,310.139,260.98,312.236,254.591"/>
    <path fill="#FFFDFA" d="M314.894,255.839c0.915-2.793,9.297-0.53,7.864,3.261C321.328,262.891,313.639,259.655,314.894,255.839"/>
    <polygon fill="#F8D7C8" points="318.839,247.7 321.021,248.547 321.021,245.021 331.317,249.463 331.317,247.024 318.839,241.991
      "/>
    <path fill="#F8D7C8" d="M321.846,229.538c-0.135,0.354-1.334,7.121-1.334,7.121l5.394,1.549c0,0,0.096-4.2,3.902-3.285
      c3.807,0.916,1.139,5.471,1.139,5.471l1.621,0.495c0,0,2.891-6.321-2.607-7.754c-4.055-1.06-5.146,3.172-5.146,3.172l-2.131-0.659
      l1.215-5.545L321.846,229.538z"/>
    <polygon fill="#F8D7C8" points="236.133,319.009 242.37,315.343 244.11,317.177 236.66,321.794 "/>
    <path fill="#F8D7C8" d="M285.831,294.725l4.547-4.229c0,0,2.323,1.498,2.111,1.912c-0.211,0.413-6.025,4.221-6.025,4.221
      L285.831,294.725z"/>
    <path fill="#FFFDFA" d="M224.819,322.534l-2.854-5.287c0,0,3.065-0.74,3.912,1.319C226.721,320.63,225.77,321.688,224.819,322.534"
      />
  </g>
  <!--Text-->
  <g class="animated rotateInUpLeft delay3s">
    <path fill="#F8D0A0" d="M149.318,418.173c1.906-2.276,4.16-3.521,6.805-3.735c2.662-0.236,5.1,0.592,7.332,2.459
      c1.771,1.481,2.913,3.299,3.4,5.428c0.072,0.334-0.059,0.539-0.413,0.633l-3.425,0.773c-0.398,0.057-0.603-0.074-0.636-0.453
      c-0.187-1.136-0.787-2.146-1.777-2.975c-2.484-2.08-5.344-1.656-7.558,0.989l-1.117,1.334c-2.176,2.603-2.09,5.49,0.396,7.57
      c0.942,0.789,2.003,1.207,3.197,1.229c0.36-0.012,0.568,0.162,0.556,0.504l-0.149,3.593c0.026,0.295-0.27,0.557-0.55,0.518
      c-2.117-0.09-4.086-0.916-5.904-2.438c-2.278-1.906-3.521-4.16-3.773-6.759c-0.233-2.619,0.595-5.057,2.501-7.336L149.318,418.173z"
      />
    <path fill="#F8D0A0" d="M165.597,431.532c1.631-2.48,3.728-3.978,6.303-4.508c2.576-0.533,5.094,0.008,7.574,1.639
      c2.482,1.633,3.978,3.729,4.51,6.305c0.532,2.574-0.009,5.092-1.64,7.574l-0.956,1.453c-1.632,2.481-3.744,4.002-6.32,4.535
      c-2.559,0.508-5.075-0.033-7.558-1.666c-2.482-1.631-3.976-3.728-4.526-6.277c-0.531-2.576,0.025-5.117,1.657-7.6L165.597,431.532z
       M168.702,435.657c-1.929,2.934-1.437,5.733,1.247,7.498c2.683,1.762,5.448,1.104,7.378-1.83l0.955-1.453
      c1.928-2.934,1.436-5.734-1.247-7.498s-5.449-1.105-7.377,1.828L168.702,435.657z"/>
    <path fill="#F8D0A0" d="M199.034,440.245c2.693,1.322,4.478,3.201,5.326,5.625c0.862,2.396,0.652,4.934-0.631,7.545l-0.767,1.562
      c-1.429,2.908-3.686,4.709-6.083,5.236c-2.398,0.527-4.897,0.168-7.187-0.955l-6.355-3.123c-0.242-0.119-0.353-0.438-0.232-0.682
      l8.891-18.1c0.119-0.242,0.439-0.353,0.682-0.232L199.034,440.245z M194.921,443.038c-0.189-0.094-0.351-0.039-0.442,0.149
      l-5.238,10.664c-0.093,0.189-0.038,0.351,0.15,0.443l2.208,1.084c2.828,1.389,5.532,0.443,7.001-2.545l0.768-1.562
      c1.481-3.016,0.644-5.733-2.238-7.149L194.921,443.038z"/>
    <path fill="#F8D0A0" d="M212.722,447.073c0.091-0.254,0.397-0.4,0.652-0.31l12.766,4.56c0.254,0.09,0.428,0.408,0.337,0.662
      l-1.108,3.104c-0.092,0.256-0.427,0.392-0.682,0.299l-8.416-3.004c-0.197-0.071-0.351,0-0.422,0.199l-1.251,3.502
      c-0.07,0.197,0.002,0.353,0.2,0.422l6.101,2.178c0.312,0.111,0.438,0.38,0.327,0.689l-0.968,2.713
      c-0.091,0.254-0.426,0.389-0.681,0.299l-6.101-2.18c-0.198-0.07-0.351,0.002-0.432,0.229l-1.19,3.331
      c-0.069,0.197,0.002,0.353,0.2,0.423l8.417,3.006c0.254,0.09,0.427,0.408,0.336,0.662l-1.108,3.104
      c-0.092,0.256-0.427,0.392-0.681,0.299l-12.766-4.559c-0.254-0.09-0.4-0.396-0.31-0.65L212.722,447.073z"/>
    <path fill="#F8D0A0" d="M240.068,455.606c0.053-0.267,0.364-0.449,0.628-0.396l3.681,0.727c0.265,0.054,0.454,0.335,0.4,0.601
      l-3.104,15.719c-0.041,0.205,0.054,0.346,0.289,0.394l7.624,1.506c0.265,0.053,0.454,0.334,0.4,0.6l-0.639,3.238
      c-0.052,0.264-0.335,0.453-0.599,0.399l-12.157-2.399c-0.265-0.053-0.483-0.34-0.431-0.605L240.068,455.606z"/>
    <path fill="#F8D0A0" d="M255.723,467.997c0.256-2.959,1.388-5.271,3.401-6.965s4.484-2.414,7.443-2.158
      c2.96,0.256,5.271,1.389,6.966,3.4c1.692,2.014,2.412,4.483,2.157,7.444l-0.149,1.732c-0.255,2.959-1.391,5.301-3.403,6.994
      c-2.011,1.664-4.482,2.385-7.442,2.129c-2.959-0.256-5.27-1.39-6.967-3.371c-1.692-2.014-2.411-4.514-2.155-7.476L255.723,467.997z
       M260.416,470.147c-0.303,3.497,1.463,5.729,4.662,6.004c3.197,0.274,5.318-1.619,5.62-5.117l0.15-1.732
      c0.301-3.498-1.464-5.729-4.662-6.004c-3.199-0.274-5.318,1.619-5.621,5.117L260.416,470.147z"/>
    <path fill="#F8D0A0" d="M281.235,469.851c-0.118-2.967,0.713-5.399,2.496-7.334c1.784-1.934,4.146-2.959,7.111-3.077
      c2.966-0.119,5.402,0.713,7.334,2.497c1.933,1.783,2.959,4.144,3.078,7.109l0.068,1.738c0.119,2.967-0.713,5.432-2.495,7.363
      c-1.784,1.903-4.146,2.93-7.11,3.049c-2.967,0.119-5.403-0.713-7.334-2.468c-1.932-1.782-2.959-4.174-3.078-7.141L281.235,469.851z
       M286.16,471.394c0.141,3.507,2.172,5.496,5.379,5.367c3.205-0.129,5.068-2.274,4.93-5.78l-0.071-1.738
      c-0.14-3.506-2.172-5.496-5.379-5.367s-5.07,2.275-4.929,5.781L286.16,471.394z"/>
    <path fill="#F8D0A0" d="M306.105,459.188c-0.044-0.267,0.153-0.541,0.422-0.587l3.698-0.604c0.269-0.045,0.543,0.154,0.586,0.42
      l1.296,7.904c0.034,0.207,0.172,0.305,0.379,0.271l0.119-0.02c1.807-0.295,3.131-1.304,3.997-3.058
      c0.867-1.752,1.193-3.66,1.007-5.727l-0.048-0.479c-0.055-0.325,0.095-0.532,0.449-0.592l3.851-0.631
      c0.323-0.053,0.576,0.18,0.59,0.451l0.072,0.627c0.368,3.92-0.834,7.522-3.224,10.012c-0.151,0.178-0.153,0.359-0.035,0.521
      l7.107,8.319c0.262,0.291,0.068,0.779-0.316,0.843l-4.293,0.702c-0.207,0.035-0.369-0.028-0.487-0.192l-5.845-7.279
      c-0.151-0.188-0.34-0.219-0.571-0.149c-0.459,0.168-1.017,0.289-1.638,0.391l-0.119,0.02c-0.206,0.033-0.307,0.173-0.268,0.408
      l1.238,7.549c0.043,0.267-0.157,0.543-0.422,0.586l-3.699,0.605c-0.269,0.045-0.543-0.152-0.586-0.42L306.105,459.188z"/>
    <path fill="#F8D0A0" d="M340.186,453.103c0.315,0.132,0.407,0.354,0.278,0.671l-1.36,3.397c-0.14,0.287-0.435,0.463-0.729,0.295
      c-1.076-0.51-2.135-0.621-3.146-0.34c-1.648,0.457-2.298,1.26-1.984,2.389l0.022,0.086c0.33,1.187,1.449,1.404,4.617,1.148
      c4.047-0.346,6.484,1.033,7.359,4.187l0.031,0.114c0.555,1.996,0.28,3.814-0.865,5.41c-1.146,1.594-2.894,2.703-5.293,3.369
      c-2.4,0.666-5.305,0.414-7.539-0.461c-0.271-0.08-0.434-0.441-0.289-0.699l1.375-3.463c0.131-0.318,0.361-0.383,0.678-0.25
      c1.326,0.627,3.16,0.834,4.547,0.449c2.197-0.611,2.966-1.664,2.646-2.82l-0.033-0.115c-0.084-0.756-0.799-1.086-1.438-1.252
      c-0.168-0.047-0.49-0.082-0.927-0.086l-1.057,0.015l-1.352,0.062c-0.066-0.012-0.152,0.012-0.277,0.016l-1.478,0.068
      c-0.342,0-0.858-0.074-1.52-0.203c-0.629-0.137-1.18-0.326-1.602-0.613c-0.81-0.555-1.802-1.772-2.283-3.51l-0.031-0.115
      c-0.521-1.879-0.273-3.567,0.715-5.057c1.017-1.496,2.59-2.557,4.73-3.15C336.007,452.083,338.072,452.226,340.186,453.103"/>
    <path fill="#F8D0A0" d="M354.514,446.601c-0.109-0.245,0.038-0.573,0.284-0.684l3.427-1.525c0.248-0.108,0.562,0.013,0.674,0.261
      l6.51,14.633c0.085,0.193,0.244,0.254,0.462,0.156l7.099-3.158c0.248-0.109,0.564,0.012,0.675,0.26l1.342,3.014
      c0.108,0.246-0.012,0.562-0.26,0.675l-11.318,5.034c-0.247,0.109-0.59,0-0.7-0.247L354.514,446.601z"/>
    <path fill="#F8D0A0" d="M371.293,438.696c-0.131-0.238-0.031-0.562,0.203-0.691l3.322-1.805c0.239-0.127,0.563-0.031,0.692,0.205
      l9.619,17.719c0.129,0.238,0.029,0.563-0.205,0.691l-3.322,1.805c-0.239,0.129-0.563,0.031-0.692-0.205L371.293,438.696z"/>
    <path fill="#F8D0A0" d="M380.971,433.419c-0.15-0.225-0.082-0.559,0.143-0.707l3.127-2.07c0.225-0.147,0.557-0.079,0.707,0.146
      l4.419,6.678c0.116,0.176,0.282,0.209,0.458,0.094l0.1-0.065c1.525-1.01,2.319-2.474,2.396-4.426
      c0.072-1.955-0.412-3.828-1.43-5.638l-0.24-0.418c-0.183-0.272-0.131-0.522,0.168-0.723l3.252-2.152
      c0.274-0.182,0.6-0.071,0.723,0.17l0.324,0.541c1.943,3.427,2.322,7.203,1.164,10.451c-0.068,0.226,0.005,0.394,0.18,0.492
      l9.894,4.674c0.356,0.158,0.381,0.685,0.055,0.898l-3.625,2.399c-0.176,0.115-0.35,0.123-0.525,0.023l-8.312-4.244
      c-0.215-0.109-0.398-0.061-0.582,0.098c-0.353,0.341-0.81,0.681-1.334,1.027l-0.101,0.066c-0.176,0.114-0.209,0.28-0.077,0.481
      l4.223,6.377c0.148,0.226,0.082,0.558-0.146,0.707l-3.125,2.068c-0.228,0.147-0.56,0.082-0.706-0.144L380.971,433.419z"/>
    <path fill="#F8D0A0" d="M399.131,420.919c-0.176-0.207-0.145-0.545,0.062-0.719l10.415-8.685c0.207-0.172,0.568-0.16,0.742,0.047
      l2.113,2.533c0.172,0.209,0.118,0.564-0.092,0.738l-6.863,5.725c-0.162,0.135-0.178,0.306-0.043,0.465l2.383,2.857
      c0.135,0.16,0.302,0.176,0.465,0.041l4.976-4.148c0.255-0.211,0.551-0.186,0.764,0.068l1.844,2.213
      c0.171,0.207,0.119,0.564-0.088,0.736l-4.979,4.15c-0.161,0.135-0.178,0.303-0.021,0.487l2.265,2.72
      c0.136,0.159,0.306,0.176,0.465,0.041l6.867-5.726c0.207-0.172,0.569-0.162,0.741,0.047l2.113,2.533
      c0.174,0.207,0.118,0.564-0.088,0.738l-10.414,8.684c-0.207,0.172-0.546,0.144-0.721-0.065L399.131,420.919z"/>
    <path fill="#F8D0A0" d="M118.464,136.786c-0.212-0.168-0.251-0.504-0.083-0.717l9.353-11.804c0.168-0.211,0.504-0.25,0.717-0.083
      l2.587,2.05c0.211,0.167,0.25,0.505,0.083,0.716l-2.981,3.764c-0.131,0.164-0.111,0.332,0.077,0.482l12.533,9.93
      c0.258,0.205,0.288,0.457,0.063,0.74l-2.329,2.938c-0.205,0.258-0.458,0.288-0.716,0.083l-12.533-9.931
      c-0.188-0.148-0.356-0.129-0.506,0.059l-2.962,3.738c-0.168,0.211-0.505,0.25-0.717,0.084L118.464,136.786z"/>
    <path fill="#F8D0A0" d="M133.226,118.751c-0.189-0.191-0.168-0.553,0.024-0.742l2.661-2.645c0.19-0.189,0.529-0.189,0.721,0.002
      l5.541,5.577c0.147,0.149,0.318,0.149,0.488-0.019l5.513-5.479c0.148-0.148,0.15-0.316,0.002-0.467l-5.541-5.577
      c-0.191-0.19-0.168-0.551,0.023-0.741l2.66-2.644c0.192-0.19,0.531-0.19,0.722,0.002l14.212,14.304
      c0.19,0.192,0.188,0.531-0.002,0.721l-2.661,2.644c-0.192,0.19-0.552,0.211-0.742,0.021l-5.414-5.449
      c-0.17-0.172-0.339-0.172-0.489-0.024l-5.512,5.478c-0.171,0.17-0.171,0.34-0.002,0.511l5.414,5.448
      c0.19,0.191,0.189,0.531-0.003,0.722l-2.66,2.644c-0.192,0.19-0.553,0.211-0.743,0.02L133.226,118.751z"/>
    <path fill="#F8D0A0" d="M152.506,100.636c-0.171-0.209-0.137-0.547,0.072-0.717l2.926-2.393c0.209-0.171,0.547-0.137,0.718,0.072
      l12.756,15.605c0.171,0.209,0.136,0.547-0.073,0.719l-2.926,2.392c-0.209,0.171-0.546,0.136-0.717-0.073L152.506,100.636z"/>
    <path fill="#F8D0A0" d="M174.255,86.171c0.341,0.021,0.501,0.201,0.479,0.543l-0.191,3.656c-0.038,0.317-0.26,0.577-0.594,0.514
      c-1.184-0.137-2.222,0.1-3.089,0.692c-1.412,0.966-1.768,1.935-1.107,2.901l0.051,0.074c0.694,1.015,1.824,0.861,4.74-0.402
      c3.718-1.631,6.471-1.113,8.314,1.588l0.068,0.1c1.167,1.709,1.495,3.521,0.926,5.398c-0.57,1.879-1.868,3.493-3.924,4.896
      c-2.057,1.404-4.887,2.102-7.285,1.996c-0.284,0.012-0.553-0.276-0.498-0.568l0.184-3.723c0.021-0.342,0.219-0.478,0.561-0.457
      c1.459,0.168,3.26-0.228,4.449-1.039c1.884-1.285,2.27-2.53,1.593-3.522l-0.068-0.099c-0.323-0.688-1.106-0.771-1.764-0.721
      c-0.175,0.01-0.491,0.08-0.905,0.219l-0.994,0.352l-1.26,0.497c-0.066,0.009-0.141,0.06-0.257,0.103l-1.376,0.539
      c-0.323,0.112-0.838,0.209-1.503,0.301c-0.64,0.072-1.222,0.072-1.715-0.065c-0.943-0.263-2.276-1.097-3.292-2.585l-0.067-0.098
      c-1.1-1.611-1.41-3.289-0.955-5.018c0.48-1.744,1.628-3.256,3.462-4.508C169.973,86.552,171.973,86.021,174.255,86.171"/>
    <path fill="#F8D0A0" d="M189.817,75.81c-0.121-0.24-0.014-0.562,0.228-0.685l3.378-1.694c0.242-0.121,0.562-0.016,0.685,0.227
      l9.043,18.016c0.122,0.241,0.016,0.563-0.226,0.684l-3.378,1.697c-0.242,0.121-0.564,0.014-0.686-0.227L189.817,75.81z"/>
    <path fill="#F8D0A0" d="M214.21,66.46c0.329,0.097,0.444,0.309,0.35,0.637l-0.989,3.523c-0.106,0.301-0.38,0.506-0.691,0.371
      c-1.124-0.392-2.188-0.388-3.164,0c-1.588,0.631-2.148,1.498-1.715,2.586l0.033,0.084c0.453,1.143,1.59,1.239,4.711,0.646
      c3.984-0.777,6.556,0.332,7.763,3.37l0.044,0.111c0.765,1.924,0.688,3.762-0.279,5.471c-0.968,1.707-2.586,2.996-4.899,3.916
      c-2.314,0.92-5.228,0.979-7.543,0.35c-0.279-0.05-0.479-0.391-0.361-0.663l0.994-3.59c0.096-0.33,0.317-0.417,0.646-0.323
      c1.387,0.483,3.23,0.492,4.568-0.039c2.118-0.843,2.767-1.971,2.324-3.086l-0.044-0.111c-0.165-0.741-0.912-0.994-1.563-1.09
      c-0.173-0.029-0.496-0.029-0.93,0.015l-1.048,0.126l-1.337,0.208c-0.067-0.007-0.151,0.026-0.273,0.044l-1.46,0.225
      c-0.34,0.038-0.864,0.021-1.532-0.037c-0.641-0.068-1.208-0.197-1.659-0.438c-0.861-0.465-1.979-1.57-2.644-3.242l-0.045-0.111
      c-0.72-1.812-0.654-3.517,0.168-5.103c0.85-1.597,2.302-2.82,4.365-3.64C209.95,65.895,212.017,65.814,214.21,66.46"/>
    <path fill="#F8D0A0" d="M232.159,59.442c-0.057-0.265,0.158-0.556,0.423-0.61l3.67-0.774c0.264-0.056,0.549,0.129,0.604,0.395
      l1.624,7.691c0.043,0.205,0.186,0.297,0.42,0.248l7.604-1.604c0.205-0.044,0.298-0.187,0.255-0.392l-1.623-7.69
      c-0.057-0.265,0.158-0.556,0.422-0.612l3.67-0.772c0.265-0.057,0.549,0.129,0.605,0.395l4.163,19.729
      c0.056,0.264-0.13,0.547-0.395,0.604l-3.67,0.774c-0.264,0.056-0.578-0.125-0.633-0.389l-1.586-7.515
      c-0.05-0.235-0.192-0.329-0.398-0.285l-7.603,1.604c-0.235,0.05-0.328,0.191-0.279,0.428l1.586,7.515
      c0.058,0.265-0.129,0.548-0.393,0.604l-3.67,0.773c-0.265,0.057-0.578-0.123-0.635-0.386L232.159,59.442z"/>
    <path fill="#F8D0A0" d="M258.664,63.685c-0.22-2.963,0.531-5.426,2.249-7.418c1.719-1.992,4.044-3.098,7.006-3.315
      c2.963-0.22,5.425,0.53,7.417,2.25c1.992,1.717,3.097,4.043,3.315,7.005l0.129,1.734c0.22,2.964-0.529,5.455-2.247,7.447
      c-1.721,1.963-4.046,3.068-7.008,3.287c-2.963,0.219-5.425-0.531-7.415-2.22c-1.992-1.718-3.099-4.074-3.318-7.036L258.664,63.685z
       M263.64,65.062c0.259,3.5,2.356,5.422,5.559,5.185c3.201-0.237,4.993-2.446,4.734-5.946l-0.128-1.736
      c-0.259-3.5-2.355-5.422-5.559-5.185c-3.201,0.237-4.993,2.446-4.734,5.947L263.64,65.062z"/>
    <path fill="#F8D0A0" d="M284.089,52.771c-0.101-0.277,0.135-0.592,0.463-0.566l3.95,0.295c0.33,0.023,0.556,0.221,0.621,0.557
      l2.773,12.422c0.074,0.217,0.283,0.263,0.447,0.064l5.834-10.879c0.105-0.203,0.232-0.284,0.441-0.268l0.091,0.006
      c0.211,0.016,0.321,0.115,0.396,0.33l4.132,11.621c0.106,0.158,0.312,0.233,0.45,0.004l4.584-11.875
      c0.115-0.322,0.367-0.483,0.697-0.459l3.92,0.291c0.328,0.024,0.543,0.371,0.405,0.633l-8.106,19.555
      c-0.114,0.323-0.364,0.455-0.694,0.43l-2.004-0.148c-0.33-0.025-0.528-0.159-0.601-0.436l-3.744-10.328
      c-0.019-0.152-0.379-0.18-0.42-0.031l-5.23,9.66c-0.141,0.26-0.358,0.363-0.656,0.342l-2.006-0.15
      c-0.328-0.023-0.559-0.191-0.623-0.527L284.089,52.771z"/>
    <path fill="#F8D0A0" d="M329.991,58.455c0.072-0.261,0.367-0.429,0.626-0.358l9.084,2.492c1.649,0.452,2.864,1.469,3.694,3.096
      c0.836,1.6,1.03,3.271,0.547,5.034l-0.055,0.203c-0.518,1.88-1.562,3.306-3.097,4.252c-1.535,0.949-3.216,1.172-5.037,0.672
      l-4.34-1.19c-0.229-0.063-0.38,0.021-0.434,0.225l-1.724,6.277c-0.086,0.318-0.309,0.443-0.627,0.356l-3.614-0.991
      c-0.318-0.088-0.445-0.309-0.357-0.627L329.991,58.455z M333.932,63.485c-0.23-0.063-0.38,0.021-0.441,0.252l-1.295,4.715
      c-0.062,0.232,0.021,0.38,0.252,0.443l2.921,0.801c1.536,0.42,2.795-0.321,3.233-1.914l0.055-0.201
      c0.445-1.62-0.241-2.866-1.832-3.303L333.932,63.485z"/>
    <path fill="#F8D0A0" d="M356.044,66.507c0.211-0.209,0.461-0.273,0.74-0.164l0.669,0.26c0.282,0.108,0.423,0.324,0.437,0.619
      l0.69,21.859c-0.005,0.352-0.337,0.544-0.646,0.426l-3.638-1.41c-0.307-0.121-0.449-0.336-0.463-0.631l-0.024-1.844
      c-0.031-0.334-0.173-0.55-0.425-0.648l-5.985-2.32c-0.25-0.098-0.5-0.034-0.75,0.191l-1.263,1.344
      c-0.209,0.209-0.459,0.272-0.767,0.154l-3.636-1.41c-0.31-0.121-0.424-0.486-0.191-0.75L356.044,66.507z M349.809,79.435
      c-0.16,0.164-0.121,0.309,0.075,0.385l3.58,1.388c0.195,0.077,0.322-0.002,0.314-0.231l-0.099-5.058
      c-0.008-0.228-0.231-0.315-0.392-0.151L349.809,79.435z"/>
    <path fill="#F8D0A0" d="M372.14,73.364c0.128-0.237,0.479-0.32,0.718-0.192l0.396,0.213c0.185,0.101,0.286,0.224,0.336,0.388
      l4.474,14.891c0.049,0.164,0.301,0.265,0.414,0.055l4.987-9.24c0.129-0.238,0.453-0.335,0.691-0.207l3.298,1.782
      c0.239,0.128,0.362,0.468,0.235,0.706l-9.578,17.738c-0.129,0.238-0.48,0.32-0.717,0.193l-0.449-0.242
      c-0.187-0.102-0.326-0.279-0.39-0.482l-4.342-14.754c-0.061-0.203-0.326-0.279-0.438-0.068l-4.989,9.24
      c-0.128,0.236-0.453,0.334-0.69,0.206l-3.299-1.782c-0.237-0.128-0.36-0.467-0.233-0.705L372.14,73.364z"/>
    <path fill="#F8D0A0" d="M401.674,90.522c2.435,1.752,3.882,3.9,4.315,6.43c0.45,2.506-0.179,4.973-1.877,7.335l-1.017,1.412
      c-1.891,2.631-4.414,4.032-6.865,4.153c-2.452,0.119-4.854-0.648-6.926-2.137l-5.748-4.135c-0.218-0.158-0.272-0.492-0.115-0.712
      l11.772-16.364c0.155-0.22,0.491-0.273,0.71-0.117L401.674,90.522z M397.154,92.593c-0.171-0.123-0.339-0.096-0.462,0.074
      l-6.937,9.646c-0.122,0.17-0.095,0.338,0.075,0.46l1.996,1.436c2.559,1.84,5.381,1.358,7.323-1.345l1.02-1.414
      c1.961-2.728,1.586-5.545-1.021-7.42L397.154,92.593z"/>
    <path fill="#F8D0A0" d="M420.234,106.027c0.271-0.119,0.526-0.087,0.748,0.116l0.53,0.486c0.222,0.201,0.275,0.454,0.183,0.735
      l-7.297,20.61c-0.136,0.324-0.515,0.384-0.757,0.16l-2.875-2.635c-0.243-0.222-0.297-0.475-0.202-0.755l0.646-1.726
      c0.092-0.322,0.038-0.575-0.16-0.758l-4.731-4.336c-0.197-0.184-0.455-0.215-0.769-0.095l-1.664,0.794
      c-0.27,0.118-0.524,0.088-0.77-0.136l-2.875-2.634c-0.243-0.223-0.217-0.607,0.096-0.77L420.234,106.027z M409.728,115.804
      c-0.206,0.094-0.223,0.242-0.067,0.385l2.83,2.594c0.156,0.143,0.303,0.113,0.379-0.102l1.746-4.746
      c0.076-0.215-0.103-0.377-0.312-0.283L409.728,115.804z"/>
    <path fill="#F8D0A0" d="M440.201,128.933c0.021,0.342-0.143,0.521-0.482,0.539l-3.655,0.231c-0.317-0.001-0.603-0.19-0.578-0.53
      c-0.002-1.19-0.354-2.193-1.045-2.988c-1.121-1.291-2.125-1.531-3.008-0.766l-0.068,0.061c-0.93,0.807-0.644,1.91,0.947,4.66
      c2.049,3.506,1.853,6.299-0.619,8.442l-0.09,0.079c-1.562,1.357-3.324,1.893-5.255,1.543c-1.933-0.35-3.685-1.451-5.317-3.332
      c-1.633-1.88-2.65-4.611-2.82-7.005c-0.046-0.28,0.211-0.581,0.508-0.56l3.716-0.248c0.342-0.02,0.5,0.162,0.518,0.504
      c0.005,1.469,0.604,3.213,1.549,4.3c1.494,1.722,2.773,1.962,3.682,1.174l0.091-0.078c0.646-0.401,0.637-1.188,0.512-1.836
      c-0.029-0.171-0.137-0.478-0.318-0.873l-0.465-0.946l-0.641-1.194c-0.017-0.065-0.076-0.134-0.133-0.243l-0.695-1.305
      c-0.146-0.309-0.305-0.809-0.471-1.459c-0.146-0.627-0.212-1.205-0.134-1.711c0.153-0.967,0.828-2.387,2.187-3.566l0.093-0.079
      c1.474-1.278,3.104-1.78,4.87-1.528c1.789,0.276,3.423,1.242,4.88,2.92C439.329,124.724,440.088,126.647,440.201,128.933"/>
    <path fill="#F8D0A0" d="M447.71,135.515c0.731,0.988,0.534,2.332-0.431,3.047c-1.468,1.092-3.935,1.24-5.998,0.679
      c-0.377-0.056-0.604-0.261-0.644-0.567l-0.104-0.336c-0.068-0.246,0.166-0.533,0.483-0.509c0.942,0.011,1.627-0.124,2.037-0.427
      c0.41-0.305,0.681-0.694,0.793-1.148c0.115-0.498,0.412-0.904,0.818-1.209C445.635,134.328,446.94,134.479,447.71,135.515"/>
  </g>
</svg>
